<svg width="332" height="518" viewBox="0 0 332 518" fill="none" xmlns="http://www.w3.org/2000/svg">
<g filter="url(#filter0_d_149_4423)">
<rect x="11" y="11" width="310" height="80" rx="16" fill="white"/>
<path fill-rule="evenodd" clip-rule="evenodd" d="M37.0003 42.0417C32.0528 42.0417 28.042 46.0525 28.042 51.0001C28.042 52.547 28.4346 54.0039 29.126 55.2749L28.4692 58.8023C28.4315 59.0049 28.496 59.213 28.6417 59.3587C28.7874 59.5043 28.9955 59.5689 29.1981 59.5312L32.7255 58.8745C33.9965 59.5657 35.4534 59.9584 37.0003 59.9584C41.9478 59.9584 45.9587 55.9476 45.9587 51.0001C45.9587 46.0525 41.9478 42.0417 37.0003 42.0417ZM40.7756 49.7753C41.0197 49.5312 41.0197 49.1355 40.7756 48.8915C40.5315 48.6474 40.1358 48.6474 39.8917 48.8915L36.167 52.6162L34.1089 50.5582C33.8649 50.3141 33.4691 50.3141 33.2251 50.5582C32.981 50.8022 32.981 51.1979 33.2251 51.442L35.7251 53.942C35.9692 54.1861 36.3648 54.1861 36.6089 53.942L40.7756 49.7753Z" fill="#ECBA1A"/>
<path d="M65.48 53.528C64.36 54.648 62.9893 55.208 61.368 55.208C59.7467 55.208 58.3707 54.648 57.24 53.528C56.12 52.3973 55.56 51.0213 55.56 49.4C55.56 47.7787 56.12 46.408 57.24 45.288C58.3707 44.1573 59.7467 43.592 61.368 43.592C62.9893 43.592 64.36 44.1573 65.48 45.288C66.6107 46.408 67.176 47.7787 67.176 49.4C67.176 51.0213 66.6107 52.3973 65.48 53.528ZM58.536 52.28C59.3147 53.0373 60.2587 53.416 61.368 53.416C62.488 53.416 63.4267 53.0373 64.184 52.28C64.952 51.512 65.336 50.552 65.336 49.4C65.336 48.248 64.952 47.2933 64.184 46.536C63.4267 45.768 62.488 45.384 61.368 45.384C60.248 45.384 59.304 45.768 58.536 46.536C57.7787 47.2933 57.4 48.248 57.4 49.4C57.4 50.5413 57.7787 51.5013 58.536 52.28ZM72.5184 55.208C71.313 55.208 70.305 54.8027 69.4944 53.992C68.6944 53.1707 68.2944 52.1733 68.2944 51C68.2944 49.8053 68.6944 48.808 69.4944 48.008C70.305 47.1973 71.313 46.792 72.5184 46.792C73.297 46.792 74.0064 46.9787 74.6464 47.352C75.2864 47.7253 75.7664 48.2267 76.0864 48.856L74.5984 49.72C74.417 49.336 74.1397 49.0373 73.7664 48.824C73.4037 48.6 72.9824 48.488 72.5024 48.488C71.7984 48.488 71.2064 48.728 70.7264 49.208C70.257 49.6987 70.0224 50.296 70.0224 51C70.0224 51.704 70.257 52.3013 70.7264 52.792C71.2064 53.272 71.7984 53.512 72.5024 53.512C72.9717 53.512 73.393 53.4053 73.7664 53.192C74.1504 52.968 74.4384 52.664 74.6304 52.28L76.1184 53.128C75.777 53.768 75.281 54.2747 74.6304 54.648C73.9904 55.0213 73.2864 55.208 72.5184 55.208ZM76.4413 47H83.4013V48.664H80.7933V55H79.0653V48.664H76.4413V47ZM90.594 48.136V47H92.322V55H90.594V53.848C89.9433 54.7547 89.01 55.208 87.794 55.208C86.6953 55.208 85.7567 54.8027 84.978 53.992C84.1993 53.1813 83.81 52.184 83.81 51C83.81 49.816 84.1993 48.8187 84.978 48.008C85.7567 47.1973 86.6953 46.792 87.794 46.792C89.01 46.792 89.9433 47.24 90.594 48.136ZM86.258 52.84C86.738 53.32 87.3407 53.56 88.066 53.56C88.7913 53.56 89.394 53.32 89.874 52.84C90.354 52.3493 90.594 51.736 90.594 51C90.594 50.264 90.354 49.656 89.874 49.176C89.394 48.6853 88.7913 48.44 88.066 48.44C87.3407 48.44 86.738 48.6853 86.258 49.176C85.778 49.656 85.538 50.264 85.538 51C85.538 51.7253 85.778 52.3387 86.258 52.84ZM99.8721 50.888C100.661 51.2613 101.056 51.8747 101.056 52.728C101.056 53.4107 100.821 53.96 100.352 54.376C99.8935 54.792 99.2535 55 98.4321 55H94.3361V47H98.1121C98.9228 47 99.5575 47.2027 100.016 47.608C100.475 48.0133 100.704 48.5467 100.704 49.208C100.704 49.9653 100.427 50.5253 99.8721 50.888ZM97.9841 48.472H95.9841V50.248H97.9841C98.6881 50.248 99.0401 49.9493 99.0401 49.352C99.0401 48.7653 98.6881 48.472 97.9841 48.472ZM95.9841 53.496H98.2721C98.9975 53.496 99.3601 53.1813 99.3601 52.552C99.3601 52.2747 99.2641 52.0613 99.0721 51.912C98.8801 51.752 98.6135 51.672 98.2721 51.672H95.9841V53.496ZM104.157 52.072L108.253 47H109.581V55H107.885V49.912L103.789 55H102.461V47H104.157V52.072ZM110.738 47H117.698V48.664H115.09V55H113.362V48.664H110.738V47ZM120.595 49.72H122.355C123.219 49.72 123.918 49.9653 124.451 50.456C124.995 50.936 125.267 51.5707 125.267 52.36C125.267 53.1387 124.995 53.7733 124.451 54.264C123.918 54.7547 123.219 55 122.355 55H118.867V47H120.595V49.72ZM120.595 53.448H122.371C122.713 53.448 122.995 53.3467 123.219 53.144C123.454 52.9413 123.571 52.68 123.571 52.36C123.571 52.04 123.459 51.7787 123.235 51.576C123.011 51.3733 122.723 51.272 122.371 51.272H120.595V53.448ZM135.176 50.904C136.029 51.288 136.456 51.9227 136.456 52.808C136.456 53.5013 136.173 54.0773 135.608 54.536C135.043 54.984 134.275 55.208 133.304 55.208C131.693 55.208 130.605 54.568 130.04 53.288L131.448 52.456C131.736 53.256 132.36 53.656 133.32 53.656C133.768 53.656 134.12 53.5653 134.376 53.384C134.632 53.192 134.76 52.9413 134.76 52.632C134.76 52.3547 134.659 52.136 134.456 51.976C134.253 51.8053 133.971 51.72 133.608 51.72H132.472V50.2H133.32C133.672 50.2 133.944 50.12 134.136 49.96C134.339 49.7893 134.44 49.56 134.44 49.272C134.44 48.9947 134.328 48.7707 134.104 48.6C133.88 48.4187 133.581 48.328 133.208 48.328C132.408 48.328 131.853 48.68 131.544 49.384L130.136 48.584C130.723 47.3893 131.736 46.792 133.176 46.792C134.072 46.792 134.781 47.0213 135.304 47.48C135.837 47.928 136.104 48.4773 136.104 49.128C136.104 49.928 135.795 50.52 135.176 50.904ZM144.203 48.136V47H145.931V55H144.203V53.848C143.553 54.7547 142.619 55.208 141.403 55.208C140.305 55.208 139.366 54.8027 138.587 53.992C137.809 53.1813 137.419 52.184 137.419 51C137.419 49.816 137.809 48.8187 138.587 48.008C139.366 47.1973 140.305 46.792 141.403 46.792C142.619 46.792 143.553 47.24 144.203 48.136ZM139.867 52.84C140.347 53.32 140.95 53.56 141.675 53.56C142.401 53.56 143.003 53.32 143.483 52.84C143.963 52.3493 144.203 51.736 144.203 51C144.203 50.264 143.963 49.656 143.483 49.176C143.003 48.6853 142.401 48.44 141.675 48.44C140.95 48.44 140.347 48.6853 139.867 49.176C139.387 49.656 139.147 50.264 139.147 51C139.147 51.7253 139.387 52.3387 139.867 52.84ZM150.57 47H154.138V55H152.442V52.312H151.482L149.45 55H147.418L149.578 52.152C149.023 51.9707 148.575 51.6507 148.234 51.192C147.903 50.7333 147.738 50.2213 147.738 49.656C147.738 48.92 147.999 48.296 148.522 47.784C149.044 47.2613 149.727 47 150.57 47ZM150.666 50.824H152.442V48.568H150.666C150.303 48.568 150.004 48.6747 149.77 48.888C149.546 49.0907 149.434 49.3627 149.434 49.704C149.434 50.0453 149.546 50.3173 149.77 50.52C150.004 50.7227 150.303 50.824 150.666 50.824ZM161.685 50.888C162.474 51.2613 162.869 51.8747 162.869 52.728C162.869 53.4107 162.634 53.96 162.165 54.376C161.706 54.792 161.066 55 160.245 55H156.149V47H159.925C160.735 47 161.37 47.2027 161.829 47.608C162.287 48.0133 162.517 48.5467 162.517 49.208C162.517 49.9653 162.239 50.5253 161.685 50.888ZM159.797 48.472H157.797V50.248H159.797C160.501 50.248 160.853 49.9493 160.853 49.352C160.853 48.7653 160.501 48.472 159.797 48.472ZM157.797 53.496H160.085C160.81 53.496 161.173 53.1813 161.173 52.552C161.173 52.2747 161.077 52.0613 160.885 51.912C160.693 51.752 160.426 51.672 160.085 51.672H157.797V53.496ZM167.698 50.92L171.346 55H169.282L166.002 51.304V55H164.274V47H166.002V50.536L169.106 47H171.218L167.698 50.92ZM175.696 52.824L177.744 47H179.584L176.512 55.256C176.138 56.2693 175.616 57.0267 174.944 57.528C174.272 58.0293 173.493 58.2533 172.608 58.2V56.584C173.632 56.648 174.341 56.136 174.736 55.048L174.784 54.936L171.424 47H173.264L175.696 52.824Z" fill="#ECBA1A"/>
<rect x="11" y="11" width="310" height="4" fill="#ECBA1A"/>
</g>
<g filter="url(#filter1_d_149_4423)">
<rect x="11" y="115" width="310" height="80" rx="16" fill="white"/>
<path d="M36.4716 146.952C36.6597 146.788 36.9394 146.788 37.1275 146.952L38.751 148.362C38.8534 148.451 38.9874 148.495 39.1224 148.483L41.265 148.296C41.5132 148.274 41.7395 148.439 41.7956 148.682L42.28 150.777C42.3106 150.909 42.3934 151.023 42.5095 151.093L44.3528 152.201C44.5663 152.33 44.6527 152.595 44.5554 152.825L43.7157 154.805C43.6628 154.93 43.6628 155.071 43.7157 155.195L44.5554 157.175C44.6527 157.405 44.5663 157.671 44.3528 157.799L42.5095 158.907C42.3934 158.977 42.3106 159.091 42.28 159.223L41.7956 161.319C41.7395 161.561 41.5132 161.726 41.265 161.704L39.1224 161.517C38.9874 161.506 38.8534 161.549 38.751 161.638L37.1275 163.049C36.9394 163.212 36.6597 163.212 36.4716 163.049L34.848 161.638C34.7457 161.549 34.6117 161.506 34.4767 161.517L32.3341 161.704C32.0859 161.726 31.8596 161.561 31.8035 161.319L31.319 159.223C31.2885 159.091 31.2057 158.977 31.0895 158.907L29.2463 157.799C29.0328 157.671 28.9464 157.405 29.0437 157.175L29.8834 155.195C29.9363 155.071 29.9363 154.93 29.8834 154.805L29.0437 152.825C28.9464 152.595 29.0328 152.33 29.2463 152.201L31.0895 151.093C31.2057 151.023 31.2885 150.909 31.319 150.777L31.8035 148.682C31.8596 148.439 32.0859 148.274 32.3341 148.296L34.4767 148.483C34.6117 148.495 34.7457 148.451 34.848 148.362L36.4716 146.952Z" fill="#0F9D57" stroke="#0F9D57" stroke-width="1.5"/>
<path d="M34.2998 155.833L35.9665 157.5L40.1331 153.333" stroke="white" stroke-width="1.5" stroke-linecap="round" stroke-linejoin="round"/>
<path d="M65.2798 147.528C64.1598 148.648 62.7891 149.208 61.1678 149.208C59.5465 149.208 58.1705 148.648 57.0398 147.528C55.9198 146.397 55.3598 145.021 55.3598 143.4C55.3598 141.779 55.9198 140.408 57.0398 139.288C58.1705 138.157 59.5465 137.592 61.1678 137.592C62.7891 137.592 64.1598 138.157 65.2798 139.288C66.4105 140.408 66.9758 141.779 66.9758 143.4C66.9758 145.021 66.4105 146.397 65.2798 147.528ZM58.3358 146.28C59.1145 147.037 60.0585 147.416 61.1678 147.416C62.2878 147.416 63.2265 147.037 63.9838 146.28C64.7518 145.512 65.1358 144.552 65.1358 143.4C65.1358 142.248 64.7518 141.293 63.9838 140.536C63.2265 139.768 62.2878 139.384 61.1678 139.384C60.0478 139.384 59.1038 139.768 58.3358 140.536C57.5785 141.293 57.1998 142.248 57.1998 143.4C57.1998 144.541 57.5785 145.501 58.3358 146.28ZM72.2542 149.208C71.0382 149.208 70.0355 148.813 69.2462 148.024C68.4782 147.224 68.0942 146.205 68.0942 144.968C68.0942 143.624 68.2968 142.579 68.7022 141.832C69.0968 141.096 69.9182 140.419 71.1662 139.8C71.2088 139.779 71.2782 139.747 71.3742 139.704C71.4808 139.651 71.5928 139.597 71.7102 139.544C71.8275 139.491 71.9448 139.437 72.0622 139.384C72.5102 139.181 72.7875 139.053 72.8942 139C72.9582 138.968 73.1448 138.851 73.4542 138.648C73.8275 138.381 74.0782 138.003 74.2062 137.512L75.6142 138.328C75.5608 138.915 75.1928 139.453 74.5102 139.944C74.3928 140.051 74.1742 140.179 73.8542 140.328L73.1662 140.648L72.3662 140.984C71.6728 141.261 71.1608 141.544 70.8302 141.832C70.4995 142.12 70.2702 142.488 70.1422 142.936C70.7822 142.211 71.6515 141.848 72.7502 141.848C73.6888 141.848 74.5048 142.184 75.1982 142.856C75.9022 143.528 76.2542 144.397 76.2542 145.464C76.2542 146.552 75.8808 147.448 75.1342 148.152C74.3982 148.856 73.4382 149.208 72.2542 149.208ZM72.2382 147.592C72.9102 147.592 73.4595 147.395 73.8862 147C74.3128 146.595 74.5262 146.083 74.5262 145.464C74.5262 144.835 74.3128 144.317 73.8862 143.912C73.4702 143.507 72.9262 143.304 72.2542 143.304C71.6568 143.304 71.1182 143.496 70.6382 143.88C70.1582 144.243 69.9182 144.744 69.9182 145.384C69.9182 146.024 70.1422 146.552 70.5902 146.968C71.0382 147.384 71.5875 147.592 72.2382 147.592ZM81.3963 149.208C80.191 149.208 79.183 148.803 78.3723 147.992C77.5723 147.171 77.1723 146.173 77.1723 145C77.1723 143.805 77.5723 142.808 78.3723 142.008C79.183 141.197 80.191 140.792 81.3963 140.792C82.175 140.792 82.8843 140.979 83.5243 141.352C84.1643 141.725 84.6443 142.227 84.9643 142.856L83.4763 143.72C83.295 143.336 83.0176 143.037 82.6443 142.824C82.2816 142.6 81.8603 142.488 81.3803 142.488C80.6763 142.488 80.0843 142.728 79.6043 143.208C79.135 143.699 78.9003 144.296 78.9003 145C78.9003 145.704 79.135 146.301 79.6043 146.792C80.0843 147.272 80.6763 147.512 81.3803 147.512C81.8496 147.512 82.271 147.405 82.6443 147.192C83.0283 146.968 83.3163 146.664 83.5083 146.28L84.9963 147.128C84.655 147.768 84.159 148.275 83.5083 148.648C82.8683 149.021 82.1643 149.208 81.3963 149.208ZM89.3237 146.824L91.3717 141H93.2117L90.1397 149.256C89.7663 150.269 89.2437 151.027 88.5717 151.528C87.8997 152.029 87.121 152.253 86.2357 152.2V150.584C87.2597 150.648 87.969 150.136 88.3637 149.048L88.4117 148.936L85.0517 141H86.8917L89.3237 146.824ZM100.848 141V147.368H101.92V151.144H100.224V149H94.7358V151.144H93.0398V147.368H94.0158C94.5065 146.685 94.7518 145.72 94.7518 144.472V141H100.848ZM95.9198 147.368H99.1518V142.584H96.4478V144.472C96.4478 145.624 96.2718 146.589 95.9198 147.368ZM105.019 146.072L109.115 141H110.443V149H108.747V143.912L104.651 149H103.323V141H105.019V146.072ZM111.6 141H118.56V142.664H115.952V149H114.224V142.664H111.6V141ZM121.458 143.72H123.218C124.082 143.72 124.78 143.965 125.314 144.456C125.858 144.936 126.13 145.571 126.13 146.36C126.13 147.139 125.858 147.773 125.314 148.264C124.78 148.755 124.082 149 123.218 149H119.73V141H121.458V143.72ZM121.458 147.448H123.234C123.575 147.448 123.858 147.347 124.082 147.144C124.316 146.941 124.434 146.68 124.434 146.36C124.434 146.04 124.322 145.779 124.098 145.576C123.874 145.373 123.586 145.272 123.234 145.272H121.458V147.448ZM138.582 141V147.368H139.654V151.144H137.958V149H132.47V151.144H130.774V147.368H131.75C132.241 146.685 132.486 145.72 132.486 144.472V141H138.582ZM133.654 147.368H136.886V142.584H134.182V144.472C134.182 145.624 134.006 146.589 133.654 147.368ZM148.473 145.736H142.105C142.233 146.333 142.521 146.797 142.969 147.128C143.428 147.459 143.993 147.624 144.665 147.624C145.572 147.624 146.26 147.293 146.729 146.632L148.153 147.464C147.375 148.627 146.207 149.208 144.649 149.208C143.359 149.208 142.308 148.813 141.497 148.024C140.697 147.224 140.297 146.216 140.297 145C140.297 143.816 140.692 142.819 141.481 142.008C142.26 141.197 143.273 140.792 144.521 140.792C145.684 140.792 146.644 141.203 147.401 142.024C148.159 142.845 148.537 143.843 148.537 145.016C148.537 145.229 148.516 145.469 148.473 145.736ZM142.089 144.328H146.793C146.676 143.699 146.409 143.213 145.993 142.872C145.588 142.531 145.092 142.36 144.505 142.36C143.865 142.36 143.332 142.536 142.905 142.888C142.479 143.24 142.207 143.72 142.089 144.328ZM148.897 141H155.857V142.664H153.249V149H151.521V142.664H148.897V141ZM163.05 142.136V141H164.778V149H163.05V147.848C162.399 148.755 161.466 149.208 160.25 149.208C159.151 149.208 158.213 148.803 157.434 147.992C156.655 147.181 156.266 146.184 156.266 145C156.266 143.816 156.655 142.819 157.434 142.008C158.213 141.197 159.151 140.792 160.25 140.792C161.466 140.792 162.399 141.24 163.05 142.136ZM158.714 146.84C159.194 147.32 159.797 147.56 160.522 147.56C161.247 147.56 161.85 147.32 162.33 146.84C162.81 146.349 163.05 145.736 163.05 145C163.05 144.264 162.81 143.656 162.33 143.176C161.85 142.685 161.247 142.44 160.522 142.44C159.797 142.44 159.194 142.685 158.714 143.176C158.234 143.656 157.994 144.264 157.994 145C157.994 145.725 158.234 146.339 158.714 146.84ZM167.416 141H173.544V149H171.816V142.664H169.144V145.64C169.144 146.888 168.872 147.784 168.328 148.328C167.784 148.872 166.99 149.096 165.944 149V147.384C166.435 147.469 166.803 147.368 167.048 147.08C167.294 146.781 167.416 146.275 167.416 145.56V141ZM177.254 146.072L181.35 141H182.678V149H180.982V143.912L176.886 149H175.558V141H177.254V146.072ZM190.379 146.072L194.475 141H195.803V149H194.107V143.912L190.011 149H188.683V141H190.379V146.072ZM55.8078 161H62.9278V169H61.1998V162.632H57.5358V169H55.8078V161ZM69.4608 160.792C70.5488 160.792 71.4875 161.203 72.2768 162.024C73.0555 162.835 73.4448 163.827 73.4448 165C73.4448 166.184 73.0555 167.181 72.2768 167.992C71.4981 168.803 70.5595 169.208 69.4608 169.208C68.2555 169.208 67.3221 168.76 66.6608 167.864V172.2H64.9328V161H66.6608V162.152C67.3115 161.245 68.2448 160.792 69.4608 160.792ZM67.3808 166.84C67.8608 167.32 68.4635 167.56 69.1888 167.56C69.9141 167.56 70.5168 167.32 70.9968 166.84C71.4768 166.349 71.7168 165.736 71.7168 165C71.7168 164.264 71.4768 163.656 70.9968 163.176C70.5168 162.685 69.9141 162.44 69.1888 162.44C68.4635 162.44 67.8608 162.685 67.3808 163.176C66.9008 163.656 66.6608 164.264 66.6608 165C66.6608 165.725 66.9008 166.339 67.3808 166.84ZM82.7389 165.736H76.3709C76.4989 166.333 76.7869 166.797 77.2349 167.128C77.6936 167.459 78.2589 167.624 78.9309 167.624C79.8376 167.624 80.5256 167.293 80.9949 166.632L82.4189 167.464C81.6403 168.627 80.4723 169.208 78.9149 169.208C77.6243 169.208 76.5736 168.813 75.7629 168.024C74.9629 167.224 74.5629 166.216 74.5629 165C74.5629 163.816 74.9576 162.819 75.7469 162.008C76.5256 161.197 77.5389 160.792 78.7869 160.792C79.9496 160.792 80.9096 161.203 81.6669 162.024C82.4243 162.845 82.8029 163.843 82.8029 165.016C82.8029 165.229 82.7816 165.469 82.7389 165.736ZM76.3549 164.328H81.0589C80.9416 163.699 80.6749 163.213 80.2589 162.872C79.8536 162.531 79.3576 162.36 78.7709 162.36C78.1309 162.36 77.5976 162.536 77.1709 162.888C76.7443 163.24 76.4723 163.72 76.3549 164.328ZM91.0509 161V167.368H92.1229V171.144H90.4269V169H84.9389V171.144H83.2429V167.368H84.2189C84.7096 166.685 84.9549 165.72 84.9549 164.472V161H91.0509ZM86.1229 167.368H89.3549V162.584H86.6509V164.472C86.6509 165.624 86.4749 166.589 86.1229 167.368ZM99.9821 167.992C99.1714 168.803 98.1741 169.208 96.9901 169.208C95.8061 169.208 94.8087 168.803 93.9981 167.992C93.1767 167.171 92.7661 166.173 92.7661 165C92.7661 163.827 93.1767 162.829 93.9981 162.008C94.8087 161.197 95.8061 160.792 96.9901 160.792C98.1741 160.792 99.1714 161.197 99.9821 162.008C100.803 162.829 101.214 163.827 101.214 165C101.214 166.173 100.803 167.171 99.9821 167.992ZM94.4941 165C94.4941 165.725 94.7341 166.328 95.2141 166.808C95.6941 167.288 96.2861 167.528 96.9901 167.528C97.6941 167.528 98.2861 167.288 98.7661 166.808C99.2461 166.328 99.4861 165.725 99.4861 165C99.4861 164.275 99.2461 163.672 98.7661 163.192C98.2861 162.712 97.6941 162.472 96.9901 162.472C96.2861 162.472 95.6941 162.712 95.2141 163.192C94.7341 163.672 94.4941 164.275 94.4941 165ZM106.553 169.208C105.347 169.208 104.339 168.803 103.529 167.992C102.729 167.171 102.329 166.173 102.329 165C102.329 163.805 102.729 162.808 103.529 162.008C104.339 161.197 105.347 160.792 106.553 160.792C107.331 160.792 108.041 160.979 108.681 161.352C109.321 161.725 109.801 162.227 110.121 162.856L108.633 163.72C108.451 163.336 108.174 163.037 107.801 162.824C107.438 162.6 107.017 162.488 106.537 162.488C105.833 162.488 105.241 162.728 104.761 163.208C104.291 163.699 104.057 164.296 104.057 165C104.057 165.704 104.291 166.301 104.761 166.792C105.241 167.272 105.833 167.512 106.537 167.512C107.006 167.512 107.427 167.405 107.801 167.192C108.185 166.968 108.473 166.664 108.665 166.28L110.153 167.128C109.811 167.768 109.315 168.275 108.665 168.648C108.025 169.021 107.321 169.208 106.553 169.208ZM110.475 161H117.435V162.664H114.827V169H113.099V162.664H110.475V161ZM124.628 162.136V161H126.356V169H124.628V167.848C123.978 168.755 123.044 169.208 121.828 169.208C120.73 169.208 119.791 168.803 119.012 167.992C118.234 167.181 117.844 166.184 117.844 165C117.844 163.816 118.234 162.819 119.012 162.008C119.791 161.197 120.73 160.792 121.828 160.792C123.044 160.792 123.978 161.24 124.628 162.136ZM120.292 166.84C120.772 167.32 121.375 167.56 122.1 167.56C122.826 167.56 123.428 167.32 123.908 166.84C124.388 166.349 124.628 165.736 124.628 165C124.628 164.264 124.388 163.656 123.908 163.176C123.428 162.685 122.826 162.44 122.1 162.44C121.375 162.44 120.772 162.685 120.292 163.176C119.812 163.656 119.572 164.264 119.572 165C119.572 165.725 119.812 166.339 120.292 166.84ZM133.906 164.888C134.696 165.261 135.09 165.875 135.09 166.728C135.09 167.411 134.856 167.96 134.386 168.376C133.928 168.792 133.288 169 132.466 169H128.37V161H132.146C132.957 161 133.592 161.203 134.05 161.608C134.509 162.013 134.738 162.547 134.738 163.208C134.738 163.965 134.461 164.525 133.906 164.888ZM132.018 162.472H130.018V164.248H132.018C132.722 164.248 133.074 163.949 133.074 163.352C133.074 162.765 132.722 162.472 132.018 162.472ZM130.018 167.496H132.306C133.032 167.496 133.394 167.181 133.394 166.552C133.394 166.275 133.298 166.061 133.106 165.912C132.914 165.752 132.648 165.672 132.306 165.672H130.018V167.496ZM138.191 166.072L142.287 161H143.615V169H141.919V163.912L137.823 169H136.495V161H138.191V166.072ZM144.772 161H151.732V162.664H149.124V169H147.396V162.664H144.772V161ZM154.63 163.72H156.39C157.254 163.72 157.952 163.965 158.486 164.456C159.03 164.936 159.302 165.571 159.302 166.36C159.302 167.139 159.03 167.773 158.486 168.264C157.952 168.755 157.254 169 156.39 169H152.902V161H154.63V163.72ZM154.63 167.448H156.406C156.747 167.448 157.03 167.347 157.254 167.144C157.488 166.941 157.606 166.68 157.606 166.36C157.606 166.04 157.494 165.779 157.27 165.576C157.046 165.373 156.758 165.272 156.406 165.272H154.63V167.448ZM171.754 161V167.368H172.826V171.144H171.13V169H165.642V171.144H163.946V167.368H164.922C165.413 166.685 165.658 165.72 165.658 164.472V161H171.754ZM166.826 167.368H170.058V162.584H167.354V164.472C167.354 165.624 167.178 166.589 166.826 167.368ZM180.253 162.136V161H181.981V169H180.253V167.848C179.603 168.755 178.669 169.208 177.453 169.208C176.355 169.208 175.416 168.803 174.637 167.992C173.859 167.181 173.469 166.184 173.469 165C173.469 163.816 173.859 162.819 174.637 162.008C175.416 161.197 176.355 160.792 177.453 160.792C178.669 160.792 179.603 161.24 180.253 162.136ZM175.917 166.84C176.397 167.32 177 167.56 177.725 167.56C178.451 167.56 179.053 167.32 179.533 166.84C180.013 166.349 180.253 165.736 180.253 165C180.253 164.264 180.013 163.656 179.533 163.176C179.053 162.685 178.451 162.44 177.725 162.44C177 162.44 176.397 162.685 175.917 163.176C175.437 163.656 175.197 164.264 175.197 165C175.197 165.725 175.437 166.339 175.917 166.84ZM189.387 164.184V161H191.115V169H189.387V165.816H185.723V169H183.995V161H185.723V164.184H189.387ZM198.512 164.184V161H200.24V169H198.512V165.816H194.848V169H193.12V161H194.848V164.184H198.512ZM203.973 163.72H205.733C206.597 163.72 207.296 163.965 207.829 164.456C208.373 164.936 208.645 165.571 208.645 166.36C208.645 167.139 208.373 167.773 207.829 168.264C207.296 168.755 206.597 169 205.733 169H202.245V161H203.973V163.72ZM209.605 169V161H211.333V169H209.605ZM203.973 167.448H205.749C206.091 167.448 206.373 167.347 206.597 167.144C206.832 166.941 206.949 166.68 206.949 166.36C206.949 166.04 206.837 165.779 206.613 165.576C206.389 165.373 206.101 165.272 205.749 165.272H203.973V167.448ZM221.067 165.736H214.699C214.827 166.333 215.115 166.797 215.563 167.128C216.022 167.459 216.587 167.624 217.259 167.624C218.166 167.624 218.854 167.293 219.323 166.632L220.747 167.464C219.968 168.627 218.8 169.208 217.243 169.208C215.952 169.208 214.902 168.813 214.091 168.024C213.291 167.224 212.891 166.216 212.891 165C212.891 163.816 213.286 162.819 214.075 162.008C214.854 161.197 215.867 160.792 217.115 160.792C218.278 160.792 219.238 161.203 219.995 162.024C220.752 162.845 221.131 163.843 221.131 165.016C221.131 165.229 221.11 165.469 221.067 165.736ZM214.683 164.328H219.387C219.27 163.699 219.003 163.213 218.587 162.872C218.182 162.531 217.686 162.36 217.099 162.36C216.459 162.36 215.926 162.536 215.499 162.888C215.072 163.24 214.8 163.72 214.683 164.328Z" fill="#92A2BB"/>
<rect x="11" y="115" width="310" height="4" fill="#0F9D57"/>
</g>
<g filter="url(#filter2_d_149_4423)">
<rect x="11" y="219" width="310" height="80" rx="16" fill="white"/>
<path fill-rule="evenodd" clip-rule="evenodd" d="M36.9997 253.375C32.9726 253.375 29.708 256.64 29.708 260.667C29.708 264.694 32.9726 267.958 36.9997 267.958C41.0268 267.958 44.2913 264.694 44.2913 260.667C44.2913 256.64 41.0268 253.375 36.9997 253.375ZM37.6247 257.333C37.6247 256.988 37.3448 256.708 36.9997 256.708C36.6545 256.708 36.3747 256.988 36.3747 257.333V260.667C36.3747 261.012 36.6545 261.292 36.9997 261.292C37.3448 261.292 37.6247 261.012 37.6247 260.667V257.333Z" fill="#18C4D1"/>
<path fill-rule="evenodd" clip-rule="evenodd" d="M33.875 250.667C33.875 250.321 34.1548 250.042 34.5 250.042H39.5C39.8452 250.042 40.125 250.321 40.125 250.667C40.125 251.012 39.8452 251.292 39.5 251.292H34.5C34.1548 251.292 33.875 251.012 33.875 250.667Z" fill="#18C4D1"/>
<path d="M56.12 241.8H64.36V253H62.52V243.56H57.96V253H56.12V241.8ZM73.2604 251.992C72.4497 252.803 71.4524 253.208 70.2684 253.208C69.0844 253.208 68.087 252.803 67.2764 251.992C66.455 251.171 66.0444 250.173 66.0444 249C66.0444 247.827 66.455 246.829 67.2764 246.008C68.087 245.197 69.0844 244.792 70.2684 244.792C71.4524 244.792 72.4497 245.197 73.2604 246.008C74.0817 246.829 74.4924 247.827 74.4924 249C74.4924 250.173 74.0817 251.171 73.2604 251.992ZM67.7724 249C67.7724 249.725 68.0124 250.328 68.4924 250.808C68.9724 251.288 69.5644 251.528 70.2684 251.528C70.9724 251.528 71.5644 251.288 72.0444 250.808C72.5244 250.328 72.7644 249.725 72.7644 249C72.7644 248.275 72.5244 247.672 72.0444 247.192C71.5644 246.712 70.9724 246.472 70.2684 246.472C69.5644 246.472 68.9724 246.712 68.4924 247.192C68.0124 247.672 67.7724 248.275 67.7724 249ZM82.7824 245V251.368H83.8544V255.144H82.1584V253H76.6704V255.144H74.9744V251.368H75.9504C76.441 250.685 76.6864 249.72 76.6864 248.472V245H82.7824ZM77.8544 251.368H81.0864V246.584H78.3824V248.472C78.3824 249.624 78.2064 250.589 77.8544 251.368ZM88.682 248.92L92.33 253H90.266L86.986 249.304V253H85.258V245H86.986V248.536L90.09 245H92.202L88.682 248.92ZM94.1164 245H100.244V253H98.5164V246.664H95.8444V249.64C95.8444 250.888 95.5724 251.784 95.0284 252.328C94.4844 252.872 93.6897 253.096 92.6444 253V251.384C93.135 251.469 93.503 251.368 93.7484 251.08C93.9937 250.781 94.1164 250.275 94.1164 249.56V245ZM109.394 244.792C110.578 244.792 111.575 245.197 112.386 246.008C113.207 246.829 113.618 247.827 113.618 249C113.618 250.173 113.207 251.171 112.386 251.992C111.575 252.803 110.578 253.208 109.394 253.208C108.359 253.208 107.463 252.893 106.706 252.264C105.949 251.624 105.485 250.808 105.314 249.816H103.986V253H102.258V245H103.986V248.184H105.314C105.495 247.181 105.959 246.371 106.706 245.752C107.463 245.112 108.359 244.792 109.394 244.792ZM106.898 249C106.898 249.725 107.138 250.328 107.618 250.808C108.098 251.288 108.69 251.528 109.394 251.528C110.098 251.528 110.69 251.288 111.17 250.808C111.65 250.328 111.89 249.725 111.89 249C111.89 248.275 111.65 247.672 111.17 247.192C110.69 246.712 110.098 246.472 109.394 246.472C108.69 246.472 108.098 246.712 107.618 247.192C107.138 247.672 106.898 248.275 106.898 249ZM119.888 248.664V245H121.616V253H119.888V250.296C119.258 250.531 118.586 250.648 117.872 250.648C116.858 250.648 116.069 250.403 115.504 249.912C114.938 249.411 114.656 248.691 114.656 247.752V245H116.384V247.592C116.384 248.552 116.954 249.032 118.096 249.032C118.746 249.032 119.344 248.909 119.888 248.664ZM131.361 249.736H124.993C125.121 250.333 125.409 250.797 125.857 251.128C126.316 251.459 126.881 251.624 127.553 251.624C128.46 251.624 129.148 251.293 129.617 250.632L131.041 251.464C130.262 252.627 129.094 253.208 127.537 253.208C126.246 253.208 125.196 252.813 124.385 252.024C123.585 251.224 123.185 250.216 123.185 249C123.185 247.816 123.58 246.819 124.369 246.008C125.148 245.197 126.161 244.792 127.409 244.792C128.572 244.792 129.532 245.203 130.289 246.024C131.046 246.845 131.425 247.843 131.425 249.016C131.425 249.229 131.404 249.469 131.361 249.736ZM124.977 248.328H129.681C129.564 247.699 129.297 247.213 128.881 246.872C128.476 246.531 127.98 246.36 127.393 246.36C126.753 246.36 126.22 246.536 125.793 246.888C125.366 247.24 125.094 247.72 124.977 248.328ZM138.338 248.184V245H140.066V253H138.338V249.816H134.674V253H132.946V245H134.674V248.184H138.338ZM143.767 250.072L147.863 245H149.191V253H147.495V247.912L143.399 253H142.071V245H143.767V250.072ZM158.924 249.736H152.556C152.684 250.333 152.972 250.797 153.42 251.128C153.878 251.459 154.444 251.624 155.116 251.624C156.022 251.624 156.71 251.293 157.18 250.632L158.604 251.464C157.825 252.627 156.657 253.208 155.1 253.208C153.809 253.208 152.758 252.813 151.948 252.024C151.148 251.224 150.748 250.216 150.748 249C150.748 247.816 151.142 246.819 151.932 246.008C152.71 245.197 153.724 244.792 154.972 244.792C156.134 244.792 157.094 245.203 157.852 246.024C158.609 246.845 158.988 247.843 158.988 249.016C158.988 249.229 158.966 249.469 158.924 249.736ZM152.539 248.328H157.244C157.126 247.699 156.86 247.213 156.444 246.872C156.038 246.531 155.542 246.36 154.956 246.36C154.316 246.36 153.782 246.536 153.356 246.888C152.929 247.24 152.657 247.72 152.539 248.328ZM167.868 254.6H166.14C164.967 252.253 164.38 249.853 164.38 247.4C164.38 244.947 164.967 242.547 166.14 240.2H167.868C166.695 242.547 166.108 244.947 166.108 247.4C166.108 249.853 166.695 252.253 167.868 254.6ZM176.06 253H168.684V251.56L172.588 247.576C173.537 246.627 174.012 245.805 174.012 245.112C174.012 244.579 173.852 244.157 173.532 243.848C173.212 243.539 172.796 243.384 172.284 243.384C171.345 243.384 170.652 243.848 170.204 244.776L168.652 243.864C168.993 243.128 169.484 242.568 170.124 242.184C170.764 241.789 171.478 241.592 172.268 241.592C173.26 241.592 174.102 241.901 174.796 242.52C175.5 243.149 175.852 243.992 175.852 245.048C175.852 246.179 175.217 247.395 173.948 248.696L171.42 251.224H176.06V253ZM187.056 248.184V245H188.784V253H187.056V249.816H183.392V253H181.664V245H183.392V248.184H187.056ZM198.517 249.736H192.149C192.277 250.333 192.565 250.797 193.013 251.128C193.472 251.459 194.037 251.624 194.709 251.624C195.616 251.624 196.304 251.293 196.773 250.632L198.197 251.464C197.419 252.627 196.251 253.208 194.693 253.208C193.403 253.208 192.352 252.813 191.541 252.024C190.741 251.224 190.341 250.216 190.341 249C190.341 247.816 190.736 246.819 191.525 246.008C192.304 245.197 193.317 244.792 194.565 244.792C195.728 244.792 196.688 245.203 197.445 246.024C198.203 246.845 198.581 247.843 198.581 249.016C198.581 249.229 198.56 249.469 198.517 249.736ZM192.133 248.328H196.837C196.72 247.699 196.453 247.213 196.037 246.872C195.632 246.531 195.136 246.36 194.549 246.36C193.909 246.36 193.376 246.536 192.949 246.888C192.523 247.24 192.251 247.72 192.133 248.328ZM206.829 245V251.368H207.901V255.144H206.205V253H200.717V255.144H199.021V251.368H199.997C200.488 250.685 200.733 249.72 200.733 248.472V245H206.829ZM201.901 251.368H205.133V246.584H202.429V248.472C202.429 249.624 202.253 250.589 201.901 251.368ZM216.72 249.736H210.352C210.48 250.333 210.768 250.797 211.216 251.128C211.675 251.459 212.24 251.624 212.912 251.624C213.819 251.624 214.507 251.293 214.976 250.632L216.4 251.464C215.622 252.627 214.454 253.208 212.896 253.208C211.606 253.208 210.555 252.813 209.744 252.024C208.944 251.224 208.544 250.216 208.544 249C208.544 247.816 208.939 246.819 209.728 246.008C210.507 245.197 211.52 244.792 212.768 244.792C213.931 244.792 214.891 245.203 215.648 246.024C216.406 246.845 216.784 247.843 216.784 249.016C216.784 249.229 216.763 249.469 216.72 249.736ZM210.336 248.328H215.04C214.923 247.699 214.656 247.213 214.24 246.872C213.835 246.531 213.339 246.36 212.752 246.36C212.112 246.36 211.579 246.536 211.152 246.888C210.726 247.24 210.454 247.72 210.336 248.328ZM218.616 245H224.744V253H223.016V246.664H220.344V249.64C220.344 250.888 220.072 251.784 219.528 252.328C218.984 252.872 218.19 253.096 217.144 253V251.384C217.635 251.469 218.003 251.368 218.248 251.08C218.494 250.781 218.616 250.275 218.616 249.56V245ZM228.454 250.072L232.55 245H233.878V253H232.182V247.912L228.086 253H226.758V245H228.454V250.072ZM236.923 254.6H235.195C236.368 252.253 236.955 249.853 236.955 247.4C236.955 244.947 236.368 242.547 235.195 240.2H236.923C238.096 242.547 238.683 244.947 238.683 247.4C238.683 249.853 238.096 252.253 236.923 254.6ZM57.704 270.072L61.8 265H63.128V273H61.432V267.912L57.336 273H56.008V265H57.704V270.072ZM68.285 265H75.245V266.664H72.637V273H70.909V266.664H68.285V265ZM83.8298 269.736H77.4618C77.5898 270.333 77.8778 270.797 78.3258 271.128C78.7844 271.459 79.3498 271.624 80.0218 271.624C80.9284 271.624 81.6164 271.293 82.0858 270.632L83.5098 271.464C82.7311 272.627 81.5631 273.208 80.0058 273.208C78.7151 273.208 77.6644 272.813 76.8538 272.024C76.0538 271.224 75.6538 270.216 75.6538 269C75.6538 267.816 76.0484 266.819 76.8378 266.008C77.6164 265.197 78.6298 264.792 79.8778 264.792C81.0404 264.792 82.0004 265.203 82.7578 266.024C83.5151 266.845 83.8938 267.843 83.8938 269.016C83.8938 269.229 83.8724 269.469 83.8298 269.736ZM77.4457 268.328H82.1498C82.0324 267.699 81.7658 267.213 81.3498 266.872C80.9444 266.531 80.4484 266.36 79.8618 266.36C79.2218 266.36 78.6884 266.536 78.2618 266.888C77.8351 267.24 77.5631 267.72 77.4457 268.328ZM89.1434 273.208C87.938 273.208 86.93 272.803 86.1194 271.992C85.3194 271.171 84.9194 270.173 84.9194 269C84.9194 267.805 85.3194 266.808 86.1194 266.008C86.93 265.197 87.938 264.792 89.1434 264.792C89.922 264.792 90.6314 264.979 91.2714 265.352C91.9114 265.725 92.3914 266.227 92.7114 266.856L91.2234 267.72C91.042 267.336 90.7647 267.037 90.3914 266.824C90.0287 266.6 89.6074 266.488 89.1274 266.488C88.4234 266.488 87.8314 266.728 87.3514 267.208C86.882 267.699 86.6474 268.296 86.6474 269C86.6474 269.704 86.882 270.301 87.3514 270.792C87.8314 271.272 88.4234 271.512 89.1274 271.512C89.5967 271.512 90.018 271.405 90.3914 271.192C90.7754 270.968 91.0634 270.664 91.2554 270.28L92.7434 271.128C92.402 271.768 91.906 272.275 91.2554 272.648C90.6154 273.021 89.9114 273.208 89.1434 273.208ZM93.0663 265H100.026V266.664H97.4183V273H95.6903V266.664H93.0663V265ZM102.892 270.072L106.988 265H108.316V273H106.62V267.912L102.524 273H101.196V265H102.892V270.072ZM114.849 264.792C115.937 264.792 116.875 265.203 117.665 266.024C118.443 266.835 118.833 267.827 118.833 269C118.833 270.184 118.443 271.181 117.665 271.992C116.886 272.803 115.947 273.208 114.849 273.208C113.643 273.208 112.71 272.76 112.049 271.864V276.2H110.321V265H112.049V266.152C112.699 265.245 113.633 264.792 114.849 264.792ZM112.769 270.84C113.249 271.32 113.851 271.56 114.577 271.56C115.302 271.56 115.905 271.32 116.385 270.84C116.865 270.349 117.105 269.736 117.105 269C117.105 268.264 116.865 267.656 116.385 267.176C115.905 266.685 115.302 266.44 114.577 266.44C113.851 266.44 113.249 266.685 112.769 267.176C112.289 267.656 112.049 268.264 112.049 269C112.049 269.725 112.289 270.339 112.769 270.84ZM127.167 271.992C126.356 272.803 125.359 273.208 124.175 273.208C122.991 273.208 121.993 272.803 121.183 271.992C120.361 271.171 119.951 270.173 119.951 269C119.951 267.827 120.361 266.829 121.183 266.008C121.993 265.197 122.991 264.792 124.175 264.792C125.359 264.792 126.356 265.197 127.167 266.008C127.988 266.829 128.399 267.827 128.399 269C128.399 270.173 127.988 271.171 127.167 271.992ZM121.679 269C121.679 269.725 121.919 270.328 122.399 270.808C122.879 271.288 123.471 271.528 124.175 271.528C124.879 271.528 125.471 271.288 125.951 270.808C126.431 270.328 126.671 269.725 126.671 269C126.671 268.275 126.431 267.672 125.951 267.192C125.471 266.712 124.879 266.472 124.175 266.472C123.471 266.472 122.879 266.712 122.399 267.192C121.919 267.672 121.679 268.275 121.679 269ZM135.497 268.888C136.286 269.261 136.681 269.875 136.681 270.728C136.681 271.411 136.446 271.96 135.977 272.376C135.518 272.792 134.878 273 134.057 273H129.961V265H133.737C134.548 265 135.182 265.203 135.641 265.608C136.1 266.013 136.329 266.547 136.329 267.208C136.329 267.965 136.052 268.525 135.497 268.888ZM133.609 266.472H131.609V268.248H133.609C134.313 268.248 134.665 267.949 134.665 267.352C134.665 266.765 134.313 266.472 133.609 266.472ZM131.609 271.496H133.897C134.622 271.496 134.985 271.181 134.985 270.552C134.985 270.275 134.889 270.061 134.697 269.912C134.505 269.752 134.238 269.672 133.897 269.672H131.609V271.496ZM144.422 266.136V265H146.15V273H144.422V271.848C143.771 272.755 142.838 273.208 141.622 273.208C140.523 273.208 139.585 272.803 138.806 271.992C138.027 271.181 137.638 270.184 137.638 269C137.638 267.816 138.027 266.819 138.806 266.008C139.585 265.197 140.523 264.792 141.622 264.792C142.838 264.792 143.771 265.24 144.422 266.136ZM140.086 270.84C140.566 271.32 141.169 271.56 141.894 271.56C142.619 271.56 143.222 271.32 143.702 270.84C144.182 270.349 144.422 269.736 144.422 269C144.422 268.264 144.182 267.656 143.702 267.176C143.222 266.685 142.619 266.44 141.894 266.44C141.169 266.44 140.566 266.685 140.086 267.176C139.606 267.656 139.366 268.264 139.366 269C139.366 269.725 139.606 270.339 140.086 270.84ZM153.556 268.184V265H155.284V273H153.556V269.816H149.892V273H148.164V265H149.892V268.184H153.556ZM158.985 270.072L163.081 265H164.409V273H162.713V267.912L158.617 273H157.289V265H158.985V270.072ZM174.142 269.736H167.774C167.902 270.333 168.19 270.797 168.638 271.128C169.097 271.459 169.662 271.624 170.334 271.624C171.241 271.624 171.929 271.293 172.398 270.632L173.822 271.464C173.044 272.627 171.876 273.208 170.318 273.208C169.028 273.208 167.977 272.813 167.166 272.024C166.366 271.224 165.966 270.216 165.966 269C165.966 267.816 166.361 266.819 167.15 266.008C167.929 265.197 168.942 264.792 170.19 264.792C171.353 264.792 172.313 265.203 173.07 266.024C173.828 266.845 174.206 267.843 174.206 269.016C174.206 269.229 174.185 269.469 174.142 269.736ZM167.758 268.328H172.462C172.345 267.699 172.078 267.213 171.662 266.872C171.257 266.531 170.761 266.36 170.174 266.36C169.534 266.36 169.001 266.536 168.574 266.888C168.148 267.24 167.876 267.72 167.758 268.328ZM183.087 274.6H181.359C180.185 272.253 179.599 269.853 179.599 267.4C179.599 264.947 180.185 262.547 181.359 260.2H183.087C181.913 262.547 181.327 264.947 181.327 267.4C181.327 269.853 181.913 272.253 183.087 274.6ZM191.278 273H183.902V271.56L187.806 267.576C188.756 266.627 189.23 265.805 189.23 265.112C189.23 264.579 189.07 264.157 188.75 263.848C188.43 263.539 188.014 263.384 187.502 263.384C186.564 263.384 185.87 263.848 185.422 264.776L183.87 263.864C184.212 263.128 184.702 262.568 185.342 262.184C185.982 261.789 186.697 261.592 187.486 261.592C188.478 261.592 189.321 261.901 190.014 262.52C190.718 263.149 191.07 263.992 191.07 265.048C191.07 266.179 190.436 267.395 189.166 268.696L186.638 271.224H191.278V273ZM202.275 268.184V265H204.003V273H202.275V269.816H198.611V273H196.883V265H198.611V268.184H202.275ZM213.736 269.736H207.368C207.496 270.333 207.784 270.797 208.232 271.128C208.691 271.459 209.256 271.624 209.928 271.624C210.835 271.624 211.523 271.293 211.992 270.632L213.416 271.464C212.637 272.627 211.469 273.208 209.912 273.208C208.621 273.208 207.571 272.813 206.76 272.024C205.96 271.224 205.56 270.216 205.56 269C205.56 267.816 205.955 266.819 206.744 266.008C207.523 265.197 208.536 264.792 209.784 264.792C210.947 264.792 211.907 265.203 212.664 266.024C213.421 266.845 213.8 267.843 213.8 269.016C213.8 269.229 213.779 269.469 213.736 269.736ZM207.352 268.328H212.056C211.939 267.699 211.672 267.213 211.256 266.872C210.851 266.531 210.355 266.36 209.768 266.36C209.128 266.36 208.595 266.536 208.168 266.888C207.741 267.24 207.469 267.72 207.352 268.328ZM222.048 265V271.368H223.12V275.144H221.424V273H215.936V275.144H214.24V271.368H215.216C215.707 270.685 215.952 269.72 215.952 268.472V265H222.048ZM217.12 271.368H220.352V266.584H217.648V268.472C217.648 269.624 217.472 270.589 217.12 271.368ZM231.939 269.736H225.571C225.699 270.333 225.987 270.797 226.435 271.128C226.894 271.459 227.459 271.624 228.131 271.624C229.038 271.624 229.726 271.293 230.195 270.632L231.619 271.464C230.84 272.627 229.672 273.208 228.115 273.208C226.824 273.208 225.774 272.813 224.963 272.024C224.163 271.224 223.763 270.216 223.763 269C223.763 267.816 224.158 266.819 224.947 266.008C225.726 265.197 226.739 264.792 227.987 264.792C229.15 264.792 230.11 265.203 230.867 266.024C231.624 266.845 232.003 267.843 232.003 269.016C232.003 269.229 231.982 269.469 231.939 269.736ZM225.555 268.328H230.259C230.142 267.699 229.875 267.213 229.459 266.872C229.054 266.531 228.558 266.36 227.971 266.36C227.331 266.36 226.798 266.536 226.371 266.888C225.944 267.24 225.672 267.72 225.555 268.328ZM233.835 265H239.963V273H238.235V266.664H235.563V269.64C235.563 270.888 235.291 271.784 234.747 272.328C234.203 272.872 233.408 273.096 232.363 273V271.384C232.854 271.469 233.222 271.368 233.467 271.08C233.712 270.781 233.835 270.275 233.835 269.56V265ZM243.673 270.072L247.769 265H249.097V273H247.401V267.912L243.305 273H241.977V265H243.673V270.072ZM252.142 274.6H250.414C251.587 272.253 252.174 269.853 252.174 267.4C252.174 264.947 251.587 262.547 250.414 260.2H252.142C253.315 262.547 253.902 264.947 253.902 267.4C253.902 269.853 253.315 272.253 252.142 274.6Z" fill="#92A2BB"/>
<rect x="11" y="219" width="310" height="4" fill="#18C4D1"/>
</g>
<g filter="url(#filter3_d_149_4423)">
<rect x="11" y="323" width="310" height="80" rx="16" fill="white"/>
<path fill-rule="evenodd" clip-rule="evenodd" d="M38.0269 354.906C38.2844 354.989 38.4587 355.229 38.4587 355.5V360.708H42.8337C43.0687 360.708 43.2839 360.84 43.3906 361.05C43.4972 361.259 43.4774 361.511 43.3392 361.701L36.6725 370.868C36.5132 371.087 36.2312 371.178 35.9737 371.094C35.7162 371.011 35.542 370.771 35.542 370.5V365.292H31.167C30.9319 365.292 30.7167 365.16 30.6101 364.95C30.5034 364.741 30.5233 364.489 30.6615 364.299L37.3282 355.132C37.4874 354.914 37.7695 354.822 38.0269 354.906Z" fill="#FD7542"/>
<path d="M59.976 351.704L62.424 345.8H64.28L60.808 354.12C59.9547 356.157 58.5733 357.117 56.664 357V355.288C57.2933 355.352 57.8 355.261 58.184 355.016C58.5787 354.76 58.8933 354.328 59.128 353.72L55.4 345.8H57.256L59.976 351.704ZM64.9445 349H71.0725V357H69.3445V350.664H66.6725V353.64C66.6725 354.888 66.4005 355.784 65.8565 356.328C65.3125 356.872 64.5178 357.096 63.4725 357V355.384C63.9632 355.469 64.3312 355.368 64.5765 355.08C64.8218 354.781 64.9445 354.275 64.9445 353.56V349ZM76.4301 354.824L78.4781 349H80.3181L77.2461 357.256C76.8728 358.269 76.3501 359.027 75.6781 359.528C75.0061 360.029 74.2275 360.253 73.3421 360.2V358.584C74.3661 358.648 75.0755 358.136 75.4701 357.048L75.5181 356.936L72.1581 349H73.9981L76.4301 354.824ZM86.2626 352.664V349H87.9906V357H86.2626V354.296C85.6333 354.531 84.9613 354.648 84.2466 354.648C83.2333 354.648 82.444 354.403 81.8786 353.912C81.3133 353.411 81.0306 352.691 81.0306 351.752V349H82.7586V351.592C82.7586 352.552 83.3293 353.032 84.4706 353.032C85.1213 353.032 85.7186 352.909 86.2626 352.664ZM99.48 355.368V349H101.208V357H90.008V349H91.736V355.368H94.744V349H96.472V355.368H99.48ZM110.939 353.736H104.571C104.699 354.333 104.987 354.797 105.435 355.128C105.894 355.459 106.459 355.624 107.131 355.624C108.038 355.624 108.726 355.293 109.195 354.632L110.619 355.464C109.84 356.627 108.672 357.208 107.115 357.208C105.824 357.208 104.774 356.813 103.963 356.024C103.163 355.224 102.763 354.216 102.763 353C102.763 351.816 103.158 350.819 103.947 350.008C104.726 349.197 105.739 348.792 106.987 348.792C108.15 348.792 109.11 349.203 109.867 350.024C110.624 350.845 111.003 351.843 111.003 353.016C111.003 353.229 110.982 353.469 110.939 353.736ZM104.555 352.328H109.259C109.142 351.699 108.875 351.213 108.459 350.872C108.054 350.531 107.558 350.36 106.971 350.36C106.331 350.36 105.798 350.536 105.371 350.888C104.944 351.24 104.672 351.72 104.555 352.328ZM117.916 352.184V349H119.644V357H117.916V353.816H114.252V357H112.524V349H114.252V352.184H117.916ZM123.345 354.072L127.441 349H128.769V357H127.073V351.912L122.977 357H121.649V349H123.345V354.072ZM138.502 353.736H132.134C132.262 354.333 132.55 354.797 132.998 355.128C133.456 355.459 134.022 355.624 134.694 355.624C135.6 355.624 136.288 355.293 136.758 354.632L138.182 355.464C137.403 356.627 136.235 357.208 134.678 357.208C133.387 357.208 132.336 356.813 131.526 356.024C130.726 355.224 130.326 354.216 130.326 353C130.326 351.816 130.72 350.819 131.51 350.008C132.288 349.197 133.302 348.792 134.55 348.792C135.712 348.792 136.672 349.203 137.43 350.024C138.187 350.845 138.566 351.843 138.566 353.016C138.566 353.229 138.544 353.469 138.502 353.736ZM132.118 352.328H136.822C136.704 351.699 136.438 351.213 136.022 350.872C135.616 350.531 135.12 350.36 134.534 350.36C133.894 350.36 133.36 350.536 132.934 350.888C132.507 351.24 132.235 351.72 132.118 352.328ZM139.926 355.08H141.846L140.726 359.24H139.286L139.926 355.08ZM154.016 350.136V349H155.744V357H154.016V355.848C153.365 356.755 152.432 357.208 151.216 357.208C150.117 357.208 149.179 356.803 148.4 355.992C147.621 355.181 147.232 354.184 147.232 353C147.232 351.816 147.621 350.819 148.4 350.008C149.179 349.197 150.117 348.792 151.216 348.792C152.432 348.792 153.365 349.24 154.016 350.136ZM149.68 354.84C150.16 355.32 150.763 355.56 151.488 355.56C152.213 355.56 152.816 355.32 153.296 354.84C153.776 354.349 154.016 353.736 154.016 353C154.016 352.264 153.776 351.656 153.296 351.176C152.816 350.685 152.213 350.44 151.488 350.44C150.763 350.44 150.16 350.685 149.68 351.176C149.2 351.656 148.96 352.264 148.96 353C148.96 353.725 149.2 354.339 149.68 354.84ZM163.15 352.184V349H164.878V357H163.15V353.816H159.486V357H157.758V349H159.486V352.184H163.15ZM173.219 350.136V349H174.947V357H173.219V355.848C172.568 356.755 171.635 357.208 170.419 357.208C169.32 357.208 168.382 356.803 167.603 355.992C166.824 355.181 166.435 354.184 166.435 353C166.435 351.816 166.824 350.819 167.603 350.008C168.382 349.197 169.32 348.792 170.419 348.792C171.635 348.792 172.568 349.24 173.219 350.136ZM168.883 354.84C169.363 355.32 169.966 355.56 170.691 355.56C171.416 355.56 172.019 355.32 172.499 354.84C172.979 354.349 173.219 353.736 173.219 353C173.219 352.264 172.979 351.656 172.499 351.176C172.019 350.685 171.416 350.44 170.691 350.44C169.966 350.44 169.363 350.685 168.883 351.176C168.403 351.656 168.163 352.264 168.163 353C168.163 353.725 168.403 354.339 168.883 354.84ZM177.585 349H183.713V357H181.985V350.664H179.313V353.64C179.313 354.888 179.041 355.784 178.497 356.328C177.953 356.872 177.158 357.096 176.113 357V355.384C176.604 355.469 176.972 355.368 177.217 355.08C177.462 354.781 177.585 354.275 177.585 353.56V349ZM187.423 354.072L191.519 349H192.847V357H191.151V351.912L187.055 357H185.727V349H187.423V354.072ZM199.348 352.904C200.201 353.288 200.628 353.923 200.628 354.808C200.628 355.501 200.345 356.077 199.78 356.536C199.214 356.984 198.446 357.208 197.476 357.208C195.865 357.208 194.777 356.568 194.212 355.288L195.62 354.456C195.908 355.256 196.532 355.656 197.492 355.656C197.94 355.656 198.292 355.565 198.548 355.384C198.804 355.192 198.932 354.941 198.932 354.632C198.932 354.355 198.83 354.136 198.628 353.976C198.425 353.805 198.142 353.72 197.78 353.72H196.644V352.2H197.492C197.844 352.2 198.116 352.12 198.308 351.96C198.51 351.789 198.612 351.56 198.612 351.272C198.612 350.995 198.5 350.771 198.276 350.6C198.052 350.419 197.753 350.328 197.38 350.328C196.58 350.328 196.025 350.68 195.716 351.384L194.308 350.584C194.894 349.389 195.908 348.792 197.348 348.792C198.244 348.792 198.953 349.021 199.476 349.48C200.009 349.928 200.276 350.477 200.276 351.128C200.276 351.928 199.966 352.52 199.348 352.904ZM57.704 374.072L61.8 369H63.128V377H61.432V371.912L57.336 377H56.008V369H57.704V374.072ZM64.285 369H71.245V370.664H68.637V377H66.909V370.664H64.285V369ZM78.8698 375.992C78.0591 376.803 77.0618 377.208 75.8778 377.208C74.6938 377.208 73.6964 376.803 72.8858 375.992C72.0644 375.171 71.6538 374.173 71.6538 373C71.6538 371.827 72.0644 370.829 72.8858 370.008C73.6964 369.197 74.6938 368.792 75.8778 368.792C77.0618 368.792 78.0591 369.197 78.8698 370.008C79.6911 370.829 80.1018 371.827 80.1018 373C80.1018 374.173 79.6911 375.171 78.8698 375.992ZM73.3818 373C73.3818 373.725 73.6218 374.328 74.1018 374.808C74.5818 375.288 75.1738 375.528 75.8778 375.528C76.5818 375.528 77.1738 375.288 77.6538 374.808C78.1338 374.328 78.3738 373.725 78.3738 373C78.3738 372.275 78.1338 371.672 77.6538 371.192C77.1738 370.712 76.5818 370.472 75.8778 370.472C75.1738 370.472 74.5818 370.712 74.1018 371.192C73.6218 371.672 73.3818 372.275 73.3818 373ZM81.6643 369H87.0243V370.664H83.3923V377H81.6643V369ZM94.651 375.992C93.8403 376.803 92.843 377.208 91.659 377.208C90.475 377.208 89.4777 376.803 88.667 375.992C87.8457 375.171 87.435 374.173 87.435 373C87.435 371.827 87.8457 370.829 88.667 370.008C89.4777 369.197 90.475 368.792 91.659 368.792C92.843 368.792 93.8403 369.197 94.651 370.008C95.4723 370.829 95.883 371.827 95.883 373C95.883 374.173 95.4723 375.171 94.651 375.992ZM89.163 373C89.163 373.725 89.403 374.328 89.883 374.808C90.363 375.288 90.955 375.528 91.659 375.528C92.363 375.528 92.955 375.288 93.435 374.808C93.915 374.328 94.155 373.725 94.155 373C94.155 372.275 93.915 371.672 93.435 371.192C92.955 370.712 92.363 370.472 91.659 370.472C90.955 370.472 90.363 370.712 89.883 371.192C89.403 371.672 89.163 372.275 89.163 373ZM102.982 372.888C103.771 373.261 104.166 373.875 104.166 374.728C104.166 375.411 103.931 375.96 103.462 376.376C103.003 376.792 102.363 377 101.542 377H97.4455V369H101.222C102.032 369 102.667 369.203 103.126 369.608C103.584 370.013 103.814 370.547 103.814 371.208C103.814 371.965 103.536 372.525 102.982 372.888ZM101.094 370.472H99.0935V372.248H101.094C101.798 372.248 102.15 371.949 102.15 371.352C102.15 370.765 101.798 370.472 101.094 370.472ZM99.0935 375.496H101.382C102.107 375.496 102.47 375.181 102.47 374.552C102.47 374.275 102.374 374.061 102.182 373.912C101.99 373.752 101.723 373.672 101.382 373.672H99.0935V375.496ZM111.267 374.072L115.363 369H116.691V377H114.995V371.912L110.899 377H109.571V369H111.267V374.072ZM128.088 372.184V369H129.816V377H128.088V373.816H124.424V377H122.696V369H124.424V372.184H128.088ZM138.157 370.136V369H139.885V377H138.157V375.848C137.506 376.755 136.573 377.208 135.357 377.208C134.258 377.208 133.319 376.803 132.541 375.992C131.762 375.181 131.373 374.184 131.373 373C131.373 371.816 131.762 370.819 132.541 370.008C133.319 369.197 134.258 368.792 135.357 368.792C136.573 368.792 137.506 369.24 138.157 370.136ZM133.821 374.84C134.301 375.32 134.903 375.56 135.629 375.56C136.354 375.56 136.957 375.32 137.437 374.84C137.917 374.349 138.157 373.736 138.157 373C138.157 372.264 137.917 371.656 137.437 371.176C136.957 370.685 136.354 370.44 135.629 370.44C134.903 370.44 134.301 370.685 133.821 371.176C133.341 371.656 133.101 372.264 133.101 373C133.101 373.725 133.341 374.339 133.821 374.84ZM146.763 372.664V369H148.491V377H146.763V374.296C146.133 374.531 145.461 374.648 144.747 374.648C143.733 374.648 142.944 374.403 142.379 373.912C141.813 373.411 141.531 372.691 141.531 371.752V369H143.259V371.592C143.259 372.552 143.829 373.032 144.971 373.032C145.621 373.032 146.219 372.909 146.763 372.664ZM156.844 370.136V369H158.572V377H156.844V375.848C156.193 376.755 155.26 377.208 154.044 377.208C152.945 377.208 152.007 376.803 151.228 375.992C150.449 375.181 150.06 374.184 150.06 373C150.06 371.816 150.449 370.819 151.228 370.008C152.007 369.197 152.945 368.792 154.044 368.792C155.26 368.792 156.193 369.24 156.844 370.136ZM152.508 374.84C152.988 375.32 153.591 375.56 154.316 375.56C155.041 375.56 155.644 375.32 156.124 374.84C156.604 374.349 156.844 373.736 156.844 373C156.844 372.264 156.604 371.656 156.124 371.176C155.644 370.685 155.041 370.44 154.316 370.44C153.591 370.44 152.988 370.685 152.508 371.176C152.028 371.656 151.788 372.264 151.788 373C151.788 373.725 152.028 374.339 152.508 374.84ZM161.21 369H167.338V377H165.61V370.664H162.938V373.64C162.938 374.888 162.666 375.784 162.122 376.328C161.578 376.872 160.783 377.096 159.738 377V375.384C160.229 375.469 160.597 375.368 160.842 375.08C161.087 374.781 161.21 374.275 161.21 373.56V369ZM176.12 375.992C175.309 376.803 174.312 377.208 173.128 377.208C171.944 377.208 170.946 376.803 170.136 375.992C169.314 375.171 168.904 374.173 168.904 373C168.904 371.827 169.314 370.829 170.136 370.008C170.946 369.197 171.944 368.792 173.128 368.792C174.312 368.792 175.309 369.197 176.12 370.008C176.941 370.829 177.352 371.827 177.352 373C177.352 374.173 176.941 375.171 176.12 375.992ZM170.632 373C170.632 373.725 170.872 374.328 171.352 374.808C171.832 375.288 172.424 375.528 173.128 375.528C173.832 375.528 174.424 375.288 174.904 374.808C175.384 374.328 175.624 373.725 175.624 373C175.624 372.275 175.384 371.672 174.904 371.192C174.424 370.712 173.832 370.472 173.128 370.472C172.424 370.472 171.832 370.712 171.352 371.192C170.872 371.672 170.632 372.275 170.632 373ZM187.442 368.792C188.53 368.792 189.469 369.203 190.258 370.024C191.037 370.835 191.426 371.827 191.426 373C191.426 374.184 191.037 375.181 190.258 375.992C189.48 376.803 188.541 377.208 187.442 377.208C186.237 377.208 185.304 376.76 184.642 375.864V380.2H182.914V369H184.642V370.152C185.293 369.245 186.226 368.792 187.442 368.792ZM185.362 374.84C185.842 375.32 186.445 375.56 187.17 375.56C187.896 375.56 188.498 375.32 188.978 374.84C189.458 374.349 189.698 373.736 189.698 373C189.698 372.264 189.458 371.656 188.978 371.176C188.498 370.685 187.896 370.44 187.17 370.44C186.445 370.44 185.842 370.685 185.362 371.176C184.882 371.656 184.642 372.264 184.642 373C184.642 373.725 184.882 374.339 185.362 374.84ZM199.328 370.136V369H201.056V377H199.328V375.848C198.678 376.755 197.744 377.208 196.528 377.208C195.43 377.208 194.491 376.803 193.712 375.992C192.934 375.181 192.544 374.184 192.544 373C192.544 371.816 192.934 370.819 193.712 370.008C194.491 369.197 195.43 368.792 196.528 368.792C197.744 368.792 198.678 369.24 199.328 370.136ZM194.992 374.84C195.472 375.32 196.075 375.56 196.8 375.56C197.526 375.56 198.128 375.32 198.608 374.84C199.088 374.349 199.328 373.736 199.328 373C199.328 372.264 199.088 371.656 198.608 371.176C198.128 370.685 197.526 370.44 196.8 370.44C196.075 370.44 195.472 370.685 194.992 371.176C194.512 371.656 194.272 372.264 194.272 373C194.272 373.725 194.512 374.339 194.992 374.84ZM206.783 377.208C205.567 377.208 204.564 376.813 203.775 376.024C203.007 375.224 202.623 374.205 202.623 372.968C202.623 371.624 202.825 370.579 203.231 369.832C203.625 369.096 204.447 368.419 205.695 367.8C205.737 367.779 205.807 367.747 205.903 367.704C206.009 367.651 206.121 367.597 206.239 367.544C206.356 367.491 206.473 367.437 206.591 367.384C207.039 367.181 207.316 367.053 207.423 367C207.487 366.968 207.673 366.851 207.983 366.648C208.356 366.381 208.607 366.003 208.735 365.512L210.142 366.328C210.089 366.915 209.721 367.453 209.039 367.944C208.921 368.051 208.703 368.179 208.383 368.328L207.695 368.648L206.895 368.984C206.201 369.261 205.689 369.544 205.359 369.832C205.028 370.12 204.799 370.488 204.671 370.936C205.311 370.211 206.18 369.848 207.279 369.848C208.217 369.848 209.033 370.184 209.727 370.856C210.431 371.528 210.783 372.397 210.783 373.464C210.783 374.552 210.409 375.448 209.663 376.152C208.927 376.856 207.967 377.208 206.783 377.208ZM206.766 375.592C207.439 375.592 207.988 375.395 208.415 375C208.841 374.595 209.055 374.083 209.055 373.464C209.055 372.835 208.841 372.317 208.415 371.912C207.999 371.507 207.455 371.304 206.783 371.304C206.185 371.304 205.647 371.496 205.167 371.88C204.687 372.243 204.447 372.744 204.447 373.384C204.447 374.024 204.671 374.552 205.119 374.968C205.567 375.384 206.116 375.592 206.766 375.592ZM218.917 375.992C218.106 376.803 217.109 377.208 215.925 377.208C214.741 377.208 213.743 376.803 212.933 375.992C212.111 375.171 211.701 374.173 211.701 373C211.701 371.827 212.111 370.829 212.933 370.008C213.743 369.197 214.741 368.792 215.925 368.792C217.109 368.792 218.106 369.197 218.917 370.008C219.738 370.829 220.149 371.827 220.149 373C220.149 374.173 219.738 375.171 218.917 375.992ZM213.429 373C213.429 373.725 213.669 374.328 214.149 374.808C214.629 375.288 215.221 375.528 215.925 375.528C216.629 375.528 217.221 375.288 217.701 374.808C218.181 374.328 218.421 373.725 218.421 373C218.421 372.275 218.181 371.672 217.701 371.192C217.221 370.712 216.629 370.472 215.925 370.472C215.221 370.472 214.629 370.712 214.149 371.192C213.669 371.672 213.429 372.275 213.429 373ZM220.551 369H227.511V370.664H224.903V377H223.175V370.664H220.551V369ZM230.408 371.72H232.168C233.032 371.72 233.731 371.965 234.264 372.456C234.808 372.936 235.08 373.571 235.08 374.36C235.08 375.139 234.808 375.773 234.264 376.264C233.731 376.755 233.032 377 232.168 377H228.68V369H230.408V371.72ZM236.04 377V369H237.768V377H236.04ZM230.408 375.448H232.184C232.525 375.448 232.808 375.347 233.032 375.144C233.267 374.941 233.384 374.68 233.384 374.36C233.384 374.04 233.272 373.779 233.048 373.576C232.824 373.373 232.536 373.272 232.184 373.272H230.408V375.448Z" fill="#92A2BB"/>
<rect x="11" y="323" width="310" height="4" fill="#FD7542"/>
</g>
<g filter="url(#filter4_d_149_4423)">
<rect x="11" y="427" width="310" height="80" rx="16" fill="white"/>
<path fill-rule="evenodd" clip-rule="evenodd" d="M31.1667 462.208C29.901 462.208 28.875 463.235 28.875 464.5V472C28.875 473.266 29.901 474.292 31.1667 474.292H42.8333C44.099 474.292 45.125 473.266 45.125 472V464.5C45.125 463.235 44.099 462.208 42.8333 462.208H31.1667ZM40.75 467.208C40.1747 467.208 39.7083 467.675 39.7083 468.25C39.7083 468.825 40.1747 469.292 40.75 469.292C41.3252 469.292 41.7917 468.825 41.7917 468.25C41.7917 467.675 41.3252 467.208 40.75 467.208Z" fill="#7E36FD"/>
<path d="M40.7372 459.557C41.7953 459.275 42.8333 460.073 42.8333 461.168H34.5L40.7372 459.557Z" fill="#7E36FD"/>
<path d="M65.48 469.528C64.36 470.648 62.9893 471.208 61.368 471.208C59.7467 471.208 58.3707 470.648 57.24 469.528C56.12 468.397 55.56 467.021 55.56 465.4C55.56 463.779 56.12 462.408 57.24 461.288C58.3707 460.157 59.7467 459.592 61.368 459.592C62.9893 459.592 64.36 460.157 65.48 461.288C66.6107 462.408 67.176 463.779 67.176 465.4C67.176 467.021 66.6107 468.397 65.48 469.528ZM58.536 468.28C59.3147 469.037 60.2587 469.416 61.368 469.416C62.488 469.416 63.4267 469.037 64.184 468.28C64.952 467.512 65.336 466.552 65.336 465.4C65.336 464.248 64.952 463.293 64.184 462.536C63.4267 461.768 62.488 461.384 61.368 461.384C60.248 461.384 59.304 461.768 58.536 462.536C57.7787 463.293 57.4 464.248 57.4 465.4C57.4 466.541 57.7787 467.501 58.536 468.28ZM68.7424 463H75.8624V471H74.1344V464.632H70.4704V471H68.7424V463ZM78.4914 463H84.6194V471H82.8914V464.664H80.2194V467.64C80.2194 468.888 79.9474 469.784 79.4034 470.328C78.8594 470.872 78.0647 471.096 77.0194 471V469.384C77.51 469.469 77.878 469.368 78.1234 469.08C78.3687 468.781 78.4914 468.275 78.4914 467.56V463ZM92.969 464.136V463H94.697V471H92.969V469.848C92.3183 470.755 91.385 471.208 90.169 471.208C89.0703 471.208 88.1317 470.803 87.353 469.992C86.5743 469.181 86.185 468.184 86.185 467C86.185 465.816 86.5743 464.819 87.353 464.008C88.1317 463.197 89.0703 462.792 90.169 462.792C91.385 462.792 92.3183 463.24 92.969 464.136ZM88.633 468.84C89.113 469.32 89.7157 469.56 90.441 469.56C91.1663 469.56 91.769 469.32 92.249 468.84C92.729 468.349 92.969 467.736 92.969 467C92.969 466.264 92.729 465.656 92.249 465.176C91.769 464.685 91.1663 464.44 90.441 464.44C89.7157 464.44 89.113 464.685 88.633 465.176C88.153 465.656 87.913 466.264 87.913 467C87.913 467.725 88.153 468.339 88.633 468.84ZM95.8631 463H102.823V464.664H100.215V471H98.4871V464.664H95.8631V463ZM110.016 464.136V463H111.744V471H110.016V469.848C109.365 470.755 108.432 471.208 107.216 471.208C106.117 471.208 105.179 470.803 104.4 469.992C103.621 469.181 103.232 468.184 103.232 467C103.232 465.816 103.621 464.819 104.4 464.008C105.179 463.197 106.117 462.792 107.216 462.792C108.432 462.792 109.365 463.24 110.016 464.136ZM105.68 468.84C106.16 469.32 106.763 469.56 107.488 469.56C108.213 469.56 108.816 469.32 109.296 468.84C109.776 468.349 110.016 467.736 110.016 467C110.016 466.264 109.776 465.656 109.296 465.176C108.816 464.685 108.213 464.44 107.488 464.44C106.763 464.44 106.16 464.685 105.68 465.176C105.2 465.656 104.96 466.264 104.96 467C104.96 467.725 105.2 468.339 105.68 468.84ZM117.758 463H124.878V471H123.15V464.632H119.486V471H117.758V463ZM133.651 469.992C132.84 470.803 131.843 471.208 130.659 471.208C129.475 471.208 128.478 470.803 127.667 469.992C126.846 469.171 126.435 468.173 126.435 467C126.435 465.827 126.846 464.829 127.667 464.008C128.478 463.197 129.475 462.792 130.659 462.792C131.843 462.792 132.84 463.197 133.651 464.008C134.472 464.829 134.883 465.827 134.883 467C134.883 468.173 134.472 469.171 133.651 469.992ZM128.163 467C128.163 467.725 128.403 468.328 128.883 468.808C129.363 469.288 129.955 469.528 130.659 469.528C131.363 469.528 131.955 469.288 132.435 468.808C132.915 468.328 133.155 467.725 133.155 467C133.155 466.275 132.915 465.672 132.435 465.192C131.955 464.712 131.363 464.472 130.659 464.472C129.955 464.472 129.363 464.712 128.883 465.192C128.403 465.672 128.163 466.275 128.163 467ZM140.446 463H147.566V471H145.838V464.632H142.174V471H140.446V463ZM156.339 469.992C155.528 470.803 154.531 471.208 153.347 471.208C152.163 471.208 151.165 470.803 150.355 469.992C149.533 469.171 149.123 468.173 149.123 467C149.123 465.827 149.533 464.829 150.355 464.008C151.165 463.197 152.163 462.792 153.347 462.792C154.531 462.792 155.528 463.197 156.339 464.008C157.16 464.829 157.571 465.827 157.571 467C157.571 468.173 157.16 469.171 156.339 469.992ZM150.851 467C150.851 467.725 151.091 468.328 151.571 468.808C152.051 469.288 152.643 469.528 153.347 469.528C154.051 469.528 154.643 469.288 155.123 468.808C155.603 468.328 155.843 467.725 155.843 467C155.843 466.275 155.603 465.672 155.123 465.192C154.643 464.712 154.051 464.472 153.347 464.472C152.643 464.472 152.051 464.712 151.571 465.192C151.091 465.672 150.851 466.275 150.851 467ZM165.861 463V469.368H166.933V473.144H165.237V471H159.749V473.144H158.053V469.368H159.029C159.519 468.685 159.765 467.72 159.765 466.472V463H165.861ZM160.933 469.368H164.165V464.584H161.461V466.472C161.461 467.624 161.285 468.589 160.933 469.368ZM168.336 463H175.456V471H173.728V464.632H170.064V471H168.336V463ZM179.157 468.072L183.253 463H184.581V471H182.885V465.912L178.789 471H177.461V463H179.157V468.072ZM190.362 471.208C189.157 471.208 188.149 470.803 187.338 469.992C186.538 469.171 186.138 468.173 186.138 467C186.138 465.805 186.538 464.808 187.338 464.008C188.149 463.197 189.157 462.792 190.362 462.792C191.141 462.792 191.85 462.979 192.49 463.352C193.13 463.725 193.61 464.227 193.93 464.856L192.442 465.72C192.261 465.336 191.983 465.037 191.61 464.824C191.247 464.6 190.826 464.488 190.346 464.488C189.642 464.488 189.05 464.728 188.57 465.208C188.101 465.699 187.866 466.296 187.866 467C187.866 467.704 188.101 468.301 188.57 468.792C189.05 469.272 189.642 469.512 190.346 469.512C190.815 469.512 191.237 469.405 191.61 469.192C191.994 468.968 192.282 468.664 192.474 468.28L193.962 469.128C193.621 469.768 193.125 470.275 192.474 470.648C191.834 471.021 191.13 471.208 190.362 471.208ZM198.682 466.92L202.33 471H200.266L196.986 467.304V471H195.258V463H196.986V466.536L200.09 463H202.202L198.682 466.92ZM210.58 467.736H204.212C204.34 468.333 204.628 468.797 205.076 469.128C205.534 469.459 206.1 469.624 206.772 469.624C207.678 469.624 208.366 469.293 208.836 468.632L210.26 469.464C209.481 470.627 208.313 471.208 206.756 471.208C205.465 471.208 204.414 470.813 203.604 470.024C202.804 469.224 202.404 468.216 202.404 467C202.404 465.816 202.798 464.819 203.588 464.008C204.366 463.197 205.38 462.792 206.628 462.792C207.79 462.792 208.75 463.203 209.508 464.024C210.265 464.845 210.644 465.843 210.644 467.016C210.644 467.229 210.622 467.469 210.58 467.736ZM204.196 466.328H208.9C208.782 465.699 208.516 465.213 208.1 464.872C207.694 464.531 207.198 464.36 206.612 464.36C205.972 464.36 205.438 464.536 205.012 464.888C204.585 465.24 204.313 465.72 204.196 466.328Z" fill="#92A2BB"/>
<rect x="11" y="427" width="310" height="4" fill="#7E36FD"/>
</g>
<defs>
<filter id="filter0_d_149_4423" x="0.9" y="0.9" width="330.2" height="100.2" filterUnits="userSpaceOnUse" color-interpolation-filters="sRGB">
<feFlood flood-opacity="0" result="BackgroundImageFix"/>
<feColorMatrix in="SourceAlpha" type="matrix" values="0 0 0 0 0 0 0 0 0 0 0 0 0 0 0 0 0 0 127 0" result="hardAlpha"/>
<feOffset/>
<feGaussianBlur stdDeviation="5.05"/>
<feComposite in2="hardAlpha" operator="out"/>
<feColorMatrix type="matrix" values="0 0 0 0 0.501923 0 0 0 0 0.501923 0 0 0 0 0.501923 0 0 0 0.1 0"/>
<feBlend mode="normal" in2="BackgroundImageFix" result="effect1_dropShadow_149_4423"/>
<feBlend mode="normal" in="SourceGraphic" in2="effect1_dropShadow_149_4423" result="shape"/>
</filter>
<filter id="filter1_d_149_4423" x="0.9" y="104.9" width="330.2" height="100.2" filterUnits="userSpaceOnUse" color-interpolation-filters="sRGB">
<feFlood flood-opacity="0" result="BackgroundImageFix"/>
<feColorMatrix in="SourceAlpha" type="matrix" values="0 0 0 0 0 0 0 0 0 0 0 0 0 0 0 0 0 0 127 0" result="hardAlpha"/>
<feOffset/>
<feGaussianBlur stdDeviation="5.05"/>
<feComposite in2="hardAlpha" operator="out"/>
<feColorMatrix type="matrix" values="0 0 0 0 0.501923 0 0 0 0 0.501923 0 0 0 0 0.501923 0 0 0 0.1 0"/>
<feBlend mode="normal" in2="BackgroundImageFix" result="effect1_dropShadow_149_4423"/>
<feBlend mode="normal" in="SourceGraphic" in2="effect1_dropShadow_149_4423" result="shape"/>
</filter>
<filter id="filter2_d_149_4423" x="0.9" y="208.9" width="330.2" height="100.2" filterUnits="userSpaceOnUse" color-interpolation-filters="sRGB">
<feFlood flood-opacity="0" result="BackgroundImageFix"/>
<feColorMatrix in="SourceAlpha" type="matrix" values="0 0 0 0 0 0 0 0 0 0 0 0 0 0 0 0 0 0 127 0" result="hardAlpha"/>
<feOffset/>
<feGaussianBlur stdDeviation="5.05"/>
<feComposite in2="hardAlpha" operator="out"/>
<feColorMatrix type="matrix" values="0 0 0 0 0.501923 0 0 0 0 0.501923 0 0 0 0 0.501923 0 0 0 0.1 0"/>
<feBlend mode="normal" in2="BackgroundImageFix" result="effect1_dropShadow_149_4423"/>
<feBlend mode="normal" in="SourceGraphic" in2="effect1_dropShadow_149_4423" result="shape"/>
</filter>
<filter id="filter3_d_149_4423" x="0.9" y="312.9" width="330.2" height="100.2" filterUnits="userSpaceOnUse" color-interpolation-filters="sRGB">
<feFlood flood-opacity="0" result="BackgroundImageFix"/>
<feColorMatrix in="SourceAlpha" type="matrix" values="0 0 0 0 0 0 0 0 0 0 0 0 0 0 0 0 0 0 127 0" result="hardAlpha"/>
<feOffset/>
<feGaussianBlur stdDeviation="5.05"/>
<feComposite in2="hardAlpha" operator="out"/>
<feColorMatrix type="matrix" values="0 0 0 0 0.501923 0 0 0 0 0.501923 0 0 0 0 0.501923 0 0 0 0.1 0"/>
<feBlend mode="normal" in2="BackgroundImageFix" result="effect1_dropShadow_149_4423"/>
<feBlend mode="normal" in="SourceGraphic" in2="effect1_dropShadow_149_4423" result="shape"/>
</filter>
<filter id="filter4_d_149_4423" x="0.9" y="416.9" width="330.2" height="100.2" filterUnits="userSpaceOnUse" color-interpolation-filters="sRGB">
<feFlood flood-opacity="0" result="BackgroundImageFix"/>
<feColorMatrix in="SourceAlpha" type="matrix" values="0 0 0 0 0 0 0 0 0 0 0 0 0 0 0 0 0 0 127 0" result="hardAlpha"/>
<feOffset/>
<feGaussianBlur stdDeviation="5.05"/>
<feComposite in2="hardAlpha" operator="out"/>
<feColorMatrix type="matrix" values="0 0 0 0 0.501923 0 0 0 0 0.501923 0 0 0 0 0.501923 0 0 0 0.1 0"/>
<feBlend mode="normal" in2="BackgroundImageFix" result="effect1_dropShadow_149_4423"/>
<feBlend mode="normal" in="SourceGraphic" in2="effect1_dropShadow_149_4423" result="shape"/>
</filter>
</defs>
</svg>
