<svg width="58" height="58" viewBox="0 0 58 58" fill="none" xmlns="http://www.w3.org/2000/svg">
<g filter="url(#filter0_d_43_611)">
<rect x="11" y="11" width="36" height="36" rx="18" fill="white" shape-rendering="crispEdges"/>
<path d="M26.0041 29.0461C26.0041 27.3878 27.3476 26.0432 29.0054 26.0432C30.6632 26.0432 32.0074 27.3878 32.0074 29.0461C32.0074 30.7044 30.6632 32.049 29.0054 32.049C27.3476 32.049 26.0041 30.7044 26.0041 29.0461ZM24.3812 29.0461C24.3812 31.6008 26.4515 33.6716 29.0054 33.6716C31.5593 33.6716 33.6296 31.6008 33.6296 29.0461C33.6296 26.4914 31.5593 24.4206 29.0054 24.4206C26.4515 24.4206 24.3812 26.4914 24.3812 29.0461ZM32.732 24.2372C32.7319 24.451 32.7952 24.66 32.9139 24.8378C33.0325 25.0156 33.2013 25.1542 33.3987 25.2361C33.5961 25.318 33.8134 25.3395 34.023 25.2979C34.2327 25.2563 34.4253 25.1534 34.5765 25.0023C34.7276 24.8512 34.8306 24.6586 34.8724 24.4489C34.9142 24.2393 34.8929 24.0219 34.8112 23.8243C34.7295 23.6268 34.591 23.4579 34.4134 23.3391C34.2357 23.2202 34.0268 23.1567 33.8131 23.1567H33.8126C33.5261 23.1568 33.2514 23.2707 33.0488 23.4733C32.8462 23.6759 32.7322 23.9506 32.732 24.2372ZM25.3672 36.3784C24.4892 36.3384 24.012 36.1921 23.6949 36.0685C23.2744 35.9048 22.9744 35.7098 22.659 35.3947C22.3436 35.0796 22.1484 34.7799 21.9854 34.3593C21.8618 34.0422 21.7156 33.5647 21.6757 32.6865C21.632 31.737 21.6233 31.4517 21.6233 29.0462C21.6233 26.6406 21.6327 26.3562 21.6757 25.4058C21.7156 24.5276 21.863 24.051 21.9854 23.733C22.1491 23.3125 22.3441 23.0124 22.659 22.6969C22.974 22.3814 23.2737 22.1861 23.6949 22.0231C24.0119 21.8994 24.4892 21.7531 25.3672 21.7132C26.3165 21.6695 26.6016 21.6608 29.0054 21.6608C31.4092 21.6608 31.6946 21.6703 32.6447 21.7132C33.5227 21.7532 33.9991 21.9006 34.317 22.0231C34.7374 22.1861 35.0374 22.3818 35.3528 22.6969C35.6682 23.012 35.8628 23.3125 36.0264 23.733C36.1501 24.0501 36.2963 24.5276 36.3362 25.4058C36.3799 26.3562 36.3886 26.6406 36.3886 29.0462C36.3886 31.4517 36.3799 31.7362 36.3362 32.6865C36.2962 33.5647 36.1493 34.0421 36.0264 34.3593C35.8628 34.7799 35.6678 35.0799 35.3528 35.3947C35.0379 35.7095 34.7374 35.9048 34.317 36.0685C34 36.1922 33.5227 36.3385 32.6447 36.3784C31.6954 36.4221 31.4103 36.4308 29.0054 36.4308C26.6005 36.4308 26.3162 36.4221 25.3672 36.3784ZM25.2927 20.0926C24.334 20.1363 23.6789 20.2884 23.1068 20.511C22.5143 20.741 22.0127 21.0495 21.5115 21.5501C21.0103 22.0506 20.7027 22.5531 20.4728 23.1458C20.2502 23.7184 20.0982 24.3733 20.0545 25.3323C20.0102 26.2927 20 26.5998 20 29.0461C20 31.4924 20.0102 31.7994 20.0545 32.7599C20.0982 33.7189 20.2502 34.3738 20.4728 34.9464C20.7027 35.5387 21.0104 36.0418 21.5115 36.5421C22.0127 37.0425 22.5143 37.3505 23.1068 37.5811C23.68 37.8038 24.334 37.9559 25.2927 37.9995C26.2533 38.0432 26.5598 38.0541 29.0054 38.0541C31.451 38.0541 31.758 38.0439 32.7181 37.9995C33.6769 37.9559 34.3316 37.8038 34.904 37.5811C35.4961 37.3505 35.9981 37.0427 36.4993 36.5421C37.0005 36.0416 37.3074 35.5387 37.538 34.9464C37.7606 34.3738 37.9133 33.7189 37.9563 32.7599C37.9999 31.7987 38.0101 31.4924 38.0101 29.0461C38.0101 26.5998 37.9999 26.2927 37.9563 25.3323C37.9126 24.3732 37.7606 23.718 37.538 23.1458C37.3074 22.5535 36.9997 22.0514 36.4993 21.5501C35.9988 21.0487 35.4961 20.741 34.9047 20.511C34.3316 20.2884 33.6768 20.1356 32.7189 20.0926C31.7587 20.049 31.4517 20.0381 29.0061 20.0381C26.5605 20.0381 26.2533 20.0482 25.2927 20.0926Z" fill="#285CB6"/>
<path d="M26.0041 29.0461C26.0041 27.3878 27.3476 26.0432 29.0054 26.0432C30.6632 26.0432 32.0074 27.3878 32.0074 29.0461C32.0074 30.7044 30.6632 32.049 29.0054 32.049C27.3476 32.049 26.0041 30.7044 26.0041 29.0461ZM24.3812 29.0461C24.3812 31.6008 26.4515 33.6716 29.0054 33.6716C31.5593 33.6716 33.6296 31.6008 33.6296 29.0461C33.6296 26.4914 31.5593 24.4206 29.0054 24.4206C26.4515 24.4206 24.3812 26.4914 24.3812 29.0461ZM32.732 24.2372C32.7319 24.451 32.7952 24.66 32.9139 24.8378C33.0325 25.0156 33.2013 25.1542 33.3987 25.2361C33.5961 25.318 33.8134 25.3395 34.023 25.2979C34.2327 25.2563 34.4253 25.1534 34.5765 25.0023C34.7276 24.8512 34.8306 24.6586 34.8724 24.4489C34.9142 24.2393 34.8929 24.0219 34.8112 23.8243C34.7295 23.6268 34.591 23.4579 34.4134 23.3391C34.2357 23.2202 34.0268 23.1567 33.8131 23.1567H33.8126C33.5261 23.1568 33.2514 23.2707 33.0488 23.4733C32.8462 23.6759 32.7322 23.9506 32.732 24.2372ZM25.3672 36.3784C24.4892 36.3384 24.012 36.1921 23.6949 36.0685C23.2744 35.9048 22.9744 35.7098 22.659 35.3947C22.3436 35.0796 22.1484 34.7799 21.9854 34.3593C21.8618 34.0422 21.7156 33.5647 21.6757 32.6865C21.632 31.737 21.6233 31.4517 21.6233 29.0462C21.6233 26.6406 21.6327 26.3562 21.6757 25.4058C21.7156 24.5276 21.863 24.051 21.9854 23.733C22.1491 23.3125 22.3441 23.0124 22.659 22.6969C22.974 22.3814 23.2737 22.1861 23.6949 22.0231C24.0119 21.8994 24.4892 21.7531 25.3672 21.7132C26.3165 21.6695 26.6016 21.6608 29.0054 21.6608C31.4092 21.6608 31.6946 21.6703 32.6447 21.7132C33.5227 21.7532 33.9991 21.9006 34.317 22.0231C34.7374 22.1861 35.0374 22.3818 35.3528 22.6969C35.6682 23.012 35.8628 23.3125 36.0264 23.733C36.1501 24.0501 36.2963 24.5276 36.3362 25.4058C36.3799 26.3562 36.3886 26.6406 36.3886 29.0462C36.3886 31.4517 36.3799 31.7362 36.3362 32.6865C36.2962 33.5647 36.1493 34.0421 36.0264 34.3593C35.8628 34.7799 35.6678 35.0799 35.3528 35.3947C35.0379 35.7095 34.7374 35.9048 34.317 36.0685C34 36.1922 33.5227 36.3385 32.6447 36.3784C31.6954 36.4221 31.4103 36.4308 29.0054 36.4308C26.6005 36.4308 26.3162 36.4221 25.3672 36.3784ZM25.2927 20.0926C24.334 20.1363 23.6789 20.2884 23.1068 20.511C22.5143 20.741 22.0127 21.0495 21.5115 21.5501C21.0103 22.0506 20.7027 22.5531 20.4728 23.1458C20.2502 23.7184 20.0982 24.3733 20.0545 25.3323C20.0102 26.2927 20 26.5998 20 29.0461C20 31.4924 20.0102 31.7994 20.0545 32.7599C20.0982 33.7189 20.2502 34.3738 20.4728 34.9464C20.7027 35.5387 21.0104 36.0418 21.5115 36.5421C22.0127 37.0425 22.5143 37.3505 23.1068 37.5811C23.68 37.8038 24.334 37.9559 25.2927 37.9995C26.2533 38.0432 26.5598 38.0541 29.0054 38.0541C31.451 38.0541 31.758 38.0439 32.7181 37.9995C33.6769 37.9559 34.3316 37.8038 34.904 37.5811C35.4961 37.3505 35.9981 37.0427 36.4993 36.5421C37.0005 36.0416 37.3074 35.5387 37.538 34.9464C37.7606 34.3738 37.9133 33.7189 37.9563 32.7599C37.9999 31.7987 38.0101 31.4924 38.0101 29.0461C38.0101 26.5998 37.9999 26.2927 37.9563 25.3323C37.9126 24.3732 37.7606 23.718 37.538 23.1458C37.3074 22.5535 36.9997 22.0514 36.4993 21.5501C35.9988 21.0487 35.4961 20.741 34.9047 20.511C34.3316 20.2884 33.6768 20.1356 32.7189 20.0926C31.7587 20.049 31.4517 20.0381 29.0061 20.0381C26.5605 20.0381 26.2533 20.0482 25.2927 20.0926Z" fill="#285CB6"/>
</g>
<defs>
<filter id="filter0_d_43_611" x="0.9" y="0.9" width="56.2" height="56.2" filterUnits="userSpaceOnUse" color-interpolation-filters="sRGB">
<feFlood flood-opacity="0" result="BackgroundImageFix"/>
<feColorMatrix in="SourceAlpha" type="matrix" values="0 0 0 0 0 0 0 0 0 0 0 0 0 0 0 0 0 0 127 0" result="hardAlpha"/>
<feOffset/>
<feGaussianBlur stdDeviation="5.05"/>
<feComposite in2="hardAlpha" operator="out"/>
<feColorMatrix type="matrix" values="0 0 0 0 0.780769 0 0 0 0 0.780769 0 0 0 0 0.780769 0 0 0 0.15 0"/>
<feBlend mode="normal" in2="BackgroundImageFix" result="effect1_dropShadow_43_611"/>
<feBlend mode="normal" in="SourceGraphic" in2="effect1_dropShadow_43_611" result="shape"/>
</filter>
</defs>
</svg>
