<svg width="58" height="58" viewBox="0 0 58 58" fill="none" xmlns="http://www.w3.org/2000/svg">
<g filter="url(#filter0_d_43_613)">
<rect x="11" y="11" width="36" height="36" rx="18" fill="white" shape-rendering="crispEdges"/>
<path d="M21.0153 28.3626C21.0153 28.3626 28.3394 25.2778 30.8795 24.1916C31.8532 23.7571 35.1554 22.3667 35.1554 22.3667C35.1554 22.3667 36.6795 21.7585 36.5525 23.2357C36.5101 23.844 36.1714 25.9729 35.8328 28.2757C35.3247 31.5343 34.7744 35.097 34.7744 35.097C34.7744 35.097 34.6897 36.0963 33.97 36.2701C33.2503 36.4439 32.0649 35.6619 31.8532 35.488C31.6838 35.3577 28.678 33.4025 27.5773 32.4467C27.2809 32.186 26.9423 31.6647 27.6196 31.0564C29.1437 29.6226 30.9641 27.8412 32.0649 26.7116C32.5729 26.1902 33.0809 24.9736 30.9641 26.4508C27.9583 28.5798 24.9948 30.5784 24.9948 30.5784C24.9948 30.5784 24.3174 31.0129 23.0474 30.6219C21.7773 30.2309 20.2955 29.7095 20.2955 29.7095C20.2955 29.7095 19.2795 29.0578 21.0153 28.3626Z" fill="#285CB6"/>
</g>
<defs>
<filter id="filter0_d_43_613" x="0.9" y="0.9" width="56.2" height="56.2" filterUnits="userSpaceOnUse" color-interpolation-filters="sRGB">
<feFlood flood-opacity="0" result="BackgroundImageFix"/>
<feColorMatrix in="SourceAlpha" type="matrix" values="0 0 0 0 0 0 0 0 0 0 0 0 0 0 0 0 0 0 127 0" result="hardAlpha"/>
<feOffset/>
<feGaussianBlur stdDeviation="5.05"/>
<feComposite in2="hardAlpha" operator="out"/>
<feColorMatrix type="matrix" values="0 0 0 0 0.780769 0 0 0 0 0.780769 0 0 0 0 0.780769 0 0 0 0.15 0"/>
<feBlend mode="normal" in2="BackgroundImageFix" result="effect1_dropShadow_43_613"/>
<feBlend mode="normal" in="SourceGraphic" in2="effect1_dropShadow_43_613" result="shape"/>
</filter>
</defs>
</svg>
