<svg width="58" height="58" viewBox="0 0 58 58" fill="none" xmlns="http://www.w3.org/2000/svg">
<g filter="url(#filter0_d_43_612)">
<rect x="11" y="11" width="36" height="36" rx="18" fill="white" shape-rendering="crispEdges"/>
<path d="M20 37.3334L21.2915 32.5314C20.2499 30.6608 19.919 28.478 20.3595 26.3835C20.7999 24.289 21.9822 22.4233 23.6893 21.1287C25.3964 19.8342 27.5138 19.1977 29.6531 19.336C31.7923 19.4743 33.8099 20.3781 35.3355 21.8816C36.8611 23.3851 37.7925 25.3875 37.9587 27.5212C38.1248 29.6549 37.5147 31.7769 36.2402 33.4978C34.9658 35.2187 33.1124 36.423 31.0203 36.8898C28.9282 37.3566 26.7376 37.0545 24.8506 36.039L20 37.3334ZM25.0845 34.2421L25.3845 34.4197C26.7513 35.2285 28.3477 35.5632 29.9249 35.3717C31.5022 35.1801 32.9717 34.473 34.1044 33.3606C35.2371 32.2483 35.9694 30.793 36.1871 29.2218C36.4049 27.6505 36.096 26.0514 35.3084 24.6738C34.5208 23.2961 33.2989 22.2173 31.833 21.6053C30.3671 20.9933 28.7397 20.8827 27.2042 21.2905C25.6688 21.6984 24.3116 22.6019 23.3442 23.8602C22.3768 25.1185 21.8535 26.661 21.8558 28.2472C21.8546 29.5625 22.2189 30.8523 22.9083 31.9731L23.0965 32.2827L22.3745 34.9629L25.0845 34.2421Z" fill="#285CB6"/>
<path fill-rule="evenodd" clip-rule="evenodd" d="M32.3654 29.4806C32.1895 29.339 31.9836 29.2393 31.7633 29.1892C31.543 29.139 31.3142 29.1397 31.0942 29.1912C30.7637 29.3283 30.5502 29.8461 30.3366 30.1049C30.2916 30.167 30.2254 30.2105 30.1506 30.2273C30.0757 30.2442 29.9972 30.2331 29.9299 30.1963C28.7199 29.7232 27.7058 28.8556 27.0521 27.7344C26.9963 27.6644 26.9699 27.5756 26.9785 27.4866C26.987 27.3976 27.0298 27.3154 27.0978 27.2573C27.336 27.0219 27.5109 26.7303 27.6063 26.4096C27.6275 26.0558 27.5463 25.7034 27.3724 25.3944C27.238 24.9611 26.9821 24.5754 26.6351 24.2827C26.4562 24.2023 26.2577 24.1754 26.0638 24.2051C25.8698 24.2348 25.6886 24.32 25.542 24.4502C25.2875 24.6694 25.0855 24.9428 24.9508 25.2503C24.8162 25.5578 24.7524 25.8915 24.764 26.2268C24.7648 26.4152 24.7887 26.6027 24.8352 26.7852C24.9533 27.2237 25.1349 27.6427 25.3742 28.0288C25.5469 28.3246 25.7353 28.611 25.9386 28.8867C26.5993 29.7922 27.4299 30.5611 28.3842 31.1506C28.8631 31.4502 29.3749 31.6937 29.9095 31.8765C30.4649 32.1278 31.0781 32.2243 31.684 32.1557C32.0292 32.1035 32.3563 31.9674 32.6365 31.7594C32.9167 31.5514 33.1413 31.2778 33.2907 30.9628C33.3785 30.7725 33.4051 30.5597 33.367 30.3537C33.2755 29.9323 32.7111 29.6836 32.3654 29.4806Z" fill="#285CB6"/>
</g>
<defs>
<filter id="filter0_d_43_612" x="0.9" y="0.9" width="56.2" height="56.2" filterUnits="userSpaceOnUse" color-interpolation-filters="sRGB">
<feFlood flood-opacity="0" result="BackgroundImageFix"/>
<feColorMatrix in="SourceAlpha" type="matrix" values="0 0 0 0 0 0 0 0 0 0 0 0 0 0 0 0 0 0 127 0" result="hardAlpha"/>
<feOffset/>
<feGaussianBlur stdDeviation="5.05"/>
<feComposite in2="hardAlpha" operator="out"/>
<feColorMatrix type="matrix" values="0 0 0 0 0.780769 0 0 0 0 0.780769 0 0 0 0 0.780769 0 0 0 0.15 0"/>
<feBlend mode="normal" in2="BackgroundImageFix" result="effect1_dropShadow_43_612"/>
<feBlend mode="normal" in="SourceGraphic" in2="effect1_dropShadow_43_612" result="shape"/>
</filter>
</defs>
</svg>
