<svg width="213" height="248" viewBox="0 0 213 248" fill="none" xmlns="http://www.w3.org/2000/svg">
<g filter="url(#filter0_d_105_3131)">
<rect x="-11" y="12.3394" width="178.44" height="231.637" rx="14.6993" transform="rotate(-10.1153 -11 12.3394)" fill="white" shape-rendering="crispEdges"/>
<path d="M30.8083 37.2144C29.4342 37.4595 28.2144 37.2105 27.1486 36.4674C26.0797 35.707 25.4266 34.6615 25.1892 33.331C24.9503 31.9917 25.2024 30.7893 25.9455 29.7235C26.6783 28.6506 27.736 27.9908 29.1187 27.7441C29.9449 27.5967 30.7407 27.6566 31.5062 27.9239C32.2804 28.1895 32.9229 28.6223 33.4337 29.2221L32.2643 30.2113C31.9401 29.8026 31.5199 29.5096 31.0038 29.3325C30.4948 29.1452 29.9533 29.1027 29.3794 29.2051C28.4141 29.3773 27.6778 29.8272 27.1705 30.5548C26.6791 31.2706 26.5187 32.1068 26.6894 33.0634C26.86 34.0199 27.2997 34.7491 28.0083 35.2508C28.7359 35.7581 29.5823 35.9256 30.5476 35.7534C31.1216 35.651 31.6201 35.4275 32.0431 35.0828C32.4646 34.7294 32.7524 34.3057 32.9066 33.8116L34.3437 34.3224C34.0876 35.05 33.6395 35.6818 32.9993 36.2178C32.3822 36.7317 31.6518 37.0639 30.8083 37.2144ZM38.4207 28.7765C39.3077 28.6183 40.1328 28.8166 40.8957 29.3714C41.6485 29.919 42.1102 30.6712 42.2808 31.6277C42.453 32.593 42.2807 33.4628 41.7638 34.2369C41.2468 35.0111 40.5405 35.4781 39.6448 35.6379C38.6621 35.8132 37.8361 35.5837 37.1666 34.9494L37.7972 38.4844L36.3884 38.7358L34.7594 29.6047L36.1682 29.3534L36.3358 30.2926C36.7344 29.4587 37.4294 28.9534 38.4207 28.7765ZM37.6046 34.0098C38.0658 34.3314 38.592 34.4394 39.1834 34.3339C39.7747 34.2284 40.2311 33.9451 40.5527 33.4839C40.8726 33.0141 40.9791 32.4791 40.872 31.8791C40.765 31.279 40.4809 30.8183 40.0197 30.4967C39.557 30.1665 39.03 30.0542 38.4387 30.1597C37.8473 30.2652 37.3917 30.5528 37.0717 31.0227C36.7502 31.4838 36.643 32.0144 36.75 32.6145C36.8555 33.2058 37.1404 33.6709 37.6046 34.0098ZM49.9651 30.876L44.7735 31.8022C44.9647 32.2706 45.267 32.607 45.6803 32.8114C46.1024 33.0143 46.5873 33.0668 47.1352 32.9691C47.8744 32.8372 48.3872 32.4676 48.6736 31.8601L49.9556 32.3313C49.4899 33.3925 48.6222 34.0363 47.3525 34.2628C46.3003 34.4505 45.3863 34.2816 44.6106 33.756C43.842 33.2201 43.3693 32.4565 43.1924 31.4651C43.0202 30.4998 43.1969 29.6293 43.7225 28.8536C44.2394 28.0794 45.0066 27.6016 46.0241 27.4201C46.972 27.251 47.8144 27.4461 48.5513 28.0056C49.2882 28.5651 49.7419 29.3231 49.9126 30.2797C49.9436 30.4536 49.9611 30.6524 49.9651 30.876ZM44.5556 30.6566L48.3907 29.9724C48.2035 29.4764 47.9155 29.1195 47.5267 28.9017C47.1466 28.6824 46.7174 28.6154 46.2391 28.7007C45.7173 28.7938 45.3081 29.0149 45.0115 29.3639C44.7148 29.713 44.5629 30.1439 44.5556 30.6566ZM56.0529 25.8059L56.9791 30.9975L57.8531 30.8416L58.4023 33.9201L57.0196 34.1668L56.7077 32.4188L52.2335 33.2171L52.5453 34.965L51.1626 35.2117L50.6134 32.1332L51.4091 31.9912C51.7099 31.3633 51.7695 30.5406 51.588 29.5232L51.083 26.6925L56.0529 25.8059ZM52.9614 31.7143L55.5964 31.2442L54.9006 27.3439L52.6961 27.7372L52.9707 29.2765C53.1382 30.2157 53.1351 31.0283 52.9614 31.7143ZM62.9303 27.2574L62.4672 24.6615L63.8759 24.4102L65.0395 30.9324L63.6307 31.1837L63.1676 28.5879L60.1805 29.1208L60.6436 31.7167L59.2348 31.968L58.0712 25.4458L59.48 25.1945L59.9431 27.7903L62.9303 27.2574ZM67.631 28.007L70.2326 23.2762L71.3153 23.083L72.4789 29.6052L71.0962 29.8519L70.3562 25.7038L67.7568 30.4476L66.6742 30.6408L65.5106 24.1186L66.8933 23.8719L67.631 28.007ZM77.5091 21.0358L73.8567 21.6874L73.6379 20.4613L77.2904 19.8097L77.5091 21.0358ZM75.0704 26.6798L77.672 21.949L78.7547 21.7558L79.9183 28.278L78.5356 28.5247L77.7956 24.3766L75.1962 29.1204L74.1135 29.3136L72.95 22.7914L74.3327 22.5447L75.0704 26.6798ZM83.6504 20.8824L89.4552 19.8468L90.6188 26.369L89.21 26.6203L88.2838 21.4287L85.2966 21.9616L86.2228 27.1533L84.814 27.4046L83.6504 20.8824ZM94.7511 18.727C95.6382 18.5688 96.4632 18.767 97.2261 19.3219C97.9789 19.8695 98.4406 20.6216 98.6112 21.5782C98.7834 22.5435 98.6111 23.4132 98.0942 24.1874C97.5773 24.9616 96.8709 25.4286 95.9752 25.5884C94.9925 25.7637 94.1665 25.5342 93.497 24.8999L94.1276 28.4349L92.7188 28.6863L91.0898 19.5552L92.4986 19.3038L92.6662 20.243C93.0648 19.4092 93.7598 18.9039 94.7511 18.727ZM93.935 23.9603C94.3962 24.2818 94.9224 24.3899 95.5138 24.2844C96.1051 24.1789 96.5616 23.8955 96.8831 23.4344C97.203 22.9645 97.3095 22.4296 97.2024 21.8296C97.0954 21.2295 96.8113 20.7687 96.3501 20.4472C95.8875 20.117 95.3604 20.0047 94.7691 20.1101C94.1777 20.2156 93.7221 20.5033 93.4021 20.9732C93.0806 21.4343 92.9734 21.9649 93.0804 22.5649C93.1859 23.1563 93.4708 23.6214 93.935 23.9603ZM105.841 22.8054C105.298 23.5842 104.544 24.0597 103.579 24.2319C102.613 24.4041 101.741 24.2187 100.962 23.6757C100.173 23.1256 99.6935 22.3722 99.5228 21.4156C99.3522 20.459 99.5419 19.5862 100.092 18.7971C100.635 18.0183 101.389 17.5428 102.354 17.3706C103.32 17.1983 104.192 17.3837 104.971 17.9267C105.76 18.4769 106.24 19.2303 106.41 20.1869C106.581 21.1434 106.391 22.0163 105.841 22.8054ZM100.932 21.1643C101.037 21.7556 101.32 22.212 101.782 22.5336C102.243 22.8551 102.76 22.9646 103.334 22.8622C103.908 22.7599 104.356 22.4781 104.677 22.0169C104.999 21.5558 105.107 21.0295 105.001 20.4382C104.896 19.8468 104.613 19.3904 104.151 19.0689C103.69 18.7474 103.173 18.6378 102.599 18.7402C102.025 18.8426 101.577 19.1244 101.256 19.5855C100.934 20.0467 100.826 20.5729 100.932 21.1643ZM112.711 15.6978L113.638 20.8895L114.707 20.6987L115.256 23.7771L113.874 24.0238L113.562 22.2759L108.266 23.2207L107.102 16.6985L108.511 16.4472L109.437 21.6388L112.229 21.1408L111.303 15.9492L112.711 15.6978ZM121.658 18.0857L116.467 19.0119C116.658 19.4803 116.96 19.8167 117.374 20.0211C117.796 20.224 118.281 20.2765 118.828 20.1788C119.568 20.0469 120.08 19.6773 120.367 19.0698L121.649 19.541C121.183 20.6022 120.315 21.246 119.046 21.4725C117.994 21.6602 117.08 21.4913 116.304 20.9657C115.535 20.4298 115.063 19.6662 114.886 18.6748C114.713 17.7095 114.89 16.839 115.416 16.0633C115.933 15.2891 116.7 14.8113 117.717 14.6298C118.665 14.4607 119.508 14.6558 120.245 15.2153C120.981 15.7748 121.435 16.5328 121.606 17.4894C121.637 17.6633 121.654 17.8621 121.658 18.0857ZM116.249 17.8663L120.084 17.1821C119.897 16.6861 119.609 16.3292 119.22 16.1114C118.84 15.8921 118.411 15.8251 117.932 15.9105C117.411 16.0035 117.001 16.2246 116.705 16.5736C116.408 16.9227 116.256 17.3536 116.249 17.8663ZM127.12 15.8057L126.657 13.2098L128.066 12.9585L129.23 19.4807L127.821 19.732L127.358 17.1362L124.371 17.6691L124.834 20.2649L123.425 20.5163L122.261 13.9941L123.67 13.7427L124.133 16.3386L127.12 15.8057ZM129.009 12.7902L134.684 11.7779L134.926 13.1345L132.799 13.5138L133.721 18.6794L132.312 18.9308L131.391 13.7652L129.251 14.1468L129.009 12.7902ZM41.4792 44.4835C42.3662 44.3253 43.1912 44.5235 43.9542 45.0784C44.707 45.626 45.1687 46.3781 45.3393 47.3347C45.5115 48.3 45.3392 49.1697 44.8223 49.9439C44.3053 50.7181 43.599 51.1851 42.7033 51.3449C41.7206 51.5202 40.8945 51.2907 40.225 50.6564L40.8557 54.1914L39.4469 54.4428L37.8179 45.3117L39.2267 45.0603L39.3943 45.9995C39.7929 45.1657 40.4878 44.6604 41.4792 44.4835ZM40.6631 49.7168C41.1243 50.0383 41.6505 50.1464 42.2418 50.0409C42.8332 49.9354 43.2896 49.652 43.6111 49.1909C43.9311 48.721 44.0376 48.1861 43.9305 47.5861C43.8235 46.986 43.5394 46.5252 43.0782 46.2037C42.6155 45.8735 42.0885 45.7611 41.4972 45.8666C40.9058 45.9721 40.4502 46.2598 40.1302 46.7297C39.8087 47.1908 39.7014 47.7214 39.8085 48.3214C39.914 48.9128 40.1989 49.3779 40.6631 49.7168ZM53.0236 46.583L47.832 47.5092C48.0232 47.9775 48.3255 48.3139 48.7388 48.5184C49.1609 48.7212 49.6458 48.7738 50.1937 48.6761C50.9328 48.5442 51.4457 48.1745 51.7321 47.5671L53.0141 48.0383C52.5484 49.0994 51.6807 49.7433 50.411 49.9698C49.3588 50.1575 48.4448 49.9886 47.6691 49.463C46.9005 48.9271 46.4278 48.1635 46.2509 47.1721C46.0787 46.2068 46.2554 45.3363 46.781 44.5606C47.2979 43.7864 48.0651 43.3086 49.0826 43.127C50.0305 42.9579 50.8729 43.1531 51.6098 43.7126C52.3466 44.272 52.8004 45.0301 52.9711 45.9867C53.0021 46.1606 53.0196 46.3593 53.0236 46.583ZM47.6141 46.3636L51.4492 45.6794C51.262 45.1834 50.974 44.8265 50.5852 44.6087C50.2051 44.3894 49.7759 44.3224 49.2976 44.4077C48.7758 44.5008 48.3666 44.7219 48.0699 45.0709C47.7733 45.4199 47.6214 45.8508 47.6141 46.3636ZM53.8806 42.4461L58.8766 41.5547L60.0401 48.0769L58.6313 48.3283L57.7098 43.1627L55.5314 43.5513L55.9642 45.9776C56.1457 46.9951 56.0543 47.7651 55.6899 48.2877C55.3255 48.8104 54.7102 49.1086 53.844 49.1823L53.609 47.8649C54.0214 47.8631 54.3067 47.7269 54.4649 47.4564C54.6214 47.1773 54.6477 46.7464 54.5438 46.1637L53.8806 42.4461ZM67.5075 43.999L62.3158 44.9252C62.5071 45.3936 62.8094 45.73 63.2227 45.9344C63.6447 46.1373 64.1297 46.1898 64.6775 46.0921C65.4167 45.9602 65.9295 45.5906 66.216 44.9831L67.4979 45.4543C67.0322 46.5155 66.1645 47.1593 64.8949 47.3858C63.8426 47.5735 62.9286 47.4046 62.1529 46.879C61.3843 46.3431 60.9116 45.5795 60.7348 44.5881C60.5626 43.6228 60.7393 42.7523 61.2649 41.9766C61.7818 41.2024 62.549 40.7246 63.5664 40.5431C64.5143 40.374 65.3567 40.5692 66.0936 41.1286C66.8305 41.6881 67.2843 42.4461 67.455 43.4027C67.486 43.5766 67.5035 43.7754 67.5075 43.999ZM62.098 43.7796L65.933 43.0954C65.7459 42.5994 65.4579 42.2425 65.0691 42.0248C64.689 41.8054 64.2598 41.7384 63.7815 41.8238C63.2597 41.9168 62.8505 42.1379 62.5538 42.4869C62.2572 42.836 62.1052 43.2669 62.098 43.7796ZM73.1893 42.272C73.8871 42.4615 74.2981 42.9042 74.4222 43.5999C74.5215 44.1564 74.4101 44.6384 74.088 45.0458C73.7745 45.4517 73.283 45.7144 72.6134 45.8338L69.274 46.4296L68.1105 39.9074L71.1889 39.3582C71.8499 39.2403 72.3968 39.3132 72.8297 39.5769C73.2626 39.8407 73.5271 40.2421 73.6233 40.7813C73.7334 41.3987 73.5888 41.8956 73.1893 42.272ZM71.2987 40.5769L69.6681 40.8678L69.9264 42.3157L71.557 42.0248C72.131 41.9224 72.3745 41.6277 72.2876 41.1407C72.2023 40.6624 71.8726 40.4745 71.2987 40.5769ZM70.3989 44.9637L72.2642 44.6309C72.8556 44.5254 73.1055 44.2161 73.0139 43.7031C72.9736 43.477 72.8643 43.317 72.686 43.2232C72.5062 43.1207 72.2772 43.0942 71.9989 43.1439L70.1336 43.4767L70.3989 44.9637ZM80.0654 38.7302L79.9002 37.8041L81.3089 37.5527L82.4725 44.0749L81.0637 44.3263L80.8962 43.3871C80.4976 44.2209 79.8026 44.7262 78.8112 44.9031C77.9155 45.0629 77.0913 44.869 76.3385 44.3213C75.5858 43.7737 75.1233 43.0172 74.9511 42.0519C74.7789 41.0866 74.9513 40.2169 75.4682 39.4427C75.9851 38.6685 76.6914 38.2015 77.5871 38.0418C78.5785 37.8649 79.4046 38.0944 80.0654 38.7302ZM77.2145 43.1959C77.6757 43.5175 78.2019 43.6255 78.7933 43.52C79.3846 43.4145 79.8411 43.1312 80.1626 42.67C80.4825 42.2002 80.589 41.6652 80.4819 41.0652C80.3749 40.4651 80.0908 40.0044 79.6296 39.6828C79.167 39.3526 78.6399 39.2403 78.0486 39.3458C77.4572 39.4513 77.0016 39.7389 76.6816 40.2088C76.3601 40.6699 76.2529 41.2005 76.3599 41.8006C76.4654 42.3919 76.7503 42.857 77.2145 43.1959ZM87.8101 39.0714L87.347 36.4755L88.7558 36.2242L89.9194 42.7464L88.5106 42.9977L88.0475 40.4019L85.0603 40.9348L85.5234 43.5307L84.1146 43.782L82.951 37.2598L84.3598 37.0085L84.8229 39.6043L87.8101 39.0714ZM89.699 36.0559L95.3734 35.0436L95.6154 36.4002L93.4891 36.7796L94.4107 41.9451L93.0019 42.1965L92.0804 37.0309L89.9411 37.4125L89.699 36.0559ZM101.186 36.6851L100.723 34.0893L102.131 33.838L103.295 40.3602L101.886 40.6115L101.423 38.0157L98.4359 38.5486L98.899 41.1444L97.4902 41.3957L96.3266 34.8735L97.7354 34.6222L98.1985 37.218L101.186 36.6851ZM110.301 38.2624C109.758 39.0412 109.004 39.5167 108.038 39.6889C107.073 39.8611 106.201 39.6757 105.422 39.1327C104.633 38.5826 104.153 37.8292 103.983 36.8726C103.812 35.916 104.002 35.0432 104.552 34.2541C105.095 33.4753 105.849 32.9998 106.814 32.8275C107.78 32.6553 108.652 32.8407 109.43 33.3837C110.219 33.9339 110.699 34.6873 110.87 35.6439C111.041 36.6004 110.851 37.4733 110.301 38.2624ZM105.391 36.6213C105.497 37.2126 105.78 37.669 106.241 37.9906C106.702 38.3121 107.22 38.4216 107.794 38.3192C108.368 38.2168 108.816 37.9351 109.137 37.4739C109.459 37.0128 109.567 36.4865 109.461 35.8952C109.356 35.3038 109.072 34.8474 108.611 34.5259C108.15 34.2044 107.633 34.0948 107.059 34.1972C106.485 34.2996 106.037 34.5814 105.715 35.0425C105.394 35.5037 105.286 36.0299 105.391 36.6213ZM115.834 38.2981C114.852 38.4734 113.971 38.2895 113.192 37.7465C112.42 37.1933 111.949 36.4383 111.779 35.4818C111.605 34.5078 111.786 33.6365 112.322 32.8679C112.865 32.0891 113.628 31.612 114.61 31.4367C115.245 31.3235 115.851 31.3725 116.427 31.5837C117.003 31.795 117.467 32.1339 117.819 32.6005L116.732 33.5213C116.528 33.2346 116.259 33.0315 115.923 32.9118C115.595 32.782 115.235 32.7519 114.844 32.8217C114.27 32.9241 113.822 33.2059 113.501 33.6671C113.189 34.1353 113.085 34.6565 113.187 35.2304C113.29 35.8044 113.568 36.2572 114.022 36.589C114.483 36.9105 115.001 37.0201 115.575 36.9177C115.957 36.8494 116.285 36.7012 116.559 36.4729C116.839 36.2345 117.03 35.9447 117.13 35.6038L118.467 36.0787C118.282 36.6501 117.951 37.1353 117.475 37.5343C117.007 37.9318 116.461 38.1864 115.834 38.2981ZM117.839 31.0357L123.513 30.0234L123.755 31.38L121.629 31.7593L122.55 36.9249L121.142 37.1763L120.22 32.0107L118.081 32.3923L117.839 31.0357ZM126.587 33.7417L129.188 29.0109L130.271 28.8177L131.435 35.3399L130.052 35.5866L129.312 31.4385L126.713 36.1824L125.63 36.3755L124.466 29.8533L125.849 29.6067L126.587 33.7417Z" fill="#09090C"/>
<path d="M143.326 100.069C147.887 125.635 130.859 150.058 105.293 154.619C79.7271 159.18 55.3044 142.152 50.7434 116.586C46.1823 91.02 63.2101 66.5972 88.7761 62.0362C114.342 57.4751 138.765 74.503 143.326 100.069ZM55.3725 115.76C59.4774 138.769 81.4579 154.094 104.467 149.989C127.477 145.885 142.802 123.904 138.697 100.895C134.592 77.8854 112.611 62.5604 89.6019 66.6653C66.5926 70.7702 51.2675 92.7507 55.3725 115.76Z" fill="#E9EEFF"/>
<path d="M60.1932 82.6412C57.0549 80.4532 52.6897 81.2075 50.9428 84.6111C47.3828 91.547 45.4315 99.2301 45.2759 107.085C45.0744 117.258 47.8942 127.263 53.3787 135.834C58.8632 144.405 66.7661 151.157 76.088 155.236C83.2854 158.386 91.0792 159.833 98.8685 159.506C102.691 159.346 105.205 155.699 104.533 151.932C103.861 148.166 100.249 145.726 96.4233 145.696C91.3574 145.657 86.327 144.594 81.6423 142.544C74.8307 139.563 69.056 134.629 65.0484 128.366C61.0408 122.104 58.9803 114.793 59.1276 107.359C59.2288 102.247 60.3712 97.2337 62.4581 92.6174C64.0341 89.1313 63.3315 84.8293 60.1932 82.6412Z" fill="#285CB6"/>
<path d="M88.8218 104.754L87.177 107.914C88.013 108.001 88.7166 108.291 89.2879 108.785C89.8702 109.276 90.2322 109.92 90.3741 110.715C90.5839 111.891 90.3506 112.883 89.674 113.689C89.0192 114.491 88.1145 114.995 86.96 115.201C86.0559 115.363 85.2184 115.299 84.4475 115.009C83.6746 114.709 83.0613 114.2 82.6074 113.483L84.3371 112.028C84.7668 112.862 85.5099 113.184 86.5665 112.996C87.1437 112.893 87.566 112.677 87.8333 112.348C88.1096 112.007 88.2049 111.596 88.1194 111.117C88.0359 110.649 87.8055 110.302 87.4282 110.077C87.0618 109.85 86.5899 109.789 86.0127 109.892L85.5225 109.979L84.4234 108.826L86.1534 105.483L81.6768 106.282L81.3008 104.174L88.4895 102.892L88.8218 104.754ZM97.6203 106.927C98.7895 107.37 99.482 108.197 99.6977 109.406C99.8862 110.462 99.6645 111.361 99.0327 112.104C98.4117 112.844 97.4695 113.326 96.206 113.552C94.9317 113.779 93.8752 113.653 93.0366 113.173C92.198 112.694 91.6845 111.925 91.496 110.869C91.2822 109.671 91.6409 108.657 92.5719 107.828C91.6757 107.403 91.1372 106.685 90.9565 105.672C90.768 104.615 90.9753 103.73 91.5784 103.015C92.1923 102.299 93.0276 101.846 94.0841 101.658C95.1515 101.467 96.0862 101.604 96.8883 102.068C97.7012 102.53 98.2019 103.289 98.3904 104.345C98.5711 105.358 98.3144 106.219 97.6203 106.927ZM96.1724 104.859C96.0986 104.445 95.9042 104.143 95.5891 103.952C95.2741 103.761 94.8987 103.704 94.463 103.782C94.0273 103.859 93.6947 104.042 93.4652 104.331C93.2356 104.619 93.1577 104.97 93.2316 105.384C93.3074 105.809 93.5028 106.116 93.8178 106.308C94.1329 106.499 94.5083 106.555 94.9439 106.477C95.3796 106.4 95.7122 106.217 95.9418 105.929C96.1713 105.64 96.2482 105.284 96.1724 104.859ZM97.1074 110.761C97.3945 110.418 97.4944 110.001 97.4069 109.511C97.3195 109.021 97.0826 108.67 96.6964 108.458C96.3082 108.235 95.831 108.174 95.2646 108.275C94.6982 108.376 94.2714 108.598 93.9843 108.941C93.6952 109.274 93.5944 109.685 93.6818 110.175C93.7693 110.666 94.0071 111.022 94.3953 111.245C94.7834 111.468 95.2607 111.529 95.8271 111.428C96.3935 111.327 96.8203 111.105 97.1074 110.761ZM104.693 104.536C104.25 105.143 103.642 105.516 102.869 105.654C102.085 105.794 101.379 105.65 100.752 105.222C100.136 104.793 99.7611 104.202 99.627 103.45C99.4929 102.699 99.6407 102.015 100.07 101.399C100.522 100.779 101.134 100.4 101.907 100.262C102.691 100.122 103.392 100.267 104.008 100.697C104.62 101.104 104.995 101.695 105.133 102.468C105.269 103.231 105.122 103.92 104.693 104.536ZM103.161 110.878L102.078 110.481L108.051 100.869L109.146 101.246L103.161 110.878ZM101.771 103.844C102.002 104.005 102.264 104.059 102.558 104.006C102.852 103.954 103.08 103.812 103.241 103.581C103.4 103.339 103.454 103.071 103.401 102.777C103.349 102.483 103.207 102.255 102.976 102.094C102.745 101.933 102.482 101.879 102.188 101.931C101.894 101.984 101.667 102.126 101.505 102.357C101.355 102.586 101.306 102.847 101.359 103.142C101.411 103.436 101.549 103.67 101.771 103.844ZM111.809 107.953C111.944 108.704 111.796 109.388 111.366 110.004C110.937 110.62 110.33 110.998 109.546 111.138C108.761 111.278 108.061 111.133 107.445 110.704C106.829 110.274 106.454 109.684 106.32 108.932C106.186 108.181 106.334 107.497 106.763 106.881C107.193 106.265 107.799 105.887 108.584 105.747C109.368 105.607 110.068 105.752 110.684 106.181C111.3 106.611 111.675 107.201 111.809 107.953ZM109.918 109.066C110.077 108.824 110.13 108.556 110.078 108.262C110.025 107.968 109.883 107.74 109.652 107.579C109.43 107.405 109.172 107.344 108.878 107.397C108.584 107.449 108.357 107.597 108.198 107.839C108.048 108.068 107.999 108.329 108.052 108.623C108.104 108.917 108.241 109.151 108.464 109.325C108.695 109.486 108.957 109.541 109.251 109.488C109.545 109.436 109.767 109.295 109.918 109.066Z" fill="#3B3B3B"/>
<circle cx="70.9423" cy="181.302" r="4.14074" transform="rotate(-10.1153 70.9423 181.302)" fill="#E9EEFF"/>
<path d="M83.6457 177.914L83.1448 175.106L84.2699 174.905L85.4917 181.754L84.3666 181.955L83.8377 178.99L80.9027 179.514L81.4316 182.478L80.3065 182.679L79.0848 175.831L80.2098 175.63L80.7108 178.438L83.6457 177.914ZM89.9175 176.634L89.7936 175.939L90.8502 175.75L91.7229 180.642L90.6663 180.831L90.5406 180.126C90.2417 180.752 89.7204 181.131 88.9769 181.263C88.3051 181.383 87.6869 181.238 87.1224 180.827C86.5578 180.416 86.211 179.849 86.0818 179.125C85.9526 178.401 86.0819 177.749 86.4696 177.168C86.8573 176.587 87.387 176.237 88.0588 176.117C88.8023 175.985 89.4219 176.157 89.9175 176.634ZM87.7794 179.983C88.1252 180.224 88.5199 180.305 88.9634 180.226C89.4069 180.147 89.7493 179.934 89.9904 179.588C90.2304 179.236 90.3102 178.835 90.2299 178.385C90.1496 177.935 89.9366 177.589 89.5907 177.348C89.2437 177.1 88.8484 177.016 88.4049 177.095C87.9614 177.174 87.6197 177.39 87.3797 177.743C87.1385 178.088 87.0581 178.486 87.1384 178.936C87.2175 179.38 87.4312 179.729 87.7794 179.983ZM95.5011 174.214L92.7618 174.703L92.5977 173.783L95.337 173.294L95.5011 174.214ZM93.672 178.447L95.6233 174.899L96.4353 174.754L97.308 179.646L96.271 179.831L95.7159 176.72L93.7664 180.278L92.9544 180.422L92.0817 175.531L93.1188 175.346L93.672 178.447ZM101.966 173.767L102.661 177.661L103.316 177.544L103.728 179.853L102.691 180.038L102.457 178.727L99.1014 179.326L99.3353 180.637L98.2982 180.822L97.8863 178.513L98.4831 178.406C98.7087 177.935 98.7534 177.318 98.6172 176.555L98.2385 174.432L101.966 173.767ZM99.6473 178.199L101.624 177.846L101.102 174.921L99.4483 175.216L99.6543 176.37C99.7799 177.075 99.7776 177.684 99.6473 178.199ZM108.531 175.584L104.637 176.279C104.78 176.63 105.007 176.883 105.317 177.036C105.633 177.188 105.997 177.227 106.408 177.154C106.962 177.055 107.347 176.778 107.562 176.322L108.523 176.676C108.174 177.472 107.523 177.955 106.571 178.124C105.782 178.265 105.096 178.138 104.515 177.744C103.938 177.342 103.584 176.77 103.451 176.026C103.322 175.302 103.454 174.649 103.849 174.068C104.236 173.487 104.812 173.128 105.575 172.992C106.286 172.866 106.917 173.012 107.47 173.431C108.023 173.851 108.363 174.42 108.491 175.137C108.514 175.267 108.528 175.417 108.531 175.584ZM104.473 175.42L107.35 174.907C107.209 174.535 106.993 174.267 106.702 174.104C106.417 173.939 106.095 173.889 105.736 173.953C105.345 174.023 105.038 174.188 104.815 174.45C104.593 174.712 104.479 175.035 104.473 175.42ZM112.627 173.874L112.28 171.927L113.336 171.739L114.209 176.631L113.152 176.819L112.805 174.872L110.565 175.272L110.912 177.219L109.855 177.407L108.983 172.516L110.039 172.327L110.387 174.274L112.627 173.874ZM119.463 175.057C119.056 175.641 118.491 175.998 117.767 176.127C117.043 176.256 116.389 176.117 115.804 175.71C115.213 175.297 114.853 174.732 114.725 174.015C114.597 173.297 114.739 172.643 115.152 172.051C115.559 171.467 116.125 171.11 116.848 170.981C117.572 170.852 118.226 170.991 118.811 171.398C119.402 171.811 119.762 172.376 119.89 173.093C120.018 173.811 119.876 174.465 119.463 175.057ZM115.781 173.826C115.86 174.27 116.073 174.612 116.419 174.853C116.765 175.094 117.153 175.177 117.583 175.1C118.014 175.023 118.35 174.812 118.591 174.466C118.832 174.12 118.913 173.725 118.834 173.282C118.755 172.838 118.542 172.496 118.196 172.255C117.85 172.014 117.462 171.932 117.032 172.008C116.601 172.085 116.265 172.296 116.024 172.642C115.783 172.988 115.702 173.383 115.781 173.826Z" fill="#9C9C9C"/>
<path d="M127.836 168.123L126.775 170.21C127.305 170.236 127.751 170.399 128.114 170.698C128.482 170.989 128.711 171.385 128.801 171.888C128.923 172.572 128.787 173.152 128.394 173.626C128.007 174.098 127.475 174.395 126.796 174.516C126.262 174.612 125.767 174.576 125.313 174.407C124.858 174.233 124.502 173.933 124.244 173.508L125.104 172.779C125.41 173.33 125.91 173.544 126.601 173.421C126.992 173.351 127.285 173.198 127.478 172.961C127.67 172.718 127.736 172.427 127.676 172.088C127.615 171.749 127.453 171.502 127.19 171.347C126.927 171.192 126.6 171.15 126.208 171.219L125.954 171.265L125.383 170.67L126.513 168.46L123.647 168.971L123.458 167.914L127.665 167.164L127.836 168.123ZM136.867 171.72C136.513 172.45 135.912 172.89 135.064 173.041C134.222 173.192 133.503 172.987 132.905 172.427C132.32 171.865 131.932 171.046 131.74 169.97C131.548 168.894 131.629 167.991 131.983 167.262C132.351 166.53 132.955 166.089 133.797 165.939C134.644 165.788 135.361 165.993 135.946 166.555C136.536 167.109 136.927 167.927 137.121 169.01C137.314 170.093 137.229 170.996 136.867 171.72ZM134.868 171.946C135.377 171.855 135.727 171.574 135.919 171.102C136.111 170.631 136.136 170 135.995 169.211C135.855 168.422 135.613 167.839 135.27 167.463C134.927 167.087 134.501 166.944 133.992 167.035C133.49 167.124 133.14 167.405 132.941 167.878C132.75 168.35 132.724 168.98 132.865 169.769C133.006 170.559 133.248 171.141 133.591 171.518C133.94 171.893 134.366 172.035 134.868 171.946ZM143.029 170.621C142.675 171.35 142.074 171.791 141.226 171.942C140.385 172.092 139.665 171.887 139.067 171.328C138.482 170.766 138.094 169.947 137.902 168.871C137.71 167.795 137.791 166.892 138.146 166.162C138.513 165.43 139.118 164.99 139.959 164.839C140.807 164.688 141.523 164.894 142.108 165.455C142.698 166.01 143.09 166.828 143.283 167.911C143.476 168.993 143.392 169.897 143.029 170.621ZM141.031 170.846C141.539 170.756 141.89 170.474 142.081 170.003C142.273 169.531 142.299 168.901 142.158 168.112C142.017 167.322 141.775 166.74 141.432 166.363C141.089 165.987 140.663 165.844 140.154 165.935C139.652 166.025 139.302 166.306 139.104 166.779C138.912 167.25 138.886 167.881 139.027 168.67C139.168 169.459 139.41 170.042 139.753 170.418C140.102 170.793 140.528 170.936 141.031 170.846ZM149.192 169.522C148.837 170.251 148.236 170.691 147.388 170.843C146.547 170.993 145.827 170.788 145.23 170.229C144.645 169.667 144.256 168.848 144.064 167.771C143.872 166.695 143.954 165.792 144.308 165.063C144.675 164.331 145.28 163.89 146.121 163.74C146.969 163.589 147.685 163.794 148.27 164.356C148.86 164.91 149.252 165.729 149.445 166.811C149.638 167.894 149.554 168.798 149.192 169.522ZM147.193 169.747C147.702 169.656 148.052 169.375 148.244 168.903C148.435 168.432 148.461 167.801 148.32 167.012C148.179 166.223 147.937 165.64 147.594 165.264C147.251 164.888 146.825 164.745 146.317 164.836C145.815 164.925 145.464 165.207 145.266 165.679C145.074 166.151 145.049 166.781 145.189 167.571C145.33 168.36 145.572 168.943 145.915 169.319C146.265 169.694 146.691 169.837 147.193 169.747Z" fill="#3B3B3B"/>
<circle cx="71.3544" cy="206.878" r="4.14074" transform="rotate(-10.1153 71.3544 206.878)" fill="#285CB6"/>
<path d="M78.6819 201.552L81.206 201.101C81.8517 200.986 82.4282 201.105 82.9355 201.459C83.4492 201.812 83.7631 202.307 83.8772 202.947C83.99 203.579 83.867 204.153 83.5079 204.668C83.1543 205.175 82.6546 205.487 82.0089 205.602L80.6099 205.851L81.0288 208.199L79.9037 208.4L78.6819 201.552ZM80.4214 204.795L81.8204 204.545C82.153 204.486 82.4072 204.326 82.5828 204.066C82.7573 203.799 82.8138 203.493 82.7521 203.147C82.6904 202.802 82.5322 202.537 82.2774 202.354C82.0214 202.164 81.7271 202.099 81.3945 202.158L79.9955 202.408L80.4214 204.795ZM89.6312 204.605L85.7374 205.3C85.8808 205.651 86.1075 205.904 86.4175 206.057C86.7341 206.209 87.0978 206.248 87.5087 206.175C88.0631 206.076 88.4477 205.799 88.6625 205.343L89.624 205.697C89.2747 206.493 88.6239 206.976 87.6717 207.145C86.8825 207.286 86.197 207.16 85.6152 206.765C85.0388 206.363 84.6842 205.791 84.5516 205.047C84.4224 204.323 84.555 203.67 84.9492 203.089C85.3369 202.508 85.9123 202.15 86.6754 202.013C87.3863 201.887 88.0181 202.033 88.5707 202.453C89.1234 202.872 89.4638 203.441 89.5917 204.158C89.615 204.289 89.6282 204.438 89.6312 204.605ZM85.574 204.441L88.4503 203.928C88.3099 203.556 88.0939 203.288 87.8023 203.125C87.5172 202.96 87.1953 202.91 86.8366 202.974C86.4453 203.044 86.1384 203.21 85.9159 203.471C85.6934 203.733 85.5794 204.056 85.574 204.441ZM90.2738 201.503L94.0209 200.834L94.8935 205.726L93.8369 205.914L93.1458 202.04L91.512 202.332L91.8366 204.151C91.9727 204.914 91.9042 205.492 91.6309 205.884C91.3576 206.276 90.8961 206.5 90.2465 206.555L90.0702 205.567C90.3795 205.565 90.5935 205.463 90.7121 205.26C90.8295 205.051 90.8492 204.728 90.7713 204.291L90.2738 201.503ZM100.494 202.667L96.6003 203.362C96.7437 203.713 96.9704 203.966 97.2804 204.119C97.597 204.271 97.9607 204.31 98.3716 204.237C98.926 204.138 99.3106 203.861 99.5254 203.405L100.487 203.759C100.138 204.555 99.4868 205.038 98.5346 205.207C97.7454 205.348 97.0599 205.222 96.4781 204.827C95.9017 204.425 95.5472 203.853 95.4145 203.109C95.2853 202.385 95.4179 201.732 95.8121 201.151C96.1998 200.57 96.7752 200.212 97.5383 200.075C98.2492 199.949 98.881 200.095 99.4336 200.515C99.9863 200.934 100.327 201.503 100.455 202.22C100.478 202.351 100.491 202.5 100.494 202.667ZM96.4369 202.503L99.3132 201.99C99.1728 201.618 98.9568 201.35 98.6652 201.187C98.3801 201.022 98.0582 200.972 97.6995 201.036C97.3082 201.106 97.0013 201.272 96.7788 201.533C96.5563 201.795 96.4423 202.118 96.4369 202.503ZM104.755 201.372C105.279 201.514 105.587 201.846 105.68 202.368C105.755 202.785 105.671 203.147 105.429 203.452C105.194 203.757 104.826 203.954 104.323 204.043L101.819 204.49L100.946 199.599L103.255 199.187C103.751 199.098 104.161 199.153 104.486 199.351C104.81 199.549 105.009 199.85 105.081 200.254C105.164 200.717 105.055 201.09 104.755 201.372ZM103.337 200.101L102.115 200.319L102.308 201.405L103.531 201.187C103.962 201.11 104.144 200.889 104.079 200.524C104.015 200.165 103.768 200.024 103.337 200.101ZM102.663 203.391L104.062 203.141C104.505 203.062 104.693 202.83 104.624 202.445C104.594 202.276 104.512 202.156 104.378 202.085C104.243 202.009 104.071 201.989 103.863 202.026L102.464 202.276L102.663 203.391ZM109.912 198.716L109.789 198.021L110.845 197.833L111.718 202.724L110.661 202.913L110.536 202.208C110.237 202.834 109.715 203.213 108.972 203.345C108.3 203.465 107.682 203.32 107.117 202.909C106.553 202.498 106.206 201.931 106.077 201.207C105.948 200.483 106.077 199.831 106.465 199.25C106.852 198.669 107.382 198.319 108.054 198.199C108.797 198.067 109.417 198.239 109.912 198.716ZM107.774 202.065C108.12 202.306 108.515 202.387 108.958 202.308C109.402 202.229 109.744 202.016 109.985 201.671C110.225 201.318 110.305 200.917 110.225 200.467C110.145 200.017 109.932 199.671 109.586 199.43C109.239 199.183 108.843 199.098 108.4 199.177C107.956 199.257 107.615 199.472 107.375 199.825C107.134 200.171 107.053 200.568 107.133 201.019C107.212 201.462 107.426 201.811 107.774 202.065ZM111.558 197.705L115.814 196.946L115.995 197.964L114.401 198.248L115.092 202.122L114.035 202.311L113.344 198.437L111.74 198.723L111.558 197.705ZM120.173 198.177L119.826 196.23L120.882 196.042L121.755 200.934L120.699 201.122L120.351 199.175L118.111 199.575L118.458 201.522L117.402 201.71L116.529 196.819L117.585 196.63L117.933 198.577L120.173 198.177ZM123.462 197.298L124.538 197.106C125.066 197.012 125.52 197.085 125.9 197.327C126.285 197.561 126.52 197.92 126.606 198.403C126.691 198.879 126.594 199.296 126.315 199.656C126.043 200.014 125.642 200.24 125.114 200.334L122.981 200.715L122.108 195.823L123.165 195.635L123.462 197.298ZM127.481 199.912L126.609 195.02L127.665 194.832L128.538 199.724L127.481 199.912ZM123.868 199.577L124.954 199.384C125.163 199.346 125.325 199.254 125.44 199.105C125.561 198.956 125.604 198.783 125.569 198.588C125.534 198.392 125.437 198.244 125.278 198.145C125.119 198.045 124.932 198.015 124.717 198.053L123.631 198.247L123.868 199.577ZM131.861 196.546L134.138 198.725L132.915 198.943L131.403 197.486L130.479 199.377L129.246 199.597L130.637 196.755L128.471 194.688L129.694 194.47L131.095 195.815L131.944 194.069L133.177 193.849L131.861 196.546Z" fill="#9C9C9C"/>
<path d="M136.628 191.87L138.315 190.913L139.293 190.738L140.515 197.587L139.39 197.787L138.383 192.142L137.073 192.78L136.628 191.87ZM142.714 190.784L144.401 189.827L145.379 189.653L146.601 196.501L145.476 196.702L144.469 191.057L143.159 191.694L142.714 190.784ZM151.654 193.247L152.437 193.108L152.624 194.154L151.841 194.294L152.061 195.527L150.926 195.729L150.706 194.497L147.341 195.097L147.154 194.05L148.696 189.061L149.919 188.843L148.377 193.832L150.519 193.45L150.202 191.669L151.336 191.467L151.654 193.247ZM156.617 188.637L155.556 190.724C156.085 190.751 156.532 190.913 156.894 191.212C157.263 191.503 157.491 191.9 157.581 192.402C157.703 193.087 157.568 193.666 157.174 194.14C156.788 194.613 156.255 194.91 155.577 195.031C155.042 195.126 154.548 195.09 154.094 194.922C153.639 194.747 153.282 194.447 153.025 194.022L153.884 193.294C154.191 193.845 154.69 194.058 155.381 193.935C155.773 193.865 156.065 193.712 156.258 193.476C156.451 193.233 156.517 192.942 156.456 192.603C156.395 192.263 156.234 192.016 155.97 191.861C155.707 191.707 155.38 191.664 154.989 191.734L154.734 191.779L154.164 191.184L155.294 188.974L152.427 189.485L152.239 188.429L156.446 187.678L156.617 188.637Z" fill="#3B3B3B"/>
</g>
<defs>
<filter id="filter0_d_105_3131" x="-20.5999" y="-28.5999" width="235.549" height="278.576" filterUnits="userSpaceOnUse" color-interpolation-filters="sRGB">
<feFlood flood-opacity="0" result="BackgroundImageFix"/>
<feColorMatrix in="SourceAlpha" type="matrix" values="0 0 0 0 0 0 0 0 0 0 0 0 0 0 0 0 0 0 127 0" result="hardAlpha"/>
<feOffset/>
<feGaussianBlur stdDeviation="4.79996"/>
<feComposite in2="hardAlpha" operator="out"/>
<feColorMatrix type="matrix" values="0 0 0 0 0.864423 0 0 0 0 0.913625 0 0 0 0 1 0 0 0 1 0"/>
<feBlend mode="normal" in2="BackgroundImageFix" result="effect1_dropShadow_105_3131"/>
<feBlend mode="normal" in="SourceGraphic" in2="effect1_dropShadow_105_3131" result="shape"/>
</filter>
</defs>
</svg>
