<svg width="53" height="53" viewBox="0 0 53 53" fill="none" xmlns="http://www.w3.org/2000/svg">
<g clip-path="url(#clip0_36_97)">
<path d="M24.6883 21.2769L29.2462 17.2387C29.8313 16.7204 30.7167 17.1 30.7445 17.8812L30.9612 23.9668L35.9497 27.0728C36.5898 27.4713 36.4849 28.4696 35.7723 28.7624L30.2214 31.0436L28.7477 36.9968C28.5584 37.7614 27.6084 37.9989 27.1403 37.3986L23.4929 32.7239L17.5921 33.3043C16.8345 33.3789 16.3516 32.527 16.775 31.8628L20.0717 26.6913L17.8978 21.0977C17.6186 20.3795 18.2695 19.6154 18.9994 19.8043L24.6883 21.2769Z" fill="#FFDC14" stroke="#FFDC14" stroke-width="2" stroke-linecap="round" stroke-linejoin="round"/>
<path d="M41.5811 32.8318L43.1128 33.4886" stroke="#FFDC14" stroke-width="2" stroke-linecap="round" stroke-linejoin="round"/>
<path d="M32.8319 10.9456L33.4888 9.41382" stroke="#FFDC14" stroke-width="2" stroke-linecap="round" stroke-linejoin="round"/>
<path d="M19.038 43.1128L19.6948 41.5811" stroke="#FFDC14" stroke-width="2" stroke-linecap="round" stroke-linejoin="round"/>
<path d="M33.2626 43.7724L32.3877 41.5837" stroke="#FFDC14" stroke-width="2" stroke-linecap="round" stroke-linejoin="round"/>
<path d="M43.7725 19.264L41.5839 20.139" stroke="#FFDC14" stroke-width="2" stroke-linecap="round" stroke-linejoin="round"/>
<path d="M8.75429 33.263L10.9429 32.388" stroke="#FFDC14" stroke-width="2" stroke-linecap="round" stroke-linejoin="round"/>
<path d="M19.2637 8.75439L20.1386 10.943" stroke="#FFDC14" stroke-width="2" stroke-linecap="round" stroke-linejoin="round"/>
<path d="M9.41406 19.0381L10.9458 19.6949" stroke="#FFDC14" stroke-width="2" stroke-linecap="round" stroke-linejoin="round"/>
</g>
<defs>
<clipPath id="clip0_36_97">
<rect width="40" height="40" fill="white" transform="translate(15.7642) rotate(23.2101)"/>
</clipPath>
</defs>
</svg>
