<svg width="437" height="377" viewBox="0 0 437 377" fill="none" xmlns="http://www.w3.org/2000/svg">
<g filter="url(#filter0_d_92_7137)">
<path d="M10 37.6474C10 22.3781 22.3782 10 37.6474 10H693.353C708.622 10 721 22.3782 721 37.6474V362.168C721 377.437 708.622 389.816 693.353 389.816H10V37.6474Z" fill="white" shape-rendering="crispEdges"/>
<path d="M35.5586 38.8668L40.2765 44.6475H38.0705L33.6264 39.2855V44.6475H31.7746V33.376H33.6264V38.432L37.9095 33.376H40.1155L35.5586 38.8668ZM47.4362 43.633C46.6203 44.4489 45.6166 44.8568 44.4251 44.8568C43.2335 44.8568 42.2298 44.4489 41.414 43.633C40.5874 42.8065 40.1741 41.8028 40.1741 40.6219C40.1741 39.4411 40.5874 38.4374 41.414 37.6108C42.2298 36.795 43.2335 36.3871 44.4251 36.3871C45.6166 36.3871 46.6203 36.795 47.4362 37.6108C48.2628 38.4374 48.676 39.4411 48.676 40.6219C48.676 41.8028 48.2628 42.8065 47.4362 43.633ZM41.9132 40.6219C41.9132 41.3519 42.1547 41.9584 42.6377 42.4415C43.1208 42.9245 43.7166 43.1661 44.4251 43.1661C45.1336 43.1661 45.7294 42.9245 46.2124 42.4415C46.6955 41.9584 46.937 41.3519 46.937 40.6219C46.937 39.892 46.6955 39.2855 46.2124 38.8024C45.7294 38.3193 45.1336 38.0778 44.4251 38.0778C43.7166 38.0778 43.1208 38.3193 42.6377 38.8024C42.1547 39.2855 41.9132 39.892 41.9132 40.6219ZM50.6406 36.5964H56.8077V44.6475H55.0687V38.271H52.3797V41.266C52.3797 42.522 52.1059 43.4237 51.5584 43.9712C51.011 44.5186 50.2112 44.7441 49.1592 44.6475V43.0211C49.653 43.107 50.0234 43.005 50.2703 42.7152C50.5172 42.4146 50.6406 41.9047 50.6406 41.1855V36.5964ZM60.541 41.7008L64.6632 36.5964H65.9997V44.6475H64.2928V39.527L60.1707 44.6475H58.8342V36.5964H60.541V41.7008ZM72.9125 40.2838V36.5964H74.6515V44.6475H72.9125V41.9262C72.2791 42.1624 71.6029 42.2805 70.8836 42.2805C69.8638 42.2805 69.0695 42.0336 68.5005 41.5398C67.9316 41.0352 67.6471 40.3106 67.6471 39.366V36.5964H69.3861V39.2049C69.3861 40.1711 69.9604 40.6541 71.1091 40.6541C71.7639 40.6541 72.365 40.5307 72.9125 40.2838ZM84.4591 41.3626H78.0504C78.1793 41.9638 78.4691 42.4307 78.92 42.7635C79.3816 43.0963 79.9505 43.2627 80.6268 43.2627C81.5392 43.2627 82.2316 42.9299 82.704 42.2643L84.137 43.1017C83.3534 44.2717 82.178 44.8568 80.6107 44.8568C79.3118 44.8568 78.2544 44.4596 77.4386 43.6652C76.6335 42.8601 76.2309 41.8457 76.2309 40.6219C76.2309 39.4304 76.6281 38.4267 77.4225 37.6108C78.2061 36.795 79.2259 36.3871 80.4819 36.3871C81.652 36.3871 82.6181 36.8004 83.3802 37.6269C84.1424 38.4535 84.5235 39.4572 84.5235 40.638C84.5235 40.8527 84.502 41.0943 84.4591 41.3626ZM78.0343 39.9456H82.7684C82.6503 39.3123 82.3819 38.8239 81.9633 38.4804C81.5553 38.1368 81.0562 37.9651 80.4658 37.9651C79.8217 37.9651 79.2849 38.1422 78.8556 38.4965C78.4262 38.8507 78.1524 39.3338 78.0343 39.9456ZM89.8066 44.8568C88.5936 44.8568 87.5792 44.4489 86.7633 43.633C85.9582 42.8065 85.5557 41.8028 85.5557 40.6219C85.5557 39.4196 85.9582 38.4159 86.7633 37.6108C87.5792 36.795 88.5936 36.3871 89.8066 36.3871C90.5903 36.3871 91.3041 36.5749 91.9482 36.9507C92.5923 37.3264 93.0754 37.8309 93.3974 38.4642L91.8999 39.3338C91.7174 38.9473 91.4383 38.6467 91.0626 38.432C90.6976 38.2066 90.2736 38.0939 89.7905 38.0939C89.082 38.0939 88.4863 38.3354 88.0032 38.8185C87.5309 39.3123 87.2947 39.9134 87.2947 40.6219C87.2947 41.3304 87.5309 41.9316 88.0032 42.4254C88.4863 42.9084 89.082 43.15 89.7905 43.15C90.2629 43.15 90.6869 43.0426 91.0626 42.8279C91.449 42.6025 91.7389 42.2966 91.9321 41.9101L93.4296 42.7635C93.0861 43.4076 92.5869 43.9175 91.9321 44.2932C91.288 44.6689 90.5795 44.8568 89.8066 44.8568ZM93.7545 36.5964H100.759V38.271H98.1343V44.6475H96.3953V38.271H93.7545V36.5964ZM107.507 40.5092C108.301 40.8849 108.699 41.5022 108.699 42.361C108.699 43.048 108.462 43.6008 107.99 44.0195C107.528 44.4381 106.884 44.6475 106.058 44.6475H101.936V36.5964H105.736C106.552 36.5964 107.19 36.8004 107.652 37.2083C108.114 37.6162 108.344 38.1529 108.344 38.8185C108.344 39.5807 108.065 40.1442 107.507 40.5092ZM105.607 38.0778H103.594V39.8651H105.607C106.315 39.8651 106.67 39.5646 106.67 38.9634C106.67 38.373 106.315 38.0778 105.607 38.0778ZM103.594 43.1339H105.897C106.627 43.1339 106.992 42.8172 106.992 42.1838C106.992 41.9047 106.895 41.69 106.702 41.5398C106.509 41.3787 106.24 41.2982 105.897 41.2982H103.594V43.1339ZM116.924 43.633C116.108 44.4489 115.104 44.8568 113.913 44.8568C112.721 44.8568 111.717 44.4489 110.902 43.633C110.075 42.8065 109.662 41.8028 109.662 40.6219C109.662 39.4411 110.075 38.4374 110.902 37.6108C111.717 36.795 112.721 36.3871 113.913 36.3871C115.104 36.3871 116.108 36.795 116.924 37.6108C117.75 38.4374 118.164 39.4411 118.164 40.6219C118.164 41.8028 117.75 42.8065 116.924 43.633ZM111.401 40.6219C111.401 41.3519 111.642 41.9584 112.125 42.4415C112.608 42.9245 113.204 43.1661 113.913 43.1661C114.621 43.1661 115.217 42.9245 115.7 42.4415C116.183 41.9584 116.425 41.3519 116.425 40.6219C116.425 39.892 116.183 39.2855 115.7 38.8024C115.217 38.3193 114.621 38.0778 113.913 38.0778C113.204 38.0778 112.608 38.3193 112.125 38.8024C111.642 39.2855 111.401 39.892 111.401 40.6219ZM129.188 39.8007V36.5964H130.927V44.6475H129.188V41.4431H125.501V44.6475H123.762V36.5964H125.501V39.8007H129.188ZM139.321 37.7397V36.5964H141.06V44.6475H139.321V43.4881C138.666 44.4006 137.727 44.8568 136.503 44.8568C135.398 44.8568 134.453 44.4489 133.669 43.633C132.886 42.8172 132.494 41.8135 132.494 40.6219C132.494 39.4304 132.886 38.4267 133.669 37.6108C134.453 36.795 135.398 36.3871 136.503 36.3871C137.727 36.3871 138.666 36.8379 139.321 37.7397ZM134.958 42.4737C135.441 42.9567 136.047 43.1983 136.777 43.1983C137.507 43.1983 138.114 42.9567 138.597 42.4737C139.08 41.9799 139.321 41.3626 139.321 40.6219C139.321 39.8812 139.08 39.2694 138.597 38.7863C138.114 38.2925 137.507 38.0456 136.777 38.0456C136.047 38.0456 135.441 38.2925 134.958 38.7863C134.475 39.2694 134.233 39.8812 134.233 40.6219C134.233 41.3519 134.475 41.9691 134.958 42.4737ZM148.916 35.4693H144.408V33.9557H148.916V35.4693ZM144.794 41.7008L148.916 36.5964H150.253V44.6475H148.546V39.527L144.424 44.6475H143.087V36.5964H144.794V41.7008ZM159.355 36.5964V43.005H160.434V46.8051H158.727V44.6475H153.204V46.8051H151.498V43.005H152.48C152.974 42.318 153.221 41.3465 153.221 40.0906V36.5964H159.355ZM154.396 43.005H157.649V38.1905H154.927V40.0906C154.927 41.2499 154.75 42.2214 154.396 43.005ZM169.31 41.3626H162.901C163.03 41.9638 163.32 42.4307 163.771 42.7635C164.232 43.0963 164.801 43.2627 165.477 43.2627C166.39 43.2627 167.082 42.9299 167.555 42.2643L168.988 43.1017C168.204 44.2717 167.029 44.8568 165.461 44.8568C164.162 44.8568 163.105 44.4596 162.289 43.6652C161.484 42.8601 161.082 41.8457 161.082 40.6219C161.082 39.4304 161.479 38.4267 162.273 37.6108C163.057 36.795 164.076 36.3871 165.332 36.3871C166.503 36.3871 167.469 36.8004 168.231 37.6269C168.993 38.4535 169.374 39.4572 169.374 40.638C169.374 40.8527 169.353 41.0943 169.31 41.3626ZM162.885 39.9456H167.619C167.501 39.3123 167.233 38.8239 166.814 38.4804C166.406 38.1368 165.907 37.9651 165.316 37.9651C164.672 37.9651 164.136 38.1422 163.706 38.4965C163.277 38.8507 163.003 39.3338 162.885 39.9456ZM176.331 39.8007V36.5964H178.07V44.6475H176.331V41.4431H172.643V44.6475H170.904V36.5964H172.643V39.8007H176.331ZM185.514 39.8007V36.5964H187.253V44.6475H185.514V41.4431H181.827V44.6475H180.088V36.5964H181.827V39.8007H185.514ZM191.01 39.3338H192.781C193.651 39.3338 194.354 39.5807 194.89 40.0745C195.438 40.5575 195.712 41.1962 195.712 41.9906C195.712 42.7742 195.438 43.413 194.89 43.9068C194.354 44.4006 193.651 44.6475 192.781 44.6475H189.271V36.5964H191.01V39.3338ZM196.678 44.6475V36.5964H198.417V44.6475H196.678ZM191.01 43.0856H192.797C193.141 43.0856 193.425 42.9836 193.651 42.7796C193.887 42.5757 194.005 42.3127 194.005 41.9906C194.005 41.6686 193.892 41.4056 193.667 41.2016C193.441 40.9976 193.151 40.8957 192.797 40.8957H191.01V43.0856ZM204.622 40.5253L207.633 44.6475H205.62L203.624 41.894L201.611 44.6475H199.582L202.609 40.5092L199.743 36.5964H201.756L203.607 39.1405L205.459 36.5964H207.488L204.622 40.5253ZM211.973 36.5964H218.977V38.271H216.353V44.6475H214.614V38.271H211.973V36.5964ZM227.617 41.3626H221.208C221.337 41.9638 221.627 42.4307 222.078 42.7635C222.539 43.0963 223.108 43.2627 223.785 43.2627C224.697 43.2627 225.389 42.9299 225.862 42.2643L227.295 43.1017C226.511 44.2717 225.336 44.8568 223.769 44.8568C222.47 44.8568 221.412 44.4596 220.596 43.6652C219.791 42.8601 219.389 41.8457 219.389 40.6219C219.389 39.4304 219.786 38.4267 220.58 37.6108C221.364 36.795 222.384 36.3871 223.64 36.3871C224.81 36.3871 225.776 36.8004 226.538 37.6269C227.3 38.4535 227.681 39.4572 227.681 40.638C227.681 40.8527 227.66 41.0943 227.617 41.3626ZM221.192 39.9456H225.926C225.808 39.3123 225.54 38.8239 225.121 38.4804C224.713 38.1368 224.214 37.9651 223.624 37.9651C222.98 37.9651 222.443 38.1422 222.013 38.4965C221.584 38.8507 221.31 39.3338 221.192 39.9456ZM234.638 39.8007V36.5964H236.377V44.6475H234.638V41.4431H230.951V44.6475H229.212V36.5964H230.951V39.8007H234.638ZM245.48 36.5964V43.005H246.559V46.8051H244.852V44.6475H239.329V46.8051H237.622V43.005H238.604C239.098 42.318 239.345 41.3465 239.345 40.0906V36.5964H245.48ZM240.52 43.005H243.773V38.1905H241.052V40.0906C241.052 41.2499 240.875 42.2214 240.52 43.005ZM255.434 41.3626H249.025C249.154 41.9638 249.444 42.4307 249.895 42.7635C250.356 43.0963 250.925 43.2627 251.602 43.2627C252.514 43.2627 253.207 42.9299 253.679 42.2643L255.112 43.1017C254.328 44.2717 253.153 44.8568 251.586 44.8568C250.287 44.8568 249.229 44.4596 248.413 43.6652C247.608 42.8601 247.206 41.8457 247.206 40.6219C247.206 39.4304 247.603 38.4267 248.397 37.6108C249.181 36.795 250.201 36.3871 251.457 36.3871C252.627 36.3871 253.593 36.8004 254.355 37.6269C255.117 38.4535 255.498 39.4572 255.498 40.638C255.498 40.8527 255.477 41.0943 255.434 41.3626ZM249.009 39.9456H253.743C253.625 39.3123 253.357 38.8239 252.938 38.4804C252.53 38.1368 252.031 37.9651 251.441 37.9651C250.797 37.9651 250.26 38.1422 249.83 38.4965C249.401 38.8507 249.127 39.3338 249.009 39.9456ZM261.585 36.3871C262.68 36.3871 263.625 36.8004 264.419 37.6269C265.203 38.4428 265.595 39.4411 265.595 40.6219C265.595 41.8135 265.203 42.8172 264.419 43.633C263.636 44.4489 262.691 44.8568 261.585 44.8568C260.372 44.8568 259.433 44.4059 258.768 43.5042V47.8679H257.029V36.5964H258.768V37.7558C259.422 36.8433 260.362 36.3871 261.585 36.3871ZM259.492 42.4737C259.975 42.9567 260.582 43.1983 261.312 43.1983C262.042 43.1983 262.648 42.9567 263.131 42.4737C263.614 41.9799 263.856 41.3626 263.856 40.6219C263.856 39.8812 263.614 39.2694 263.131 38.7863C262.648 38.2925 262.042 38.0456 261.312 38.0456C260.582 38.0456 259.975 38.2925 259.492 38.7863C259.009 39.2694 258.768 39.8812 258.768 40.6219C258.768 41.3519 259.009 41.9691 259.492 42.4737ZM273.982 43.633C273.166 44.4489 272.163 44.8568 270.971 44.8568C269.78 44.8568 268.776 44.4489 267.96 43.633C267.133 42.8065 266.72 41.8028 266.72 40.6219C266.72 39.4411 267.133 38.4374 267.96 37.6108C268.776 36.795 269.78 36.3871 270.971 36.3871C272.163 36.3871 273.166 36.795 273.982 37.6108C274.809 38.4374 275.222 39.4411 275.222 40.6219C275.222 41.8028 274.809 42.8065 273.982 43.633ZM268.459 40.6219C268.459 41.3519 268.701 41.9584 269.184 42.4415C269.667 42.9245 270.263 43.1661 270.971 43.1661C271.68 43.1661 272.275 42.9245 272.758 42.4415C273.242 41.9584 273.483 41.3519 273.483 40.6219C273.483 39.892 273.242 39.2855 272.758 38.8024C272.275 38.3193 271.68 38.0778 270.971 38.0778C270.263 38.0778 269.667 38.3193 269.184 38.8024C268.701 39.2855 268.459 39.892 268.459 40.6219ZM282.366 40.5092C283.16 40.8849 283.557 41.5022 283.557 42.361C283.557 43.048 283.321 43.6008 282.849 44.0195C282.387 44.4381 281.743 44.6475 280.917 44.6475H276.795V36.5964H280.595C281.41 36.5964 282.049 36.8004 282.511 37.2083C282.972 37.6162 283.203 38.1529 283.203 38.8185C283.203 39.5807 282.924 40.1442 282.366 40.5092ZM280.466 38.0778H278.453V39.8651H280.466C281.174 39.8651 281.529 39.5646 281.529 38.9634C281.529 38.373 281.174 38.0778 280.466 38.0778ZM278.453 43.1339H280.756C281.486 43.1339 281.851 42.8172 281.851 42.1838C281.851 41.9047 281.754 41.69 281.561 41.5398C281.368 41.3787 281.099 41.2982 280.756 41.2982H278.453V43.1339ZM293.522 40.5253C294.38 40.9118 294.81 41.5505 294.81 42.4415C294.81 43.1392 294.525 43.7189 293.956 44.1805C293.387 44.6314 292.615 44.8568 291.638 44.8568C290.017 44.8568 288.922 44.2127 288.353 42.9245L289.77 42.0872C290.06 42.8923 290.688 43.2949 291.654 43.2949C292.105 43.2949 292.459 43.2036 292.717 43.0211C292.974 42.8279 293.103 42.5757 293.103 42.2643C293.103 41.9852 293.001 41.7652 292.797 41.6042C292.593 41.4324 292.309 41.3465 291.944 41.3465H290.8V39.8168H291.654C292.008 39.8168 292.282 39.7363 292.475 39.5753C292.679 39.4035 292.781 39.1727 292.781 38.8829C292.781 38.6038 292.668 38.3784 292.443 38.2066C292.217 38.0241 291.917 37.9329 291.541 37.9329C290.736 37.9329 290.178 38.2871 289.866 38.9956L288.449 38.1905C289.04 36.9882 290.06 36.3871 291.509 36.3871C292.411 36.3871 293.124 36.6179 293.65 37.0795C294.187 37.5303 294.456 38.0832 294.456 38.738C294.456 39.5431 294.144 40.1389 293.522 40.5253ZM302.607 37.7397V36.5964H304.346V44.6475H302.607V43.4881C301.952 44.4006 301.013 44.8568 299.789 44.8568C298.683 44.8568 297.739 44.4489 296.955 43.633C296.171 42.8172 295.779 41.8135 295.779 40.6219C295.779 39.4304 296.171 38.4267 296.955 37.6108C297.739 36.795 298.683 36.3871 299.789 36.3871C301.013 36.3871 301.952 36.8379 302.607 37.7397ZM298.243 42.4737C298.726 42.9567 299.333 43.1983 300.063 43.1983C300.793 43.1983 301.399 42.9567 301.882 42.4737C302.365 41.9799 302.607 41.3626 302.607 40.6219C302.607 39.8812 302.365 39.2694 301.882 38.7863C301.399 38.2925 300.793 38.0456 300.063 38.0456C299.333 38.0456 298.726 38.2925 298.243 38.7863C297.76 39.2694 297.518 39.8812 297.518 40.6219C297.518 41.3519 297.76 41.9691 298.243 42.4737ZM313.764 42.4576L315.825 36.5964H317.676L314.585 44.9051C314.209 45.9249 313.683 46.6871 313.007 47.1916C312.331 47.6961 311.547 47.9216 310.656 47.8679V46.2416C311.686 46.306 312.4 45.7907 312.797 44.6958L312.846 44.5831L309.464 36.5964H311.316L313.764 42.4576ZM322.21 40.5414L325.881 44.6475H323.804L320.503 40.9279V44.6475H318.764V36.5964H320.503V40.155L323.627 36.5964H325.752L322.21 40.5414ZM332.783 37.7397V36.5964H334.522V44.6475H332.783V43.4881C332.128 44.4006 331.188 44.8568 329.965 44.8568C328.859 44.8568 327.914 44.4489 327.131 43.633C326.347 42.8172 325.955 41.8135 325.955 40.6219C325.955 39.4304 326.347 38.4267 327.131 37.6108C327.914 36.795 328.859 36.3871 329.965 36.3871C331.188 36.3871 332.128 36.8379 332.783 37.7397ZM328.419 42.4737C328.902 42.9567 329.508 43.1983 330.238 43.1983C330.968 43.1983 331.575 42.9567 332.058 42.4737C332.541 41.9799 332.783 41.3626 332.783 40.6219C332.783 39.8812 332.541 39.2694 332.058 38.7863C331.575 38.2925 330.968 38.0456 330.238 38.0456C329.508 38.0456 328.902 38.2925 328.419 38.7863C327.936 39.2694 327.694 39.8812 327.694 40.6219C327.694 41.3519 327.936 41.9691 328.419 42.4737ZM341.073 40.5253C341.932 40.9118 342.361 41.5505 342.361 42.4415C342.361 43.1392 342.077 43.7189 341.508 44.1805C340.939 44.6314 340.166 44.8568 339.189 44.8568C337.568 44.8568 336.473 44.2127 335.904 42.9245L337.321 42.0872C337.611 42.8923 338.239 43.2949 339.205 43.2949C339.656 43.2949 340.01 43.2036 340.268 43.0211C340.526 42.8279 340.655 42.5757 340.655 42.2643C340.655 41.9852 340.553 41.7652 340.349 41.6042C340.145 41.4324 339.86 41.3465 339.495 41.3465H338.352V39.8168H339.205C339.56 39.8168 339.833 39.7363 340.027 39.5753C340.231 39.4035 340.332 39.1727 340.332 38.8829C340.332 38.6038 340.22 38.3784 339.994 38.2066C339.769 38.0241 339.468 37.9329 339.093 37.9329C338.288 37.9329 337.729 38.2871 337.418 38.9956L336.001 38.1905C336.591 36.9882 337.611 36.3871 339.06 36.3871C339.962 36.3871 340.676 36.6179 341.202 37.0795C341.739 37.5303 342.007 38.0832 342.007 38.738C342.007 39.5431 341.696 40.1389 341.073 40.5253ZM350.158 37.7397V36.5964H351.897V44.6475H350.158V43.4881C349.503 44.4006 348.564 44.8568 347.34 44.8568C346.235 44.8568 345.29 44.4489 344.506 43.633C343.723 42.8172 343.331 41.8135 343.331 40.6219C343.331 39.4304 343.723 38.4267 344.506 37.6108C345.29 36.795 346.235 36.3871 347.34 36.3871C348.564 36.3871 349.503 36.8379 350.158 37.7397ZM345.795 42.4737C346.278 42.9567 346.884 43.1983 347.614 43.1983C348.344 43.1983 348.951 42.9567 349.434 42.4737C349.917 41.9799 350.158 41.3626 350.158 40.6219C350.158 39.8812 349.917 39.2694 349.434 38.7863C348.951 38.2925 348.344 38.0456 347.614 38.0456C346.884 38.0456 346.278 38.2925 345.795 38.7863C345.312 39.2694 345.07 39.8812 345.07 40.6219C345.07 41.3519 345.312 41.9691 345.795 42.4737ZM359.351 39.8007V36.5964H361.09V44.6475H359.351V41.4431H355.663V44.6475H353.924V36.5964H355.663V39.8007H359.351ZM368.534 39.8007V36.5964H370.273V44.6475H368.534V41.4431H364.847V44.6475H363.108V36.5964H364.847V39.8007H368.534ZM374.03 39.3338H375.801C376.671 39.3338 377.374 39.5807 377.91 40.0745C378.458 40.5575 378.732 41.1962 378.732 41.9906C378.732 42.7742 378.458 43.413 377.91 43.9068C377.374 44.4006 376.671 44.6475 375.801 44.6475H372.291V36.5964H374.03V39.3338ZM379.698 44.6475V36.5964H381.437V44.6475H379.698ZM374.03 43.0856H375.817C376.161 43.0856 376.445 42.9836 376.671 42.7796C376.907 42.5757 377.025 42.3127 377.025 41.9906C377.025 41.6686 376.912 41.4056 376.687 41.2016C376.461 40.9976 376.171 40.8957 375.817 40.8957H374.03V43.0856ZM389.284 35.4693H384.776V33.9557H389.284V35.4693ZM385.162 41.7008L389.284 36.5964H390.621V44.6475H388.914V39.527L384.792 44.6475H383.455V36.5964H385.162V41.7008ZM396.664 36.5964H403.83V44.6475H402.091V38.2388H398.403V44.6475H396.664V36.5964ZM413.625 41.3626H407.216C407.345 41.9638 407.635 42.4307 408.086 42.7635C408.547 43.0963 409.116 43.2627 409.792 43.2627C410.705 43.2627 411.397 42.9299 411.87 42.2643L413.303 43.1017C412.519 44.2717 411.344 44.8568 409.776 44.8568C408.477 44.8568 407.42 44.4596 406.604 43.6652C405.799 42.8601 405.396 41.8457 405.396 40.6219C405.396 39.4304 405.794 38.4267 406.588 37.6108C407.372 36.795 408.391 36.3871 409.647 36.3871C410.818 36.3871 411.784 36.8004 412.546 37.6269C413.308 38.4535 413.689 39.4572 413.689 40.638C413.689 40.8527 413.668 41.0943 413.625 41.3626ZM407.2 39.9456H411.934C411.816 39.3123 411.547 38.8239 411.129 38.4804C410.721 38.1368 410.222 37.9651 409.631 37.9651C408.987 37.9651 408.451 38.1422 408.021 38.4965C407.592 38.8507 407.318 39.3338 407.2 39.9456ZM419.776 36.3871C420.871 36.3871 421.816 36.8004 422.61 37.6269C423.394 38.4428 423.786 39.4411 423.786 40.6219C423.786 41.8135 423.394 42.8172 422.61 43.633C421.827 44.4489 420.882 44.8568 419.776 44.8568C418.563 44.8568 417.624 44.4059 416.958 43.5042V47.8679H415.219V36.5964H416.958V37.7558C417.613 36.8433 418.552 36.3871 419.776 36.3871ZM417.683 42.4737C418.166 42.9567 418.772 43.1983 419.502 43.1983C420.232 43.1983 420.839 42.9567 421.322 42.4737C421.805 41.9799 422.047 41.3626 422.047 40.6219C422.047 39.8812 421.805 39.2694 421.322 38.7863C420.839 38.2925 420.232 38.0456 419.502 38.0456C418.772 38.0456 418.166 38.2925 417.683 38.7863C417.2 39.2694 416.958 39.8812 416.958 40.6219C416.958 41.3519 417.2 41.9691 417.683 42.4737ZM427.069 41.7008L431.191 36.5964H432.527V44.6475H430.82V39.527L426.698 44.6475H425.362V36.5964H427.069V41.7008ZM441.356 43.633C440.54 44.4489 439.537 44.8568 438.345 44.8568C437.153 44.8568 436.15 44.4489 435.334 43.633C434.507 42.8065 434.094 41.8028 434.094 40.6219C434.094 39.4411 434.507 38.4374 435.334 37.6108C436.15 36.795 437.153 36.3871 438.345 36.3871C439.537 36.3871 440.54 36.795 441.356 37.6108C442.183 38.4374 442.596 39.4411 442.596 40.6219C442.596 41.8028 442.183 42.8065 441.356 43.633ZM435.833 40.6219C435.833 41.3519 436.075 41.9584 436.558 42.4415C437.041 42.9245 437.637 43.1661 438.345 43.1661C439.054 43.1661 439.649 42.9245 440.132 42.4415C440.615 41.9584 440.857 41.3519 440.857 40.6219C440.857 39.892 440.615 39.2855 440.132 38.8024C439.649 38.3193 439.054 38.0778 438.345 38.0778C437.637 38.0778 437.041 38.3193 436.558 38.8024C436.075 39.2855 435.833 39.892 435.833 40.6219ZM450.939 36.5964V43.005H452.018V46.8051H450.311V44.6475H444.788V46.8051H443.081V43.005H444.063C444.557 42.318 444.804 41.3465 444.804 40.0906V36.5964H450.939ZM445.979 43.005H449.232V38.1905H446.511V40.0906C446.511 41.2499 446.334 42.2214 445.979 43.005Z" fill="#9C9C9C"/>
<path d="M41.9649 75.248H31.3606V73.1778L36.9733 67.45C38.3381 66.0852 39.0206 64.9044 39.0206 63.9076C39.0206 63.1408 38.7905 62.535 38.3305 62.0903C37.8704 61.6456 37.2723 61.4232 36.5362 61.4232C35.1867 61.4232 34.1899 62.0903 33.5458 63.4245L31.3145 62.1133C31.8053 61.0552 32.5107 60.2501 33.4308 59.698C34.3509 59.1306 35.3784 58.8469 36.5132 58.8469C37.9394 58.8469 39.1509 59.2916 40.1477 60.1811C41.1598 61.0859 41.6659 62.2973 41.6659 63.8155C41.6659 65.4411 40.7535 67.1893 38.9285 69.0602L35.2941 72.6947H41.9649V75.248ZM59.5231 61.4002L56.2567 65.7248C57.4528 66.0008 58.4036 66.5529 59.109 67.381C59.8298 68.1938 60.1902 69.1906 60.1902 70.3714C60.1902 71.9816 59.6458 73.2468 58.557 74.1669C57.4835 75.087 56.1493 75.5471 54.5544 75.5471C53.2969 75.5471 52.1851 75.2634 51.219 74.696C50.2529 74.1132 49.5628 73.2851 49.1487 72.2116L51.403 70.9005C51.8784 72.2807 52.9289 72.9707 54.5544 72.9707C55.4745 72.9707 56.203 72.7407 56.7397 72.2807C57.2765 71.8053 57.5448 71.1688 57.5448 70.3714C57.5448 69.574 57.2765 68.9452 56.7397 68.4852C56.203 68.0251 55.4745 67.7951 54.5544 67.7951H53.9563L52.8982 66.2079L56.3717 61.6303H49.6318V59.1459H59.5231V61.4002ZM65.0731 65.2187H67.0974C68.6309 65.2187 69.9267 65.6788 70.9849 66.5989C72.043 67.5037 72.5721 68.7612 72.5721 70.3714C72.5721 71.9816 72.0277 73.2468 70.9389 74.1669C69.8654 75.087 68.5312 75.5471 66.9363 75.5471C65.6328 75.5471 64.498 75.248 63.5319 74.65C62.5658 74.0519 61.8757 73.2008 61.4616 72.0966L63.7389 70.7855C64.1836 72.2423 65.2495 72.9707 66.9363 72.9707C67.8411 72.9707 68.5619 72.7407 69.0986 72.2807C69.6507 71.8053 69.9267 71.1688 69.9267 70.3714C69.9267 69.5893 69.6584 68.9682 69.1216 68.5082C68.5849 68.0328 67.8718 67.7951 66.9823 67.7951H62.2897L62.9108 59.1459H71.882V61.6303H65.3491L65.0731 65.2187ZM84.8395 73.2698C83.7354 74.788 82.1865 75.5471 80.1929 75.5471C78.2147 75.5471 76.6581 74.788 75.5233 73.2698C74.4192 71.7516 73.8671 69.7273 73.8671 67.197C73.8671 64.6667 74.4192 62.6424 75.5233 61.1242C76.6581 59.606 78.2147 58.8469 80.1929 58.8469C82.1865 58.8469 83.7354 59.606 84.8395 61.1242C85.959 62.6271 86.5187 64.6513 86.5187 67.197C86.5187 69.7427 85.959 71.7669 84.8395 73.2698ZM80.1929 72.9707C81.3891 72.9707 82.3015 72.4723 82.9303 71.4756C83.559 70.4788 83.8734 69.0526 83.8734 67.197C83.8734 65.3414 83.559 63.9152 82.9303 62.9184C82.3015 61.9216 81.3891 61.4232 80.1929 61.4232C79.0121 61.4232 78.0996 61.9216 77.4556 62.9184C76.8268 63.9152 76.5124 65.3414 76.5124 67.197C76.5124 69.0526 76.8268 70.4788 77.4556 71.4756C78.0996 72.4723 79.0121 72.9707 80.1929 72.9707ZM93.417 63.7465H103.423V66.1389H99.6738V75.248H97.1894V66.1389H93.417V63.7465ZM115.765 70.5554H106.61C106.794 71.4142 107.208 72.0813 107.852 72.5567C108.512 73.0321 109.325 73.2698 110.291 73.2698C111.594 73.2698 112.583 72.7944 113.258 71.8436L115.305 73.0398C114.186 74.7113 112.507 75.5471 110.268 75.5471C108.412 75.5471 106.902 74.9797 105.736 73.8449C104.586 72.6947 104.011 71.2455 104.011 69.4973C104.011 67.7951 104.578 66.3612 105.713 65.1957C106.833 64.0302 108.289 63.4475 110.084 63.4475C111.755 63.4475 113.135 64.0379 114.224 65.2187C115.313 66.3996 115.857 67.8334 115.857 69.5203C115.857 69.827 115.827 70.172 115.765 70.5554ZM106.587 68.5312H113.35C113.181 67.6264 112.798 66.9286 112.2 66.4379C111.617 65.9472 110.904 65.7018 110.061 65.7018C109.141 65.7018 108.374 65.9548 107.76 66.4609C107.147 66.967 106.756 67.6571 106.587 68.5312ZM125.795 68.3241V63.7465H128.28V75.248H125.795V70.6704H120.528V75.248H118.043V63.7465H120.528V68.3241H125.795ZM141.284 63.7465V72.9017H142.825V78.3305H140.387V75.248H132.497V78.3305H130.058V72.9017H131.461C132.167 71.9203 132.52 70.5324 132.52 68.7382V63.7465H141.284ZM134.199 72.9017H138.845V66.0238H134.958V68.7382C134.958 70.3944 134.705 71.7823 134.199 72.9017ZM155.504 70.5554H146.349C146.533 71.4142 146.947 72.0813 147.591 72.5567C148.25 73.0321 149.063 73.2698 150.029 73.2698C151.333 73.2698 152.322 72.7944 152.997 71.8436L155.044 73.0398C153.925 74.7113 152.245 75.5471 150.006 75.5471C148.151 75.5471 146.64 74.9797 145.475 73.8449C144.325 72.6947 143.75 71.2455 143.75 69.4973C143.75 67.7951 144.317 66.3612 145.452 65.1957C146.571 64.0302 148.028 63.4475 149.822 63.4475C151.494 63.4475 152.874 64.0379 153.963 65.2187C155.052 66.3996 155.596 67.8334 155.596 69.5203C155.596 69.827 155.565 70.172 155.504 70.5554ZM146.326 68.5312H153.089C152.92 67.6264 152.537 66.9286 151.939 66.4379C151.356 65.9472 150.643 65.7018 149.799 65.7018C148.879 65.7018 148.112 65.9548 147.499 66.4609C146.886 66.967 146.495 67.6571 146.326 68.5312ZM164.292 63.4475C165.856 63.4475 167.206 64.0379 168.34 65.2187C169.46 66.3842 170.02 67.8104 170.02 69.4973C170.02 71.1995 169.46 72.6334 168.34 73.7989C167.221 74.9643 165.871 75.5471 164.292 75.5471C162.559 75.5471 161.217 74.903 160.266 73.6148V79.8487H157.782V63.7465H160.266V65.4028C161.202 64.0992 162.544 63.4475 164.292 63.4475ZM161.302 72.1426C161.992 72.8327 162.858 73.1778 163.901 73.1778C164.944 73.1778 165.81 72.8327 166.5 72.1426C167.19 71.4372 167.535 70.5554 167.535 69.4973C167.535 68.4392 167.19 67.565 166.5 66.8749C165.81 66.1695 164.944 65.8168 163.901 65.8168C162.858 65.8168 161.992 66.1695 161.302 66.8749C160.611 67.565 160.266 68.4392 160.266 69.4973C160.266 70.5401 160.611 71.4219 161.302 72.1426ZM182.002 73.7989C180.836 74.9643 179.402 75.5471 177.7 75.5471C175.998 75.5471 174.564 74.9643 173.398 73.7989C172.218 72.618 171.627 71.1842 171.627 69.4973C171.627 67.8104 172.218 66.3765 173.398 65.1957C174.564 64.0302 175.998 63.4475 177.7 63.4475C179.402 63.4475 180.836 64.0302 182.002 65.1957C183.182 66.3765 183.773 67.8104 183.773 69.4973C183.773 71.1842 183.182 72.618 182.002 73.7989ZM174.112 69.4973C174.112 70.5401 174.457 71.4065 175.147 72.0966C175.837 72.7867 176.688 73.1318 177.7 73.1318C178.712 73.1318 179.563 72.7867 180.253 72.0966C180.943 71.4065 181.288 70.5401 181.288 69.4973C181.288 68.4545 180.943 67.588 180.253 66.898C179.563 66.2079 178.712 65.8628 177.7 65.8628C176.688 65.8628 175.837 66.2079 175.147 66.898C174.457 67.588 174.112 68.4545 174.112 69.4973ZM193.978 69.3363C195.113 69.873 195.68 70.7548 195.68 71.9816C195.68 72.9631 195.343 73.7529 194.668 74.3509C194.009 74.949 193.089 75.248 191.908 75.248H186.019V63.7465H191.448C192.613 63.7465 193.526 64.0379 194.185 64.6207C194.845 65.2034 195.174 65.9702 195.174 66.921C195.174 68.0098 194.776 68.8149 193.978 69.3363ZM191.264 65.8628H188.389V68.4161H191.264C192.276 68.4161 192.782 67.9868 192.782 67.128C192.782 66.2845 192.276 65.8628 191.264 65.8628ZM188.389 73.0858H191.678C192.721 73.0858 193.242 72.6334 193.242 71.7286C193.242 71.3299 193.104 71.0232 192.828 70.8085C192.552 70.5784 192.169 70.4634 191.678 70.4634H188.389V73.0858Z" fill="#09090C"/>
<path d="M37.9392 129.455H31.2675V128.262L33.8216 125.675C34.3158 125.171 34.7224 124.738 35.0414 124.374C35.3604 124.006 35.5963 123.657 35.749 123.329C35.9063 123.001 35.9849 122.644 35.9849 122.258C35.9849 121.782 35.8479 121.422 35.5738 121.18C35.2997 120.933 34.9381 120.809 34.4888 120.809C34.062 120.809 33.6666 120.894 33.3027 121.065C32.9433 121.231 32.5704 121.469 32.184 121.779L31.3146 120.735C31.5887 120.501 31.8807 120.288 32.1907 120.095C32.5052 119.901 32.8557 119.749 33.242 119.636C33.6284 119.52 34.0687 119.461 34.5629 119.461C35.1874 119.461 35.7265 119.573 36.1803 119.798C36.6341 120.018 36.9823 120.326 37.2249 120.721C37.472 121.117 37.5955 121.577 37.5955 122.103C37.5955 122.633 37.49 123.123 37.2788 123.572C37.0676 124.021 36.7666 124.466 36.3758 124.906C35.9849 125.342 35.5199 125.816 34.9807 126.328L33.2757 127.993V128.067H37.9392V129.455ZM42.5151 123.296C43.1486 123.296 43.7057 123.41 44.1864 123.639C44.6717 123.864 45.0491 124.197 45.3186 124.637C45.5882 125.073 45.723 125.607 45.723 126.241C45.723 126.933 45.577 127.53 45.2849 128.033C44.9929 128.532 44.5638 128.916 43.9978 129.186C43.4317 129.455 42.742 129.59 41.9288 129.59C41.4122 129.59 40.9292 129.545 40.4799 129.455C40.0351 129.365 39.651 129.231 39.3275 129.051V127.622C39.6645 127.811 40.0688 127.966 40.5406 128.087C41.0123 128.204 41.4638 128.262 41.8951 128.262C42.3534 128.262 42.7465 128.195 43.0745 128.06C43.4025 127.926 43.6541 127.719 43.8293 127.44C44.009 127.162 44.0988 126.809 44.0988 126.382C44.0988 125.816 43.9169 125.38 43.553 125.075C43.1935 124.765 42.6297 124.61 41.8614 124.61C41.5919 124.61 41.3043 124.635 40.9988 124.684C40.6978 124.729 40.4462 124.778 40.244 124.832L39.5499 124.421L39.9206 119.603H45.0423V120.998H41.3156L41.0999 123.451C41.2616 123.415 41.4548 123.381 41.6795 123.35C41.9041 123.314 42.1827 123.296 42.5151 123.296ZM53.7358 124.522C53.7358 125.317 53.6729 126.03 53.5472 126.659C53.4258 127.283 53.2327 127.813 52.9676 128.249C52.7025 128.685 52.3566 129.017 51.9298 129.246C51.5029 129.476 50.9863 129.59 50.3797 129.59C49.6205 129.59 48.9937 129.39 48.4995 128.99C48.0053 128.586 47.6391 128.006 47.401 127.252C47.1629 126.492 47.0439 125.583 47.0439 124.522C47.0439 123.462 47.1517 122.554 47.3673 121.8C47.5875 121.04 47.9424 120.459 48.4321 120.054C48.9218 119.65 49.571 119.448 50.3797 119.448C51.1435 119.448 51.7725 119.65 52.2667 120.054C52.7654 120.454 53.1338 121.034 53.3719 121.793C53.6145 122.548 53.7358 123.457 53.7358 124.522ZM48.641 124.522C48.641 125.353 48.695 126.048 48.8028 126.605C48.9151 127.162 49.0993 127.58 49.3554 127.858C49.6115 128.132 49.9529 128.269 50.3797 128.269C50.8066 128.269 51.148 128.132 51.4041 127.858C51.6602 127.584 51.8444 127.168 51.9567 126.611C52.0735 126.054 52.1319 125.358 52.1319 124.522C52.1319 123.696 52.0758 123.004 51.9634 122.447C51.8511 121.889 51.6669 121.472 51.4108 121.193C51.1547 120.91 50.811 120.769 50.3797 120.769C49.9484 120.769 49.6047 120.91 49.3486 121.193C49.0971 121.472 48.9151 121.889 48.8028 122.447C48.695 123.004 48.641 123.696 48.641 124.522Z" fill="#8390A3"/>
<path d="M37.9392 166.858H31.2675V165.665L33.8216 163.077C34.3158 162.574 34.7224 162.14 35.0414 161.776C35.3604 161.408 35.5963 161.06 35.749 160.732C35.9063 160.404 35.9849 160.047 35.9849 159.66C35.9849 159.184 35.8479 158.825 35.5738 158.582C35.2997 158.335 34.9381 158.211 34.4888 158.211C34.062 158.211 33.6666 158.297 33.3027 158.467C32.9433 158.634 32.5704 158.872 32.184 159.182L31.3146 158.137C31.5887 157.904 31.8807 157.69 32.1907 157.497C32.5052 157.304 32.8557 157.151 33.242 157.039C33.6284 156.922 34.0687 156.863 34.5629 156.863C35.1874 156.863 35.7265 156.976 36.1803 157.2C36.6341 157.421 36.9823 157.728 37.2249 158.124C37.472 158.519 37.5955 158.98 37.5955 159.505C37.5955 160.035 37.49 160.525 37.2788 160.974C37.0676 161.424 36.7666 161.868 36.3758 162.309C35.9849 162.745 35.5199 163.219 34.9807 163.731L33.2757 165.395V165.469H37.9392V166.858ZM45.8375 161.925C45.8375 162.72 45.7746 163.432 45.6488 164.061C45.5275 164.685 45.3344 165.216 45.0693 165.651C44.8042 166.087 44.4583 166.42 44.0314 166.649C43.6046 166.878 43.088 166.992 42.4814 166.992C41.7222 166.992 41.0954 166.793 40.6012 166.393C40.107 165.988 39.7408 165.409 39.5027 164.654C39.2646 163.895 39.1456 162.985 39.1456 161.925C39.1456 160.864 39.2534 159.957 39.469 159.202C39.6892 158.443 40.0441 157.861 40.5338 157.457C41.0235 157.052 41.6727 156.85 42.4814 156.85C43.2452 156.85 43.8742 157.052 44.3684 157.457C44.8671 157.856 45.2355 158.436 45.4736 159.195C45.7162 159.95 45.8375 160.86 45.8375 161.925ZM40.7427 161.925C40.7427 162.756 40.7966 163.45 40.9045 164.007C41.0168 164.564 41.201 164.982 41.4571 165.26C41.7132 165.535 42.0546 165.672 42.4814 165.672C42.9083 165.672 43.2497 165.535 43.5058 165.26C43.7619 164.986 43.9461 164.571 44.0584 164.014C44.1752 163.457 44.2336 162.76 44.2336 161.925C44.2336 161.098 44.1775 160.406 44.0651 159.849C43.9528 159.292 43.7686 158.874 43.5125 158.595C43.2564 158.312 42.9127 158.171 42.4814 158.171C42.0501 158.171 41.7064 158.312 41.4503 158.595C41.1988 158.874 41.0168 159.292 40.9045 159.849C40.7966 160.406 40.7427 161.098 40.7427 161.925ZM53.7358 161.925C53.7358 162.72 53.6729 163.432 53.5472 164.061C53.4258 164.685 53.2327 165.216 52.9676 165.651C52.7025 166.087 52.3566 166.42 51.9298 166.649C51.5029 166.878 50.9863 166.992 50.3797 166.992C49.6205 166.992 48.9937 166.793 48.4995 166.393C48.0053 165.988 47.6391 165.409 47.401 164.654C47.1629 163.895 47.0439 162.985 47.0439 161.925C47.0439 160.864 47.1517 159.957 47.3673 159.202C47.5875 158.443 47.9424 157.861 48.4321 157.457C48.9218 157.052 49.571 156.85 50.3797 156.85C51.1435 156.85 51.7725 157.052 52.2667 157.457C52.7654 157.856 53.1338 158.436 53.3719 159.195C53.6145 159.95 53.7358 160.86 53.7358 161.925ZM48.641 161.925C48.641 162.756 48.695 163.45 48.8028 164.007C48.9151 164.564 49.0993 164.982 49.3554 165.26C49.6115 165.535 49.9529 165.672 50.3797 165.672C50.8066 165.672 51.148 165.535 51.4041 165.26C51.6602 164.986 51.8444 164.571 51.9567 164.014C52.0735 163.457 52.1319 162.76 52.1319 161.925C52.1319 161.098 52.0758 160.406 51.9634 159.849C51.8511 159.292 51.6669 158.874 51.4108 158.595C51.1547 158.312 50.811 158.171 50.3797 158.171C49.9484 158.171 49.6047 158.312 49.3486 158.595C49.0971 158.874 48.9151 159.292 48.8028 159.849C48.695 160.406 48.641 161.098 48.641 161.925Z" fill="#8390A3"/>
<path d="M35.9242 204.26H34.3338V197.919C34.3338 197.708 34.336 197.496 34.3405 197.285C34.345 197.074 34.3495 196.867 34.354 196.665C34.363 196.463 34.3742 196.27 34.3877 196.086C34.2934 196.189 34.1765 196.301 34.0373 196.423C33.9025 196.544 33.7587 196.67 33.606 196.8L32.4738 197.703L31.6786 196.699L34.6034 194.408H35.9242V204.26ZM42.5151 198.101C43.1486 198.101 43.7057 198.215 44.1864 198.444C44.6717 198.669 45.0491 199.001 45.3186 199.442C45.5882 199.878 45.723 200.412 45.723 201.046C45.723 201.738 45.577 202.335 45.2849 202.838C44.9929 203.337 44.5638 203.721 43.9978 203.991C43.4317 204.26 42.742 204.395 41.9288 204.395C41.4122 204.395 40.9292 204.35 40.4799 204.26C40.0351 204.17 39.651 204.036 39.3275 203.856V202.427C39.6645 202.616 40.0688 202.771 40.5406 202.892C41.0123 203.009 41.4638 203.067 41.8951 203.067C42.3534 203.067 42.7465 203 43.0745 202.865C43.4025 202.73 43.6541 202.524 43.8293 202.245C44.009 201.967 44.0988 201.614 44.0988 201.187C44.0988 200.621 43.9169 200.185 43.553 199.88C43.1935 199.57 42.6297 199.415 41.8614 199.415C41.5919 199.415 41.3043 199.44 40.9988 199.489C40.6978 199.534 40.4462 199.583 40.244 199.637L39.5499 199.226L39.9206 194.408H45.0423V195.803H41.3156L41.0999 198.256C41.2616 198.22 41.4548 198.186 41.6795 198.155C41.9041 198.119 42.1827 198.101 42.5151 198.101ZM53.7358 199.327C53.7358 200.122 53.6729 200.835 53.5472 201.463C53.4258 202.088 53.2327 202.618 52.9676 203.054C52.7025 203.49 52.3566 203.822 51.9298 204.051C51.5029 204.28 50.9863 204.395 50.3797 204.395C49.6205 204.395 48.9937 204.195 48.4995 203.795C48.0053 203.391 47.6391 202.811 47.401 202.057C47.1629 201.297 47.0439 200.387 47.0439 199.327C47.0439 198.267 47.1517 197.359 47.3673 196.605C47.5875 195.845 47.9424 195.263 48.4321 194.859C48.9218 194.455 49.571 194.253 50.3797 194.253C51.1435 194.253 51.7725 194.455 52.2667 194.859C52.7654 195.259 53.1338 195.839 53.3719 196.598C53.6145 197.353 53.7358 198.262 53.7358 199.327ZM48.641 199.327C48.641 200.158 48.695 200.852 48.8028 201.41C48.9151 201.967 49.0993 202.385 49.3554 202.663C49.6115 202.937 49.9529 203.074 50.3797 203.074C50.8066 203.074 51.148 202.937 51.4041 202.663C51.6602 202.389 51.8444 201.973 51.9567 201.416C52.0735 200.859 52.1319 200.163 52.1319 199.327C52.1319 198.501 52.0758 197.809 51.9634 197.252C51.8511 196.694 51.6669 196.277 51.4108 195.998C51.1547 195.715 50.811 195.573 50.3797 195.573C49.9484 195.573 49.6047 195.715 49.3486 195.998C49.0971 196.277 48.9151 196.694 48.8028 197.252C48.695 197.809 48.641 198.501 48.641 199.327Z" fill="#8390A3"/>
<path d="M35.9242 241.663H34.3338V235.321C34.3338 235.11 34.336 234.899 34.3405 234.688C34.345 234.476 34.3495 234.27 34.354 234.068C34.363 233.865 34.3742 233.672 34.3877 233.488C34.2934 233.591 34.1765 233.704 34.0373 233.825C33.9025 233.946 33.7587 234.072 33.606 234.202L32.4738 235.105L31.6786 234.101L34.6034 231.81H35.9242V241.663ZM45.8375 236.73C45.8375 237.525 45.7746 238.237 45.6488 238.866C45.5275 239.49 45.3344 240.02 45.0693 240.456C44.8042 240.892 44.4583 241.225 44.0314 241.454C43.6046 241.683 43.088 241.797 42.4814 241.797C41.7222 241.797 41.0954 241.597 40.6012 241.198C40.107 240.793 39.7408 240.214 39.5027 239.459C39.2646 238.7 39.1456 237.79 39.1456 236.73C39.1456 235.669 39.2534 234.762 39.469 234.007C39.6892 233.248 40.0441 232.666 40.5338 232.261C41.0235 231.857 41.6727 231.655 42.4814 231.655C43.2452 231.655 43.8742 231.857 44.3684 232.261C44.8671 232.661 45.2355 233.241 45.4736 234C45.7162 234.755 45.8375 235.665 45.8375 236.73ZM40.7427 236.73C40.7427 237.561 40.7966 238.255 40.9045 238.812C41.0168 239.369 41.201 239.787 41.4571 240.065C41.7132 240.339 42.0546 240.477 42.4814 240.477C42.9083 240.477 43.2497 240.339 43.5058 240.065C43.7619 239.791 43.9461 239.376 44.0584 238.819C44.1752 238.262 44.2336 237.565 44.2336 236.73C44.2336 235.903 44.1775 235.211 44.0651 234.654C43.9528 234.097 43.7686 233.679 43.5125 233.4C43.2564 233.117 42.9127 232.976 42.4814 232.976C42.0501 232.976 41.7064 233.117 41.4503 233.4C41.1988 233.679 41.0168 234.097 40.9045 234.654C40.7966 235.211 40.7427 235.903 40.7427 236.73ZM53.7358 236.73C53.7358 237.525 53.6729 238.237 53.5472 238.866C53.4258 239.49 53.2327 240.02 52.9676 240.456C52.7025 240.892 52.3566 241.225 51.9298 241.454C51.5029 241.683 50.9863 241.797 50.3797 241.797C49.6205 241.797 48.9937 241.597 48.4995 241.198C48.0053 240.793 47.6391 240.214 47.401 239.459C47.1629 238.7 47.0439 237.79 47.0439 236.73C47.0439 235.669 47.1517 234.762 47.3673 234.007C47.5875 233.248 47.9424 232.666 48.4321 232.261C48.9218 231.857 49.571 231.655 50.3797 231.655C51.1435 231.655 51.7725 231.857 52.2667 232.261C52.7654 232.661 53.1338 233.241 53.3719 234C53.6145 234.755 53.7358 235.665 53.7358 236.73ZM48.641 236.73C48.641 237.561 48.695 238.255 48.8028 238.812C48.9151 239.369 49.0993 239.787 49.3554 240.065C49.6115 240.339 49.9529 240.477 50.3797 240.477C50.8066 240.477 51.148 240.339 51.4041 240.065C51.6602 239.791 51.8444 239.376 51.9567 238.819C52.0735 238.262 52.1319 237.565 52.1319 236.73C52.1319 235.903 52.0758 235.211 51.9634 234.654C51.8511 234.097 51.6669 233.679 51.4108 233.4C51.1547 233.117 50.811 232.976 50.3797 232.976C49.9484 232.976 49.6047 233.117 49.3486 233.4C49.0971 233.679 48.9151 234.097 48.8028 234.654C48.695 235.211 48.641 235.903 48.641 236.73Z" fill="#8390A3"/>
<path d="M34.6168 272.905C35.2503 272.905 35.8074 273.02 36.2881 273.249C36.7734 273.474 37.1508 273.806 37.4203 274.246C37.6899 274.682 37.8247 275.217 37.8247 275.85C37.8247 276.542 37.6787 277.14 37.3866 277.643C37.0946 278.142 36.6655 278.526 36.0994 278.795C35.5334 279.065 34.8437 279.2 34.0305 279.2C33.5139 279.2 33.0309 279.155 32.5816 279.065C32.1368 278.975 31.7527 278.84 31.4292 278.661V277.232C31.7662 277.421 32.1705 277.576 32.6423 277.697C33.114 277.814 33.5655 277.872 33.9968 277.872C34.4551 277.872 34.8482 277.805 35.1762 277.67C35.5042 277.535 35.7557 277.328 35.931 277.05C36.1107 276.771 36.2005 276.419 36.2005 275.992C36.2005 275.426 36.0186 274.99 35.6547 274.684C35.2952 274.374 34.7314 274.219 33.9631 274.219C33.6936 274.219 33.406 274.244 33.1005 274.294C32.7995 274.339 32.5479 274.388 32.3457 274.442L31.6516 274.031L32.0223 269.212H37.144V270.607H33.4173L33.2016 273.06C33.3633 273.024 33.5565 272.991 33.7812 272.959C34.0058 272.923 34.2844 272.905 34.6168 272.905ZM45.8375 274.132C45.8375 274.927 45.7746 275.639 45.6488 276.268C45.5275 276.893 45.3344 277.423 45.0693 277.859C44.8042 278.294 44.4583 278.627 44.0314 278.856C43.6046 279.085 43.088 279.2 42.4814 279.2C41.7222 279.2 41.0954 279 40.6012 278.6C40.107 278.196 39.7408 277.616 39.5027 276.861C39.2646 276.102 39.1456 275.192 39.1456 274.132C39.1456 273.072 39.2534 272.164 39.469 271.409C39.6892 270.65 40.0441 270.068 40.5338 269.664C41.0235 269.259 41.6727 269.057 42.4814 269.057C43.2452 269.057 43.8742 269.259 44.3684 269.664C44.8671 270.064 45.2355 270.643 45.4736 271.403C45.7162 272.157 45.8375 273.067 45.8375 274.132ZM40.7427 274.132C40.7427 274.963 40.7966 275.657 40.9045 276.214C41.0168 276.771 41.201 277.189 41.4571 277.468C41.7132 277.742 42.0546 277.879 42.4814 277.879C42.9083 277.879 43.2497 277.742 43.5058 277.468C43.7619 277.194 43.9461 276.778 44.0584 276.221C44.1752 275.664 44.2336 274.968 44.2336 274.132C44.2336 273.305 44.1775 272.613 44.0651 272.056C43.9528 271.499 43.7686 271.081 43.5125 270.803C43.2564 270.52 42.9127 270.378 42.4814 270.378C42.0501 270.378 41.7064 270.52 41.4503 270.803C41.1988 271.081 41.0168 271.499 40.9045 272.056C40.7966 272.613 40.7427 273.305 40.7427 274.132Z" fill="#8390A3"/>
<path d="M37.9392 311.534C37.9392 312.33 37.8763 313.042 37.7505 313.671C37.6292 314.295 37.436 314.825 37.171 315.261C36.9059 315.697 36.56 316.029 36.1331 316.259C35.7063 316.488 35.1897 316.602 34.5831 316.602C33.8239 316.602 33.1971 316.402 32.7029 316.003C32.2087 315.598 31.8425 315.019 31.6044 314.264C31.3663 313.505 31.2472 312.595 31.2472 311.534C31.2472 310.474 31.3551 309.567 31.5707 308.812C31.7909 308.053 32.1458 307.471 32.6355 307.066C33.1252 306.662 33.7744 306.46 34.5831 306.46C35.3469 306.46 35.9759 306.662 36.4701 307.066C36.9688 307.466 37.3372 308.046 37.5753 308.805C37.8179 309.56 37.9392 310.47 37.9392 311.534ZM32.8444 311.534C32.8444 312.366 32.8983 313.06 33.0062 313.617C33.1185 314.174 33.3027 314.592 33.5588 314.87C33.8149 315.144 34.1563 315.281 34.5831 315.281C35.0099 315.281 35.3514 315.144 35.6075 314.87C35.8636 314.596 36.0478 314.181 36.1601 313.624C36.2769 313.066 36.3353 312.37 36.3353 311.534C36.3353 310.708 36.2792 310.016 36.1668 309.459C36.0545 308.902 35.8703 308.484 35.6142 308.205C35.3581 307.922 35.0144 307.781 34.5831 307.781C34.1518 307.781 33.8081 307.922 33.552 308.205C33.3004 308.484 33.1185 308.902 33.0062 309.459C32.8983 310.016 32.8444 310.708 32.8444 311.534Z" fill="#8390A3"/>
<path d="M99.6567 184.56V320.467H700.353V147.945C676.844 153.51 629.649 173.241 616.786 191.075C603.514 209.478 571.139 249.974 542.041 254.921C512.943 259.868 464.612 254.921 418.252 228.332C381.165 207.06 309.259 229.697 282.134 254.921C262.407 273.266 224.709 284.537 195.512 267.718C166.316 250.898 107.054 170.956 99.6567 184.56Z" fill="url(#paint0_linear_92_7137)"/>
<path d="M99.6558 316.882V114.455" stroke="#8AB2D2" stroke-width="1.15015" stroke-dasharray="2.3 2.3"/>
<path fill-rule="evenodd" clip-rule="evenodd" d="M113.461 145.103C114.384 145.478 114.314 146.808 113.356 147.084L108.521 148.474L106.313 152.994C105.875 153.889 104.553 153.728 104.344 152.753L102.093 142.256C101.916 141.432 102.733 140.746 103.514 141.063L113.461 145.103Z" stroke="#1C1C1C" stroke-width="1.72523"/>
<g filter="url(#filter1_d_92_7137)">
<rect x="118.059" y="124.807" width="161.805" height="85.4054" rx="18.4024" fill="white"/>
<rect x="136.461" y="143.209" width="125" height="48.6006" rx="18.4024" fill="white"/>
<path d="M140.673 154.092L138.113 158.209H136.771L139.528 153.883C139.168 153.771 138.831 153.611 138.517 153.404C138.207 153.193 137.955 152.904 137.762 152.535C137.573 152.167 137.479 151.695 137.479 151.12C137.479 150.221 137.785 149.536 138.396 149.064C139.011 148.593 139.925 148.357 141.138 148.357H143.841V158.209H142.695V154.092H140.673ZM142.695 149.334H141.179C140.635 149.334 140.175 149.397 139.797 149.523C139.424 149.648 139.141 149.846 138.948 150.116C138.755 150.385 138.658 150.738 138.658 151.174C138.658 151.798 138.865 152.279 139.278 152.616C139.692 152.948 140.323 153.115 141.172 153.115H142.695V149.334ZM147.5 150.823V153.923H151.618V150.823H152.737V158.209H151.618V154.874H147.5V158.209H146.375V150.823H147.5ZM160.979 152.677C160.979 153.139 160.844 153.501 160.574 153.762C160.305 154.018 159.956 154.191 159.53 154.281V154.334C159.992 154.397 160.39 154.564 160.722 154.833C161.059 155.098 161.228 155.505 161.228 156.053C161.228 156.475 161.127 156.848 160.925 157.172C160.722 157.495 160.406 157.749 159.974 157.933C159.543 158.117 158.981 158.209 158.29 158.209H155.109V150.823H158.263C158.793 150.823 159.26 150.884 159.664 151.005C160.073 151.122 160.394 151.315 160.628 151.585C160.862 151.854 160.979 152.218 160.979 152.677ZM160.062 156.053C160.062 155.617 159.896 155.303 159.563 155.109C159.235 154.916 158.757 154.82 158.128 154.82H156.234V157.3H158.155C158.775 157.3 159.247 157.205 159.57 157.017C159.898 156.823 160.062 156.502 160.062 156.053ZM159.84 152.805C159.84 152.454 159.712 152.194 159.455 152.023C159.199 151.848 158.779 151.76 158.195 151.76H156.234V153.883H158C158.606 153.883 159.065 153.795 159.375 153.62C159.685 153.445 159.84 153.173 159.84 152.805ZM165.797 150.702C166.678 150.702 167.331 150.9 167.758 151.295C168.185 151.69 168.398 152.322 168.398 153.189V158.209H167.583L167.367 157.118H167.313C167.107 157.387 166.891 157.614 166.666 157.798C166.442 157.978 166.181 158.115 165.885 158.209C165.593 158.299 165.233 158.344 164.806 158.344C164.357 158.344 163.957 158.266 163.607 158.108C163.261 157.951 162.987 157.713 162.785 157.394C162.587 157.075 162.488 156.671 162.488 156.181C162.488 155.444 162.78 154.878 163.364 154.483C163.948 154.087 164.838 153.872 166.033 153.836L167.307 153.782V153.33C167.307 152.692 167.17 152.245 166.896 151.989C166.621 151.733 166.235 151.605 165.736 151.605C165.35 151.605 164.982 151.661 164.631 151.774C164.281 151.886 163.948 152.018 163.634 152.171L163.29 151.322C163.623 151.151 164.004 151.005 164.436 150.884C164.867 150.763 165.321 150.702 165.797 150.702ZM167.293 154.57L166.168 154.617C165.247 154.653 164.597 154.804 164.22 155.069C163.843 155.334 163.654 155.709 163.654 156.194C163.654 156.617 163.782 156.929 164.038 157.131C164.294 157.333 164.633 157.434 165.056 157.434C165.712 157.434 166.249 157.253 166.666 156.889C167.084 156.525 167.293 155.979 167.293 155.251V154.57ZM174.174 150.689C175.095 150.689 175.829 151.005 176.378 151.639C176.926 152.272 177.2 153.225 177.2 154.496C177.2 155.336 177.074 156.042 176.822 156.612C176.571 157.183 176.216 157.614 175.758 157.906C175.304 158.198 174.767 158.344 174.147 158.344C173.756 158.344 173.412 158.293 173.116 158.189C172.819 158.086 172.565 157.947 172.354 157.771C172.143 157.596 171.968 157.405 171.829 157.199H171.748C171.761 157.374 171.777 157.585 171.795 157.832C171.817 158.079 171.829 158.295 171.829 158.479V161.512H170.703V150.823H171.626L171.775 151.915H171.829C171.972 151.69 172.148 151.486 172.354 151.302C172.561 151.113 172.812 150.965 173.109 150.857C173.41 150.745 173.765 150.689 174.174 150.689ZM173.978 151.632C173.466 151.632 173.053 151.731 172.738 151.929C172.428 152.126 172.201 152.423 172.058 152.818C171.914 153.209 171.838 153.701 171.829 154.294V154.51C171.829 155.134 171.896 155.662 172.031 156.093C172.17 156.525 172.397 156.853 172.711 157.077C173.03 157.302 173.457 157.414 173.992 157.414C174.45 157.414 174.832 157.291 175.138 157.044C175.443 156.796 175.67 156.453 175.818 156.013C175.971 155.568 176.047 155.058 176.047 154.483C176.047 153.611 175.877 152.919 175.535 152.407C175.198 151.89 174.679 151.632 173.978 151.632ZM180.279 153.869H182.544C183.173 153.869 183.696 153.948 184.114 154.105C184.532 154.263 184.844 154.496 185.051 154.806C185.262 155.116 185.368 155.5 185.368 155.959C185.368 156.417 185.264 156.814 185.058 157.151C184.855 157.488 184.541 157.749 184.114 157.933C183.692 158.117 183.146 158.209 182.476 158.209H179.154V150.823H180.279V153.869ZM184.242 156.013C184.242 155.559 184.08 155.244 183.757 155.069C183.438 154.889 182.991 154.799 182.416 154.799H180.279V157.3H182.423C182.962 157.3 183.4 157.201 183.737 157.003C184.074 156.801 184.242 156.471 184.242 156.013ZM196.838 158.209H190.381V157.273L193.017 154.597C193.506 154.103 193.917 153.663 194.25 153.276C194.587 152.89 194.843 152.51 195.018 152.137C195.193 151.76 195.281 151.347 195.281 150.897C195.281 150.34 195.115 149.916 194.782 149.624C194.454 149.327 194.021 149.179 193.482 149.179C193.01 149.179 192.592 149.26 192.228 149.422C191.864 149.583 191.491 149.812 191.109 150.109L190.51 149.354C190.77 149.134 191.053 148.939 191.359 148.768C191.669 148.597 191.999 148.462 192.349 148.364C192.704 148.265 193.082 148.215 193.482 148.215C194.088 148.215 194.611 148.321 195.052 148.532C195.492 148.743 195.831 149.044 196.069 149.435C196.312 149.826 196.433 150.291 196.433 150.83C196.433 151.351 196.33 151.836 196.123 152.286C195.917 152.731 195.627 153.173 195.254 153.613C194.881 154.049 194.445 154.512 193.947 155.002L191.803 157.138V157.185H196.838V158.209ZM204.79 153.27C204.79 154.069 204.729 154.784 204.608 155.413C204.487 156.042 204.296 156.574 204.035 157.01C203.774 157.446 203.438 157.778 203.024 158.007C202.611 158.232 202.114 158.344 201.535 158.344C200.802 158.344 200.196 158.144 199.715 157.744C199.239 157.345 198.882 156.767 198.644 156.013C198.41 155.253 198.293 154.339 198.293 153.27C198.293 152.218 198.399 151.315 198.61 150.561C198.826 149.801 199.172 149.219 199.648 148.815C200.124 148.406 200.753 148.202 201.535 148.202C202.276 148.202 202.887 148.404 203.368 148.808C203.849 149.208 204.206 149.788 204.439 150.547C204.673 151.302 204.79 152.209 204.79 153.27ZM199.419 153.27C199.419 154.186 199.488 154.95 199.628 155.561C199.767 156.172 199.992 156.63 200.302 156.936C200.616 157.237 201.027 157.387 201.535 157.387C202.043 157.387 202.451 157.237 202.761 156.936C203.076 156.635 203.303 156.179 203.442 155.568C203.586 154.957 203.658 154.191 203.658 153.27C203.658 152.367 203.588 151.612 203.449 151.005C203.309 150.394 203.085 149.936 202.775 149.631C202.465 149.321 202.051 149.166 201.535 149.166C201.018 149.166 200.605 149.321 200.295 149.631C199.985 149.936 199.76 150.394 199.621 151.005C199.486 151.612 199.419 152.367 199.419 153.27ZM212.634 158.209H206.178V157.273L208.813 154.597C209.303 154.103 209.714 153.663 210.046 153.276C210.383 152.89 210.639 152.51 210.815 152.137C210.99 151.76 211.077 151.347 211.077 150.897C211.077 150.34 210.911 149.916 210.579 149.624C210.251 149.327 209.817 149.179 209.278 149.179C208.806 149.179 208.389 149.26 208.025 149.422C207.661 149.583 207.288 149.812 206.906 150.109L206.306 149.354C206.567 149.134 206.85 148.939 207.155 148.768C207.465 148.597 207.796 148.462 208.146 148.364C208.501 148.265 208.878 148.215 209.278 148.215C209.885 148.215 210.408 148.321 210.848 148.532C211.289 148.743 211.628 149.044 211.866 149.435C212.109 149.826 212.23 150.291 212.23 150.83C212.23 151.351 212.127 151.836 211.92 152.286C211.713 152.731 211.423 153.173 211.051 153.613C210.678 154.049 210.242 154.512 209.743 155.002L207.6 157.138V157.185H212.634V158.209ZM221.024 155.925H219.549V158.209H218.457V155.925H213.692V154.981L218.383 148.303H219.549V154.914H221.024V155.925ZM218.457 154.914V151.693C218.457 151.446 218.459 151.223 218.464 151.026C218.468 150.823 218.475 150.637 218.484 150.466C218.493 150.291 218.5 150.125 218.504 149.967C218.513 149.81 218.52 149.655 218.524 149.502H218.47C218.385 149.682 218.286 149.873 218.174 150.075C218.066 150.273 217.956 150.45 217.844 150.608L214.804 154.914H218.457ZM230.54 150.823V151.774H227.184V158.209H226.059V150.823H230.54ZM231.848 157.509C231.848 157.194 231.924 156.972 232.077 156.841C232.229 156.707 232.416 156.639 232.636 156.639C232.865 156.639 233.058 156.707 233.216 156.841C233.373 156.972 233.452 157.194 233.452 157.509C233.452 157.819 233.373 158.045 233.216 158.189C233.058 158.329 232.865 158.398 232.636 158.398C232.416 158.398 232.229 158.329 232.077 158.189C231.924 158.045 231.848 157.819 231.848 157.509Z" fill="#8390A3"/>
<path d="M143.497 186.81H141.377V178.355C141.377 178.073 141.38 177.792 141.386 177.51C141.392 177.228 141.397 176.953 141.403 176.683C141.415 176.414 141.43 176.156 141.448 175.911C141.323 176.048 141.167 176.198 140.981 176.36C140.801 176.522 140.61 176.689 140.406 176.863L138.897 178.067L137.836 176.728L141.736 173.673H143.497V186.81ZM149.32 186.81L154.477 175.524H147.657V173.673H156.751V175.12L151.593 186.81H149.32ZM162.78 173.493C163.541 173.493 164.227 173.613 164.838 173.853C165.449 174.087 165.934 174.437 166.293 174.904C166.653 175.371 166.833 175.95 166.833 176.638C166.833 177.172 166.722 177.636 166.5 178.031C166.284 178.427 165.991 178.774 165.62 179.073C165.248 179.367 164.832 179.628 164.371 179.855C164.886 180.107 165.359 180.397 165.79 180.727C166.228 181.05 166.578 181.431 166.842 181.868C167.111 182.305 167.246 182.817 167.246 183.405C167.246 184.141 167.057 184.779 166.68 185.318C166.308 185.852 165.79 186.265 165.125 186.558C164.46 186.846 163.685 186.99 162.798 186.99C161.846 186.99 161.034 186.849 160.363 186.567C159.692 186.286 159.183 185.885 158.835 185.363C158.488 184.836 158.314 184.207 158.314 183.476C158.314 182.871 158.434 182.347 158.674 181.904C158.913 181.461 159.234 181.077 159.635 180.754C160.043 180.43 160.489 180.158 160.974 179.936C160.561 179.691 160.183 179.415 159.842 179.109C159.5 178.798 159.228 178.442 159.024 178.04C158.826 177.633 158.728 177.163 158.728 176.629C158.728 175.947 158.91 175.374 159.276 174.913C159.641 174.446 160.129 174.093 160.74 173.853C161.357 173.613 162.037 173.493 162.78 173.493ZM160.327 183.396C160.327 183.971 160.531 184.444 160.938 184.815C161.345 185.187 161.953 185.372 162.762 185.372C163.565 185.372 164.176 185.19 164.595 184.824C165.015 184.459 165.224 183.977 165.224 183.378C165.224 182.994 165.116 182.656 164.901 182.362C164.691 182.069 164.407 181.808 164.047 181.58C163.694 181.347 163.301 181.131 162.87 180.934L162.582 180.817C162.115 181.014 161.714 181.239 161.378 181.491C161.043 181.736 160.782 182.015 160.597 182.326C160.417 182.638 160.327 182.994 160.327 183.396ZM162.762 175.12C162.181 175.12 161.702 175.264 161.324 175.551C160.953 175.833 160.767 176.24 160.767 176.773C160.767 177.151 160.857 177.474 161.037 177.744C161.223 178.013 161.471 178.247 161.783 178.445C162.094 178.636 162.439 178.816 162.816 178.984C163.181 178.822 163.511 178.645 163.804 178.453C164.104 178.256 164.341 178.022 164.514 177.753C164.694 177.477 164.784 177.148 164.784 176.764C164.784 176.237 164.595 175.833 164.218 175.551C163.846 175.264 163.361 175.12 162.762 175.12ZM181.856 178.525H178.586V186.81H176.483V178.525H173.23V176.863H181.856V178.525ZM187.742 176.674C188.629 176.674 189.389 176.857 190.024 177.222C190.659 177.588 191.148 178.106 191.489 178.777C191.83 179.448 192.001 180.251 192.001 181.185V182.317H185.361C185.385 183.282 185.642 184.025 186.134 184.546C186.631 185.067 187.326 185.327 188.218 185.327C188.853 185.327 189.422 185.268 189.925 185.148C190.435 185.022 190.959 184.839 191.498 184.6V186.316C191.001 186.549 190.495 186.72 189.979 186.828C189.464 186.936 188.847 186.99 188.128 186.99C187.152 186.99 186.292 186.801 185.55 186.424C184.813 186.04 184.235 185.471 183.815 184.716C183.402 183.962 183.195 183.024 183.195 181.904C183.195 180.79 183.384 179.843 183.761 179.065C184.139 178.286 184.669 177.693 185.352 177.285C186.035 176.878 186.831 176.674 187.742 176.674ZM187.742 178.265C187.077 178.265 186.538 178.48 186.125 178.912C185.717 179.343 185.478 179.975 185.406 180.808H189.934C189.928 180.311 189.845 179.87 189.683 179.487C189.527 179.103 189.288 178.804 188.964 178.588C188.647 178.373 188.239 178.265 187.742 178.265ZM196.503 176.863V180.862H201.157V176.863H203.278V186.81H201.157V182.515H196.503V186.81H194.382V176.863H196.503ZM214.42 176.863V185.175H215.858V190.314H213.908V186.81H207.043V190.314H205.093V185.175H205.902C206.405 184.444 206.824 183.629 207.16 182.731C207.501 181.832 207.765 180.886 207.951 179.891C208.142 178.891 208.262 177.881 208.31 176.863H214.42ZM212.326 178.48H210.125C210.053 179.289 209.93 180.095 209.757 180.898C209.583 181.694 209.358 182.458 209.083 183.189C208.813 183.914 208.49 184.576 208.112 185.175H212.326V178.48ZM221.671 176.674C222.558 176.674 223.319 176.857 223.954 177.222C224.589 177.588 225.077 178.106 225.418 178.777C225.76 179.448 225.931 180.251 225.931 181.185V182.317H219.29C219.314 183.282 219.572 184.025 220.063 184.546C220.56 185.067 221.255 185.327 222.148 185.327C222.783 185.327 223.352 185.268 223.855 185.148C224.364 185.022 224.888 184.839 225.427 184.6V186.316C224.93 186.549 224.424 186.72 223.909 186.828C223.394 186.936 222.777 186.99 222.058 186.99C221.081 186.99 220.222 186.801 219.479 186.424C218.742 186.04 218.164 185.471 217.745 184.716C217.331 183.962 217.125 183.024 217.125 181.904C217.125 180.79 217.313 179.843 217.691 179.065C218.068 178.286 218.598 177.693 219.281 177.285C219.964 176.878 220.761 176.674 221.671 176.674ZM221.671 178.265C221.007 178.265 220.467 178.48 220.054 178.912C219.647 179.343 219.407 179.975 219.335 180.808H223.864C223.858 180.311 223.774 179.87 223.612 179.487C223.457 179.103 223.217 178.804 222.893 178.588C222.576 178.373 222.169 178.265 221.671 178.265ZM233.416 176.674C234.596 176.674 235.542 177.106 236.255 177.968C236.974 178.831 237.333 180.113 237.333 181.814C237.333 182.94 237.166 183.89 236.83 184.663C236.501 185.429 236.036 186.01 235.437 186.406C234.844 186.795 234.152 186.99 233.362 186.99C232.858 186.99 232.421 186.924 232.05 186.792C231.678 186.66 231.361 186.49 231.097 186.28C230.834 186.064 230.612 185.831 230.432 185.579H230.307C230.337 185.819 230.363 186.085 230.387 186.379C230.417 186.666 230.432 186.93 230.432 187.169V191.222H228.312V176.863H230.037L230.334 178.238H230.432C230.618 177.956 230.843 177.696 231.106 177.456C231.376 177.216 231.699 177.028 232.077 176.89C232.46 176.746 232.906 176.674 233.416 176.674ZM232.849 178.4C232.268 178.4 231.801 178.516 231.448 178.75C231.1 178.978 230.846 179.322 230.684 179.783C230.528 180.245 230.444 180.823 230.432 181.518V181.814C230.432 182.551 230.507 183.177 230.657 183.692C230.813 184.201 231.067 184.591 231.421 184.86C231.78 185.124 232.265 185.256 232.876 185.256C233.392 185.256 233.817 185.115 234.152 184.833C234.494 184.552 234.748 184.15 234.916 183.629C235.084 183.108 235.168 182.494 235.168 181.787C235.168 180.715 234.976 179.882 234.593 179.289C234.215 178.696 233.634 178.4 232.849 178.4ZM248.583 181.814C248.583 182.641 248.475 183.375 248.26 184.016C248.044 184.657 247.73 185.199 247.316 185.642C246.903 186.079 246.406 186.415 245.825 186.648C245.244 186.876 244.588 186.99 243.857 186.99C243.174 186.99 242.548 186.876 241.979 186.648C241.41 186.415 240.916 186.079 240.496 185.642C240.083 185.199 239.762 184.657 239.535 184.016C239.307 183.375 239.193 182.641 239.193 181.814C239.193 180.718 239.382 179.789 239.759 179.029C240.143 178.262 240.688 177.678 241.395 177.276C242.102 176.875 242.943 176.674 243.92 176.674C244.836 176.674 245.645 176.875 246.346 177.276C247.047 177.678 247.595 178.262 247.99 179.029C248.386 179.795 248.583 180.724 248.583 181.814ZM241.368 181.814C241.368 182.539 241.455 183.159 241.628 183.674C241.808 184.189 242.084 184.585 242.455 184.86C242.826 185.13 243.306 185.265 243.893 185.265C244.48 185.265 244.959 185.13 245.33 184.86C245.702 184.585 245.974 184.189 246.148 183.674C246.322 183.159 246.409 182.539 246.409 181.814C246.409 181.089 246.322 180.475 246.148 179.972C245.974 179.463 245.702 179.076 245.33 178.813C244.959 178.543 244.477 178.409 243.884 178.409C243.009 178.409 242.371 178.702 241.97 179.289C241.568 179.876 241.368 180.718 241.368 181.814ZM259.375 179.415C259.375 179.99 259.198 180.46 258.845 180.826C258.497 181.185 258.018 181.422 257.407 181.536V181.607C258.06 181.691 258.605 181.922 259.042 182.299C259.48 182.677 259.698 183.201 259.698 183.872C259.698 184.441 259.555 184.947 259.267 185.39C258.985 185.828 258.536 186.175 257.919 186.433C257.308 186.684 256.508 186.81 255.52 186.81H251.009V176.863H255.502C256.245 176.863 256.907 176.944 257.488 177.106C258.075 177.267 258.536 177.534 258.872 177.905C259.207 178.277 259.375 178.78 259.375 179.415ZM257.497 183.8C257.497 183.309 257.308 182.955 256.931 182.74C256.559 182.524 256.014 182.416 255.295 182.416H253.13V185.256H255.34C256.011 185.256 256.538 185.145 256.922 184.923C257.305 184.695 257.497 184.321 257.497 183.8ZM257.227 179.604C257.227 179.214 257.081 178.927 256.787 178.741C256.493 178.549 256.032 178.453 255.403 178.453H253.13V180.862H255.116C255.811 180.862 256.335 180.763 256.688 180.565C257.048 180.361 257.227 180.041 257.227 179.604Z" fill="#1C1C1C"/>
<path d="M118.059 169.663L103.107 178.864L118.059 188.065V169.663Z" fill="white"/>
</g>
<circle cx="99.6565" cy="178.864" r="3.45045" fill="#8AB2D2"/>
<path d="M127.047 349.921L124.614 353.87H122.781L125.564 349.537C125.25 349.424 124.946 349.263 124.654 349.051C124.367 348.84 124.131 348.553 123.947 348.189C123.767 347.82 123.677 347.36 123.677 346.807C123.677 345.9 123.992 345.208 124.621 344.732C125.254 344.255 126.169 344.017 127.364 344.017H130.322V353.87H128.705V349.921H127.047ZM128.705 345.358H127.431C126.977 345.358 126.593 345.412 126.279 345.52C125.964 345.623 125.726 345.79 125.564 346.019C125.403 346.243 125.322 346.54 125.322 346.908C125.322 347.438 125.497 347.85 125.847 348.142C126.198 348.434 126.732 348.58 127.451 348.58H128.705V345.358ZM134.345 346.41V349.409H137.836V346.41H139.427V353.87H137.836V350.649H134.345V353.87H132.755V346.41H134.345ZM147.965 348.324C147.965 348.755 147.833 349.108 147.568 349.382C147.307 349.651 146.948 349.829 146.489 349.914V349.968C146.979 350.031 147.388 350.204 147.716 350.487C148.044 350.77 148.208 351.163 148.208 351.666C148.208 352.093 148.1 352.473 147.884 352.805C147.673 353.133 147.336 353.394 146.873 353.587C146.415 353.776 145.815 353.87 145.074 353.87H141.691V346.41H145.061C145.618 346.41 146.114 346.47 146.55 346.592C146.99 346.713 147.336 346.913 147.588 347.191C147.839 347.47 147.965 347.847 147.965 348.324ZM146.557 351.612C146.557 351.244 146.415 350.979 146.132 350.817C145.854 350.655 145.445 350.574 144.906 350.574H143.282V352.704H144.939C145.443 352.704 145.838 352.621 146.125 352.455C146.413 352.284 146.557 352.003 146.557 351.612ZM146.355 348.465C146.355 348.173 146.245 347.957 146.024 347.818C145.804 347.674 145.458 347.602 144.987 347.602H143.282V349.409H144.771C145.292 349.409 145.685 349.334 145.95 349.186C146.22 349.033 146.355 348.793 146.355 348.465Z" fill="#8390A3"/>
<path d="M178.101 343.876V345.089C179.157 345.111 179.997 345.291 180.622 345.628C181.251 345.96 181.702 346.398 181.976 346.942C182.255 347.486 182.394 348.09 182.394 348.755C182.394 349.195 182.322 349.633 182.179 350.069C182.035 350.505 181.799 350.902 181.471 351.262C181.143 351.621 180.703 351.911 180.15 352.131C179.598 352.351 178.915 352.47 178.101 352.488V354.005H176.592V352.488C175.761 352.47 175.069 352.349 174.516 352.124C173.964 351.9 173.523 351.608 173.195 351.248C172.872 350.884 172.64 350.487 172.501 350.056C172.366 349.62 172.299 349.188 172.299 348.762C172.299 348.272 172.373 347.809 172.521 347.373C172.674 346.938 172.919 346.551 173.256 346.214C173.593 345.877 174.035 345.61 174.584 345.412C175.132 345.215 175.801 345.107 176.592 345.089V343.876H178.101ZM176.592 346.389C175.922 346.412 175.388 346.524 174.988 346.726C174.588 346.924 174.301 347.196 174.125 347.542C173.95 347.888 173.863 348.29 173.863 348.748C173.863 349.238 173.959 349.662 174.152 350.022C174.345 350.381 174.644 350.664 175.049 350.871C175.453 351.073 175.967 351.185 176.592 351.208V346.389ZM178.101 346.389V351.208C178.739 351.185 179.258 351.071 179.658 350.864C180.063 350.658 180.359 350.374 180.548 350.015C180.741 349.651 180.838 349.227 180.838 348.741C180.838 348.279 180.75 347.877 180.575 347.535C180.399 347.189 180.112 346.917 179.712 346.72C179.312 346.522 178.775 346.412 178.101 346.389ZM187.179 346.268C187.844 346.268 188.415 346.405 188.891 346.679C189.367 346.953 189.733 347.342 189.989 347.845C190.245 348.348 190.373 348.95 190.373 349.651V350.5H185.393C185.411 351.224 185.604 351.781 185.973 352.172C186.346 352.562 186.867 352.758 187.536 352.758C188.013 352.758 188.439 352.713 188.817 352.623C189.199 352.529 189.592 352.392 189.996 352.212V353.499C189.623 353.674 189.244 353.802 188.857 353.883C188.471 353.964 188.008 354.005 187.469 354.005C186.737 354.005 186.092 353.863 185.535 353.58C184.982 353.293 184.549 352.866 184.234 352.3C183.924 351.734 183.769 351.03 183.769 350.19C183.769 349.355 183.911 348.645 184.194 348.061C184.477 347.477 184.874 347.032 185.386 346.726C185.899 346.421 186.496 346.268 187.179 346.268ZM187.179 347.461C186.68 347.461 186.276 347.623 185.966 347.946C185.661 348.27 185.481 348.744 185.427 349.368H188.823C188.819 348.995 188.756 348.665 188.635 348.377C188.518 348.09 188.338 347.865 188.096 347.704C187.858 347.542 187.552 347.461 187.179 347.461ZM198.434 348.324C198.434 348.755 198.301 349.108 198.036 349.382C197.775 349.651 197.416 349.829 196.958 349.914V349.968C197.447 350.031 197.856 350.204 198.184 350.487C198.512 350.77 198.676 351.163 198.676 351.666C198.676 352.093 198.568 352.473 198.353 352.805C198.141 353.133 197.805 353.394 197.342 353.587C196.883 353.776 196.284 353.87 195.542 353.87H192.159V346.41H195.529C196.086 346.41 196.582 346.47 197.018 346.592C197.459 346.713 197.805 346.913 198.056 347.191C198.308 347.47 198.434 347.847 198.434 348.324ZM197.025 351.612C197.025 351.244 196.883 350.979 196.6 350.817C196.322 350.655 195.913 350.574 195.374 350.574H193.75V352.704H195.408C195.911 352.704 196.306 352.621 196.594 352.455C196.881 352.284 197.025 352.003 197.025 351.612ZM196.823 348.465C196.823 348.173 196.713 347.957 196.493 347.818C196.272 347.674 195.927 347.602 195.455 347.602H193.75V349.409H195.239C195.76 349.409 196.153 349.334 196.418 349.186C196.688 349.033 196.823 348.793 196.823 348.465Z" fill="#8390A3"/>
<path d="M227.15 353.87L224.313 345.641H224.252C224.265 345.826 224.281 346.077 224.299 346.396C224.317 346.715 224.333 347.057 224.346 347.42C224.36 347.784 224.367 348.133 224.367 348.465V353.87H222.897V344.017H225.169L227.898 351.882H227.938L230.762 344.017H233.026V353.87H231.483V348.384C231.483 348.083 231.488 347.757 231.497 347.407C231.51 347.057 231.524 346.724 231.537 346.41C231.555 346.095 231.568 345.844 231.577 345.655H231.524L228.579 353.87H227.15ZM238.384 346.268C239.328 346.268 240.04 346.477 240.52 346.895C241.006 347.313 241.248 347.964 241.248 348.849V353.87H240.123L239.819 352.812H239.766C239.554 353.081 239.337 353.304 239.112 353.479C238.887 353.654 238.627 353.785 238.33 353.87C238.038 353.96 237.681 354.005 237.259 354.005C236.814 354.005 236.416 353.924 236.066 353.762C235.715 353.596 235.439 353.344 235.237 353.007C235.035 352.67 234.934 352.243 234.934 351.727C234.934 350.959 235.219 350.381 235.789 349.995C236.365 349.608 237.232 349.395 238.391 349.355L239.685 349.307V348.917C239.685 348.4 239.563 348.032 239.321 347.811C239.083 347.591 238.746 347.481 238.31 347.481C237.937 347.481 237.575 347.535 237.225 347.643C236.874 347.751 236.533 347.883 236.201 348.04L235.688 346.922C236.052 346.729 236.466 346.571 236.928 346.45C237.396 346.329 237.881 346.268 238.384 346.268ZM239.678 350.305L238.714 350.339C237.924 350.366 237.369 350.5 237.05 350.743C236.731 350.986 236.571 351.318 236.571 351.74C236.571 352.109 236.681 352.378 236.901 352.549C237.122 352.715 237.411 352.798 237.771 352.798C238.319 352.798 238.773 352.643 239.132 352.333C239.496 352.019 239.678 351.558 239.678 350.952V350.305ZM247.293 346.268C248.178 346.268 248.888 346.592 249.423 347.239C249.962 347.885 250.231 348.847 250.231 350.123C250.231 350.968 250.106 351.68 249.854 352.259C249.607 352.834 249.259 353.27 248.81 353.567C248.365 353.859 247.846 354.005 247.253 354.005C246.875 354.005 246.547 353.955 246.269 353.856C245.99 353.758 245.752 353.63 245.555 353.472C245.357 353.311 245.191 353.135 245.056 352.947H244.961C244.984 353.126 245.004 353.326 245.022 353.546C245.045 353.762 245.056 353.96 245.056 354.139V357.179H243.465V346.41H244.759L244.982 347.441H245.056C245.195 347.23 245.364 347.034 245.561 346.854C245.763 346.675 246.006 346.533 246.289 346.43C246.577 346.322 246.911 346.268 247.293 346.268ZM246.869 347.562C246.433 347.562 246.082 347.65 245.817 347.825C245.557 347.996 245.366 348.254 245.245 348.6C245.128 348.946 245.065 349.379 245.056 349.901V350.123C245.056 350.676 245.112 351.145 245.224 351.531C245.341 351.913 245.532 352.205 245.797 352.407C246.067 352.605 246.431 352.704 246.889 352.704C247.275 352.704 247.594 352.598 247.846 352.387C248.102 352.176 248.293 351.875 248.419 351.484C248.544 351.093 248.607 350.633 248.607 350.103C248.607 349.298 248.464 348.674 248.176 348.229C247.893 347.784 247.457 347.562 246.869 347.562Z" fill="#8390A3"/>
<path d="M280.975 353.87L280.012 351.134H276.244L275.281 353.87H273.576L277.242 343.977H279.034L282.694 353.87H280.975ZM279.594 349.746L278.657 347.05C278.621 346.933 278.569 346.769 278.502 346.558C278.435 346.342 278.367 346.124 278.3 345.904C278.232 345.68 278.176 345.491 278.131 345.338C278.086 345.522 278.03 345.729 277.963 345.958C277.9 346.183 277.837 346.394 277.774 346.592C277.716 346.789 277.671 346.942 277.639 347.05L276.696 349.746H279.594ZM290.349 346.41V353.87H288.752V347.663H285.423V353.87H283.833V346.41H290.349ZM296.448 346.268C297.333 346.268 298.043 346.592 298.578 347.239C299.117 347.885 299.387 348.847 299.387 350.123C299.387 350.968 299.261 351.68 299.009 352.259C298.762 352.834 298.414 353.27 297.965 353.567C297.52 353.859 297.001 354.005 296.408 354.005C296.031 354.005 295.703 353.955 295.424 353.856C295.146 353.758 294.907 353.63 294.71 353.472C294.512 353.311 294.346 353.135 294.211 352.947H294.117C294.139 353.126 294.159 353.326 294.177 353.546C294.2 353.762 294.211 353.96 294.211 354.139V357.179H292.621V346.41H293.914L294.137 347.441H294.211C294.35 347.23 294.519 347.034 294.716 346.854C294.919 346.675 295.161 346.533 295.444 346.43C295.732 346.322 296.067 346.268 296.448 346.268ZM296.024 347.562C295.588 347.562 295.238 347.65 294.973 347.825C294.712 347.996 294.521 348.254 294.4 348.6C294.283 348.946 294.22 349.379 294.211 349.901V350.123C294.211 350.676 294.267 351.145 294.379 351.531C294.496 351.913 294.687 352.205 294.952 352.407C295.222 352.605 295.586 352.704 296.044 352.704C296.43 352.704 296.749 352.598 297.001 352.387C297.257 352.176 297.448 351.875 297.574 351.484C297.7 351.093 297.763 350.633 297.763 350.103C297.763 349.298 297.619 348.674 297.331 348.229C297.048 347.784 296.612 347.562 296.024 347.562Z" fill="#8390A3"/>
<path d="M328.094 353.87L325.257 345.641H325.196C325.21 345.826 325.226 346.077 325.244 346.396C325.261 346.715 325.277 347.057 325.291 347.42C325.304 347.784 325.311 348.133 325.311 348.465V353.87H323.842V344.017H326.113L328.842 351.882H328.883L331.706 344.017H333.971V353.87H332.427V348.384C332.427 348.083 332.432 347.757 332.441 347.407C332.454 347.057 332.468 346.724 332.481 346.41C332.499 346.095 332.513 345.844 332.522 345.655H332.468L329.523 353.87H328.094ZM339.328 346.268C340.272 346.268 340.984 346.477 341.465 346.895C341.95 347.313 342.193 347.964 342.193 348.849V353.87H341.067L340.764 352.812H340.71C340.499 353.081 340.281 353.304 340.056 353.479C339.832 353.654 339.571 353.785 339.274 353.87C338.982 353.96 338.625 354.005 338.203 354.005C337.758 354.005 337.361 353.924 337.01 353.762C336.66 353.596 336.383 353.344 336.181 353.007C335.979 352.67 335.878 352.243 335.878 351.727C335.878 350.959 336.163 350.381 336.734 349.995C337.309 349.608 338.176 349.395 339.335 349.355L340.629 349.307V348.917C340.629 348.4 340.508 348.032 340.265 347.811C340.027 347.591 339.69 347.481 339.254 347.481C338.881 347.481 338.52 347.535 338.169 347.643C337.819 347.751 337.477 347.883 337.145 348.04L336.633 346.922C336.997 346.729 337.41 346.571 337.873 346.45C338.34 346.329 338.825 346.268 339.328 346.268ZM340.622 350.305L339.659 350.339C338.868 350.366 338.313 350.5 337.994 350.743C337.675 350.986 337.516 351.318 337.516 351.74C337.516 352.109 337.626 352.378 337.846 352.549C338.066 352.715 338.356 352.798 338.715 352.798C339.263 352.798 339.717 352.643 340.076 352.333C340.44 352.019 340.622 351.558 340.622 350.952V350.305ZM345.933 346.41V350.217C345.933 350.339 345.928 350.494 345.919 350.682C345.915 350.866 345.906 351.06 345.892 351.262C345.879 351.459 345.865 351.641 345.852 351.808C345.838 351.974 345.827 352.097 345.818 352.178L349.572 346.41H351.499V353.87H349.983V350.103C349.983 349.905 349.987 349.676 349.996 349.415C350.01 349.155 350.023 348.903 350.037 348.66C350.055 348.418 350.066 348.234 350.071 348.108L346.33 353.87H344.41V346.41H345.933ZM350.94 343.269C350.895 343.732 350.769 344.132 350.563 344.469C350.36 344.801 350.053 345.057 349.639 345.237C349.226 345.417 348.682 345.507 348.008 345.507C347.312 345.507 346.762 345.421 346.357 345.25C345.953 345.075 345.661 344.821 345.481 344.489C345.302 344.152 345.194 343.745 345.158 343.269H346.6C346.645 343.768 346.775 344.105 346.991 344.28C347.206 344.451 347.555 344.536 348.035 344.536C348.449 344.536 348.779 344.444 349.026 344.26C349.278 344.076 349.428 343.745 349.478 343.269H350.94Z" fill="#8390A3"/>
<path d="M376.821 344.017H378.297V349.24C378.297 349.465 378.294 349.712 378.29 349.981C378.285 350.251 378.276 350.514 378.263 350.77C378.254 351.026 378.245 351.255 378.236 351.457C378.227 351.655 378.218 351.799 378.209 351.889H378.256L383.27 344.017H385.15V353.87H383.688V348.687C383.688 348.445 383.692 348.182 383.701 347.899C383.71 347.616 383.722 347.342 383.735 347.077C383.749 346.812 383.762 346.578 383.775 346.376C383.789 346.174 383.798 346.03 383.802 345.945H383.742L378.714 353.87H376.821V344.017ZM397.53 350.123C397.53 350.945 397.393 351.646 397.119 352.226C396.849 352.805 396.463 353.248 395.96 353.553C395.457 353.854 394.855 354.005 394.154 354.005C393.534 354.005 392.983 353.879 392.503 353.627C392.026 353.376 391.645 353.001 391.357 352.502C391.07 352.003 390.892 351.385 390.825 350.649H389.167V353.87H387.583V346.41H389.167V349.409H390.845C390.926 348.739 391.11 348.171 391.397 347.704C391.685 347.236 392.065 346.881 392.536 346.639C393.013 346.392 393.563 346.268 394.188 346.268C394.852 346.268 395.434 346.421 395.933 346.726C396.436 347.027 396.827 347.465 397.106 348.04C397.389 348.611 397.53 349.305 397.53 350.123ZM392.435 350.123C392.435 350.68 392.494 351.152 392.611 351.538C392.732 351.925 392.921 352.217 393.177 352.414C393.433 352.612 393.765 352.711 394.174 352.711C394.583 352.711 394.913 352.612 395.165 352.414C395.421 352.217 395.607 351.927 395.724 351.545C395.845 351.158 395.906 350.684 395.906 350.123C395.906 349.566 395.845 349.099 395.724 348.721C395.607 348.344 395.421 348.058 395.165 347.865C394.909 347.668 394.576 347.569 394.167 347.569C393.763 347.569 393.433 347.668 393.177 347.865C392.921 348.058 392.732 348.344 392.611 348.721C392.494 349.099 392.435 349.566 392.435 350.123ZM400.954 346.41V349.409H404.445V346.41H406.035V353.87H404.445V350.649H400.954V353.87H399.363V346.41H400.954Z" fill="#8390A3"/>
<path d="M430.793 344.017H432.269V349.24C432.269 349.465 432.266 349.712 432.262 349.981C432.257 350.251 432.249 350.514 432.235 350.77C432.226 351.026 432.217 351.255 432.208 351.457C432.199 351.655 432.19 351.799 432.181 351.889H432.228L437.242 344.017H439.122V353.87H437.66V348.687C437.66 348.445 437.665 348.182 437.674 347.899C437.683 347.616 437.694 347.342 437.707 347.077C437.721 346.812 437.734 346.578 437.748 346.376C437.761 346.174 437.77 346.03 437.775 345.945H437.714L432.687 353.87H430.793V344.017ZM451.502 350.123C451.502 350.945 451.365 351.646 451.091 352.226C450.822 352.805 450.435 353.248 449.932 353.553C449.429 353.854 448.827 354.005 448.126 354.005C447.506 354.005 446.956 353.879 446.475 353.627C445.999 353.376 445.617 353.001 445.329 352.502C445.042 352.003 444.864 351.385 444.797 350.649H443.139V353.87H441.555V346.41H443.139V349.409H444.817C444.898 348.739 445.082 348.171 445.37 347.704C445.657 347.236 446.037 346.881 446.509 346.639C446.985 346.392 447.535 346.268 448.16 346.268C448.825 346.268 449.406 346.421 449.905 346.726C450.408 347.027 450.799 347.465 451.078 348.04C451.361 348.611 451.502 349.305 451.502 350.123ZM446.407 350.123C446.407 350.68 446.466 351.152 446.583 351.538C446.704 351.925 446.893 352.217 447.149 352.414C447.405 352.612 447.737 352.711 448.146 352.711C448.555 352.711 448.885 352.612 449.137 352.414C449.393 352.217 449.579 351.927 449.696 351.545C449.818 351.158 449.878 350.684 449.878 350.123C449.878 349.566 449.818 349.099 449.696 348.721C449.579 348.344 449.393 348.058 449.137 347.865C448.881 347.668 448.548 347.569 448.139 347.569C447.735 347.569 447.405 347.668 447.149 347.865C446.893 348.058 446.704 348.344 446.583 348.721C446.466 349.099 446.407 349.566 446.407 350.123ZM459.475 353.87H457.878V347.65H455.809C455.719 348.782 455.606 349.75 455.472 350.554C455.337 351.358 455.168 352.014 454.966 352.522C454.764 353.025 454.515 353.394 454.218 353.627C453.922 353.861 453.564 353.978 453.147 353.978C452.962 353.978 452.796 353.964 452.648 353.937C452.5 353.915 452.367 353.879 452.25 353.829V352.583C452.327 352.61 452.41 352.632 452.5 352.65C452.59 352.668 452.682 352.677 452.776 352.677C452.942 352.677 453.095 352.61 453.234 352.475C453.378 352.336 453.511 352.118 453.632 351.821C453.753 351.525 453.863 351.134 453.962 350.649C454.061 350.159 454.151 349.566 454.232 348.869C454.313 348.169 454.384 347.349 454.447 346.41H459.475V353.87Z" fill="#8390A3"/>
</g>
<defs>
<filter id="filter0_d_92_7137" x="0.027195" y="0.027195" width="730.946" height="399.761" filterUnits="userSpaceOnUse" color-interpolation-filters="sRGB">
<feFlood flood-opacity="0" result="BackgroundImageFix"/>
<feColorMatrix in="SourceAlpha" type="matrix" values="0 0 0 0 0 0 0 0 0 0 0 0 0 0 0 0 0 0 127 0" result="hardAlpha"/>
<feOffset/>
<feGaussianBlur stdDeviation="4.9864"/>
<feComposite in2="hardAlpha" operator="out"/>
<feColorMatrix type="matrix" values="0 0 0 0 0.862745 0 0 0 0 0.913725 0 0 0 0 1 0 0 0 1 0"/>
<feBlend mode="normal" in2="BackgroundImageFix" result="effect1_dropShadow_92_7137"/>
<feBlend mode="normal" in="SourceGraphic" in2="effect1_dropShadow_92_7137" result="shape"/>
</filter>
<filter id="filter1_d_92_7137" x="84.7045" y="98.3532" width="316.292" height="239.231" filterUnits="userSpaceOnUse" color-interpolation-filters="sRGB">
<feFlood flood-opacity="0" result="BackgroundImageFix"/>
<feColorMatrix in="SourceAlpha" type="matrix" values="0 0 0 0 0 0 0 0 0 0 0 0 0 0 0 0 0 0 127 0" result="hardAlpha"/>
<feOffset dy="2.3003"/>
<feGaussianBlur stdDeviation="9.20121"/>
<feComposite in2="hardAlpha" operator="out"/>
<feColorMatrix type="matrix" values="0 0 0 0 0.425 0 0 0 0 0.425 0 0 0 0 0.425 0 0 0 0.2 0"/>
<feBlend mode="normal" in2="BackgroundImageFix" result="effect1_dropShadow_92_7137"/>
<feBlend mode="normal" in="SourceGraphic" in2="effect1_dropShadow_92_7137" result="shape"/>
</filter>
<linearGradient id="paint0_linear_92_7137" x1="400.005" y1="147.945" x2="400.005" y2="320.468" gradientUnits="userSpaceOnUse">
<stop stop-color="#A1C4FF"/>
<stop offset="1" stop-color="#A1C4FF" stop-opacity="0.1"/>
</linearGradient>
</defs>
</svg>
