<svg width="512" height="334" viewBox="0 0 512 334" fill="none" xmlns="http://www.w3.org/2000/svg">
<g filter="url(#filter0_d_92_8282)">
<g clip-path="url(#clip0_92_8282)">
<rect x="62.5679" y="-105" width="684.029" height="316.46" rx="16" transform="rotate(8.82826 62.5679 -105)" fill="white"/>
<path d="M100.332 10.2163L103.437 5.12022L105.149 5.38617L100.754 12.5645C99.6744 14.3218 98.2625 15.0095 96.5178 14.6277L96.7631 13.0482C97.3345 13.1975 97.815 13.1864 98.2044 13.0151C98.6052 12.8355 98.9574 12.482 99.261 11.9547L96.9565 4.11377L98.6688 4.37971L100.332 10.2163ZM109.137 12.4909L109.662 9.11055L111.256 9.35816L110.11 16.7387L108.516 16.4911L108.903 13.9965C108.289 14.1228 107.652 14.1348 106.993 14.0324C106.058 13.8872 105.365 13.5477 104.914 13.0141C104.464 12.4705 104.306 11.7658 104.441 10.8998L104.835 8.36087L106.429 8.60848L106.058 10.9998C105.92 11.8854 106.378 12.4101 107.431 12.5736C108.031 12.6668 108.6 12.6392 109.137 12.4909ZM118.8 11.6031L118.963 10.5551L120.557 10.8027L119.411 18.1833L117.817 17.9357L117.982 16.8729C117.251 17.6161 116.325 17.9006 115.204 17.7264C114.19 17.5689 113.382 17.0605 112.78 16.201C112.178 15.3415 111.961 14.3656 112.131 13.2733C112.301 12.181 112.803 11.3167 113.637 10.6803C114.472 10.044 115.396 9.80456 116.409 9.96199C117.531 10.1362 118.328 10.6833 118.8 11.6031ZM114.126 15.3216C114.5 15.8332 115.021 16.141 115.691 16.2449C116.36 16.3489 116.95 16.2138 117.462 15.8397C117.975 15.4558 118.284 14.9244 118.39 14.2454C118.495 13.5664 118.361 12.9711 117.987 12.4594C117.614 11.938 117.093 11.6253 116.424 11.5214C115.755 11.4174 115.164 11.5574 114.651 11.9413C114.139 12.3154 113.831 12.8419 113.725 13.5209C113.621 14.1901 113.755 14.7903 114.126 15.3216ZM124.723 19.2048C123.611 19.0321 122.739 18.5137 122.107 17.6497C121.487 16.7773 121.261 15.7999 121.429 14.7174C121.6 13.6152 122.112 12.7524 122.965 12.129C123.829 11.4973 124.817 11.2677 125.929 11.4404C126.647 11.552 127.275 11.8259 127.812 12.262C128.349 12.6981 128.72 13.2294 128.925 13.8559L127.428 14.4398C127.316 14.0595 127.103 13.7442 126.789 13.4939C126.486 13.2353 126.114 13.0716 125.671 13.0028C125.021 12.902 124.441 13.0386 123.929 13.4126C123.426 13.798 123.124 14.3155 123.023 14.965C122.922 15.6145 123.053 16.1992 123.416 16.7191C123.79 17.2307 124.301 17.537 124.951 17.6378C125.384 17.7051 125.788 17.6671 126.163 17.5237C126.549 17.3721 126.859 17.1329 127.091 16.8061L128.342 17.8017C127.935 18.3432 127.405 18.7396 126.751 18.9908C126.107 19.2435 125.431 19.3149 124.723 19.2048ZM129.518 12.1944L135.939 13.1917L135.701 14.7269L133.295 14.3532L132.387 20.1986L130.792 19.951L131.7 14.1056L129.28 13.7296L129.518 12.1944ZM137.856 18.2816L142.361 14.1892L143.586 14.3795L142.44 21.76L140.875 21.517L141.605 16.823L137.097 20.9301L135.871 20.7398L137.018 13.3593L138.582 13.6023L137.856 18.2816ZM151.887 20.1434L146.012 19.2309C146.045 19.8004 146.244 20.2697 146.61 20.639C146.986 21.0097 147.484 21.2433 148.104 21.3396C148.94 21.4695 149.622 21.263 150.15 20.7201L151.344 21.6917C150.459 22.6528 149.299 23.0218 147.862 22.7986C146.671 22.6137 145.758 22.099 145.124 21.2547C144.5 20.402 144.276 19.4147 144.45 18.2929C144.619 17.2005 145.126 16.337 145.971 15.7022C146.805 15.0658 147.798 14.8371 148.95 15.0159C150.022 15.1825 150.849 15.6989 151.43 16.5652C152.011 17.4315 152.218 18.4058 152.049 19.4883C152.019 19.6851 151.965 19.9035 151.887 20.1434ZM146.199 17.9297L150.539 18.6037C150.521 18.0063 150.345 17.5203 150.01 17.1458C149.685 16.7728 149.251 16.5443 148.71 16.4602C148.12 16.3685 147.603 16.4545 147.158 16.7181C146.714 16.9817 146.395 17.3855 146.199 17.9297ZM162.268 20.9545C162.943 21.412 163.219 22.0344 163.097 22.8217C162.999 23.4515 162.704 23.9246 162.211 24.2412C161.729 24.5593 161.108 24.6594 160.351 24.5418L156.572 23.9549L157.718 16.5743L161.202 17.1153C161.95 17.2315 162.506 17.5094 162.871 17.9491C163.236 18.3887 163.371 18.9136 163.277 19.5238C163.168 20.2225 162.832 20.6994 162.268 20.9545ZM160.873 18.455L159.027 18.1684L158.773 19.8069L160.618 20.0935C161.268 20.1944 161.635 19.9693 161.721 19.4182C161.805 18.8769 161.522 18.5559 160.873 18.455ZM158.308 22.8034L160.418 23.1313C161.088 23.2352 161.467 22.9969 161.557 22.4163C161.597 22.1604 161.539 21.9498 161.383 21.7846C161.229 21.6094 160.995 21.4974 160.68 21.4485L158.569 21.1207L158.308 22.8034ZM168.122 18.1901L174.543 19.1874L174.304 20.7226L171.898 20.3489L170.991 26.1943L169.396 25.9467L170.304 20.1013L167.883 19.7253L168.122 18.1901ZM181.784 24.7868L175.909 23.8743C175.942 24.4438 176.141 24.9131 176.507 25.2824C176.883 25.6531 177.381 25.8867 178.001 25.983C178.837 26.1129 179.519 25.9064 180.047 25.3635L181.242 26.3352C180.357 27.2962 179.196 27.6652 177.759 27.442C176.568 27.2571 175.655 26.7424 175.021 25.8981C174.397 25.0454 174.173 24.0581 174.347 22.9363C174.517 21.8439 175.024 20.9804 175.868 20.3456C176.702 19.7093 177.695 19.4805 178.847 19.6593C179.919 19.8259 180.746 20.3424 181.327 21.2086C181.908 22.0749 182.115 23.0492 181.947 24.1317C181.916 24.3285 181.862 24.5469 181.784 24.7868ZM176.096 22.5731L180.436 23.2471C180.418 22.6497 180.242 22.1637 179.907 21.7892C179.582 21.4162 179.149 21.1877 178.607 21.1036C178.017 21.0119 177.5 21.0979 177.056 21.3615C176.611 21.6251 176.292 22.029 176.096 22.5731ZM188.443 24.3546L188.899 21.4171L190.493 21.6647L189.347 29.0453L187.753 28.7977L188.209 25.8603L184.829 25.3352L184.373 28.2727L182.778 28.0251L183.925 20.6445L185.519 20.8921L185.063 23.8296L188.443 24.3546ZM198.838 22.9608L197.926 28.8357L198.915 28.9893L198.374 32.473L196.809 32.2299L197.116 30.2519L192.053 29.4656L191.746 31.4436L190.181 31.2006L190.722 27.7169L191.623 27.8568C192.173 27.2973 192.538 26.4418 192.717 25.2905L193.214 22.0873L198.838 22.9608ZM193.379 28.1296L196.361 28.5927L197.046 24.1791L194.552 23.7917L194.281 25.5335C194.116 26.5963 193.816 27.4617 193.379 28.1296ZM207.285 28.7474L201.41 27.8349C201.442 28.4043 201.642 28.8737 202.008 29.2429C202.383 29.6137 202.881 29.8472 203.501 29.9435C204.338 30.0734 205.02 29.867 205.547 29.3241L206.742 30.2957C205.857 31.2568 204.696 31.6257 203.259 31.4026C202.069 31.2177 201.156 30.703 200.521 29.8586C199.898 29.0059 199.673 28.0187 199.847 26.8968C200.017 25.8045 200.524 24.9409 201.368 24.3061C202.203 23.6698 203.196 23.4411 204.347 23.6199C205.42 23.7865 206.247 24.3029 206.828 25.1692C207.409 26.0354 207.615 27.0098 207.447 28.0923C207.416 28.2891 207.362 28.5075 207.285 28.7474ZM201.597 26.5336L205.937 27.2077C205.919 26.6102 205.742 26.1243 205.407 25.7498C205.082 25.3768 204.649 25.1483 204.108 25.0642C203.517 24.9725 203 25.0584 202.556 25.322C202.112 25.5857 201.792 25.9895 201.597 26.5336ZM213.632 25.062C214.636 25.2179 215.443 25.7313 216.054 26.6021C216.656 27.4616 216.873 28.4326 216.705 29.515C216.535 30.6074 216.033 31.4717 215.199 32.108C214.364 32.7443 213.44 32.9838 212.427 32.8264C211.315 32.6537 210.518 32.1066 210.036 31.1852L209.415 35.1855L207.82 34.9379L209.425 24.6051L211.019 24.8527L210.854 25.9155C211.585 25.1723 212.511 24.8878 213.632 25.062ZM210.847 30.3437C211.221 30.8553 211.743 31.1631 212.412 31.267C213.081 31.3709 213.671 31.2359 214.183 30.8618C214.696 30.4779 215.005 29.9465 215.111 29.2674C215.216 28.5884 215.082 27.9931 214.708 27.4815C214.335 26.9601 213.815 26.6474 213.145 26.5434C212.476 26.4395 211.885 26.5795 211.372 26.9634C210.86 27.3374 210.552 27.864 210.446 28.543C210.342 29.2122 210.476 29.8124 210.847 30.3437ZM224.406 28.0051L224.568 26.957L226.163 27.2046L225.016 34.5852L223.422 34.3376L223.587 33.2748C222.857 34.018 221.931 34.3025 220.809 34.1283C219.796 33.9709 218.988 33.4624 218.385 32.603C217.783 31.7435 217.567 30.7676 217.737 29.6753C217.906 28.5829 218.408 27.7186 219.243 27.0823C220.077 26.446 221.001 26.2065 222.015 26.3639C223.137 26.5382 223.934 27.0852 224.406 28.0051ZM219.731 31.7236C220.105 32.2352 220.627 32.5429 221.296 32.6469C221.965 32.7508 222.556 32.6157 223.067 32.2417C223.581 31.8578 223.89 31.3263 223.995 30.6473C224.101 29.9683 223.966 29.373 223.592 28.8614C223.22 28.3399 222.699 28.0272 222.03 27.9233C221.361 27.8194 220.77 27.9594 220.256 28.3433C219.745 28.7173 219.436 29.2438 219.331 29.9229C219.227 30.592 219.36 31.1923 219.731 31.7236ZM231.299 31.691L233.473 35.8986L231.628 35.612L230.189 32.8036L227.952 35.0412L226.092 34.7523L229.456 31.3897L227.386 27.3947L229.231 27.6812L230.567 30.2771L232.626 28.2085L234.486 28.4974L231.299 31.691Z" fill="#92A2BB"/>
<mask id="path-3-inside-1_92_8282" fill="white">
<path d="M269.177 28.2881L462.855 58.3688L458.946 83.5361L265.268 53.4554L269.177 28.2881Z"/>
</mask>
<path d="M459.09 82.6136L265.412 52.5328L265.125 54.378L458.803 84.4587L459.09 82.6136Z" fill="#285CB6" mask="url(#path-3-inside-1_92_8282)"/>
<path d="M272.519 36.536L276.021 42.5069L273.999 42.1929L270.689 36.6446L269.925 41.5601L268.228 41.2964L269.832 30.9636L271.53 31.2273L270.81 35.8623L275.456 31.8371L277.479 32.1512L272.519 36.536ZM283.17 37.1319L283.333 36.0839L284.927 36.3315L283.781 43.712L282.186 43.4644L282.351 42.4016C281.621 43.1449 280.695 43.4294 279.573 43.2551C278.56 43.0977 277.752 42.5892 277.15 41.7298C276.547 40.8703 276.331 39.8944 276.501 38.8021C276.67 37.7097 277.172 36.8454 278.007 36.2091C278.842 35.5728 279.766 35.3333 280.779 35.4908C281.901 35.665 282.698 36.212 283.17 37.1319ZM278.496 40.8504C278.87 41.362 279.391 41.6698 280.06 41.7737C280.73 41.8776 281.32 41.7426 281.832 41.3685C282.345 40.9846 282.654 40.4532 282.759 39.7741C282.865 39.0951 282.731 38.4998 282.357 37.9882C281.984 37.4667 281.463 37.1541 280.794 37.0501C280.125 36.9462 279.534 37.0862 279.021 37.4701C278.509 37.8441 278.2 38.3707 278.095 39.0497C277.991 39.7188 278.125 40.3191 278.496 40.8504ZM286.003 36.4985L292.424 37.4958L292.185 39.031L289.779 38.6573L288.871 44.5027L287.277 44.2551L288.185 38.4097L285.764 38.0337L286.003 36.4985ZM298.897 39.5745L299.06 38.5265L300.654 38.7741L299.507 46.1546L297.913 45.907L298.078 44.8442C297.348 45.5875 296.422 45.872 295.3 45.6977C294.287 45.5403 293.479 45.0318 292.877 44.1724C292.274 43.3129 292.058 42.337 292.228 41.2447C292.397 40.1524 292.899 39.288 293.734 38.6517C294.569 38.0154 295.493 37.7759 296.506 37.9334C297.628 38.1076 298.425 38.6546 298.897 39.5745ZM294.223 43.293C294.597 43.8046 295.118 44.1124 295.787 44.2163C296.457 44.3202 297.047 44.1852 297.559 43.8111C298.072 43.4272 298.381 42.8958 298.486 42.2167C298.592 41.5377 298.458 40.9424 298.084 40.4308C297.711 39.9094 297.19 39.5967 296.521 39.4927C295.852 39.3888 295.261 39.5288 294.748 39.9127C294.236 40.2867 293.927 40.8133 293.822 41.4923C293.718 42.1615 293.852 42.7617 294.223 43.293ZM303.088 39.1521L308.741 40.0301L307.595 47.4107L306.001 47.1631L306.909 41.3177L304.443 40.9348L304.017 43.6804C303.838 44.8318 303.459 45.6194 302.879 46.0434C302.299 46.4673 301.534 46.5601 300.583 46.3217L300.815 44.8308C301.255 44.9799 301.609 44.9391 301.877 44.7086C302.146 44.4682 302.332 44.0183 302.434 43.359L303.088 39.1521ZM315.841 47.7391C314.977 48.3708 313.999 48.6018 312.906 48.4322C311.814 48.2625 310.952 47.7457 310.32 46.8816C309.68 46.0062 309.444 45.0272 309.612 43.9448C309.781 42.8623 310.302 42.001 311.178 41.3609C312.042 40.7292 313.02 40.4982 314.112 40.6678C315.205 40.8375 316.067 41.3543 316.698 42.2184C317.338 43.0938 317.574 44.0728 317.406 45.1552C317.238 46.2377 316.716 47.099 315.841 47.7391ZM311.207 44.1924C311.103 44.8615 311.238 45.4519 311.612 45.9635C311.986 46.4751 312.498 46.7814 313.147 46.8823C313.797 46.9831 314.377 46.8465 314.889 46.4725C315.4 46.0984 315.708 45.5768 315.812 44.9076C315.916 44.2385 315.781 43.6481 315.407 43.1365C315.033 42.6249 314.521 42.3186 313.872 42.2177C313.222 42.1169 312.642 42.2535 312.13 42.6275C311.618 43.0016 311.311 43.5232 311.207 44.1924ZM319.421 41.6888L324.366 42.4569L324.128 43.992L320.777 43.4716L319.869 49.317L318.275 49.0694L319.421 41.6888ZM326.284 47.547L330.79 43.4546L332.015 43.6449L330.869 51.0255L329.304 50.7825L330.033 46.0884L325.525 50.1956L324.3 50.0053L325.447 42.6247L327.011 42.8677L326.284 47.547ZM342.106 48.8855C342.78 49.3431 343.056 49.9655 342.934 50.7527C342.836 51.3825 342.541 51.8557 342.049 52.1722C341.566 52.4903 340.946 52.5905 340.188 52.4728L336.409 51.8859L337.555 44.5053L341.039 45.0464C341.787 45.1626 342.343 45.4405 342.708 45.8801C343.073 46.3198 343.209 46.8447 343.114 47.4548C343.005 48.1535 342.669 48.6304 342.106 48.8855ZM340.71 46.3861L338.865 46.0995L338.61 47.738L340.455 48.0246C341.105 48.1254 341.472 47.9003 341.558 47.3493C341.642 46.808 341.359 46.487 340.71 46.3861ZM338.145 50.7345L340.256 51.0623C340.925 51.1663 341.305 50.9279 341.395 50.3473C341.434 50.0915 341.376 49.8809 341.221 49.7156C341.067 49.5405 340.832 49.4285 340.517 49.3796L338.406 49.0517L338.145 50.7345ZM350.734 47.6255L350.897 46.5774L352.491 46.825L351.344 54.2056L349.75 53.958L349.915 52.8952C349.185 53.6384 348.259 53.9229 347.137 53.7487C346.124 53.5913 345.316 53.0828 344.714 52.2233C344.111 51.3639 343.895 50.388 344.065 49.2956C344.234 48.2033 344.736 47.339 345.571 46.7027C346.406 46.0663 347.33 45.8269 348.343 45.9843C349.465 46.1586 350.262 46.7056 350.734 47.6255ZM346.059 51.3439C346.434 51.8556 346.955 52.1633 347.624 52.2673C348.294 52.3712 348.884 52.2361 349.396 51.8621C349.909 51.4782 350.218 50.9467 350.323 50.2677C350.429 49.5887 350.295 48.9934 349.921 48.4818C349.548 47.9603 349.027 47.6476 348.358 47.5437C347.689 47.4398 347.098 47.5797 346.584 47.9636C346.073 48.3377 345.764 48.8642 345.659 49.5432C345.555 50.2124 345.688 50.8127 346.059 51.3439ZM362.175 54.3458L363.088 48.4708L364.682 48.7184L363.535 56.099L353.203 54.4942L354.349 47.1136L355.943 47.3612L355.031 53.2362L357.806 53.6672L358.718 47.7922L360.312 48.0398L359.4 53.9148L362.175 54.3458ZM372.981 54.4821L367.106 53.5696C367.138 54.1391 367.338 54.6084 367.704 54.9777C368.079 55.3484 368.577 55.582 369.197 55.6783C370.034 55.8082 370.716 55.6017 371.243 55.0588L372.438 56.0304C371.553 56.9915 370.392 57.3605 368.955 57.1373C367.765 56.9524 366.852 56.4377 366.217 55.5934C365.594 54.7407 365.369 53.7534 365.543 52.6316C365.713 51.5392 366.22 50.6757 367.064 50.0409C367.899 49.4046 368.892 49.1758 370.043 49.3546C371.116 49.5212 371.943 50.0376 372.524 50.9039C373.105 51.7702 373.311 52.7445 373.143 53.827C373.112 54.0238 373.058 54.2422 372.981 54.4821ZM367.293 52.2684L371.633 52.9424C371.615 52.345 371.438 51.859 371.103 51.4845C370.778 51.1115 370.345 50.883 369.804 50.7989C369.213 50.7072 368.696 50.7932 368.252 51.0568C367.808 51.3204 367.488 51.7243 367.293 52.2684ZM380.625 50.1365L376.492 49.4945L376.708 48.107L380.841 48.7489L380.625 50.1365ZM375.959 55.2621L380.465 51.1698L381.69 51.36L380.544 58.7406L378.979 58.4976L379.708 53.8036L375.2 57.9107L373.975 57.7204L375.121 50.3398L376.686 50.5828L375.959 55.2621ZM387.23 52.2205L393.799 53.2407L392.652 60.6213L391.058 60.3737L391.971 54.4987L388.59 53.9737L387.678 59.8487L386.084 59.6011L387.23 52.2205ZM399.856 53.9849C400.859 54.1408 401.667 54.6542 402.277 55.525C402.879 56.3845 403.096 57.3554 402.928 58.4379C402.759 59.5303 402.256 60.3946 401.422 61.0309C400.587 61.6672 399.663 61.9067 398.65 61.7493C397.538 61.5765 396.741 61.0295 396.259 60.1081L395.638 64.1084L394.044 63.8608L395.648 53.528L397.243 53.7756L397.078 54.8384C397.808 54.0952 398.734 53.8107 399.856 53.9849ZM397.07 59.2666C397.444 59.7782 397.966 60.086 398.635 60.1899C399.304 60.2938 399.895 60.1588 400.406 59.7847C400.919 59.4008 401.229 58.8693 401.334 58.1903C401.439 57.5113 401.305 56.916 400.931 56.4044C400.559 55.8829 400.038 55.5702 399.369 55.4663C398.699 55.3624 398.108 55.5024 397.595 55.8863C397.083 56.2603 396.775 56.7869 396.669 57.4659C396.566 58.135 396.699 58.7353 397.07 59.2666ZM410.188 62.3924C409.324 63.0242 408.346 63.2552 407.254 63.0856C406.161 62.9159 405.299 62.3991 404.668 61.535C404.028 60.6596 403.792 59.6806 403.96 58.5981C404.128 57.5157 404.65 56.6544 405.525 56.0143C406.389 55.3826 407.367 55.1516 408.46 55.3212C409.552 55.4909 410.414 56.0077 411.046 56.8718C411.686 57.7472 411.922 58.7262 411.754 59.8086C411.586 60.8911 411.064 61.7524 410.188 62.3924ZM405.554 58.8457C405.45 59.5149 405.585 60.1053 405.959 60.6169C406.333 61.1285 406.845 61.4348 407.495 61.5357C408.144 61.6365 408.725 61.4999 409.236 61.1259C409.748 60.7518 410.056 60.2302 410.159 59.561C410.263 58.8919 410.128 58.3015 409.754 57.7899C409.38 57.2782 408.868 56.972 408.219 56.8711C407.569 56.7703 406.989 56.9068 406.477 57.2809C405.966 57.655 405.658 58.1766 405.554 58.8457ZM419.975 57.3062L419.062 63.1811L420.051 63.3347L419.51 66.8184L417.946 66.5754L418.253 64.5974L413.19 63.811L412.883 65.789L411.318 65.546L411.859 62.0624L412.759 62.2022C413.31 61.6427 413.675 60.7873 413.853 59.6359L414.351 56.4327L419.975 57.3062ZM414.516 62.475L417.498 62.9381L418.183 58.5245L415.689 58.1371L415.418 59.8789C415.253 60.9417 414.952 61.8071 414.516 62.475ZM424.221 63.4684L426.945 58.3888L428.643 58.6524L424.625 65.829C424.136 66.7104 423.545 67.3342 422.853 67.7004C422.162 68.0666 421.411 68.1617 420.602 67.9856L420.833 66.4948C421.769 66.7005 422.497 66.3298 423.017 65.3826L423.077 65.2862L421.114 57.4832L422.812 57.7468L424.221 63.4684ZM432.237 62.9143L435.018 67.2011L433.113 66.9054L430.617 63.0256L430.087 66.4354L428.493 66.1878L429.639 58.8072L431.234 59.0548L430.727 62.317L434.097 59.4996L436.046 59.8022L432.237 62.9143ZM443.584 60.9729L442.671 66.8479L443.881 67.0359L443.34 70.5195L441.776 70.2765L442.083 68.2985L436.09 67.3677L437.236 59.9871L438.83 60.2347L437.918 66.1097L441.077 66.6003L441.989 60.7253L443.584 60.9729ZM446.925 66.2841L451.431 62.1917L452.656 62.382L451.51 69.7626L449.945 69.5195L450.674 64.8255L446.166 68.9326L444.941 68.7424L446.087 61.3618L447.652 61.6048L446.925 66.2841ZM455.344 67.5916L459.849 63.4992L461.074 63.6895L459.928 71.0701L458.363 70.827L459.092 66.133L454.585 70.2401L453.359 70.0499L454.506 62.6693L456.07 62.9123L455.344 67.5916Z" fill="#285CB6"/>
<g filter="url(#filter1_d_92_8282)">
<rect x="89.2798" y="48.8025" width="590.883" height="136.579" rx="14.9412" transform="rotate(8.82826 89.2798 48.8025)" fill="white" shape-rendering="crispEdges"/>
<path d="M107.479 79.1114L115.009 80.2809L114.757 81.9049L111.848 81.4532L110.495 90.164L108.798 89.9003L110.15 81.1895L107.227 80.7354L107.479 79.1114ZM116.265 80.4759L120.074 81.0675C121.048 81.2188 121.81 81.6697 122.359 82.4203C122.917 83.1723 123.122 84.0306 122.972 84.9952C122.823 85.95 122.368 86.7059 121.606 87.2629C120.856 87.8116 119.993 88.0103 119.019 87.859L116.908 87.5311L116.357 91.0745L114.66 90.8108L116.265 80.4759ZM117.155 85.9365L119.267 86.2644C119.769 86.3424 120.208 86.2393 120.585 85.9551C120.963 85.661 121.193 85.2532 121.274 84.7315C121.355 84.2098 121.259 83.7565 120.986 83.3714C120.715 82.9764 120.328 82.74 119.826 82.662L117.715 82.3341L117.155 85.9365ZM130.893 93.3321L129.062 93.0477L128.662 90.8536L124.263 90.1703L123.216 92.1397L121.37 91.853L126.726 82.1006L128.763 82.417L130.893 93.3321ZM127.435 84.2519L125.071 88.6629L128.349 89.172L127.435 84.2519ZM139.079 88.3587L139.737 84.1214L141.435 84.3851L139.83 94.72L138.132 94.4563L138.826 89.9828L134.397 89.2948L133.702 93.7684L132.005 93.5047L133.61 83.1698L135.308 83.4335L134.649 87.6708L139.079 88.3587ZM146.752 95.9918C145.197 95.7503 143.987 95.0382 143.123 93.8555C142.261 92.6532 141.947 91.2991 142.181 89.7931C142.417 88.2773 143.126 87.0871 144.308 86.2225C145.483 85.3464 146.852 85.0299 148.417 85.273C149.352 85.4182 150.179 85.7735 150.898 86.3387C151.626 86.9054 152.153 87.6022 152.478 88.4288L150.869 89.0559C150.673 88.5012 150.332 88.035 149.846 87.6572C149.372 87.271 148.81 87.0275 148.16 86.9266C147.068 86.7569 146.118 86.9672 145.311 87.5575C144.524 88.141 144.047 88.9741 143.879 90.0568C143.711 91.1395 143.913 92.0781 144.485 92.8726C145.075 93.68 145.917 94.1685 147.009 94.3382C147.659 94.4391 148.272 94.3832 148.85 94.1704C149.429 93.9479 149.891 93.6013 150.236 93.1308L151.582 94.2016C151.042 94.8839 150.333 95.3937 149.454 95.731C148.608 96.0531 147.707 96.1401 146.752 95.9918ZM158.47 96.5567L158.287 97.7379L156.618 97.4788L156.802 96.2976C155.344 95.9502 154.238 95.35 153.483 94.4969C152.728 93.6439 152.444 92.6169 152.631 91.4161C152.816 90.2251 153.397 89.3376 154.375 88.7537C155.364 88.1613 156.601 87.92 158.086 88.0297L158.269 86.8486L159.938 87.1077L159.754 88.2888C161.183 88.6316 162.279 89.2353 163.042 90.0997C163.804 90.9641 164.094 91.9869 163.911 93.168C163.726 94.359 163.139 95.2506 162.15 95.8429C161.172 96.4269 159.945 96.6649 158.47 96.5567ZM157.845 89.5799C155.739 89.4444 154.567 90.1443 154.329 91.6798C154.09 93.2153 154.995 94.2378 157.043 94.7474L157.845 89.5799ZM159.514 89.839L158.711 95.0065C160.81 95.1208 161.977 94.4201 162.213 92.9043C162.451 91.3688 161.552 90.3471 159.514 89.839ZM173.365 98.5375C172.171 99.4105 170.826 99.7308 169.33 99.4984C167.834 99.2661 166.645 98.5521 165.762 97.3566C164.89 96.1527 164.571 94.8027 164.803 93.3066C165.036 91.8105 165.749 90.626 166.943 89.753C168.148 88.8717 169.499 88.5473 170.995 88.7796C172.491 89.012 173.675 89.7301 174.546 90.934C175.429 92.1295 175.754 93.4753 175.522 94.9714C175.29 96.4675 174.571 97.6562 173.365 98.5375ZM167.137 96.3907C167.747 97.2011 168.563 97.6858 169.587 97.8448C170.621 98.0053 171.541 97.7905 172.348 97.2002C173.167 96.6015 173.659 95.7707 173.824 94.7077C173.989 93.6447 173.772 92.7087 173.172 91.8998C172.583 91.0826 171.772 90.5937 170.738 90.4332C169.705 90.2727 168.779 90.4918 167.96 91.0904C167.152 91.6807 166.666 92.5073 166.501 93.5703C166.338 94.6235 166.549 95.5636 167.137 96.3907ZM177.873 90.0445L181.682 90.6361C182.657 90.7874 183.418 91.2384 183.967 91.9889C184.526 92.7409 184.73 93.5993 184.58 94.5638C184.432 95.5186 183.977 96.2745 183.215 96.8315C182.465 97.3803 181.602 97.579 180.628 97.4276L178.516 97.0997L177.966 100.643L176.268 100.379L177.873 90.0445ZM178.764 95.5052L180.875 95.8331C181.377 95.9111 181.817 95.8079 182.193 95.5237C182.572 95.2297 182.801 94.8218 182.882 94.3001C182.964 93.7785 182.868 93.3251 182.595 92.94C182.323 92.545 181.937 92.3086 181.435 92.2306L179.324 91.9027L178.764 95.5052ZM194.658 92.6513L196.474 92.9334L194.869 103.268L193.171 103.005L194.315 95.6373L190.363 100.346L190.156 100.314L187.821 94.6136L186.675 101.996L184.977 101.732L186.582 91.397L188.413 91.6814L190.725 97.3327L194.658 92.6513ZM205.493 104.918L203.662 104.634L203.262 102.44L198.862 101.757L197.815 103.726L195.97 103.439L201.325 93.6868L203.362 94.0033L205.493 104.918ZM202.034 95.8382L199.671 100.249L202.948 100.758L202.034 95.8382ZM206.662 94.5157L214.191 95.6852L213.939 97.3092L211.031 96.8575L209.678 105.568L207.98 105.305L209.333 96.5938L206.409 96.1398L206.662 94.5157ZM222.099 106.106C220.905 106.979 219.56 107.3 218.064 107.067C216.567 106.835 215.378 106.121 214.495 104.925C213.624 103.722 213.304 102.372 213.537 100.876C213.769 99.3795 214.482 98.1949 215.676 97.3219C216.881 96.4406 218.232 96.1162 219.728 96.3486C221.224 96.5809 222.408 97.299 223.28 98.5029C224.162 99.6984 224.488 101.044 224.255 102.54C224.023 104.036 223.304 105.225 222.099 106.106ZM215.87 103.96C216.48 104.77 217.297 105.255 218.32 105.414C219.354 105.574 220.274 105.359 221.082 104.769C221.9 104.17 222.392 103.34 222.557 102.277C222.723 101.214 222.505 100.278 221.905 99.4687C221.316 98.6515 220.505 98.1627 219.471 98.0021C218.438 97.8416 217.512 98.0607 216.693 98.6593C215.886 99.2496 215.399 100.076 215.234 101.139C215.071 102.192 215.283 103.133 215.87 103.96ZM226.607 97.6134L230.416 98.205C231.39 98.3564 232.152 98.8073 232.701 99.5578C233.259 100.31 233.463 101.168 233.314 102.133C233.165 103.088 232.71 103.843 231.948 104.4C231.198 104.949 230.335 105.148 229.361 104.997L227.25 104.669L226.699 108.212L225.001 107.948L226.607 97.6134ZM227.497 103.074L229.609 103.402C230.111 103.48 230.55 103.377 230.927 103.093C231.305 102.799 231.535 102.391 231.616 101.869C231.697 101.347 231.601 100.894 231.328 100.509C231.057 100.114 230.67 99.8775 230.168 99.7996L228.057 99.4716L227.497 103.074ZM240.784 104.155L241.442 99.9176L243.14 100.181L241.535 110.516L239.837 110.252L240.532 105.779L236.103 105.091L235.408 109.565L233.71 109.301L235.315 98.966L237.013 99.2297L236.355 103.467L240.784 104.155ZM247.41 111.429L243.601 110.837L245.206 100.502L246.904 100.766L246.354 104.309L248.465 104.637C249.439 104.788 250.2 105.244 250.747 106.005C251.306 106.757 251.511 107.61 251.363 108.565C251.214 109.52 250.759 110.276 249.997 110.833C249.247 111.381 248.384 111.58 247.41 111.429ZM253.537 112.38L251.839 112.117L253.444 101.782L255.142 102.045L253.537 112.38ZM246.106 105.904L245.546 109.506L247.658 109.834C248.16 109.912 248.599 109.809 248.976 109.525C249.354 109.231 249.584 108.823 249.665 108.301C249.746 107.78 249.65 107.326 249.377 106.941C249.106 106.546 248.719 106.31 248.217 106.232L246.106 105.904ZM257.995 108.552L257.561 111.342L262.138 112.053L261.886 113.677L255.611 112.702L257.216 102.367L263.417 103.331L263.165 104.955L258.662 104.255L258.245 106.942L262.379 107.584L262.129 109.194L257.995 108.552ZM268.736 104.157L276.34 105.338L274.735 115.673L273.037 115.409L274.39 106.698L270.182 106.044L268.829 114.755L267.131 114.492L268.736 104.157ZM285.654 115.977C284.46 116.85 283.115 117.171 281.619 116.938C280.123 116.706 278.933 115.992 278.05 114.796C277.179 113.593 276.859 112.243 277.092 110.747C277.324 109.25 278.037 108.066 279.231 107.193C280.437 106.312 281.787 105.987 283.283 106.219C284.779 106.452 285.963 107.17 286.835 108.374C287.718 109.569 288.043 110.915 287.81 112.411C287.578 113.907 286.859 115.096 285.654 115.977ZM279.425 113.831C280.035 114.641 280.852 115.126 281.875 115.285C282.909 115.445 283.829 115.23 284.637 114.64C285.455 114.041 285.947 113.211 286.113 112.148C286.278 111.085 286.06 110.149 285.46 109.34C284.871 108.522 284.06 108.034 283.027 107.873C281.993 107.713 281.067 107.932 280.248 108.53C279.441 109.121 278.955 109.947 278.789 111.01C278.626 112.063 278.838 113.004 279.425 113.831ZM297.466 108.619L296.113 117.33L297.22 117.502L296.661 121.104L294.963 120.84L295.27 118.862L288.995 117.887L288.688 119.866L286.99 119.602L287.55 116L288.509 116.149C289.231 115.464 289.715 114.325 289.963 112.73L290.763 107.578L297.466 108.619ZM290.37 116.438L294.415 117.066L295.52 109.95L292.213 109.436L291.656 113.024C291.418 114.559 290.989 115.697 290.37 116.438ZM303.16 120.284C301.605 120.042 300.395 119.33 299.531 118.148C298.669 116.945 298.355 115.591 298.589 114.085C298.824 112.57 299.534 111.379 300.716 110.515C301.89 109.639 303.26 109.322 304.825 109.565C305.76 109.71 306.587 110.066 307.306 110.631C308.034 111.198 308.561 111.894 308.886 112.721L307.277 113.348C307.081 112.793 306.74 112.327 306.254 111.949C305.78 111.563 305.218 111.32 304.568 111.219C303.476 111.049 302.526 111.259 301.718 111.85C300.932 112.433 300.455 113.266 300.287 114.349C300.119 115.432 300.321 116.37 300.893 117.165C301.483 117.972 302.325 118.461 303.417 118.63C304.067 118.731 304.68 118.675 305.258 118.463C305.837 118.24 306.299 117.894 306.644 117.423L307.99 118.494C307.45 119.176 306.741 119.686 305.862 120.023C305.016 120.345 304.115 120.432 303.16 120.284ZM309.766 110.529L317.295 111.699L317.043 113.323L314.135 112.871L312.782 121.582L311.084 121.318L312.437 112.607L309.514 112.153L309.766 110.529ZM324.774 123.444L322.943 123.16L322.543 120.966L318.143 120.282L317.096 122.252L315.251 121.965L320.606 112.213L322.644 112.529L324.774 123.444ZM321.315 114.364L318.952 118.775L322.229 119.284L321.315 114.364ZM332.959 118.471L333.617 114.234L335.315 114.497L333.71 124.832L332.012 124.569L332.707 120.095L328.278 119.407L327.583 123.881L325.885 123.617L327.49 113.282L329.188 113.546L328.53 117.783L332.959 118.471ZM344.985 115.999L343.632 124.71L344.739 124.882L344.18 128.484L342.482 128.221L342.789 126.242L335.776 125.153L337.381 114.818L339.079 115.082L337.726 123.793L341.934 124.446L343.287 115.735L344.985 115.999ZM353.868 127.963L352.171 127.699L353.26 120.686L347.298 126.943L345.97 126.736L347.575 116.401L349.273 116.665L348.183 123.678L354.145 117.422L355.474 117.628L353.868 127.963ZM363.831 129.51L362.133 129.247L363.223 122.234L357.261 128.49L355.932 128.284L357.538 117.949L359.236 118.212L358.146 125.225L364.108 118.969L365.436 119.176L363.831 129.51Z" fill="#09090C"/>
<rect x="102.254" y="111.294" width="343.577" height="54.4072" rx="14.9381" transform="rotate(8.82826 102.254 111.294)" fill="#F7F7F7"/>
<path d="M117.07 132.315L120.816 137.659L119.628 137.474L116.072 132.438L115.392 136.816L114.488 136.676L115.892 127.635L116.796 127.775L116.154 131.908L120.903 128.413L122.091 128.598L117.07 132.315ZM126.809 137.756C126.045 138.299 125.194 138.498 124.256 138.352C123.3 138.203 122.545 137.756 121.991 137.008C121.438 136.252 121.236 135.396 121.384 134.44C121.533 133.485 121.984 132.735 122.739 132.19C123.495 131.638 124.351 131.435 125.307 131.584C126.254 131.731 127.004 132.183 127.557 132.939C128.12 133.687 128.327 134.54 128.178 135.495C128.031 136.443 127.575 137.196 126.809 137.756ZM122.69 136.508C123.105 137.075 123.669 137.414 124.384 137.525C125.099 137.636 125.74 137.484 126.307 137.07C126.876 136.638 127.216 136.069 127.326 135.363C127.437 134.648 127.285 134.008 126.87 133.441C126.457 132.865 125.893 132.522 125.179 132.411C124.464 132.3 123.822 132.456 123.254 132.879C122.687 133.293 122.348 133.858 122.237 134.573C122.127 135.279 122.278 135.924 122.69 136.508ZM135.454 133.319L136.435 133.471L135.432 139.929L134.58 139.797L135.38 134.643L132.55 137.96L132.447 137.944L130.756 133.925L129.956 139.078L129.103 138.946L130.106 132.488L131.088 132.641L132.721 136.519L135.454 133.319ZM138.242 133.752L143.667 134.594L142.664 141.052L141.811 140.92L142.686 135.288L138.966 134.711L138.091 140.342L137.239 140.21L138.242 133.752ZM146.141 134.978L150.765 135.697L149.762 142.155L148.909 142.022L149.784 136.391L146.865 135.937L146.418 138.818C146.25 139.894 145.929 140.602 145.453 140.943C144.985 141.285 144.398 141.374 143.691 141.212L143.816 140.411C144.307 140.54 144.692 140.476 144.97 140.22C145.248 139.963 145.446 139.452 145.565 138.685L146.141 134.978ZM155.578 136.285C156.543 136.435 157.26 136.895 157.732 137.665C158.222 138.429 158.395 139.271 158.252 140.193C158.245 140.236 158.216 140.368 158.164 140.589L152.494 139.709C152.479 140.368 152.675 140.927 153.08 141.387C153.484 141.847 154.035 142.131 154.733 142.239C155.715 142.391 156.465 142.133 156.983 141.464L157.664 142.019C157.307 142.44 156.859 142.745 156.318 142.935C155.787 143.117 155.212 143.16 154.592 143.063C153.576 142.906 152.798 142.459 152.26 141.723C151.722 140.986 151.529 140.127 151.682 139.146C151.833 138.173 152.272 137.417 153 136.877C153.728 136.329 154.588 136.132 155.578 136.285ZM155.45 137.112C154.778 137.008 154.183 137.118 153.666 137.443C153.156 137.77 152.808 138.249 152.622 138.882L157.44 139.63C157.452 138.927 157.272 138.356 156.899 137.919C156.51 137.471 156.027 137.202 155.45 137.112ZM161.388 140.521L164.328 144.417L163.192 144.24L160.446 140.626L159.963 143.739L159.11 143.607L160.113 137.149L160.966 137.281L160.522 140.135L164.04 137.758L165.202 137.939L161.388 140.521ZM165.721 138.019L171.145 138.862L171.017 139.689L168.731 139.334L167.856 144.965L167.004 144.832L167.878 139.201L165.592 138.846L165.721 138.019ZM176.319 142.549L176.756 139.733L177.609 139.866L176.606 146.324L175.753 146.191L176.191 143.376L172.471 142.798L172.034 145.614L171.181 145.481L172.184 139.023L173.037 139.156L172.599 141.971L176.319 142.549ZM184.769 142.274L184.965 141.008L185.818 141.141L184.815 147.599L183.962 147.466L184.159 146.201C183.418 147.056 182.475 147.394 181.329 147.216C180.408 147.073 179.671 146.624 179.118 145.867C178.574 145.113 178.376 144.262 178.523 143.315C178.67 142.367 179.117 141.617 179.864 141.063C180.62 140.51 181.459 140.305 182.381 140.448C183.526 140.626 184.322 141.235 184.769 142.274ZM179.828 145.383C180.243 145.95 180.808 146.289 181.522 146.4C182.237 146.511 182.878 146.359 183.445 145.944C184.015 145.512 184.354 144.943 184.464 144.237C184.575 143.523 184.423 142.882 184.009 142.315C183.595 141.739 183.031 141.396 182.317 141.285C181.602 141.174 180.961 141.33 180.392 141.753C179.825 142.168 179.486 142.732 179.375 143.447C179.265 144.153 179.417 144.798 179.828 145.383ZM189.651 141.736L192.273 142.143L191.27 148.601L190.417 148.469L190.802 145.989L189.692 145.817L187.317 147.987L186.232 147.819L188.662 145.63C188.149 145.471 187.752 145.189 187.471 144.784C187.2 144.371 187.104 143.911 187.183 143.403C187.272 142.826 187.553 142.38 188.025 142.066C188.515 141.754 189.057 141.644 189.651 141.736ZM189.157 144.913L190.927 145.188L191.292 142.838L189.522 142.563C189.152 142.505 188.825 142.569 188.54 142.754C188.257 142.931 188.089 143.191 188.035 143.535C187.982 143.88 188.062 144.183 188.277 144.446C188.494 144.7 188.787 144.856 189.157 144.913ZM196.535 142.805L201.96 143.648L201.831 144.474L199.545 144.119L198.67 149.751L197.818 149.618L198.693 143.987L196.407 143.632L196.535 142.805ZM206.484 144.192C207.405 144.335 208.138 144.784 208.682 145.539C209.235 146.295 209.438 147.146 209.291 148.093C209.144 149.041 208.692 149.79 207.936 150.343C207.189 150.897 206.354 151.103 205.433 150.96C204.288 150.782 203.492 150.173 203.044 149.134L202.447 152.983L201.594 152.85L202.998 143.809L203.851 143.942L203.654 145.207C204.396 144.352 205.339 144.014 206.484 144.192ZM203.803 149.106C204.217 149.673 204.782 150.012 205.497 150.123C206.211 150.234 206.852 150.082 207.419 149.668C207.989 149.236 208.329 148.667 208.438 147.961C208.549 147.246 208.398 146.605 207.983 146.038C207.57 145.463 207.006 145.119 206.291 145.008C205.576 144.897 204.935 145.053 204.366 145.477C203.799 145.891 203.46 146.456 203.349 147.171C203.24 147.877 203.391 148.522 203.803 149.106ZM216.567 147.213L216.764 145.947L217.616 146.079L216.613 152.537L215.761 152.405L215.957 151.139C215.216 151.994 214.273 152.333 213.127 152.155C212.206 152.012 211.469 151.562 210.916 150.806C210.372 150.051 210.174 149.2 210.321 148.253C210.468 147.306 210.915 146.555 211.663 146.001C212.419 145.449 213.257 145.244 214.179 145.387C215.324 145.565 216.12 146.173 216.567 147.213ZM211.627 150.321C212.041 150.888 212.606 151.227 213.32 151.338C214.035 151.449 214.676 151.297 215.243 150.883C215.813 150.451 216.152 149.882 216.262 149.176C216.373 148.461 216.221 147.821 215.807 147.253C215.393 146.678 214.83 146.335 214.115 146.224C213.4 146.113 212.759 146.269 212.19 146.692C211.623 147.106 211.284 147.671 211.173 148.386C211.064 149.092 211.215 149.737 211.627 150.321ZM223.556 149.886L223.993 147.07L224.846 147.202L223.843 153.66L222.99 153.528L223.428 150.712L219.708 150.135L219.27 152.95L218.418 152.818L219.421 146.36L220.273 146.492L219.836 149.308L223.556 149.886ZM228.631 154.563C227.658 154.412 226.898 153.963 226.353 153.217C225.81 152.454 225.612 151.598 225.759 150.651C225.908 149.695 226.355 148.945 227.101 148.399C227.849 147.845 228.709 147.644 229.682 147.795C230.319 147.894 230.868 148.138 231.327 148.526C231.789 148.907 232.095 149.373 232.248 149.926L231.488 150.218C231.376 149.804 231.144 149.455 230.791 149.171C230.448 148.879 230.036 148.696 229.553 148.621C228.839 148.51 228.197 148.666 227.629 149.09C227.062 149.504 226.723 150.069 226.612 150.784C226.502 151.49 226.653 152.135 227.065 152.719C227.48 153.286 228.044 153.625 228.759 153.736C229.233 153.81 229.676 153.764 230.09 153.599C230.512 153.435 230.862 153.172 231.138 152.809L231.785 153.333C231.438 153.808 230.982 154.156 230.419 154.377C229.855 154.599 229.259 154.66 228.631 154.563ZM236.536 155.777L236.157 158.218L235.304 158.086L235.683 155.645C234.673 155.391 233.911 154.907 233.396 154.192C232.875 153.458 232.684 152.644 232.823 151.748C232.962 150.853 233.391 150.134 234.11 149.594C234.817 149.069 235.691 148.838 236.73 148.903L237.11 146.462L237.962 146.594L237.583 149.035C238.593 149.289 239.355 149.773 239.87 150.488C240.391 151.222 240.582 152.036 240.443 152.932C240.304 153.827 239.875 154.545 239.156 155.086C238.449 155.611 237.575 155.842 236.536 155.777ZM235.814 154.805L236.6 149.742C235.822 149.701 235.164 149.876 234.627 150.269C234.098 150.663 233.781 151.2 233.675 151.881C233.57 152.561 233.709 153.169 234.093 153.705C234.486 154.242 235.059 154.609 235.814 154.805ZM237.452 149.875L236.666 154.938C237.444 154.979 238.098 154.803 238.627 154.409C239.164 154.016 239.485 153.48 239.591 152.799C239.696 152.119 239.553 151.51 239.16 150.973C238.776 150.437 238.207 150.071 237.452 149.875ZM246.9 156.408C246.136 156.951 245.285 157.149 244.347 157.004C243.391 156.855 242.636 156.407 242.082 155.66C241.529 154.904 241.327 154.048 241.476 153.092C241.624 152.136 242.076 151.386 242.83 150.842C243.586 150.289 244.442 150.087 245.398 150.236C246.345 150.383 247.095 150.834 247.648 151.59C248.211 152.339 248.418 153.191 248.269 154.147C248.122 155.094 247.666 155.848 246.9 156.408ZM242.781 155.16C243.196 155.727 243.761 156.066 244.475 156.177C245.19 156.288 245.831 156.136 246.398 155.722C246.968 155.29 247.307 154.721 247.417 154.015C247.528 153.3 247.376 152.659 246.962 152.092C246.548 151.517 245.984 151.173 245.27 151.062C244.555 150.951 243.913 151.107 243.345 151.531C242.778 151.945 242.439 152.51 242.328 153.224C242.218 153.931 242.369 154.576 242.781 155.16ZM253.683 151.522C254.604 151.665 255.337 152.114 255.881 152.869C256.434 153.625 256.637 154.477 256.49 155.424C256.343 156.371 255.891 157.121 255.135 157.674C254.387 158.228 253.553 158.433 252.632 158.29C251.487 158.113 250.69 157.504 250.243 156.464L249.646 160.313L248.793 160.181L250.197 151.14L251.05 151.272L250.853 152.538C251.594 151.683 252.538 151.345 253.683 151.522ZM251.002 156.437C251.416 157.004 251.981 157.343 252.696 157.454C253.41 157.565 254.051 157.413 254.618 156.998C255.188 156.567 255.528 155.998 255.637 155.292C255.748 154.577 255.596 153.936 255.182 153.369C254.769 152.793 254.205 152.45 253.49 152.339C252.775 152.228 252.134 152.384 251.565 152.807C250.998 153.222 250.659 153.786 250.548 154.501C250.439 155.207 250.59 155.852 251.002 156.437ZM263.756 153.246L264.737 153.398L263.734 159.856L262.882 159.724L263.682 154.57L260.852 157.887L260.749 157.871L259.058 153.852L258.258 159.005L257.406 158.873L258.409 152.415L259.39 152.568L261.023 156.446L263.756 153.246ZM271.901 155.807L272.098 154.541L272.951 154.674L271.948 161.132L271.095 160.999L271.292 159.733C270.55 160.588 269.607 160.927 268.462 160.749C267.541 160.606 266.804 160.156 266.251 159.4C265.707 158.646 265.508 157.795 265.655 156.847C265.802 155.9 266.25 155.15 266.997 154.596C267.753 154.043 268.592 153.838 269.513 153.981C270.658 154.159 271.454 154.768 271.901 155.807ZM266.961 158.915C267.376 159.482 267.94 159.821 268.655 159.932C269.37 160.043 270.01 159.892 270.577 159.477C271.147 159.045 271.487 158.476 271.597 157.77C271.708 157.056 271.556 156.415 271.141 155.848C270.728 155.272 270.164 154.929 269.449 154.818C268.735 154.707 268.093 154.863 267.525 155.286C266.958 155.701 266.619 156.265 266.508 156.98C266.398 157.686 266.549 158.331 266.961 158.915ZM273.98 154.834L279.405 155.676L279.277 156.503L276.991 156.148L276.116 161.779L275.264 161.647L276.138 156.015L273.852 155.66L273.98 154.834ZM284.727 162.283C283.964 162.826 283.113 163.024 282.174 162.879C281.218 162.73 280.463 162.282 279.909 161.535C279.356 160.779 279.154 159.923 279.303 158.967C279.451 158.011 279.903 157.261 280.657 156.717C281.414 156.164 282.269 155.962 283.225 156.111C284.172 156.258 284.922 156.709 285.475 157.465C286.038 158.214 286.245 159.067 286.097 160.022C285.949 160.969 285.493 161.723 284.727 162.283ZM280.609 161.035C281.023 161.602 281.588 161.941 282.302 162.052C283.017 162.163 283.658 162.011 284.225 161.597C284.795 161.165 285.134 160.596 285.244 159.89C285.355 159.175 285.203 158.534 284.789 157.967C284.376 157.392 283.812 157.048 283.097 156.937C282.382 156.826 281.741 156.982 281.172 157.406C280.605 157.82 280.266 158.385 280.155 159.1C280.046 159.806 280.197 160.451 280.609 161.035ZM291.51 157.397C292.432 157.541 293.164 157.989 293.708 158.744C294.261 159.5 294.464 160.352 294.317 161.299C294.17 162.246 293.718 162.996 292.962 163.549C292.215 164.103 291.38 164.309 290.459 164.165C289.314 163.988 288.518 163.379 288.071 162.339L287.473 166.188L286.62 166.056L288.025 157.015L288.877 157.147L288.68 158.413C289.422 157.558 290.365 157.22 291.51 157.397ZM288.829 162.312C289.243 162.879 289.808 163.218 290.523 163.329C291.238 163.44 291.878 163.288 292.445 162.873C293.015 162.442 293.355 161.873 293.464 161.167C293.575 160.452 293.424 159.811 293.009 159.244C292.596 158.668 292.032 158.325 291.317 158.214C290.603 158.103 289.961 158.259 289.393 158.682C288.826 159.097 288.487 159.662 288.376 160.376C288.266 161.082 288.417 161.727 288.829 162.312ZM300.371 161.816L300.808 159L301.661 159.133L300.658 165.591L299.805 165.458L300.242 162.643L296.523 162.065L296.085 164.881L295.233 164.748L296.236 158.29L297.088 158.423L296.651 161.238L300.371 161.816ZM308.821 161.541L309.017 160.275L309.87 160.408L308.867 166.866L308.014 166.733L308.211 165.467C307.469 166.322 306.526 166.661 305.381 166.483C304.46 166.34 303.723 165.89 303.17 165.134C302.626 164.38 302.427 163.529 302.574 162.581C302.721 161.634 303.169 160.884 303.916 160.33C304.672 159.777 305.511 159.572 306.432 159.715C307.577 159.893 308.374 160.502 308.821 161.541ZM303.88 164.649C304.295 165.216 304.859 165.555 305.574 165.666C306.289 165.777 306.93 165.626 307.497 165.211C308.066 164.779 308.406 164.21 308.516 163.504C308.627 162.79 308.475 162.149 308.06 161.582C307.647 161.006 307.083 160.663 306.368 160.552C305.654 160.441 305.012 160.597 304.444 161.02C303.877 161.435 303.538 161.999 303.427 162.714C303.317 163.42 303.468 164.065 303.88 164.649ZM313.702 161.003L316.324 161.41L315.321 167.868L314.469 167.736L314.854 165.256L313.743 165.083L311.369 167.254L310.284 167.086L312.714 164.897C312.201 164.738 311.804 164.456 311.523 164.051C311.252 163.638 311.156 163.178 311.234 162.67C311.324 162.093 311.605 161.647 312.077 161.333C312.566 161.021 313.108 160.911 313.702 161.003ZM313.209 164.18L314.978 164.455L315.343 162.104L313.574 161.83C313.204 161.772 312.876 161.836 312.592 162.021C312.309 162.197 312.14 162.458 312.087 162.802C312.033 163.147 312.114 163.45 312.329 163.713C312.545 163.967 312.839 164.123 313.209 164.18ZM321.362 162.193L326.786 163.035L325.783 169.493L324.931 169.361L325.805 163.729L322.086 163.152L321.211 168.783L320.358 168.651L321.362 162.193ZM333.124 169.8C332.361 170.343 331.51 170.541 330.571 170.395C329.615 170.247 328.861 169.799 328.306 169.052C327.754 168.296 327.551 167.44 327.7 166.484C327.848 165.528 328.3 164.778 329.055 164.234C329.811 163.681 330.667 163.479 331.622 163.627C332.57 163.775 333.32 164.226 333.872 164.982C334.435 165.731 334.642 166.583 334.494 167.539C334.347 168.486 333.89 169.24 333.124 169.8ZM329.006 168.552C329.42 169.119 329.985 169.458 330.7 169.569C331.414 169.68 332.055 169.528 332.622 169.113C333.192 168.682 333.532 168.113 333.641 167.407C333.752 166.692 333.6 166.051 333.186 165.484C332.773 164.908 332.209 164.565 331.494 164.454C330.779 164.343 330.138 164.499 329.569 164.922C329.002 165.337 328.663 165.902 328.552 166.616C328.443 167.322 328.594 167.967 329.006 168.552ZM341.594 165.335L340.72 170.966L341.624 171.107L341.227 173.664L340.374 173.532L340.643 171.801L335.373 170.982L335.104 172.713L334.252 172.581L334.649 170.023L335.437 170.146C335.967 169.629 336.313 168.849 336.475 167.807L336.97 164.617L341.594 165.335ZM336.47 170.306L339.867 170.834L340.613 166.029L337.694 165.576L337.327 167.939C337.172 168.938 336.886 169.727 336.47 170.306ZM345.518 172.717C344.545 172.566 343.786 172.117 343.24 171.371C342.697 170.608 342.5 169.752 342.647 168.805C342.795 167.849 343.242 167.099 343.988 166.553C344.736 165.999 345.596 165.798 346.569 165.949C347.206 166.048 347.755 166.292 348.215 166.681C348.676 167.061 348.983 167.527 349.135 168.08L348.375 168.372C348.263 167.958 348.031 167.609 347.678 167.325C347.335 167.033 346.923 166.85 346.441 166.775C345.726 166.664 345.085 166.821 344.516 167.244C343.949 167.658 343.61 168.223 343.499 168.938C343.389 169.644 343.541 170.289 343.952 170.873C344.367 171.44 344.932 171.779 345.646 171.89C346.12 171.964 346.564 171.918 346.977 171.753C347.399 171.589 347.749 171.326 348.026 170.963L348.672 171.487C348.325 171.962 347.869 172.31 347.306 172.532C346.743 172.753 346.147 172.814 345.518 172.717ZM349.761 166.603L355.186 167.446L355.057 168.272L352.771 167.917L351.897 173.549L351.044 173.416L351.919 167.785L349.633 167.43L349.761 166.603ZM361.33 169.696L361.526 168.431L362.379 168.563L361.376 175.021L360.523 174.889L360.72 173.623C359.979 174.478 359.035 174.816 357.89 174.638C356.969 174.495 356.232 174.046 355.679 173.29C355.135 172.535 354.936 171.684 355.083 170.737C355.23 169.79 355.678 169.039 356.425 168.485C357.181 167.932 358.02 167.727 358.941 167.87C360.086 168.048 360.883 168.657 361.33 169.696ZM356.389 172.805C356.804 173.372 357.368 173.711 358.083 173.822C358.798 173.933 359.439 173.781 360.006 173.366C360.575 172.935 360.915 172.366 361.025 171.66C361.136 170.945 360.984 170.304 360.569 169.737C360.156 169.161 359.592 168.818 358.877 168.707C358.163 168.596 357.521 168.752 356.953 169.175C356.386 169.59 356.047 170.155 355.936 170.869C355.826 171.575 355.977 172.22 356.389 172.805ZM368.319 172.369L368.756 169.553L369.608 169.686L368.605 176.144L367.753 176.011L368.19 173.196L364.47 172.618L364.033 175.434L363.181 175.301L364.184 168.843L365.036 168.976L364.599 171.791L368.319 172.369ZM376.707 170.788L375.832 176.42L376.865 176.58L376.468 179.138L375.616 179.005L375.884 177.274L370.408 176.424L371.411 169.966L372.263 170.098L371.389 175.73L374.979 176.287L375.854 170.656L376.707 170.788ZM379.11 176.254L383.731 171.879L384.454 171.992L383.451 178.45L382.599 178.317L383.371 173.345L378.75 177.719L378.026 177.607L379.029 171.149L379.882 171.281L379.11 176.254ZM388.285 172.587L390.907 172.994L389.904 179.452L389.051 179.319L389.436 176.84L388.326 176.667L385.951 178.838L384.866 178.669L387.296 176.481C386.783 176.322 386.386 176.039 386.105 175.634C385.834 175.222 385.738 174.762 385.817 174.254C385.906 173.677 386.187 173.231 386.659 172.916C387.149 172.604 387.691 172.494 388.285 172.587ZM387.791 175.764L389.561 176.039L389.926 173.688L388.156 173.413C387.786 173.356 387.459 173.419 387.174 173.605C386.891 173.781 386.723 174.042 386.669 174.386C386.616 174.73 386.696 175.034 386.911 175.297C387.128 175.551 387.421 175.706 387.791 175.764ZM114.888 153.089C113.915 152.938 113.156 152.489 112.61 151.743C112.068 150.98 111.87 150.124 112.017 149.177C112.165 148.221 112.613 147.471 113.359 146.925C114.106 146.371 114.966 146.17 115.939 146.321C116.576 146.42 117.125 146.664 117.585 147.053C118.046 147.433 118.353 147.899 118.505 148.452L117.745 148.744C117.633 148.33 117.401 147.981 117.048 147.697C116.706 147.405 116.293 147.222 115.811 147.147C115.096 147.036 114.455 147.193 113.886 147.616C113.319 148.03 112.98 148.595 112.869 149.31C112.76 150.016 112.911 150.661 113.323 151.245C113.737 151.812 114.302 152.151 115.017 152.262C115.49 152.336 115.934 152.29 116.347 152.125C116.77 151.961 117.119 151.698 117.396 151.335L118.042 151.859C117.695 152.334 117.24 152.682 116.676 152.904C116.113 153.125 115.517 153.186 114.888 153.089ZM122.977 147.414C123.941 147.564 124.659 148.023 125.13 148.793C125.62 149.557 125.794 150.4 125.65 151.321C125.644 151.364 125.614 151.496 125.562 151.718L119.892 150.837C119.878 151.496 120.073 152.056 120.478 152.515C120.883 152.975 121.434 153.259 122.132 153.367C123.113 153.52 123.863 153.261 124.382 152.592L125.063 153.148C124.706 153.569 124.258 153.874 123.717 154.063C123.186 154.245 122.61 154.288 121.99 154.192C120.974 154.034 120.197 153.587 119.659 152.851C119.121 152.115 118.928 151.256 119.08 150.274C119.231 149.301 119.671 148.545 120.398 148.005C121.127 147.457 121.987 147.26 122.977 147.414ZM122.849 148.24C122.177 148.136 121.582 148.247 121.064 148.572C120.555 148.898 120.207 149.378 120.021 150.01L124.838 150.759C124.851 150.055 124.67 149.485 124.297 149.048C123.908 148.599 123.425 148.33 122.849 148.24ZM127.931 148.342L132.555 149.06L131.552 155.518L130.7 155.386L131.574 149.754L128.655 149.301L128.208 152.181C128.041 153.258 127.719 153.966 127.243 154.307C126.775 154.648 126.188 154.738 125.482 154.575L125.606 153.775C126.097 153.904 126.482 153.84 126.76 153.583C127.038 153.327 127.237 152.815 127.356 152.049L127.931 148.342ZM134.832 151.927L136.602 152.202C137.196 152.294 137.675 152.563 138.038 153.007C138.402 153.443 138.539 153.953 138.448 154.539C138.356 155.133 138.07 155.583 137.59 155.887C137.128 156.195 136.591 156.301 135.98 156.206L133.358 155.799L134.361 149.341L135.213 149.473L134.832 151.927ZM134.339 155.104L136.108 155.379C136.479 155.437 136.805 155.377 137.088 155.201C137.373 155.016 137.542 154.751 137.595 154.407C137.649 154.062 137.567 153.763 137.351 153.509C137.136 153.246 136.844 153.086 136.473 153.029L134.704 152.754L134.339 155.104ZM142.347 157.354C141.374 157.202 140.615 156.754 140.069 156.008C139.527 155.244 139.329 154.389 139.476 153.442C139.624 152.486 140.072 151.736 140.818 151.19C141.565 150.636 142.425 150.434 143.398 150.586C144.036 150.685 144.584 150.928 145.044 151.317C145.505 151.698 145.812 152.164 145.964 152.717L145.205 153.009C145.093 152.595 144.86 152.246 144.507 151.962C144.165 151.67 143.752 151.487 143.27 151.412C142.555 151.301 141.914 151.457 141.345 151.88C140.778 152.295 140.439 152.86 140.328 153.574C140.219 154.28 140.37 154.926 140.782 155.51C141.196 156.077 141.761 156.416 142.476 156.527C142.949 156.601 143.393 156.555 143.806 156.39C144.229 156.226 144.578 155.963 144.855 155.6L145.501 156.124C145.154 156.599 144.699 156.947 144.135 157.168C143.572 157.389 142.976 157.451 142.347 157.354ZM148.767 154.753L151.706 158.648L150.57 158.472L147.824 154.858L147.341 157.97L146.488 157.838L147.491 151.38L148.344 151.512L147.901 154.367L151.418 151.99L152.58 152.17L148.767 154.753ZM157.766 158.756C157.002 159.299 156.151 159.498 155.213 159.352C154.257 159.203 153.502 158.755 152.948 158.008C152.395 157.252 152.193 156.396 152.341 155.44C152.49 154.484 152.941 153.734 153.696 153.19C154.452 152.637 155.308 152.435 156.264 152.584C157.211 152.731 157.961 153.182 158.514 153.939C159.077 154.687 159.284 155.54 159.135 156.495C158.988 157.443 158.532 158.196 157.766 158.756ZM153.647 157.508C154.062 158.075 154.626 158.414 155.341 158.525C156.056 158.636 156.697 158.484 157.264 158.07C157.833 157.638 158.173 157.069 158.283 156.363C158.394 155.648 158.242 155.007 157.827 154.44C157.414 153.865 156.85 153.521 156.136 153.41C155.421 153.299 154.779 153.455 154.211 153.879C153.644 154.293 153.305 154.858 153.194 155.573C153.084 156.279 153.235 156.924 153.647 157.508ZM161.063 153.488L165.196 154.13L165.068 154.956L161.787 154.447L160.913 160.078L160.06 159.946L161.063 153.488ZM170.518 160.737C169.754 161.28 168.903 161.478 167.965 161.332C167.009 161.184 166.254 160.736 165.7 159.988C165.147 159.232 164.945 158.377 165.093 157.421C165.242 156.465 165.694 155.715 166.448 155.171C167.204 154.618 168.06 154.416 169.016 154.564C169.963 154.711 170.713 155.163 171.266 155.919C171.829 156.668 172.036 157.52 171.887 158.476C171.74 159.423 171.284 160.177 170.518 160.737ZM166.399 159.489C166.814 160.056 167.379 160.395 168.093 160.506C168.808 160.617 169.449 160.465 170.016 160.05C170.586 159.619 170.925 159.05 171.035 158.344C171.146 157.629 170.994 156.988 170.579 156.421C170.166 155.845 169.602 155.502 168.888 155.391C168.173 155.28 167.531 155.436 166.963 155.859C166.396 156.274 166.057 156.838 165.946 157.553C165.836 158.259 165.987 158.904 166.399 159.489ZM176.269 155.85L181.694 156.692L181.566 157.519L179.28 157.164L178.405 162.795L177.552 162.663L178.427 157.031L176.141 156.676L176.269 155.85ZM182.813 161.959L187.434 157.584L188.158 157.696L187.155 164.154L186.302 164.022L187.074 159.049L182.453 163.424L181.73 163.311L182.733 156.853L183.585 156.986L182.813 161.959ZM189.96 157.976L195.385 158.819L194.382 165.277L193.53 165.144L194.404 159.513L190.684 158.935L189.81 164.566L188.957 164.434L189.96 157.976ZM202.545 161.227L202.742 159.961L203.594 160.094L202.591 166.552L201.739 166.419L201.935 165.153C201.194 166.008 200.251 166.347 199.106 166.169C198.184 166.026 197.447 165.576 196.894 164.82C196.35 164.065 196.152 163.215 196.299 162.267C196.446 161.32 196.893 160.57 197.641 160.015C198.397 159.463 199.235 159.258 200.157 159.401C201.302 159.579 202.098 160.187 202.545 161.227ZM197.605 164.335C198.019 164.902 198.584 165.241 199.298 165.352C200.013 165.463 200.654 165.311 201.221 164.897C201.791 164.465 202.13 163.896 202.24 163.19C202.351 162.475 202.199 161.835 201.785 161.268C201.372 160.692 200.808 160.349 200.093 160.238C199.378 160.127 198.737 160.283 198.168 160.706C197.601 161.12 197.262 161.685 197.151 162.4C197.042 163.106 197.193 163.751 197.605 164.335Z" fill="#09090C"/>
<rect x="456.525" y="166.317" width="343.577" height="54.4072" rx="14.9381" transform="rotate(8.82826 456.525 166.317)" fill="#F7F7F7"/>
<path d="M471.34 187.338L475.087 192.682L473.899 192.497L470.342 187.461L469.662 191.839L468.758 191.699L470.162 182.658L471.066 182.798L470.424 186.931L475.174 183.436L476.362 183.621L471.34 187.338ZM481.079 192.779C480.316 193.322 479.465 193.521 478.526 193.375C477.571 193.226 476.816 192.778 476.261 192.031C475.709 191.275 475.507 190.419 475.655 189.463C475.803 188.507 476.255 187.758 477.01 187.213C477.766 186.661 478.622 186.458 479.577 186.607C480.525 186.754 481.275 187.206 481.827 187.962C482.39 188.71 482.597 189.563 482.449 190.518C482.302 191.466 481.845 192.219 481.079 192.779ZM476.961 191.531C477.375 192.098 477.94 192.437 478.655 192.548C479.369 192.659 480.01 192.507 480.577 192.093C481.147 191.661 481.487 191.092 481.596 190.386C481.707 189.671 481.556 189.03 481.141 188.463C480.728 187.888 480.164 187.544 479.449 187.433C478.734 187.322 478.093 187.479 477.524 187.902C476.957 188.316 476.618 188.881 476.507 189.596C476.398 190.302 476.549 190.947 476.961 191.531ZM489.724 188.341L490.706 188.494L489.703 194.952L488.85 194.82L489.651 189.666L486.821 192.983L486.717 192.967L485.027 188.948L484.226 194.101L483.374 193.969L484.377 187.511L485.358 187.663L486.992 191.541L489.724 188.341ZM492.512 188.775L497.937 189.617L496.934 196.075L496.082 195.943L496.956 190.311L493.236 189.734L492.362 195.365L491.509 195.233L492.512 188.775ZM500.411 190.001L505.035 190.72L504.032 197.178L503.18 197.045L504.054 191.414L501.135 190.96L500.688 193.841C500.521 194.917 500.199 195.625 499.723 195.966C499.256 196.308 498.668 196.397 497.962 196.235L498.086 195.434C498.578 195.563 498.962 195.499 499.24 195.243C499.518 194.986 499.717 194.475 499.836 193.708L500.411 190.001ZM509.849 191.308C510.813 191.458 511.531 191.918 512.002 192.688C512.492 193.452 512.665 194.294 512.522 195.216C512.516 195.259 512.486 195.391 512.434 195.612L506.764 194.731C506.75 195.391 506.945 195.95 507.35 196.41C507.755 196.869 508.306 197.153 509.003 197.262C509.985 197.414 510.735 197.156 511.253 196.487L511.934 197.042C511.578 197.463 511.129 197.768 510.588 197.958C510.058 198.14 509.482 198.183 508.862 198.086C507.846 197.929 507.069 197.482 506.531 196.745C505.992 196.009 505.8 195.15 505.952 194.169C506.103 193.196 506.543 192.44 507.27 191.9C507.999 191.352 508.858 191.155 509.849 191.308ZM509.72 192.135C509.049 192.031 508.454 192.141 507.936 192.466C507.427 192.793 507.079 193.272 506.893 193.905L511.71 194.653C511.722 193.95 511.542 193.379 511.169 192.942C510.78 192.494 510.297 192.225 509.72 192.135ZM515.659 195.544L518.599 199.44L517.462 199.263L514.717 195.649L514.233 198.762L513.381 198.629L514.384 192.171L515.236 192.304L514.793 195.158L518.31 192.781L519.473 192.962L515.659 195.544ZM519.991 193.042L525.416 193.885L525.287 194.712L523.001 194.356L522.127 199.988L521.274 199.855L522.149 194.224L519.863 193.869L519.991 193.042ZM530.59 197.572L531.027 194.756L531.879 194.889L530.876 201.347L530.024 201.214L530.461 198.399L526.741 197.821L526.304 200.637L525.452 200.504L526.455 194.046L527.307 194.179L526.87 196.994L530.59 197.572ZM534.153 197.755L535.923 198.03C536.517 198.122 536.996 198.391 537.359 198.835C537.723 199.271 537.86 199.781 537.769 200.367C537.677 200.961 537.391 201.411 536.911 201.715C536.449 202.023 535.912 202.129 535.301 202.034L532.679 201.627L533.682 195.169L534.535 195.301L534.153 197.755ZM538.362 202.509L539.365 196.051L540.218 196.184L539.215 202.642L538.362 202.509ZM533.66 200.933L535.429 201.207C535.8 201.265 536.126 201.205 536.41 201.029C536.694 200.844 536.863 200.579 536.917 200.235C536.97 199.89 536.889 199.591 536.672 199.337C536.457 199.074 536.165 198.914 535.795 198.857L534.025 198.582L533.66 200.933ZM545.04 196.774C546.004 196.924 546.722 197.384 547.193 198.153C547.683 198.917 547.856 199.76 547.713 200.681C547.707 200.724 547.677 200.857 547.625 201.078L541.955 200.197C541.941 200.856 542.136 201.416 542.541 201.875C542.946 202.335 543.497 202.619 544.195 202.727C545.176 202.88 545.926 202.622 546.444 201.953L547.125 202.508C546.769 202.929 546.32 203.234 545.78 203.423C545.249 203.605 544.673 203.648 544.053 203.552C543.037 203.394 542.26 202.947 541.722 202.211C541.184 201.475 540.991 200.616 541.143 199.634C541.294 198.661 541.734 197.905 542.461 197.366C543.19 196.817 544.05 196.62 545.04 196.774ZM544.911 197.601C544.24 197.496 543.645 197.607 543.127 197.932C542.618 198.259 542.27 198.738 542.084 199.37L546.901 200.119C546.914 199.415 546.733 198.845 546.36 198.408C545.971 197.959 545.488 197.69 544.911 197.601ZM552.029 198.018L557.454 198.861L557.325 199.687L555.039 199.332L554.164 204.964L553.312 204.831L554.187 199.2L551.901 198.845L552.029 198.018ZM561.978 199.405C562.899 199.548 563.632 199.997 564.176 200.751C564.729 201.508 564.932 202.359 564.785 203.306C564.638 204.253 564.186 205.003 563.43 205.556C562.683 206.11 561.848 206.316 560.927 206.173C559.782 205.995 558.986 205.386 558.538 204.347L557.941 208.196L557.088 208.063L558.492 199.022L559.345 199.155L559.148 200.42C559.89 199.565 560.833 199.227 561.978 199.405ZM559.297 204.319C559.711 204.886 560.276 205.225 560.991 205.336C561.705 205.447 562.346 205.295 562.913 204.881C563.483 204.449 563.823 203.88 563.932 203.174C564.043 202.459 563.892 201.818 563.477 201.251C563.064 200.676 562.5 200.332 561.785 200.221C561.07 200.11 560.429 200.266 559.86 200.69C559.293 201.104 558.954 201.669 558.843 202.384C558.734 203.09 558.885 203.735 559.297 204.319ZM572.061 202.426L572.258 201.16L573.11 201.292L572.107 207.75L571.255 207.618L571.451 206.352C570.71 207.207 569.767 207.546 568.621 207.368C567.7 207.225 566.963 206.775 566.41 206.019C565.866 205.264 565.668 204.413 565.815 203.466C565.962 202.519 566.409 201.768 567.157 201.214C567.913 200.662 568.751 200.457 569.673 200.6C570.818 200.778 571.614 201.386 572.061 202.426ZM567.121 205.534C567.535 206.101 568.1 206.44 568.814 206.551C569.529 206.662 570.17 206.51 570.737 206.096C571.307 205.664 571.646 205.095 571.756 204.389C571.867 203.674 571.715 203.033 571.301 202.466C570.887 201.891 570.323 201.547 569.609 201.436C568.894 201.325 568.253 201.482 567.684 201.905C567.117 202.319 566.778 202.884 566.667 203.599C566.558 204.305 566.709 204.95 567.121 205.534ZM579.05 205.099L579.487 202.283L580.34 202.415L579.337 208.873L578.484 208.741L578.922 205.925L575.202 205.347L574.764 208.163L573.912 208.031L574.915 201.573L575.767 201.705L575.33 204.521L579.05 205.099ZM584.125 209.776C583.152 209.625 582.392 209.176 581.847 208.43C581.304 207.667 581.106 206.811 581.253 205.864C581.402 204.908 581.849 204.158 582.595 203.612C583.343 203.058 584.203 202.857 585.176 203.008C585.813 203.107 586.362 203.351 586.821 203.739C587.283 204.12 587.589 204.586 587.742 205.139L586.982 205.431C586.87 205.017 586.638 204.668 586.285 204.384C585.942 204.092 585.53 203.909 585.047 203.834C584.333 203.723 583.691 203.879 583.123 204.303C582.556 204.717 582.217 205.282 582.106 205.996C581.996 206.703 582.147 207.348 582.559 207.932C582.974 208.499 583.538 208.838 584.253 208.949C584.727 209.023 585.17 208.977 585.584 208.812C586.006 208.648 586.356 208.385 586.632 208.022L587.279 208.546C586.931 209.021 586.476 209.369 585.913 209.59C585.349 209.812 584.753 209.873 584.125 209.776ZM592.03 210.99L591.651 213.431L590.798 213.299L591.177 210.858C590.167 210.604 589.405 210.12 588.89 209.405C588.369 208.671 588.178 207.857 588.317 206.961C588.456 206.066 588.885 205.347 589.604 204.807C590.311 204.282 591.185 204.051 592.224 204.116L592.604 201.675L593.456 201.807L593.077 204.248C594.087 204.502 594.849 204.986 595.364 205.701C595.885 206.435 596.076 207.249 595.937 208.145C595.798 209.04 595.369 209.758 594.65 210.299C593.943 210.824 593.069 211.055 592.03 210.99ZM591.308 210.018L592.094 204.955C591.316 204.914 590.658 205.089 590.121 205.482C589.592 205.876 589.275 206.413 589.169 207.094C589.064 207.774 589.203 208.382 589.587 208.918C589.98 209.455 590.553 209.822 591.308 210.018ZM592.946 205.088L592.16 210.151C592.938 210.192 593.592 210.016 594.121 209.622C594.658 209.229 594.979 208.693 595.085 208.012C595.19 207.332 595.047 206.723 594.654 206.186C594.27 205.65 593.701 205.284 592.946 205.088ZM602.394 211.621C601.63 212.164 600.779 212.362 599.841 212.217C598.885 212.068 598.13 211.62 597.576 210.873C597.023 210.117 596.821 209.261 596.97 208.305C597.118 207.349 597.57 206.599 598.324 206.055C599.08 205.502 599.936 205.3 600.892 205.449C601.839 205.596 602.589 206.047 603.142 206.803C603.705 207.552 603.912 208.404 603.763 209.36C603.616 210.307 603.16 211.061 602.394 211.621ZM598.275 210.373C598.69 210.94 599.255 211.279 599.969 211.39C600.684 211.501 601.325 211.349 601.892 210.935C602.462 210.503 602.801 209.934 602.911 209.228C603.022 208.513 602.87 207.872 602.456 207.305C602.042 206.73 601.478 206.386 600.764 206.275C600.049 206.164 599.407 206.32 598.839 206.744C598.272 207.158 597.933 207.723 597.822 208.437C597.712 209.143 597.863 209.789 598.275 210.373ZM609.177 206.735C610.098 206.878 610.831 207.327 611.375 208.082C611.928 208.838 612.131 209.69 611.984 210.637C611.837 211.584 611.385 212.334 610.629 212.887C609.881 213.441 609.047 213.646 608.126 213.503C606.981 213.325 606.184 212.717 605.737 211.677L605.14 215.526L604.287 215.394L605.691 206.353L606.544 206.485L606.347 207.751C607.088 206.896 608.032 206.558 609.177 206.735ZM606.496 211.65C606.91 212.217 607.475 212.556 608.19 212.667C608.904 212.778 609.545 212.626 610.112 212.211C610.682 211.78 611.022 211.211 611.131 210.505C611.242 209.79 611.09 209.149 610.676 208.582C610.263 208.006 609.699 207.663 608.984 207.552C608.269 207.441 607.628 207.597 607.059 208.02C606.492 208.435 606.153 208.999 606.042 209.714C605.933 210.42 606.084 211.065 606.496 211.65ZM619.25 208.459L620.231 208.611L619.228 215.069L618.376 214.937L619.176 209.783L616.346 213.1L616.243 213.084L614.552 209.065L613.752 214.218L612.9 214.086L613.903 207.628L614.884 207.781L616.517 211.659L619.25 208.459ZM627.395 211.02L627.592 209.754L628.445 209.887L627.442 216.345L626.589 216.212L626.786 214.946C626.044 215.801 625.101 216.14 623.956 215.962C623.035 215.819 622.298 215.369 621.745 214.613C621.201 213.859 621.002 213.008 621.149 212.06C621.296 211.113 621.744 210.363 622.491 209.809C623.247 209.256 624.086 209.051 625.007 209.194C626.152 209.372 626.948 209.981 627.395 211.02ZM622.455 214.128C622.87 214.695 623.434 215.034 624.149 215.145C624.864 215.256 625.504 215.105 626.071 214.69C626.641 214.258 626.981 213.689 627.091 212.983C627.202 212.269 627.05 211.628 626.635 211.061C626.222 210.485 625.658 210.142 624.943 210.031C624.229 209.92 623.587 210.076 623.019 210.499C622.452 210.914 622.113 211.478 622.002 212.193C621.892 212.899 622.043 213.544 622.455 214.128ZM629.474 210.047L634.899 210.889L634.771 211.716L632.485 211.361L631.61 216.992L630.758 216.86L631.632 211.228L629.346 210.873L629.474 210.047ZM640.221 217.496C639.458 218.039 638.607 218.237 637.668 218.092C636.712 217.943 635.957 217.495 635.403 216.748C634.85 215.992 634.648 215.136 634.797 214.18C634.945 213.224 635.397 212.474 636.151 211.93C636.908 211.377 637.763 211.175 638.719 211.324C639.666 211.471 640.416 211.922 640.969 212.678C641.532 213.427 641.739 214.279 641.591 215.235C641.443 216.182 640.987 216.936 640.221 217.496ZM636.103 216.248C636.517 216.815 637.082 217.154 637.796 217.265C638.511 217.376 639.152 217.224 639.719 216.81C640.289 216.378 640.628 215.809 640.738 215.103C640.849 214.388 640.697 213.747 640.283 213.18C639.87 212.605 639.306 212.261 638.591 212.15C637.876 212.039 637.235 212.195 636.666 212.619C636.099 213.033 635.76 213.598 635.649 214.312C635.54 215.019 635.691 215.664 636.103 216.248ZM647.004 212.61C647.925 212.754 648.658 213.202 649.202 213.957C649.755 214.713 649.958 215.565 649.811 216.512C649.664 217.459 649.212 218.209 648.456 218.762C647.709 219.316 646.874 219.522 645.953 219.378C644.808 219.201 644.012 218.592 643.565 217.552L642.967 221.401L642.114 221.269L643.519 212.228L644.371 212.36L644.174 213.626C644.916 212.771 645.859 212.433 647.004 212.61ZM644.323 217.525C644.737 218.092 645.302 218.431 646.017 218.542C646.731 218.653 647.372 218.501 647.939 218.086C648.509 217.655 648.849 217.086 648.958 216.38C649.069 215.665 648.918 215.024 648.503 214.457C648.09 213.881 647.526 213.538 646.811 213.427C646.096 213.316 645.455 213.472 644.887 213.895C644.32 214.31 643.981 214.875 643.87 215.589C643.76 216.295 643.911 216.94 644.323 217.525ZM655.865 217.029L656.302 214.213L657.155 214.346L656.152 220.804L655.299 220.671L655.736 217.856L652.017 217.278L651.579 220.094L650.727 219.961L651.73 213.503L652.582 213.636L652.145 216.451L655.865 217.029ZM659.429 217.212L661.198 217.487C661.792 217.579 662.271 217.848 662.634 218.292C662.998 218.728 663.135 219.238 663.044 219.824C662.952 220.418 662.666 220.867 662.187 221.172C661.724 221.48 661.188 221.586 660.576 221.491L657.954 221.084L658.957 214.626L659.81 214.758L659.429 217.212ZM663.637 221.966L664.64 215.508L665.493 215.641L664.49 222.099L663.637 221.966ZM658.935 220.389L660.705 220.664C661.075 220.722 661.402 220.662 661.685 220.486C661.969 220.301 662.138 220.036 662.192 219.691C662.245 219.347 662.164 219.048 661.947 218.794C661.733 218.531 661.44 218.371 661.07 218.314L659.3 218.039L658.935 220.389ZM670.315 216.231C671.279 216.381 671.997 216.841 672.468 217.61C672.958 218.374 673.132 219.217 672.988 220.138C672.982 220.181 672.952 220.313 672.9 220.535L667.23 219.654C667.216 220.313 667.411 220.873 667.816 221.332C668.221 221.792 668.772 222.076 669.47 222.184C670.451 222.337 671.201 222.078 671.72 221.409L672.401 221.965C672.044 222.386 671.596 222.691 671.055 222.88C670.524 223.062 669.948 223.105 669.328 223.009C668.312 222.851 667.535 222.404 666.997 221.668C666.459 220.932 666.266 220.073 666.418 219.091C666.569 218.118 667.009 217.362 667.736 216.822C668.465 216.274 669.325 216.077 670.315 216.231ZM670.187 217.058C669.515 216.953 668.92 217.064 668.402 217.389C667.893 217.715 667.545 218.195 667.359 218.827L672.176 219.576C672.189 218.872 672.008 218.302 671.635 217.865C671.246 217.416 670.763 217.147 670.187 217.058ZM678.079 217.596L683.504 218.438L682.501 224.896L681.648 224.764L682.523 219.132L678.803 218.555L677.928 224.186L677.076 224.054L678.079 217.596ZM689.842 225.203C689.078 225.746 688.227 225.944 687.289 225.798C686.333 225.65 685.578 225.202 685.024 224.455C684.471 223.699 684.269 222.843 684.417 221.887C684.566 220.931 685.017 220.181 685.772 219.637C686.528 219.084 687.384 218.882 688.34 219.03C689.287 219.178 690.037 219.629 690.59 220.385C691.153 221.134 691.36 221.986 691.211 222.942C691.064 223.889 690.608 224.643 689.842 225.203ZM685.723 223.955C686.138 224.522 686.702 224.861 687.417 224.972C688.132 225.083 688.773 224.931 689.34 224.516C689.909 224.085 690.249 223.516 690.359 222.81C690.47 222.095 690.318 221.454 689.903 220.887C689.49 220.311 688.926 219.968 688.212 219.857C687.497 219.746 686.855 219.902 686.287 220.325C685.72 220.74 685.381 221.305 685.27 222.019C685.16 222.725 685.311 223.37 685.723 223.955ZM698.312 220.738L697.437 226.369L698.341 226.51L697.944 229.067L697.092 228.935L697.36 227.204L692.091 226.385L691.822 228.116L690.969 227.984L691.367 225.426L692.154 225.549C692.685 225.032 693.03 224.252 693.192 223.21L693.688 220.02L698.312 220.738ZM693.188 225.709L696.585 226.237L697.331 221.432L694.412 220.979L694.045 223.342C693.89 224.341 693.604 225.13 693.188 225.709ZM702.235 228.12C701.262 227.969 700.503 227.52 699.958 226.774C699.415 226.011 699.217 225.155 699.364 224.208C699.513 223.252 699.96 222.502 700.706 221.956C701.453 221.402 702.314 221.201 703.287 221.352C703.924 221.451 704.472 221.695 704.932 222.084C705.393 222.464 705.7 222.93 705.852 223.483L705.093 223.775C704.981 223.361 704.748 223.012 704.396 222.728C704.053 222.436 703.64 222.253 703.158 222.178C702.444 222.067 701.802 222.224 701.234 222.647C700.667 223.061 700.328 223.626 700.217 224.341C700.107 225.047 700.258 225.692 700.67 226.276C701.085 226.843 701.649 227.182 702.364 227.293C702.837 227.367 703.281 227.321 703.695 227.156C704.117 226.992 704.466 226.729 704.743 226.366L705.389 226.89C705.042 227.365 704.587 227.713 704.024 227.935C703.46 228.156 702.864 228.217 702.235 228.12ZM706.479 222.006L711.903 222.849L711.775 223.675L709.489 223.32L708.614 228.952L707.762 228.819L708.636 223.188L706.35 222.833L706.479 222.006ZM718.047 225.099L718.244 223.834L719.096 223.966L718.093 230.424L717.241 230.292L717.437 229.026C716.696 229.881 715.753 230.219 714.608 230.041C713.686 229.898 712.949 229.449 712.396 228.693C711.852 227.938 711.654 227.087 711.801 226.14C711.948 225.193 712.395 224.442 713.143 223.888C713.899 223.335 714.737 223.13 715.659 223.273C716.804 223.451 717.6 224.06 718.047 225.099ZM713.107 228.208C713.521 228.775 714.086 229.114 714.801 229.225C715.515 229.336 716.156 229.184 716.723 228.769C717.293 228.338 717.633 227.769 717.742 227.063C717.853 226.348 717.701 225.707 717.287 225.14C716.874 224.564 716.31 224.221 715.595 224.11C714.88 223.999 714.239 224.155 713.67 224.578C713.103 224.993 712.764 225.558 712.653 226.272C712.544 226.978 712.695 227.623 713.107 228.208ZM725.036 227.772L725.473 224.956L726.326 225.089L725.323 231.547L724.47 231.414L724.908 228.599L721.188 228.021L720.751 230.837L719.898 230.704L720.901 224.246L721.754 224.379L721.316 227.194L725.036 227.772ZM733.424 226.191L732.549 231.823L733.583 231.983L733.186 234.541L732.333 234.408L732.602 232.677L727.125 231.827L728.129 225.369L728.981 225.501L728.106 231.133L731.697 231.69L732.572 226.059L733.424 226.191ZM735.827 231.657L740.448 227.282L741.172 227.395L740.169 233.853L739.316 233.72L740.088 228.748L735.467 233.122L734.744 233.01L735.747 226.552L736.599 226.684L735.827 231.657ZM743.054 232.78L747.676 228.405L748.399 228.517L747.396 234.975L746.544 234.843L747.316 229.87L742.695 234.245L741.971 234.133L742.974 227.675L743.827 227.807L743.054 232.78ZM471.311 204.557L471.749 201.741L472.601 201.874L471.598 208.332L470.746 208.199L471.183 205.384L467.463 204.806L467.026 207.622L466.173 207.489L467.176 201.031L468.029 201.164L467.591 203.979L471.311 204.557ZM479.761 204.282L479.958 203.016L480.81 203.149L479.807 209.607L478.955 209.474L479.151 208.209C478.41 209.064 477.467 209.402 476.321 209.224C475.4 209.081 474.663 208.632 474.11 207.876C473.566 207.121 473.368 206.27 473.515 205.323C473.662 204.376 474.109 203.625 474.857 203.071C475.613 202.518 476.451 202.313 477.373 202.456C478.518 202.634 479.314 203.243 479.761 204.282ZM474.821 207.391C475.235 207.958 475.8 208.297 476.514 208.408C477.229 208.519 477.87 208.367 478.437 207.952C479.007 207.52 479.346 206.952 479.456 206.245C479.567 205.531 479.415 204.89 479.001 204.323C478.587 203.747 478.024 203.404 477.309 203.293C476.594 203.182 475.953 203.338 475.384 203.761C474.817 204.176 474.478 204.74 474.367 205.455C474.258 206.161 474.409 206.806 474.821 207.391ZM486.101 203.812C487.022 203.955 487.755 204.404 488.299 205.159C488.852 205.915 489.054 206.766 488.907 207.713C488.76 208.661 488.309 209.411 487.553 209.963C486.805 210.517 485.971 210.723 485.049 210.58C483.904 210.402 483.108 209.793 482.661 208.754L482.063 212.603L481.211 212.47L482.615 203.429L483.467 203.562L483.271 204.827C484.012 203.972 484.955 203.634 486.101 203.812ZM483.419 208.726C483.834 209.293 484.398 209.632 485.113 209.743C485.828 209.854 486.469 209.702 487.036 209.288C487.605 208.856 487.945 208.287 488.055 207.581C488.166 206.866 488.014 206.225 487.599 205.658C487.186 205.083 486.622 204.739 485.908 204.628C485.193 204.517 484.551 204.674 483.983 205.097C483.416 205.511 483.077 206.076 482.966 206.791C482.856 207.497 483.007 208.142 483.419 208.726ZM492.291 210.474L495.224 205.387L496.128 205.528L492.268 212.151C491.909 212.765 491.469 213.213 490.949 213.493C490.436 213.784 489.904 213.865 489.351 213.735L489.475 212.934C490.235 213.149 490.895 212.793 491.453 211.865L491.683 211.491L489.799 204.545L490.703 204.685L492.291 210.474ZM501.2 209.49L503.572 213.298L502.539 213.137L500.387 209.615L499.904 212.728L499.051 212.596L499.535 209.483L496.416 212.187L495.383 212.026L498.798 209.117L496.515 205.588L497.549 205.749L499.609 209.005L500.054 206.138L500.907 206.27L500.461 209.137L503.412 206.659L504.446 206.82L501.2 209.49ZM509.87 210.546L510.307 207.73L511.16 207.863L510.157 214.321L509.304 214.188L509.742 211.372L506.022 210.795L505.585 213.61L504.732 213.478L505.735 207.02L506.588 207.152L506.15 209.968L509.87 210.546ZM517.498 214.627C516.734 215.17 515.883 215.369 514.945 215.223C513.989 215.075 513.234 214.627 512.68 213.879C512.127 213.123 511.925 212.267 512.074 211.311C512.222 210.356 512.674 209.606 513.428 209.061C514.184 208.509 515.04 208.307 515.996 208.455C516.943 208.602 517.693 209.054 518.246 209.81C518.809 210.558 519.016 211.411 518.867 212.367C518.72 213.314 518.264 214.067 517.498 214.627ZM513.379 213.379C513.794 213.946 514.359 214.285 515.073 214.396C515.788 214.507 516.429 214.356 516.996 213.941C517.566 213.509 517.905 212.94 518.015 212.234C518.126 211.519 517.974 210.879 517.56 210.312C517.146 209.736 516.582 209.393 515.868 209.282C515.153 209.171 514.511 209.327 513.943 209.75C513.376 210.164 513.037 210.729 512.926 211.444C512.816 212.15 512.967 212.795 513.379 213.379ZM525.347 209.008L521.989 208.486L522.105 207.737L525.464 208.259L525.347 209.008ZM520.875 214.464L525.497 210.089L526.22 210.202L525.217 216.66L524.365 216.527L525.137 211.555L520.516 215.929L519.792 215.817L520.795 209.359L521.648 209.492L520.875 214.464ZM532.969 216.792L535.902 211.705L536.806 211.846L532.946 218.469C532.586 219.083 532.146 219.53 531.627 219.811C531.114 220.102 530.581 220.182 530.028 220.052L530.153 219.252C530.913 219.467 531.572 219.111 532.131 218.183L532.361 217.809L530.477 210.863L531.381 211.003L532.969 216.792ZM539.566 219.047C538.593 218.896 537.834 218.447 537.288 217.701C536.745 216.938 536.548 216.083 536.695 215.135C536.843 214.18 537.29 213.429 538.036 212.883C538.784 212.329 539.644 212.128 540.617 212.279C541.254 212.378 541.803 212.622 542.263 213.011C542.724 213.391 543.031 213.858 543.183 214.41L542.423 214.702C542.311 214.288 542.079 213.939 541.726 213.655C541.383 213.364 540.971 213.18 540.489 213.106C539.774 212.995 539.133 213.151 538.564 213.574C537.997 213.988 537.658 214.553 537.547 215.268C537.437 215.974 537.589 216.619 538 217.203C538.415 217.77 538.98 218.109 539.694 218.22C540.168 218.294 540.612 218.248 541.025 218.083C541.447 217.919 541.797 217.656 542.074 217.294L542.72 217.817C542.373 218.292 541.917 218.641 541.354 218.862C540.791 219.083 540.195 219.145 539.566 219.047ZM543.809 212.933L549.234 213.776L549.105 214.603L546.819 214.248L545.945 219.879L545.092 219.747L545.967 214.115L543.681 213.76L543.809 212.933ZM555.378 216.026L555.574 214.761L556.427 214.893L555.424 221.351L554.571 221.219L554.768 219.953C554.027 220.808 553.083 221.146 551.938 220.969C551.017 220.825 550.28 220.376 549.727 219.62C549.183 218.865 548.984 218.014 549.131 217.067C549.278 216.12 549.726 215.369 550.473 214.815C551.229 214.262 552.068 214.057 552.989 214.201C554.134 214.378 554.931 214.987 555.378 216.026ZM550.437 219.135C550.852 219.702 551.416 220.041 552.131 220.152C552.846 220.263 553.487 220.111 554.054 219.697C554.623 219.265 554.963 218.696 555.073 217.99C555.184 217.275 555.032 216.634 554.617 216.067C554.204 215.491 553.64 215.148 552.925 215.037C552.211 214.926 551.569 215.082 551.001 215.505C550.434 215.92 550.095 216.485 549.984 217.199C549.874 217.905 550.025 218.551 550.437 219.135ZM562.367 218.699L562.804 215.884L563.656 216.016L562.653 222.474L561.801 222.342L562.238 219.526L558.518 218.948L558.081 221.764L557.229 221.631L558.232 215.173L559.084 215.306L558.647 218.122L562.367 218.699ZM569.994 222.781C569.231 223.324 568.38 223.522 567.441 223.376C566.486 223.228 565.731 222.78 565.177 222.033C564.624 221.276 564.422 220.421 564.57 219.465C564.718 218.509 565.17 217.759 565.925 217.215C566.681 216.662 567.537 216.46 568.493 216.608C569.44 216.755 570.19 217.207 570.742 217.963C571.305 218.712 571.512 219.564 571.364 220.52C571.217 221.467 570.76 222.221 569.994 222.781ZM565.876 221.533C566.29 222.1 566.855 222.439 567.57 222.55C568.284 222.661 568.925 222.509 569.492 222.094C570.062 221.663 570.402 221.094 570.511 220.388C570.622 219.673 570.471 219.032 570.056 218.465C569.643 217.889 569.079 217.546 568.364 217.435C567.649 217.324 567.008 217.48 566.44 217.903C565.872 218.318 565.533 218.882 565.422 219.597C565.313 220.303 565.464 220.948 565.876 221.533ZM576.912 221.289C577.578 221.657 577.852 222.216 577.736 222.965C577.653 223.499 577.405 223.905 576.991 224.185C576.586 224.466 576.065 224.557 575.427 224.458L572.289 223.971L573.292 217.513L576.172 217.96C576.792 218.056 577.25 218.29 577.544 218.662C577.848 219.036 577.96 219.481 577.879 219.998C577.779 220.643 577.457 221.074 576.912 221.289ZM576.044 218.786L574.016 218.472L573.711 220.435L575.739 220.75C576.488 220.866 576.915 220.588 577.019 219.917C577.066 219.615 577.003 219.368 576.83 219.173C576.668 218.972 576.405 218.843 576.044 218.786ZM573.27 223.276L575.556 223.631C575.935 223.69 576.237 223.645 576.463 223.495C576.698 223.346 576.841 223.108 576.892 222.781C576.94 222.471 576.874 222.213 576.694 222.009C576.523 221.806 576.248 221.675 575.869 221.616L573.583 221.261L573.27 223.276ZM581.025 221.888L583.965 225.784L582.828 225.607L580.083 221.993L579.599 225.106L578.747 224.974L579.75 218.516L580.602 218.648L580.159 221.502L583.676 219.125L584.839 219.306L581.025 221.888ZM586.212 224.612L590.834 220.237L591.557 220.349L590.554 226.807L589.701 226.675L590.474 221.702L585.852 226.077L585.129 225.965L586.132 219.507L586.985 219.639L586.212 224.612Z" fill="#09090C"/>
</g>
</g>
</g>
<defs>
<filter id="filter0_d_92_8282" x="-6.53144" y="-125.531" width="765.556" height="458.754" filterUnits="userSpaceOnUse" color-interpolation-filters="sRGB">
<feFlood flood-opacity="0" result="BackgroundImageFix"/>
<feColorMatrix in="SourceAlpha" type="matrix" values="0 0 0 0 0 0 0 0 0 0 0 0 0 0 0 0 0 0 127 0" result="hardAlpha"/>
<feOffset/>
<feGaussianBlur stdDeviation="10.2657"/>
<feComposite in2="hardAlpha" operator="out"/>
<feColorMatrix type="matrix" values="0 0 0 0 0.864423 0 0 0 0 0.913625 0 0 0 0 1 0 0 0 1 0"/>
<feBlend mode="normal" in2="BackgroundImageFix" result="effect1_dropShadow_92_8282"/>
<feBlend mode="normal" in="SourceGraphic" in2="effect1_dropShadow_92_8282" result="shape"/>
</filter>
<filter id="filter1_d_92_8282" x="58.8867" y="39.3709" width="1100.85" height="297.893" filterUnits="userSpaceOnUse" color-interpolation-filters="sRGB">
<feFlood flood-opacity="0" result="BackgroundImageFix"/>
<feColorMatrix in="SourceAlpha" type="matrix" values="0 0 0 0 0 0 0 0 0 0 0 0 0 0 0 0 0 0 127 0" result="hardAlpha"/>
<feOffset/>
<feGaussianBlur stdDeviation="4.71581"/>
<feComposite in2="hardAlpha" operator="out"/>
<feColorMatrix type="matrix" values="0 0 0 0 0.501923 0 0 0 0 0.501923 0 0 0 0 0.501923 0 0 0 0.1 0"/>
<feBlend mode="normal" in2="BackgroundImageFix" result="effect1_dropShadow_92_8282"/>
<feBlend mode="normal" in="SourceGraphic" in2="effect1_dropShadow_92_8282" result="shape"/>
</filter>
<clipPath id="clip0_92_8282">
<rect x="62.5679" y="-105" width="684.029" height="316.46" rx="16" transform="rotate(8.82826 62.5679 -105)" fill="white"/>
</clipPath>
</defs>
</svg>
