<svg width="360" height="319" viewBox="0 0 360 319" fill="none" xmlns="http://www.w3.org/2000/svg">
<g filter="url(#filter0_d_102_5217)">
<rect x="31.5112" y="-26" width="1047" height="232.081" rx="14.1486" transform="rotate(5.81435 31.5112 -26)" fill="#F9F9F9" shape-rendering="crispEdges"/>
<path d="M55.891 8.88169L55.7763 10.0078L54.1857 9.8458L54.3004 8.71973C52.9043 8.46379 51.8282 7.95126 51.0722 7.18214C50.3161 6.41303 49.9964 5.45605 50.113 4.31122C50.2286 3.17577 50.7342 2.30757 51.6297 1.70663C52.5356 1.09727 53.6934 0.807474 55.1031 0.837244L55.2177 -0.288824L56.8083 -0.126857L56.6936 0.999211C58.0616 1.25229 59.1278 1.76855 59.8923 2.548C60.6567 3.32746 60.9816 4.28022 60.867 5.40629C60.7513 6.54174 60.2406 7.41415 59.3347 8.02351C58.4392 8.62445 57.2913 8.91051 55.891 8.88169ZM54.9526 2.31521C52.9544 2.29188 51.8808 3.01216 51.7317 4.47605C51.5827 5.93994 52.489 6.86184 54.4509 7.24176L54.9526 2.31521ZM56.5431 2.47718L56.0415 7.40373C58.0322 7.40733 59.1011 6.68657 59.2482 5.24145C59.3973 3.77756 58.4956 2.85614 56.5431 2.47718ZM63.3647 8.03567L67.4225 3.94056L68.5908 4.05952L67.8741 11.0975L66.3821 10.9455L66.8379 6.4694L62.7786 10.5786L61.6103 10.4596L62.327 3.42169L63.819 3.57362L63.3647 8.03567ZM70.9036 4.29504L76.2947 4.84401L75.578 11.8819L74.0578 11.7271L74.6254 6.1531L72.2747 5.91373L72.0081 8.53184C71.8963 9.62976 71.5768 10.3936 71.0495 10.8235C70.5221 11.2533 69.803 11.3792 68.892 11.2011L69.0367 9.77944C69.4607 9.89847 69.7936 9.84229 70.0352 9.6109C70.2778 9.37013 70.4311 8.93538 70.4951 8.30666L70.9036 4.29504ZM79.3427 7.57209L80.891 7.72976C81.6511 7.80716 82.2438 8.08558 82.669 8.56501C83.1046 9.03602 83.287 9.61873 83.2163 10.3131C83.1465 10.9982 82.8504 11.5321 82.3279 11.9151C81.8147 12.299 81.1781 12.4522 80.418 12.3748L77.3495 12.0623L78.0661 5.02439L79.5863 5.17919L79.3427 7.57209ZM79.0087 10.8518L80.5711 11.0109C80.8714 11.0414 81.1291 10.9776 81.3444 10.8194C81.569 10.6621 81.6956 10.4427 81.7243 10.1612C81.7529 9.87969 81.6778 9.63975 81.4989 9.44139C81.32 9.24303 81.0757 9.12808 80.766 9.09655L79.2036 8.93745L79.0087 10.8518ZM83.4233 5.56991L89.5463 6.19341L89.3972 7.6573L87.1029 7.42367L86.5353 12.9977L85.0151 12.8429L85.5827 7.26887L83.2742 7.0338L83.4233 5.56991ZM94.5771 6.52081C95.5342 6.61827 96.3232 7.06364 96.944 7.85691C97.5564 8.63985 97.8101 9.54743 97.705 10.5797C97.5989 11.6213 97.167 12.4638 96.4094 13.1072C95.6518 13.7506 94.7897 14.0231 93.8231 13.9247C92.7627 13.8167 91.9818 13.339 91.4802 12.4915L91.0918 16.3061L89.5716 16.1513L90.5749 6.29816L92.0951 6.45296L91.9919 7.46642C92.6456 6.72708 93.5073 6.41187 94.5771 6.52081ZM92.2054 11.6551C92.5847 12.1204 93.0934 12.3856 93.7315 12.4505C94.3696 12.5155 94.9213 12.3584 95.3865 11.9791C95.8528 11.5904 96.1188 11.0723 96.1848 10.4249C96.2507 9.77737 96.094 9.22099 95.7148 8.75571C95.3364 8.28105 94.8282 8.01123 94.1901 7.94625C93.552 7.88127 92.9999 8.04312 92.5336 8.43178C92.0683 8.81105 91.8027 9.32443 91.7368 9.97192C91.6718 10.61 91.828 11.1711 92.2054 11.6551ZM100.718 9.74869L102.266 9.90635C103.026 9.98375 103.619 10.2622 104.044 10.7416C104.48 11.2126 104.662 11.7953 104.591 12.4897C104.522 13.1748 104.225 13.7087 103.703 14.0917C103.19 14.4755 102.553 14.6288 101.793 14.5514L98.7244 14.2389L99.4411 7.20099L100.961 7.35579L100.718 9.74869ZM105.199 14.8983L105.916 7.86033L107.436 8.01513L106.72 15.0531L105.199 14.8983ZM100.384 13.0284L101.946 13.1875C102.246 13.218 102.504 13.1542 102.719 12.996C102.944 12.8387 103.071 12.6193 103.099 12.3378C103.128 12.0563 103.053 11.8163 102.874 11.618C102.695 11.4196 102.451 11.3047 102.141 11.2731L100.579 11.114L100.384 13.0284Z" fill="#92A2BB"/>
<rect x="47.7144" y="28.7369" width="320.997" height="45.0988" rx="13.7065" transform="rotate(5.81435 47.7144 28.7369)" fill="white"/>
<rect x="47.7144" y="28.7369" width="320.997" height="45.0988" rx="13.7065" transform="rotate(5.81435 47.7144 28.7369)" stroke="#E9EEFF" stroke-width="0.884291"/>
<path d="M66.2918 39.2638L67.0572 39.3417L66.4301 45.4999L65.8143 45.4372L66.3464 40.2115L63.8238 43.599L63.7358 43.59L61.9477 39.7636L61.4156 44.9893L60.7998 44.9266L61.4269 38.7684L62.1922 38.8463L63.8927 42.486L66.2918 39.2638ZM70.2389 41.3368C70.8958 41.4037 71.3971 41.6888 71.7429 42.1921C72.1009 42.6908 72.248 43.2539 72.1841 43.8815C72.1812 43.9108 72.166 44.0011 72.1388 44.1524L68.2767 43.7591C68.2906 44.205 68.4424 44.576 68.7322 44.8721C69.0221 45.1683 69.4045 45.3406 69.8796 45.389C70.5482 45.457 71.0457 45.2559 71.3721 44.7854L71.8519 45.1365C71.6261 45.4335 71.3339 45.6556 70.9752 45.8027C70.623 45.9446 70.2357 45.9941 69.8135 45.9511C69.1214 45.8806 68.5805 45.6063 68.1906 45.1281C67.8008 44.6499 67.64 44.0765 67.7081 43.4079C67.7755 42.7451 68.0454 42.2186 68.5178 41.8282C68.9907 41.4319 69.5644 41.2681 70.2389 41.3368ZM70.1816 41.8998C69.7241 41.8532 69.3262 41.949 68.9879 42.1871C68.6554 42.4259 68.4375 42.7622 68.334 43.1961L71.6155 43.5302C71.5987 43.0545 71.4566 42.6756 71.189 42.3935C70.9103 42.1044 70.5745 41.9398 70.1816 41.8998ZM74.9246 46.4716C74.2619 46.4041 73.733 46.128 73.3379 45.6433C72.944 45.1469 72.7799 44.5762 72.8456 43.931C72.9119 43.28 73.1874 42.757 73.672 42.3619C74.1573 41.961 74.7313 41.7942 75.394 41.8617C75.828 41.9059 76.2073 42.0512 76.5318 42.2976C76.857 42.5381 77.0808 42.8423 77.2033 43.2104L76.7005 43.4347C76.6101 43.1588 76.4406 42.9312 76.1923 42.7519C75.9503 42.5672 75.6651 42.4582 75.3367 42.4248C74.8499 42.3752 74.422 42.5035 74.0531 42.8096C73.6848 43.1098 73.4758 43.5034 73.4262 43.9902C73.3773 44.4711 73.5023 44.9016 73.8014 45.2817C74.1016 45.65 74.4952 45.859 74.9819 45.9085C75.3045 45.9414 75.6026 45.8947 75.8762 45.7685C76.1556 45.6429 76.3824 45.4526 76.5565 45.1978L77.0117 45.5286C76.794 45.8619 76.4988 46.1134 76.126 46.2828C75.7532 46.4522 75.3528 46.5152 74.9246 46.4716ZM77.5738 42.1903L81.2687 42.5666L81.2113 43.1296L79.6542 42.9711L79.2636 46.8067L78.683 46.7476L79.0736 42.9119L77.5164 42.7534L77.5738 42.1903ZM85.0991 46.841C84.6027 47.2349 84.0348 47.3993 83.3956 47.3342C82.7446 47.2679 82.2186 46.9921 81.8176 46.5068C81.4173 46.0157 81.2503 45.4446 81.3165 44.7936C81.3828 44.1426 81.6613 43.6199 82.1518 43.2254C82.6429 42.825 83.214 42.658 83.865 42.7243C84.5101 42.79 85.0329 43.0684 85.4332 43.5595C85.84 44.0454 86.0103 44.6138 85.944 45.2648C85.8783 45.91 85.5967 46.4354 85.0991 46.841ZM82.2723 46.1442C82.5726 46.5126 82.9661 46.7215 83.4529 46.7711C83.9397 46.8207 84.3673 46.6953 84.7356 46.3951C85.1051 46.0831 85.3144 45.6866 85.3634 45.2057C85.4129 44.7189 85.2876 44.2914 84.9873 43.923C84.6877 43.5488 84.2944 43.3369 83.8076 43.2873C83.3209 43.2378 82.893 43.3661 82.524 43.6722C82.1557 43.9724 81.9467 44.366 81.8972 44.8528C81.8482 45.3337 81.9733 45.7642 82.2723 46.1442ZM89.3389 43.3884L93.0338 43.7646L92.5859 48.1633L92.0053 48.1042L92.3959 44.2685L89.8622 44.0105L89.4716 47.8462L88.891 47.7871L89.3389 43.3884ZM97.5563 48.1095C97.0599 48.5034 96.4921 48.6678 95.8528 48.6027C95.2018 48.5364 94.6759 48.2606 94.2749 47.7753C93.8746 47.2842 93.7075 46.7132 93.7738 46.0621C93.8401 45.4111 94.1185 44.8884 94.6091 44.4939C95.1002 44.0936 95.6712 43.9265 96.3223 43.9928C96.9674 44.0585 97.4901 44.3369 97.8905 44.8281C98.2973 45.3139 98.4676 45.8823 98.4013 46.5334C98.3356 47.1785 98.0539 47.7039 97.5563 48.1095ZM94.7296 47.4128C95.0299 47.7811 95.4234 47.9901 95.9102 48.0396C96.397 48.0892 96.8245 47.9639 97.1929 47.6636C97.5624 47.3516 97.7717 46.9552 97.8206 46.4742C97.8702 45.9874 97.7449 45.5599 97.4446 45.1915C97.1449 44.8173 96.7517 44.6054 96.2649 44.5559C95.7781 44.5063 95.3503 44.6346 94.9813 44.9407C94.613 45.241 94.404 45.6345 94.3545 46.1213C94.3055 46.6022 94.4305 47.0327 94.7296 47.4128ZM101.188 49.1459C100.525 49.0785 99.9963 48.8024 99.6013 48.3177C99.2074 47.8213 99.0433 47.2506 99.109 46.6054C99.1753 45.9544 99.4507 45.4314 99.9354 45.0363C100.421 44.6353 100.995 44.4686 101.657 44.5361C102.091 44.5803 102.471 44.7256 102.795 44.972C103.12 45.2125 103.344 45.5167 103.467 45.8847L102.964 46.1091C102.873 45.8332 102.704 45.6056 102.456 45.4262C102.214 45.2416 101.929 45.1326 101.6 45.0991C101.113 45.0496 100.685 45.1778 100.316 45.484C99.9481 45.7842 99.7392 46.1778 99.6896 46.6645C99.6406 47.1455 99.7657 47.576 100.065 47.956C100.365 48.3244 100.759 48.5333 101.245 48.5829C101.568 48.6158 101.866 48.5691 102.14 48.4429C102.419 48.3173 102.646 48.127 102.82 47.8722L103.275 48.2029C103.057 48.5363 102.762 48.7877 102.389 48.9572C102.017 49.1266 101.616 49.1895 101.188 49.1459ZM103.837 44.8647L107.532 45.241L107.475 45.804L105.918 45.6454L105.527 49.4811L104.946 49.422L105.337 45.5863L103.78 45.4278L103.837 44.8647ZM111.763 46.5429L111.851 45.6807L112.431 45.7399L111.983 50.1386L111.403 50.0794L111.491 49.2173C111.02 49.8212 110.395 50.0835 109.615 50.0041C108.987 49.9402 108.473 49.6626 108.073 49.1715C107.679 48.681 107.514 48.1132 107.58 47.468C107.646 46.8229 107.921 46.2998 108.406 45.8989C108.897 45.4985 109.457 45.3303 110.084 45.3942C110.864 45.4736 111.424 45.8565 111.763 46.5429ZM108.536 48.8186C108.836 49.187 109.229 49.3959 109.716 49.4455C110.203 49.4951 110.631 49.3697 110.999 49.0695C111.368 48.7575 111.578 48.361 111.627 47.8801C111.676 47.3933 111.551 46.9657 111.251 46.5974C110.951 46.2232 110.558 46.0113 110.071 45.9617C109.584 45.9122 109.156 46.0404 108.787 46.3466C108.419 46.6468 108.21 47.0403 108.161 47.5271C108.112 48.0081 108.237 48.4386 108.536 48.8186ZM116.241 48.2877C116.704 48.5126 116.909 48.8802 116.857 49.3905C116.82 49.7541 116.667 50.0377 116.397 50.2414C116.133 50.4456 115.785 50.5256 115.351 50.4814L113.213 50.2638L113.661 45.865L115.623 46.0648C116.045 46.1078 116.362 46.2498 116.575 46.4907C116.793 46.7321 116.884 47.0288 116.848 47.3807C116.804 47.8206 116.601 48.1229 116.241 48.2877ZM115.565 46.6279L114.184 46.4872L114.048 47.8244L115.429 47.9651C115.939 48.017 116.218 47.8143 116.264 47.3568C116.285 47.1515 116.234 46.9863 116.11 46.8611C115.993 46.7307 115.812 46.6529 115.565 46.6279ZM113.851 49.7598L115.408 49.9184C115.666 49.9447 115.869 49.9031 116.016 49.7937C116.169 49.6849 116.257 49.519 116.28 49.2961C116.302 49.085 116.248 48.9136 116.119 48.782C115.996 48.6509 115.806 48.5723 115.548 48.546L113.99 48.3874L113.851 49.7598ZM119.041 48.5462L121.166 51.0736L120.391 50.9948L118.408 48.6506L118.192 50.7708L117.611 50.7117L118.059 46.313L118.64 46.3721L118.442 48.3163L120.734 46.5853L121.526 46.6659L119.041 48.5462ZM122.642 50.2018L125.609 47.0817L126.101 47.1319L125.654 51.5306L125.073 51.4715L125.418 48.0845L122.451 51.2045L121.959 51.1543L122.407 46.7556L122.987 46.8148L122.642 50.2018Z" fill="#92A2BB"/>
<path d="M69.8463 64.4808L68.1008 64.3031L67.6132 62.2482L63.4186 61.821L62.5268 63.7355L60.7673 63.5563L65.3459 54.0673L67.2884 54.2651L69.8463 64.4808ZM66.1237 56.0664L64.1083 60.3553L67.2331 60.6735L66.1237 56.0664ZM73.9318 65.0817C72.8714 64.9738 72.021 64.5269 71.3804 63.7411C70.7502 62.9468 70.4877 62.0336 70.5928 61.0014C70.6998 59.9504 71.141 59.1088 71.9165 58.4767C72.7023 57.8361 73.6254 57.5699 74.6858 57.6778C75.3708 57.7476 75.9781 57.9754 76.5077 58.3611C77.0373 58.7469 77.4146 59.2309 77.6398 59.8133L76.2533 60.44C76.1282 60.086 75.911 59.7984 75.6016 59.5773C75.3027 59.3477 74.942 59.2114 74.5198 59.1684C73.9004 59.1054 73.3581 59.2635 72.8928 59.6428C72.436 60.0324 72.176 60.5368 72.113 61.1562C72.0499 61.7755 72.2028 62.322 72.5718 62.7957C72.951 63.261 73.4503 63.5252 74.0697 63.5883C74.4826 63.6303 74.8628 63.5742 75.2103 63.42C75.5682 63.2573 75.8488 63.0157 76.0521 62.6951L77.2852 63.5744C76.9276 64.1068 76.4459 64.5081 75.84 64.7783C75.2435 65.0494 74.6075 65.1505 73.9318 65.0817ZM78.1182 58.2122L84.2412 58.8357L84.0922 60.2996L81.7978 60.066L81.2302 65.64L79.71 65.4852L80.2776 59.9112L77.9692 59.6761L78.1182 58.2122ZM90.4672 60.4795L90.569 59.4801L92.0892 59.6349L91.3725 66.6728L89.8523 66.518L89.9555 65.5046C89.3019 66.2439 88.4402 66.5591 87.3704 66.4502C86.4039 66.3518 85.6144 65.9111 85.002 65.1281C84.3896 64.3452 84.1364 63.4329 84.2425 62.3913C84.3486 61.3497 84.7804 60.5072 85.5381 59.8638C86.2957 59.2204 87.1578 58.9479 88.1244 59.0463C89.1941 59.1552 89.9751 59.6329 90.4672 60.4795ZM86.2313 64.2294C86.6106 64.6946 87.1192 64.9598 87.7574 65.0247C88.3955 65.0897 88.9471 64.9326 89.4124 64.5533C89.8787 64.1646 90.1447 63.6466 90.2107 62.9991C90.2766 62.3516 90.1199 61.7952 89.7407 61.3299C89.3623 60.8553 88.8541 60.5854 88.216 60.5205C87.5779 60.4555 87.0257 60.6173 86.5595 61.006C86.0942 61.3853 85.8286 61.8986 85.7627 62.5461C85.6977 63.1842 85.8539 63.7453 86.2313 64.2294ZM98.3194 63.0995L98.6047 60.2984L100.125 60.4532L99.4082 67.4911L97.888 67.3363L98.1732 64.5352L94.9499 64.207L94.6646 67.0081L93.1444 66.8533L93.8611 59.8153L95.3813 59.9701L95.0961 62.7712L98.3194 63.0995ZM107.361 62.1998L107.463 61.2004L108.983 61.3552L108.266 68.3931L106.746 68.2383L106.849 67.2248C106.196 67.9642 105.334 68.2794 104.264 68.1705C103.298 68.072 102.508 67.6314 101.896 66.8484C101.283 66.0655 101.03 65.1532 101.136 64.1116C101.242 63.07 101.674 62.2275 102.432 61.5841C103.19 60.9406 104.052 60.6681 105.018 60.7666C106.088 60.8755 106.869 61.3532 107.361 62.1998ZM103.125 65.9496C103.504 66.4149 104.013 66.68 104.651 66.745C105.289 66.81 105.841 66.6528 106.306 66.2736C106.772 65.8849 107.039 65.3668 107.104 64.7193C107.17 64.0719 107.014 63.5155 106.634 63.0502C106.256 62.5755 105.748 62.3057 105.11 62.2407C104.472 62.1758 103.92 62.3376 103.453 62.7263C102.988 63.1055 102.722 63.6189 102.656 64.2664C102.591 64.9045 102.748 65.4656 103.125 65.9496ZM110.632 66.9274L112.322 67.0994L110.964 70.6588L109.697 70.5298L110.632 66.9274ZM125.545 70.1526L123.799 69.9748L123.312 67.9199L119.117 67.4928L118.225 69.4072L116.466 69.2281L121.045 59.739L122.987 59.9368L125.545 70.1526ZM121.822 61.7382L119.807 66.027L122.932 66.3452L121.822 61.7382ZM127.84 63.2754L133.231 63.8244L132.515 70.8623L130.994 70.7075L131.562 65.1335L129.211 64.8941L128.945 67.5122C128.833 68.6101 128.513 69.374 127.986 69.8038C127.459 70.2337 126.74 70.3596 125.829 70.1815L125.973 68.7598C126.397 68.8788 126.73 68.8226 126.972 68.5913C127.214 68.3505 127.368 67.9157 127.432 67.287L127.84 63.2754ZM140.633 64.5781L142.181 64.7358L141.465 71.7737L139.987 71.6232L140.458 66.9922L138.103 70.0092L137.92 69.9906L136.234 66.5763L135.764 71.1932L134.286 71.0427L135.003 64.0048L136.551 64.1624L138.261 67.6218L140.633 64.5781ZM149.41 66.4816L149.512 65.4822L151.032 65.637L150.315 72.6749L148.795 72.5201L148.898 71.5067C148.245 72.246 147.383 72.5612 146.313 72.4523C145.347 72.3538 144.557 71.9132 143.945 71.1302C143.332 70.3473 143.079 69.435 143.185 68.3934C143.291 67.3518 143.723 66.5093 144.481 65.8659C145.238 65.2224 146.1 64.9499 147.067 65.0484C148.137 65.1573 148.918 65.635 149.41 66.4816ZM145.174 70.2314C145.553 70.6967 146.062 70.9618 146.7 71.0268C147.338 71.0918 147.89 70.9347 148.355 70.5554C148.821 70.1667 149.087 69.6486 149.153 69.0012C149.219 68.3537 149.063 67.7973 148.683 67.332C148.305 66.8573 147.797 66.5875 147.159 66.5225C146.521 66.4576 145.968 66.6194 145.502 67.0081C145.037 67.3873 144.771 67.9007 144.705 68.5482C144.64 69.1863 144.797 69.7474 145.174 70.2314ZM152.058 65.7415L158.181 66.365L158.032 67.8288L155.737 67.5952L155.17 73.1692L153.65 73.0144L154.217 67.4404L151.909 67.2053L152.058 65.7415ZM164.407 68.0087L164.509 67.0093L166.029 67.1641L165.312 74.202L163.792 74.0472L163.895 73.0338C163.241 73.7731 162.38 74.0883 161.31 73.9794C160.343 73.881 159.554 73.4403 158.942 72.6574C158.329 71.8744 158.076 70.9621 158.182 69.9205C158.288 68.8789 158.72 68.0364 159.478 67.393C160.235 66.7496 161.097 66.4771 162.064 66.5755C163.134 66.6844 163.915 67.1622 164.407 68.0087ZM160.171 71.7586C160.55 72.2238 161.059 72.489 161.697 72.5539C162.335 72.6189 162.887 72.4618 163.352 72.0825C163.818 71.6938 164.084 71.1758 164.15 70.5283C164.216 69.8808 164.059 69.3244 163.68 68.8591C163.302 68.3845 162.794 68.1146 162.156 68.0497C161.517 67.9847 160.965 68.1465 160.499 68.5352C160.034 68.9145 159.768 69.4278 159.702 70.0753C159.637 70.7134 159.793 71.2745 160.171 71.7586ZM167.678 72.7364L169.367 72.9084L168.009 76.4678L166.743 76.3388L167.678 72.7364ZM178.249 70.4138L181.859 75.887L179.93 75.6906L176.523 70.6077L176.045 75.295L174.427 75.1302L175.43 65.2771L177.049 65.4419L176.599 69.8617L180.793 65.8232L182.721 66.0195L178.249 70.4138ZM188.352 70.447L188.454 69.4477L189.974 69.6025L189.257 76.6404L187.737 76.4856L187.84 75.4721C187.187 76.2115 186.325 76.5267 185.255 76.4177C184.289 76.3193 183.499 75.8786 182.887 75.0957C182.275 74.3128 182.021 73.4005 182.127 72.3589C182.234 71.3173 182.665 70.4748 183.423 69.8313C184.181 69.1879 185.043 68.9154 186.009 69.0138C187.079 69.1228 187.86 69.6005 188.352 70.447ZM184.116 74.1969C184.496 74.6622 185.004 74.9273 185.642 74.9923C186.28 75.0573 186.832 74.9001 187.297 74.5208C187.764 74.1322 188.03 73.6141 188.096 72.9666C188.162 72.3191 188.005 71.7627 187.626 71.2975C187.247 70.8228 186.739 70.553 186.101 70.488C185.463 70.423 184.911 70.5849 184.444 70.9735C183.979 71.3528 183.714 71.8662 183.648 72.5137C183.583 73.1518 183.739 73.7129 184.116 74.1969ZM195.748 70.0055C196.705 70.103 197.494 70.5484 198.115 71.3416C198.728 72.1246 198.981 73.0322 198.876 74.0644C198.77 75.106 198.338 75.9485 197.581 76.5919C196.823 77.2354 195.961 77.5079 194.994 77.4094C193.934 77.3015 193.153 76.8237 192.651 75.9762L192.263 79.7908L190.743 79.636L191.746 69.7829L193.266 69.9377L193.163 70.9511C193.817 70.2118 194.678 69.8966 195.748 70.0055ZM193.376 75.1399C193.756 75.6051 194.264 75.8703 194.903 75.9353C195.541 76.0002 196.092 75.8431 196.558 75.4638C197.024 75.0751 197.29 74.5571 197.356 73.9096C197.422 73.2621 197.265 72.7057 196.886 72.2404C196.508 71.7658 195.999 71.496 195.361 71.431C194.723 71.366 194.171 71.5278 193.705 71.9165C193.239 72.2958 192.974 72.8092 192.908 73.4566C192.843 74.0948 192.999 74.6558 193.376 75.1399ZM206.084 72.2527L206.186 71.2533L207.706 71.4081L206.99 78.446L205.47 78.2912L205.573 77.2778C204.919 78.0171 204.057 78.3323 202.988 78.2234C202.021 78.125 201.232 77.6843 200.619 76.9014C200.007 76.1184 199.754 75.2062 199.86 74.1645C199.966 73.1229 200.398 72.2804 201.155 71.637C201.913 70.9936 202.775 70.7211 203.742 70.8195C204.811 70.9284 205.592 71.4062 206.084 72.2527ZM201.849 76.0026C202.228 76.4678 202.736 76.733 203.375 76.798C204.013 76.8629 204.564 76.7058 205.03 76.3265C205.496 75.9378 205.762 75.4198 205.828 74.7723C205.894 74.1248 205.737 73.5684 205.358 73.1031C204.98 72.6285 204.471 72.3587 203.833 72.2937C203.195 72.2287 202.643 72.3905 202.177 72.7792C201.711 73.1585 201.446 73.6719 201.38 74.3193C201.315 74.9575 201.471 75.5185 201.849 76.0026ZM209.478 71.5886L214.194 72.0687L214.045 73.5326L210.849 73.2072L210.282 78.7813L208.762 78.6265L209.478 71.5886ZM220.422 73.7126L220.523 72.7132L222.043 72.868L221.327 79.906L219.807 79.7512L219.91 78.7377C219.256 79.4771 218.394 79.7923 217.325 79.6833C216.358 79.5849 215.569 79.1442 214.956 78.3613C214.344 77.5784 214.091 76.6661 214.197 75.6245C214.303 74.5829 214.735 73.7403 215.492 73.0969C216.25 72.4535 217.112 72.181 218.079 72.2794C219.148 72.3884 219.929 72.8661 220.422 73.7126ZM216.186 77.4625C216.565 77.9278 217.074 78.1929 217.712 78.2579C218.35 78.3229 218.901 78.1657 219.367 77.7864C219.833 77.3978 220.099 76.8797 220.165 76.2322C220.231 75.5847 220.074 75.0283 219.695 74.5631C219.317 74.0884 218.808 73.8186 218.17 73.7536C217.532 73.6886 216.98 73.8505 216.514 74.2391C216.049 74.6184 215.783 75.1318 215.717 75.7793C215.652 76.4174 215.808 76.9785 216.186 77.4625ZM228.274 76.3326L228.559 73.5315L230.079 73.6863L229.362 80.7242L227.842 80.5694L228.128 77.7683L224.904 77.4401L224.619 80.2412L223.099 80.0864L223.815 73.0485L225.336 73.2033L225.05 76.0044L228.274 76.3326ZM238.036 74.4966L237.466 80.0988L238.409 80.1948L238.071 83.5167L236.579 83.3648L236.771 81.4786L231.943 80.987L231.751 82.8732L230.259 82.7212L230.597 79.3993L231.456 79.4868C231.948 78.9301 232.251 78.1029 232.362 77.005L232.673 73.9505L238.036 74.4966ZM233.131 79.6573L235.974 79.9469L236.402 75.7382L234.024 75.4959L233.854 77.1569C233.751 78.1704 233.51 79.0038 233.131 79.6573ZM245.412 76.2574L245.513 75.258L247.034 75.4128L246.317 82.4507L244.797 82.2959L244.9 81.2824C244.246 82.0218 243.385 82.337 242.315 82.2281C241.348 82.1296 240.559 81.689 239.946 80.906C239.334 80.1231 239.081 79.2108 239.187 78.1692C239.293 77.1276 239.725 76.2851 240.483 75.6417C241.24 74.9982 242.102 74.7257 243.069 74.8242C244.139 74.9331 244.92 75.4108 245.412 76.2574ZM241.176 80.0072C241.555 80.4725 242.064 80.7376 242.702 80.8026C243.34 80.8676 243.892 80.7104 244.357 80.3312C244.823 79.9425 245.089 79.4244 245.155 78.7769C245.221 78.1295 245.064 77.5731 244.685 77.1078C244.307 76.6331 243.799 76.3633 243.16 76.2983C242.522 76.2334 241.97 76.3952 241.504 76.7839C241.039 77.1631 240.773 77.6765 240.707 78.324C240.642 78.9621 240.798 79.5232 241.176 80.0072ZM248.683 80.985L250.372 81.157L249.014 84.7164L247.747 84.5874L248.683 80.985ZM256.435 73.5257L263.684 74.2639L262.681 84.117L261.062 83.9522L261.908 75.6474L257.896 75.2389L257.05 83.5437L255.432 83.3788L256.435 73.5257ZM271.648 82.1289L266.045 81.5584C266.104 82.0954 266.316 82.5294 266.681 82.8604C267.055 83.1924 267.537 83.3885 268.128 83.4487C268.926 83.5299 269.561 83.3006 270.033 82.7609L271.211 83.6204C270.422 84.5735 269.342 84.9803 267.972 84.8407C266.837 84.7251 265.948 84.2838 265.306 83.5168C264.673 82.7413 264.412 81.8187 264.521 80.7489C264.627 79.7073 265.063 78.8653 265.83 78.2228C266.588 77.5794 267.516 77.3136 268.614 77.4254C269.637 77.5295 270.444 77.9768 271.037 78.7672C271.63 79.5576 271.873 80.4689 271.768 81.5012C271.749 81.6889 271.709 81.8981 271.648 82.1289ZM266.157 80.3183L270.296 80.7397C270.249 80.1755 270.058 79.7247 269.722 79.3871C269.396 79.0505 268.975 78.8559 268.459 78.8034C267.896 78.746 267.411 78.8531 267.004 79.1246C266.597 79.396 266.315 79.7939 266.157 80.3183ZM272.445 78.0004L278.568 78.6239L278.419 80.0878L276.124 79.8541L275.557 85.4282L274.037 85.2734L274.604 79.6993L272.296 79.4643L272.445 78.0004ZM283.599 78.9513C284.556 79.0487 285.345 79.4941 285.966 80.2874C286.578 81.0703 286.832 81.9779 286.726 83.0101C286.62 84.0517 286.189 84.8943 285.431 85.5377C284.673 86.1811 283.811 86.4536 282.845 86.3552C281.784 86.2472 281.003 85.7695 280.502 84.922L280.113 88.7365L278.593 88.5817L279.596 78.7286L281.117 78.8834L281.013 79.8969C281.667 79.1575 282.529 78.8423 283.599 78.9513ZM281.227 84.0856C281.606 84.5509 282.115 84.816 282.753 84.881C283.391 84.946 283.943 84.7888 284.408 84.4096C284.874 84.0209 285.14 83.5028 285.206 82.8553C285.272 82.2078 285.116 81.6515 284.736 81.1862C284.358 80.7115 283.85 80.4417 283.212 80.3767C282.574 80.3117 282.021 80.4736 281.555 80.8622C281.09 81.2415 280.824 81.7549 280.758 82.4024C280.693 83.0405 280.85 83.6016 281.227 84.0856ZM293.79 86.3889C293.005 87.0295 292.091 87.2967 291.049 87.1906C290.008 87.0846 289.167 86.6386 288.526 85.8528C287.877 85.0567 287.605 84.1425 287.71 83.1103C287.815 82.0781 288.266 81.2375 289.062 80.5885C289.848 79.9479 290.762 79.6807 291.803 79.7867C292.845 79.8928 293.686 80.3387 294.326 81.1245C294.975 81.9207 295.247 82.8349 295.142 83.8671C295.037 84.8993 294.586 85.7399 293.79 86.3889ZM289.23 83.2651C289.165 83.9032 289.323 84.4549 289.702 84.9202C290.081 85.3854 290.58 85.6496 291.2 85.7127C291.819 85.7757 292.361 85.6176 292.827 85.2384C293.292 84.8591 293.557 84.3504 293.622 83.7123C293.687 83.0742 293.53 82.5225 293.151 82.0572C292.771 81.5919 292.272 81.3278 291.653 81.2647C291.033 81.2016 290.491 81.3597 290.026 81.739C289.56 82.1183 289.295 82.627 289.23 83.2651ZM296.875 80.4881L303.139 81.1259L302.422 88.1639L300.902 88.0091L301.473 82.4069L298.249 82.0786L297.679 87.6808L296.158 87.526L296.875 80.4881ZM310.375 82.8725L310.477 81.8732L311.997 82.028L311.28 89.0659L309.76 88.9111L309.863 87.8976C309.21 88.637 308.348 88.9522 307.278 88.8432C306.312 88.7448 305.522 88.3041 304.91 87.5212C304.297 86.7383 304.044 85.826 304.15 84.7844C304.256 83.7428 304.688 82.9003 305.446 82.2568C306.204 81.6134 307.066 81.3409 308.032 81.4393C309.102 81.5483 309.883 82.026 310.375 82.8725ZM306.139 86.6224C306.518 87.0877 307.027 87.3528 307.665 87.4178C308.303 87.4828 308.855 87.3256 309.32 86.9463C309.786 86.5577 310.053 86.0396 310.118 85.3921C310.184 84.7446 310.028 84.1882 309.648 83.723C309.27 83.2483 308.762 82.9785 308.124 82.9135C307.486 82.8485 306.934 83.0104 306.467 83.399C306.002 83.7783 305.736 84.2917 305.671 84.9392C305.606 85.5773 305.762 86.1384 306.139 86.6224ZM314.165 87.397C314.456 87.4266 314.694 87.5552 314.879 87.7827C315.065 88.0101 315.143 88.2693 315.113 88.5602C315.084 88.8511 314.955 89.0893 314.728 89.2747C314.5 89.4601 314.241 89.538 313.95 89.5084C313.659 89.4788 313.421 89.3502 313.235 89.1228C313.05 88.8953 312.972 88.6361 313.002 88.3452C313.031 88.0543 313.155 87.8157 313.373 87.6293C313.601 87.4439 313.865 87.3664 314.165 87.397ZM318.139 88.8684C318.11 89.1593 317.981 89.3974 317.754 89.5829C317.526 89.7683 317.267 89.8462 316.976 89.8166C316.685 89.7869 316.447 89.6584 316.262 89.4309C316.076 89.2035 315.998 88.9443 316.028 88.6534C316.058 88.3625 316.186 88.1243 316.414 87.9389C316.641 87.7535 316.9 87.6756 317.191 87.7052C317.482 87.7348 317.72 87.8633 317.906 88.0908C318.091 88.3183 318.169 88.5775 318.139 88.8684ZM320.218 88.0133C320.509 88.043 320.747 88.1715 320.932 88.399C321.118 88.6265 321.195 88.8856 321.166 89.1765C321.136 89.4674 321.008 89.7056 320.78 89.891C320.553 90.0764 320.293 90.1544 320.003 90.1247C319.712 90.0951 319.474 89.9666 319.288 89.7391C319.103 89.5116 319.025 89.2524 319.054 88.9615C319.084 88.6706 319.208 88.432 319.426 88.2456C319.653 88.0602 319.917 87.9828 320.218 88.0133Z" fill="#09090C"/>
<path d="M340.762 79.4661L343.923 83.3434L347.8 80.1827" stroke="#92A2BB" stroke-width="1.32644" stroke-linecap="round" stroke-linejoin="round"/>
<rect x="41.6226" y="88.5594" width="320.997" height="45.0988" rx="13.7065" transform="rotate(5.81435 41.6226 88.5594)" fill="white"/>
<rect x="41.6226" y="88.5594" width="320.997" height="45.0988" rx="13.7065" transform="rotate(5.81435 41.6226 88.5594)" stroke="#E9EEFF" stroke-width="0.884291"/>
<path d="M57.7519 105.166C56.8135 105.07 56.0737 104.684 55.5323 104.006C54.9856 103.323 54.7574 102.538 54.8476 101.652C54.9378 100.767 55.3195 100.044 55.9927 99.4845C56.6595 98.9302 57.4621 98.7008 58.4005 98.7964C58.9636 98.8537 59.4686 99.0444 59.9156 99.3684C60.3631 99.6866 60.6953 100.091 60.9121 100.581L60.3344 100.842C60.179 100.447 59.9221 100.119 59.5636 99.857C59.2051 99.5953 58.7971 99.4412 58.3396 99.3946C57.5654 99.3158 56.9125 99.5011 56.3808 99.9507C55.8427 100.405 55.5369 100.994 55.4634 101.715C55.3899 102.436 55.5709 103.074 56.0064 103.628C56.4365 104.175 57.0387 104.489 57.8129 104.567C58.2703 104.614 58.701 104.545 59.1049 104.361C59.5088 104.177 59.8267 103.907 60.0584 103.552L60.5725 103.915C60.2732 104.353 59.869 104.685 59.36 104.912C58.851 105.138 58.315 105.223 57.7519 105.166ZM63.1675 104.891L64.968 101.35L65.5839 101.412L63.2121 106.024C62.9908 106.452 62.7095 106.77 62.3683 106.978C62.0324 107.193 61.6753 107.266 61.2971 107.198L61.3526 106.652C61.8739 106.771 62.3067 106.507 62.651 105.86L62.7931 105.599L61.2731 100.973L61.889 101.036L63.1675 104.891ZM69.9277 101.855L70.5963 101.923L70.1484 106.321L69.5678 106.262L69.9252 102.752L68.1313 105.094L68.0609 105.087L66.7757 102.431L66.4183 105.942L65.8377 105.882L66.2856 101.484L66.9542 101.552L68.1955 104.114L69.9277 101.855ZM75.4691 102.419L76.1377 102.487L75.6898 106.886L75.1091 106.827L75.4666 103.316L73.6726 105.658L73.6022 105.651L72.3171 102.996L71.9596 106.506L71.379 106.447L71.8269 102.048L72.4955 102.116L73.7368 104.678L75.4691 102.419ZM81.0634 103.86L81.1512 102.997L81.7318 103.057L81.2839 107.455L80.7032 107.396L80.791 106.534C80.3207 107.138 79.6955 107.4 78.9154 107.321C78.2879 107.257 77.7739 106.979 77.3736 106.488C76.9791 105.998 76.8147 105.43 76.8804 104.785C76.9461 104.14 77.2216 103.617 77.7068 103.216C78.1979 102.815 78.7573 102.647 79.3848 102.711C80.1649 102.79 80.7244 103.173 81.0634 103.86ZM77.8362 106.135C78.1364 106.504 78.5299 106.713 79.0167 106.762C79.5035 106.812 79.9311 106.686 80.2994 106.386C80.669 106.074 80.8782 105.678 80.9272 105.197C80.9768 104.71 80.8514 104.282 80.5512 103.914C80.2515 103.54 79.8583 103.328 79.3715 103.278C78.8847 103.229 78.4568 103.357 78.0879 103.663C77.7195 103.964 77.5106 104.357 77.461 104.844C77.412 105.325 77.5371 105.755 77.8362 106.135ZM88.4551 107.626C87.9588 108.019 87.3909 108.184 86.7516 108.119C86.1006 108.052 85.5747 107.777 85.1737 107.291C84.7734 106.8 84.6063 106.229 84.6726 105.578C84.7389 104.927 85.0173 104.404 85.5079 104.01C85.999 103.61 86.5701 103.443 87.2211 103.509C87.8662 103.575 88.3889 103.853 88.7893 104.344C89.1961 104.83 89.3664 105.398 89.3001 106.049C89.2344 106.695 88.9527 107.22 88.4551 107.626ZM85.6284 106.929C85.9287 107.297 86.3222 107.506 86.809 107.556C87.2958 107.605 87.7233 107.48 88.0917 107.18C88.4612 106.868 88.6705 106.471 88.7194 105.99C88.769 105.504 88.6437 105.076 88.3434 104.708C88.0437 104.333 87.6505 104.121 87.1637 104.072C86.6769 104.022 86.2491 104.151 85.8801 104.457C85.5118 104.757 85.3028 105.151 85.2533 105.637C85.2043 106.118 85.3293 106.549 85.6284 106.929ZM89.796 103.878L93.4909 104.254L93.4336 104.817L91.8764 104.658L91.4858 108.494L90.9052 108.435L91.2958 104.599L89.7387 104.441L89.796 103.878Z" fill="#92A2BB"/>
<path d="M53.2486 114.203L55.9317 113.551L57.3393 113.695L56.336 123.548L54.7172 123.383L55.5443 115.261L53.5022 115.622L53.2486 114.203ZM64.7931 123.186C64.0229 124.046 63.0278 124.414 61.8079 124.29C60.5974 124.167 59.6922 123.605 59.0924 122.606C58.5114 121.608 58.2997 120.335 58.4573 118.786C58.615 117.238 59.079 116.034 59.8492 115.173C60.6382 114.315 61.638 113.948 62.8485 114.071C64.0684 114.195 64.9689 114.756 65.5499 115.754C66.1413 116.743 66.3577 118.017 66.1991 119.575C66.0404 121.132 65.5718 122.336 64.7931 123.186ZM61.9684 122.714C62.7004 122.788 63.2898 122.54 63.7366 121.969C64.1835 121.398 64.4647 120.545 64.5803 119.41C64.696 118.274 64.5925 117.382 64.2698 116.733C63.9472 116.084 63.4199 115.722 62.688 115.647C61.9654 115.574 61.376 115.822 60.9198 116.392C60.4729 116.963 60.1917 117.816 60.0761 118.951C59.9604 120.087 60.064 120.979 60.3866 121.628C60.7186 122.278 61.2459 122.64 61.9684 122.714ZM77.1782 124.447C76.408 125.307 75.4129 125.675 74.193 125.551C72.9825 125.428 72.0773 124.866 71.4775 123.867C70.8965 122.869 70.6848 121.596 70.8425 120.047C71.0001 118.499 71.4641 117.295 72.2343 116.435C73.0233 115.576 74.0231 115.209 75.2336 115.332C76.4535 115.456 77.354 116.017 77.935 117.015C78.5264 118.005 78.7428 119.278 78.5842 120.836C78.4256 122.394 77.9569 123.597 77.1782 124.447ZM74.3535 123.975C75.0855 124.049 75.6749 123.801 76.1217 123.23C76.5686 122.66 76.8498 121.806 76.9655 120.671C77.0811 119.536 76.9776 118.643 76.6549 117.994C76.3323 117.345 75.805 116.983 75.0731 116.909C74.3505 116.835 73.7611 117.083 73.3049 117.653C72.858 118.224 72.5768 119.077 72.4612 120.212C72.3456 121.348 72.4491 122.24 72.7717 122.889C73.1037 123.539 73.631 123.901 74.3535 123.975ZM86.0444 125.35C85.2741 126.21 84.2791 126.578 83.0592 126.454C81.8486 126.331 80.9435 125.769 80.3437 124.77C79.7626 123.772 79.5509 122.499 79.7086 120.95C79.8663 119.402 80.3302 118.198 81.1005 117.337C81.8895 116.479 82.8892 116.112 84.0998 116.235C85.3197 116.359 86.2201 116.92 86.8012 117.918C87.3926 118.907 87.6089 120.181 87.4503 121.739C87.2917 123.296 86.8231 124.5 86.0444 125.35ZM83.2197 124.878C83.9516 124.952 84.541 124.704 84.9879 124.133C85.4347 123.562 85.716 122.709 85.8316 121.574C85.9472 120.438 85.8437 119.546 85.5211 118.897C85.1985 118.248 84.6712 117.886 83.9392 117.811C83.2167 117.738 82.6273 117.986 82.171 118.556C81.7242 119.127 81.4429 119.98 81.3273 121.115C81.2117 122.251 81.3152 123.143 81.6378 123.792C81.9698 124.442 82.4971 124.804 83.2197 124.878ZM94.9105 126.253C94.1403 127.113 93.1452 127.481 91.9253 127.357C90.7148 127.234 89.8096 126.672 89.2098 125.672C88.6288 124.675 88.4171 123.401 88.5747 121.853C88.7324 120.305 89.1964 119.101 89.9666 118.24C90.7556 117.382 91.7554 117.014 92.9659 117.138C94.1858 117.262 95.0863 117.823 95.6673 118.821C96.2587 119.81 96.4751 121.084 96.3165 122.641C96.1578 124.199 95.6892 125.403 94.9105 126.253ZM92.0858 125.78C92.8178 125.855 93.4072 125.607 93.854 125.036C94.3009 124.465 94.5821 123.612 94.6977 122.477C94.8134 121.341 94.7099 120.449 94.3872 119.8C94.0646 119.151 93.5373 118.789 92.8054 118.714C92.0828 118.641 91.4934 118.889 91.0372 119.459C90.5903 120.029 90.3091 120.883 90.1935 122.018C90.0778 123.153 90.1813 124.046 90.504 124.695C90.836 125.345 91.3633 125.707 92.0858 125.78ZM107.296 127.514C106.525 128.374 105.53 128.742 104.31 128.618C103.1 128.495 102.195 127.933 101.595 126.934C101.014 125.936 100.802 124.663 100.96 123.114C101.118 121.566 101.581 120.362 102.352 119.501C103.141 118.643 104.14 118.276 105.351 118.399C106.571 118.523 107.471 119.084 108.052 120.082C108.644 121.071 108.86 122.345 108.702 123.903C108.543 125.46 108.074 126.664 107.296 127.514ZM104.471 127.042C105.203 127.116 105.792 126.868 106.239 126.297C106.686 125.726 106.967 124.873 107.083 123.738C107.198 122.602 107.095 121.71 106.772 121.061C106.45 120.412 105.922 120.05 105.19 119.975C104.468 119.902 103.879 120.15 103.422 120.72C102.975 121.291 102.694 122.144 102.579 123.279C102.463 124.415 102.566 125.307 102.889 125.956C103.221 126.606 103.748 126.968 104.471 127.042ZM116.162 128.417C115.392 129.277 114.396 129.645 113.177 129.521C111.966 129.398 111.061 128.836 110.461 127.836C109.88 126.839 109.668 125.565 109.826 124.017C109.984 122.469 110.448 121.265 111.218 120.404C112.007 119.546 113.007 119.178 114.217 119.302C115.437 119.426 116.338 119.987 116.919 120.985C117.51 121.974 117.726 123.248 117.568 124.805C117.409 126.363 116.94 127.567 116.162 128.417ZM113.337 127.944C114.069 128.019 114.658 127.771 115.105 127.2C115.552 126.629 115.833 125.776 115.949 124.641C116.065 123.505 115.961 122.613 115.638 121.964C115.316 121.315 114.789 120.953 114.057 120.878C113.334 120.805 112.745 121.053 112.288 121.623C111.842 122.193 111.56 123.047 111.445 124.182C111.329 125.317 111.433 126.21 111.755 126.859C112.087 127.509 112.615 127.871 113.337 127.944ZM125.028 129.32C124.258 130.18 123.263 130.548 122.043 130.424C120.832 130.3 119.927 129.739 119.327 128.739C118.746 127.741 118.534 126.468 118.692 124.92C118.85 123.372 119.314 122.167 120.084 121.307C120.873 120.449 121.873 120.081 123.083 120.205C124.303 120.329 125.204 120.89 125.785 121.888C126.376 122.877 126.592 124.151 126.434 125.708C126.275 127.266 125.807 128.47 125.028 129.32ZM122.203 128.847C122.935 128.922 123.525 128.674 123.971 128.103C124.418 127.532 124.7 126.679 124.815 125.543C124.931 124.408 124.827 123.516 124.505 122.867C124.182 122.217 123.655 121.856 122.923 121.781C122.2 121.708 121.611 121.956 121.155 122.525C120.708 123.096 120.426 123.949 120.311 125.085C120.195 126.22 120.299 127.113 120.621 127.762C120.953 128.412 121.481 128.774 122.203 128.847ZM135.15 131.574L133.025 131.357L133.587 125.839L130.856 125.561L131.037 123.788L138.623 124.56L138.443 126.334L135.712 126.056L135.15 131.574ZM131.317 121.029L138.904 121.801L138.724 123.575L131.137 122.802L131.317 121.029Z" fill="#09090C"/>
<g clip-path="url(#clip0_102_5217)">
<path d="M335.962 138.893L335.962 138.893C335.583 139.202 335.526 139.759 335.835 140.137L336.178 139.858L335.835 140.137L336.766 141.28L335.624 142.211L335.624 142.211C335.245 142.519 335.189 143.076 335.497 143.455L335.84 143.176L335.497 143.455C335.806 143.834 336.363 143.89 336.741 143.582L337.884 142.65L338.815 143.793C339.123 144.171 339.68 144.228 340.059 143.92C340.438 143.611 340.494 143.054 340.186 142.675L339.254 141.533L340.397 140.602C340.397 140.602 340.397 140.602 340.397 140.602C340.775 140.293 340.832 139.736 340.523 139.358L340.523 139.358C340.215 138.979 339.658 138.922 339.279 139.231L339.559 139.574L339.279 139.231L338.137 140.162L337.206 139.02C336.897 138.641 336.34 138.585 335.962 138.893ZM332.146 140.809C332.475 137.57 335.369 135.212 338.608 135.541C341.847 135.871 344.205 138.764 343.875 142.004C343.546 145.243 340.652 147.601 337.413 147.271C334.174 146.941 331.816 144.048 332.146 140.809Z" fill="#92A2BB" stroke="#92A2BB" stroke-width="0.884291"/>
</g>
<rect x="35.1362" y="147.897" width="115.446" height="38.223" rx="14.1486" transform="rotate(5.81435 35.1362 147.897)" fill="#285CB6"/>
<path d="M55.9707 162.792L63.2197 163.53L62.2164 173.383L60.5977 173.218L61.4434 164.913L57.4317 164.505L56.5861 172.81L54.9673 172.645L55.9707 162.792ZM68.8111 166.759C69.7683 166.856 70.5573 167.301 71.1781 168.095C71.7905 168.878 72.0442 169.785 71.939 170.817C71.833 171.859 71.4011 172.702 70.6435 173.345C69.8858 173.988 69.0237 174.261 68.0572 174.163C66.9968 174.055 66.2158 173.577 65.7143 172.729L65.3259 176.544L63.8057 176.389L64.809 166.536L66.3292 166.691L66.226 167.704C66.8797 166.965 67.7414 166.65 68.8111 166.759ZM66.4395 171.893C66.8187 172.358 67.3274 172.623 67.9655 172.688C68.6036 172.753 69.1553 172.596 69.6206 172.217C70.0868 171.828 70.3529 171.31 70.4188 170.663C70.4848 170.015 70.3281 169.459 69.9488 168.994C69.5705 168.519 69.0623 168.249 68.4242 168.184C67.7861 168.119 67.2339 168.281 66.7677 168.67C66.3024 169.049 66.0368 169.562 65.9709 170.21C65.9059 170.848 66.0621 171.409 66.4395 171.893ZM74.7128 172.053L78.7706 167.958L79.9389 168.077L79.2222 175.115L77.7302 174.963L78.186 170.486L74.1268 174.596L72.9585 174.477L73.6752 167.439L75.1672 167.591L74.7128 172.053ZM87.3331 168.83L88.8815 168.987L88.1648 176.025L86.6869 175.875L87.1584 171.244L84.8033 174.261L84.6203 174.242L82.9342 170.828L82.4641 175.445L80.9861 175.294L81.7028 168.256L83.2511 168.414L84.961 171.873L87.3331 168.83ZM97.012 174.025L91.4099 173.454C91.4689 173.991 91.6807 174.425 92.0452 174.756C92.4191 175.088 92.9017 175.284 93.4929 175.345C94.2905 175.426 94.9254 175.197 95.3975 174.657L96.5757 175.516C95.7865 176.469 94.7069 176.876 93.3369 176.737C92.2014 176.621 91.3125 176.18 90.67 175.413C90.0379 174.637 89.7763 173.715 89.8852 172.645C89.9913 171.603 90.4278 170.761 91.1949 170.119C91.9525 169.475 92.8803 169.21 93.9782 169.321C95.0011 169.426 95.8088 169.873 96.4015 170.663C96.9942 171.454 97.238 172.365 97.1328 173.397C97.1137 173.585 97.0735 173.794 97.012 174.025ZM91.5219 172.214L95.6602 172.636C95.6134 172.071 95.4222 171.621 95.0869 171.283C94.7608 170.946 94.3398 170.752 93.8237 170.699C93.2606 170.642 92.7757 170.749 92.3688 171.021C91.9619 171.292 91.6796 171.69 91.5219 172.214ZM103.289 173.284L103.574 170.483L105.094 170.638L104.377 177.676L102.857 177.521L103.142 174.72L99.919 174.392L99.6338 177.193L98.1136 177.038L98.8303 170L100.35 170.155L100.065 172.956L103.289 173.284ZM107.896 175.432L111.953 171.337L113.122 171.456L112.405 178.494L110.913 178.342L111.369 173.865L107.31 177.975L106.141 177.856L106.858 170.818L108.35 170.97L107.896 175.432ZM114.14 171.559L120.263 172.183L120.113 173.647L117.819 173.413L117.251 178.987L115.731 178.832L116.299 173.258L113.99 173.023L114.14 171.559ZM122.568 174.835L124.116 174.993C124.876 175.07 125.469 175.349 125.894 175.828C126.33 176.299 126.512 176.882 126.441 177.576C126.372 178.261 126.075 178.795 125.553 179.178C125.04 179.562 124.403 179.715 123.643 179.638L120.574 179.325L121.291 172.287L122.811 172.442L122.568 174.835ZM122.234 178.115L123.796 178.274C124.096 178.305 124.354 178.241 124.569 178.082C124.794 177.925 124.921 177.706 124.949 177.424C124.978 177.143 124.903 176.903 124.724 176.704C124.545 176.506 124.301 176.391 123.991 176.36L122.429 176.201L122.234 178.115Z" fill="white"/>
<rect x="164.459" y="161.51" width="133.562" height="37.3387" rx="13.7065" transform="rotate(5.81435 164.459 161.51)" stroke="#E9EEFF" stroke-width="0.884291"/>
<path d="M188.894 186.467C187.411 186.316 186.231 185.703 185.355 184.628C184.48 183.534 184.116 182.269 184.262 180.833C184.409 179.388 185.021 178.227 186.096 177.351C187.163 176.464 188.442 176.096 189.934 176.248C190.826 176.339 191.625 176.634 192.333 177.132C193.05 177.632 193.583 178.265 193.932 179.03L192.441 179.703C192.228 179.189 191.882 178.765 191.404 178.432C190.937 178.09 190.393 177.888 189.774 177.825C188.732 177.719 187.844 177.965 187.11 178.563C186.396 179.154 185.986 179.966 185.881 180.998C185.776 182.03 186.014 182.908 186.594 183.63C187.193 184.365 188.013 184.785 189.054 184.891C189.674 184.954 190.251 184.87 190.786 184.64C191.323 184.401 191.742 184.05 192.045 183.588L193.371 184.534C192.895 185.206 192.25 185.723 191.436 186.086C190.651 186.433 189.804 186.56 188.894 186.467ZM197.629 187.357C196.559 187.248 195.712 186.811 195.088 186.046C194.485 185.273 194.238 184.342 194.349 183.254C194.469 182.072 194.741 181.17 195.165 180.55C195.578 179.937 196.361 179.415 197.514 178.983C197.554 178.968 197.618 178.946 197.706 178.917C197.805 178.879 197.908 178.843 198.016 178.806C198.124 178.77 198.232 178.733 198.34 178.697C198.752 178.559 199.008 178.471 199.106 178.434C199.165 178.411 199.34 178.325 199.63 178.174C199.983 177.973 200.237 177.662 200.394 177.242L201.559 178.086C201.46 178.597 201.088 179.038 200.443 179.409C200.33 179.492 200.127 179.585 199.832 179.688L199.198 179.908L198.464 180.132C197.829 180.314 197.353 180.516 197.037 180.74C196.72 180.964 196.485 181.267 196.333 181.65C196.961 181.069 197.758 180.828 198.724 180.926C199.55 181.01 200.238 181.379 200.788 182.032C201.347 182.687 201.579 183.483 201.483 184.421C201.386 185.378 200.977 186.133 200.257 186.686C199.546 187.239 198.67 187.463 197.629 187.357ZM197.759 185.934C198.351 185.994 198.852 185.869 199.262 185.56C199.674 185.242 199.907 184.811 199.963 184.266C200.019 183.713 199.878 183.239 199.539 182.844C199.209 182.45 198.749 182.223 198.158 182.163C197.632 182.109 197.141 182.23 196.684 182.525C196.23 182.801 195.974 183.22 195.916 183.783C195.859 184.346 196.009 184.831 196.365 185.237C196.722 185.643 197.187 185.875 197.759 185.934ZM207.087 180.839C208.044 180.937 208.833 181.382 209.454 182.175C210.066 182.958 210.32 183.866 210.215 184.898C210.109 185.94 209.677 186.782 208.919 187.426C208.162 188.069 207.299 188.341 206.333 188.243C205.273 188.135 204.492 187.657 203.99 186.81L203.602 190.624L202.081 190.47L203.085 180.617L204.605 180.771L204.502 181.785C205.155 181.045 206.017 180.73 207.087 180.839ZM204.715 185.974C205.094 186.439 205.603 186.704 206.241 186.769C206.879 186.834 207.431 186.677 207.896 186.297C208.363 185.909 208.629 185.391 208.695 184.743C208.761 184.096 208.604 183.539 208.225 183.074C207.846 182.599 207.338 182.33 206.7 182.265C206.062 182.2 205.51 182.361 205.043 182.75C204.578 183.129 204.313 183.643 204.247 184.29C204.182 184.928 204.338 185.489 204.715 185.974ZM217.279 188.277C216.493 188.917 215.579 189.185 214.538 189.079C213.496 188.972 212.655 188.527 212.014 187.741C211.365 186.945 211.093 186.03 211.198 184.998C211.304 183.966 211.754 183.125 212.55 182.476C213.336 181.836 214.25 181.569 215.291 181.675C216.333 181.781 217.174 182.227 217.815 183.012C218.464 183.809 218.736 184.723 218.631 185.755C218.525 186.787 218.075 187.628 217.279 188.277ZM212.719 185.153C212.654 185.791 212.811 186.343 213.19 186.808C213.569 187.273 214.069 187.538 214.688 187.601C215.307 187.664 215.85 187.506 216.315 187.126C216.78 186.747 217.045 186.238 217.11 185.6C217.175 184.962 217.018 184.41 216.639 183.945C216.26 183.48 215.76 183.216 215.141 183.153C214.522 183.09 213.979 183.248 213.514 183.627C213.049 184.006 212.784 184.515 212.719 185.153ZM222.95 189.935C221.89 189.827 221.039 189.38 220.399 188.595C219.768 187.8 219.506 186.887 219.611 185.855C219.718 184.804 220.159 183.962 220.935 183.33C221.721 182.69 222.644 182.423 223.704 182.531C224.389 182.601 224.996 182.829 225.526 183.215C226.055 183.6 226.433 184.084 226.658 184.667L225.272 185.293C225.146 184.939 224.929 184.652 224.62 184.431C224.321 184.201 223.96 184.065 223.538 184.022C222.919 183.959 222.376 184.117 221.911 184.496C221.454 184.886 221.194 185.39 221.131 186.01C221.068 186.629 221.221 187.175 221.59 187.649C221.969 188.114 222.469 188.379 223.088 188.442C223.501 188.484 223.881 188.428 224.229 188.273C224.586 188.111 224.867 187.869 225.07 187.548L226.303 188.428C225.946 188.96 225.464 189.362 224.858 189.632C224.262 189.903 223.626 190.004 222.95 189.935ZM229.03 187.767L233.088 183.672L234.256 183.791L233.54 190.829L232.048 190.677L232.503 186.201L228.444 190.31L227.276 190.191L227.992 183.153L229.484 183.305L229.03 187.767ZM235.274 183.894L241.397 184.518L241.248 185.982L238.954 185.748L238.386 191.322L236.866 191.167L237.433 185.593L235.125 185.358L235.274 183.894ZM243.702 187.17L245.251 187.328C246.011 187.405 246.603 187.684 247.029 188.163C247.464 188.634 247.647 189.217 247.576 189.911C247.506 190.596 247.21 191.13 246.687 191.513C246.174 191.897 245.538 192.05 244.778 191.973L241.709 191.661L242.426 184.623L243.946 184.777L243.702 187.17ZM243.368 190.45L244.931 190.609C245.231 190.64 245.489 190.576 245.704 190.418C245.929 190.26 246.055 190.041 246.084 189.759C246.113 189.478 246.037 189.238 245.858 189.04C245.68 188.841 245.435 188.726 245.126 188.695L243.563 188.536L243.368 190.45ZM257.34 189.597C258.001 189.996 258.293 190.571 258.216 191.322C258.155 191.923 257.9 192.385 257.449 192.709C257.009 193.034 256.427 193.159 255.704 193.086L252.101 192.719L252.818 185.681L256.14 186.019C256.853 186.092 257.393 186.327 257.76 186.724C258.127 187.122 258.281 187.612 258.222 188.194C258.154 188.86 257.86 189.328 257.34 189.597ZM255.895 187.303L254.136 187.123L253.977 188.686L255.736 188.865C256.355 188.928 256.692 188.697 256.745 188.171C256.798 187.655 256.514 187.366 255.895 187.303ZM253.686 191.543L255.698 191.748C256.336 191.813 256.684 191.569 256.74 191.015C256.765 190.771 256.7 190.575 256.544 190.426C256.389 190.268 256.162 190.174 255.862 190.144L253.849 189.939L253.686 191.543ZM262.552 193.968C261.492 193.86 260.641 193.413 260.001 192.627C259.371 191.833 259.108 190.92 259.213 189.887C259.32 188.836 259.761 187.995 260.537 187.363C261.323 186.722 262.246 186.456 263.306 186.564C263.991 186.634 264.598 186.861 265.128 187.247C265.658 187.633 266.035 188.117 266.26 188.699L264.874 189.326C264.749 188.972 264.531 188.684 264.222 188.463C263.923 188.234 263.562 188.098 263.14 188.055C262.521 187.991 261.978 188.15 261.513 188.529C261.056 188.918 260.796 189.423 260.733 190.042C260.67 190.662 260.823 191.208 261.192 191.682C261.571 192.147 262.071 192.411 262.69 192.474C263.103 192.516 263.483 192.46 263.831 192.306C264.189 192.143 264.469 191.902 264.672 191.581L265.906 192.46C265.548 192.993 265.066 193.394 264.46 193.664C263.864 193.935 263.228 194.037 262.552 193.968ZM273.818 192.029L268.216 191.458C268.275 191.995 268.486 192.429 268.851 192.76C269.225 193.092 269.707 193.288 270.299 193.349C271.096 193.43 271.731 193.201 272.203 192.661L273.381 193.52C272.592 194.473 271.513 194.88 270.143 194.741C269.007 194.625 268.118 194.184 267.476 193.417C266.844 192.641 266.582 191.719 266.691 190.649C266.797 189.607 267.234 188.765 268.001 188.123C268.758 187.479 269.686 187.214 270.784 187.325C271.807 187.43 272.614 187.877 273.207 188.667C273.8 189.458 274.044 190.369 273.939 191.401C273.919 191.589 273.879 191.798 273.818 192.029ZM268.328 190.218L272.466 190.64C272.419 190.076 272.228 189.625 271.893 189.287C271.567 188.951 271.145 188.756 270.629 188.703C270.066 188.646 269.581 188.753 269.174 189.025C268.768 189.296 268.485 189.694 268.328 190.218Z" fill="#92A2BB"/>
</g>
<defs>
<filter id="filter0_d_102_5217" x="-0.818857" y="-34.8189" width="1082.76" height="354.592" filterUnits="userSpaceOnUse" color-interpolation-filters="sRGB">
<feFlood flood-opacity="0" result="BackgroundImageFix"/>
<feColorMatrix in="SourceAlpha" type="matrix" values="0 0 0 0 0 0 0 0 0 0 0 0 0 0 0 0 0 0 127 0" result="hardAlpha"/>
<feOffset/>
<feGaussianBlur stdDeviation="4.40943"/>
<feComposite in2="hardAlpha" operator="out"/>
<feColorMatrix type="matrix" values="0 0 0 0 0.862745 0 0 0 0 0.913725 0 0 0 0 1 0 0 0 1 0"/>
<feBlend mode="normal" in2="BackgroundImageFix" result="effect1_dropShadow_102_5217"/>
<feBlend mode="normal" in="SourceGraphic" in2="effect1_dropShadow_102_5217" result="shape"/>
</filter>
<clipPath id="clip0_102_5217">
<rect width="14.1486" height="14.1486" fill="white" transform="translate(331.689 133.652) rotate(5.81435)"/>
</clipPath>
</defs>
</svg>
