<svg width="157" height="157" viewBox="0 0 157 157" fill="none" xmlns="http://www.w3.org/2000/svg">
<g opacity="0.55" filter="url(#filter0_d_105_3169)">
<rect x="24.3672" y="5" width="112.265" height="112.265" rx="56.1324" transform="rotate(9.93383 24.3672 5)" fill="white" shape-rendering="crispEdges"/>
<path d="M120.755 79.1741C115.867 107.084 89.2794 125.746 61.3699 120.858C33.4603 115.97 14.7977 89.3826 19.6857 61.4731C24.5736 33.5636 51.1613 14.901 79.0708 19.7889C106.98 24.6769 125.643 51.2645 120.755 79.1741ZM24.7391 62.3582C20.34 87.4767 37.1363 111.406 62.2549 115.805C87.3735 120.204 111.302 103.408 115.702 78.289C120.101 53.1704 103.304 29.2416 78.1857 24.8424C53.0672 20.4432 29.1383 37.2396 24.7391 62.3582Z" fill="white"/>
<path d="M42.0675 30.2166C39.6694 26.8002 34.9132 25.9405 31.8496 28.7756C25.6066 34.5529 20.7328 41.6977 17.6353 49.6902C13.6235 60.042 12.7714 71.3509 15.1868 82.1869C17.6022 93.0229 23.1766 102.899 31.2052 110.567C37.404 116.488 44.8508 120.886 52.9565 123.465C56.9341 124.73 60.8749 121.932 61.595 117.821C62.3151 113.709 59.5259 109.857 55.6159 108.395C50.4383 106.461 45.6801 103.489 41.6454 99.6359C35.7789 94.0329 31.7056 86.8162 29.9406 78.8982C28.1756 70.9802 28.7983 62.7167 31.7297 55.1525C33.7459 49.9503 36.7918 45.2396 40.6574 41.2888C43.5766 38.3053 44.4656 33.6331 42.0675 30.2166Z" fill="#71A5FF"/>
<path d="M63.2018 63.2293L60.3343 65.8522C61.1586 66.2539 61.7712 66.8146 62.1721 67.5344C62.5849 68.2562 62.7153 69.0511 62.5633 69.9191C62.3384 71.2033 61.7284 72.1321 60.7334 72.7054C59.7621 73.2828 58.6463 73.4612 57.3859 73.2404C56.399 73.0676 55.5646 72.6886 54.8828 72.1035C54.203 71.5065 53.7646 70.7557 53.5676 69.8511L55.8847 69.0068C56.0133 70.022 56.6542 70.6306 57.8076 70.8326C58.4378 70.943 58.9514 70.8797 59.3482 70.6429C59.7591 70.3962 60.0104 70.0113 60.102 69.4881C60.1915 68.9768 60.085 68.5353 59.7824 68.1637C59.4918 67.7941 59.0313 67.5542 58.4011 67.4438L57.8661 67.3501L57.1707 65.7577L60.1943 62.9783L55.3073 62.1224L55.7102 59.8216L63.5579 61.196L63.2018 63.2293ZM71.407 68.7473C72.4396 69.639 72.8404 70.7447 72.6092 72.0646C72.4072 73.218 71.8436 74.0568 70.9184 74.581C70.0052 75.1074 68.8589 75.2498 67.4796 75.0082C66.0884 74.7646 65.0528 74.24 64.3727 73.4346C63.6927 72.6293 63.4536 71.6499 63.6556 70.4965C63.8847 69.1885 64.6314 68.2837 65.8958 67.7821C65.1361 67.0118 64.853 66.0737 65.0467 64.9679C65.2487 63.8145 65.7924 62.9845 66.6777 62.4777C67.5749 61.9731 68.6002 61.8218 69.7536 62.0238C70.9189 62.2279 71.8258 62.7176 72.4743 63.4929C73.1348 64.2704 73.364 65.2358 73.162 66.3892C72.9683 67.495 72.3833 68.2811 71.407 68.7473ZM70.6966 66.0861C70.7757 65.6342 70.6896 65.2515 70.4381 64.9378C70.1867 64.6242 69.8232 64.4257 69.3475 64.3424C68.8719 64.2591 68.4626 64.3222 68.1195 64.5318C67.7764 64.7413 67.5653 65.072 67.4862 65.5238C67.405 65.9876 67.4901 66.3762 67.7415 66.6899C67.993 67.0035 68.3565 67.202 68.8321 67.2853C69.3078 67.3686 69.7171 67.3055 70.0602 67.096C70.4033 66.8864 70.6154 66.5498 70.6966 66.0861ZM69.4472 72.4851C69.87 72.2405 70.1282 71.8507 70.2219 71.3156C70.3156 70.7805 70.2042 70.3321 69.8877 69.9703C69.5732 69.5965 69.1068 69.3555 68.4885 69.2473C67.8702 69.139 67.3497 69.2071 66.9269 69.4517C66.5063 69.6844 66.2491 70.0683 66.1554 70.6034C66.0617 71.1385 66.172 71.5929 66.4865 71.9666C66.801 72.3403 67.2673 72.5813 67.8857 72.6896C68.504 72.7978 69.0245 72.7297 69.4472 72.4851ZM79.5502 68.9418C78.8697 69.3987 78.1073 69.5531 77.2631 69.4053C76.4069 69.2553 75.7375 68.844 75.2549 68.1712C74.7841 67.5005 74.6205 66.7549 74.7642 65.9345C74.9079 65.114 75.3151 64.4684 75.9858 63.9976C76.6803 63.531 77.4497 63.3716 78.2939 63.5195C79.15 63.6694 79.8134 64.0797 80.2842 64.7504C80.7592 65.3974 80.9227 66.1429 80.7749 66.9872C80.6291 67.8195 80.2209 68.4711 79.5502 68.9418ZM75.6076 74.8692L74.6468 74.0575L84.3636 66.4392L85.3454 67.2361L75.6076 74.8692ZM76.8143 67.1391C76.9909 67.3907 77.2397 67.5445 77.5607 67.6008C77.8818 67.657 78.168 67.5968 78.4196 67.4203C78.6732 67.2318 78.8281 66.9771 78.8843 66.6561C78.9405 66.335 78.8804 66.0487 78.7038 65.7972C78.5273 65.5457 78.2785 65.3918 77.9574 65.3356C77.6364 65.2794 77.3501 65.3395 77.0986 65.5161C76.859 65.6947 76.711 65.9445 76.6548 66.2656C76.5986 66.5866 76.6518 66.8778 76.8143 67.1391ZM85.5664 75.1059C85.4227 75.9264 85.0155 76.572 84.3448 77.0428C83.6741 77.5136 82.9107 77.674 82.0546 77.5241C81.1985 77.3741 80.535 76.9638 80.0642 76.2931C79.5934 75.6224 79.4299 74.8768 79.5736 74.0564C79.7173 73.2359 80.1245 72.5903 80.7952 72.1195C81.4659 71.6487 82.2293 71.4883 83.0854 71.6383C83.9415 71.7882 84.605 72.1985 85.0757 72.8692C85.5465 73.5399 85.7101 74.2855 85.5664 75.1059ZM83.2111 75.539C83.4647 75.3506 83.6196 75.0959 83.6758 74.7748C83.732 74.4538 83.6719 74.1675 83.4953 73.916C83.3327 73.6547 83.0909 73.4959 82.7699 73.4397C82.4489 73.3834 82.1615 73.4495 81.9079 73.638C81.6683 73.8166 81.5204 74.0664 81.4642 74.3875C81.4079 74.7085 81.4611 74.9997 81.6237 75.261C81.8002 75.5125 82.049 75.6664 82.3701 75.7226C82.6911 75.7789 82.9714 75.7177 83.2111 75.539Z" fill="#71A5FF"/>
</g>
<defs>
<filter id="filter0_d_105_3169" x="-8.16363" y="-8.16412" width="173.829" height="173.829" filterUnits="userSpaceOnUse" color-interpolation-filters="sRGB">
<feFlood flood-opacity="0" result="BackgroundImageFix"/>
<feColorMatrix in="SourceAlpha" type="matrix" values="0 0 0 0 0 0 0 0 0 0 0 0 0 0 0 0 0 0 127 0" result="hardAlpha"/>
<feOffset dx="8.77608" dy="8.77608"/>
<feGaussianBlur stdDeviation="10.9701"/>
<feComposite in2="hardAlpha" operator="out"/>
<feColorMatrix type="matrix" values="0 0 0 0 0.254808 0 0 0 0 0.254808 0 0 0 0 0.254808 0 0 0 0.25 0"/>
<feBlend mode="normal" in2="BackgroundImageFix" result="effect1_dropShadow_105_3169"/>
<feBlend mode="normal" in="SourceGraphic" in2="effect1_dropShadow_105_3169" result="shape"/>
</filter>
</defs>
</svg>
