<svg width="101" height="101" viewBox="0 0 101 101" fill="none" xmlns="http://www.w3.org/2000/svg">
<g opacity="0.55" filter="url(#filter0_d_105_3492)">
<rect x="21.4404" y="6" width="61.6029" height="61.6029" rx="19.2" transform="rotate(14.5154 21.4404 6)" fill="white" fill-opacity="0.2" shape-rendering="crispEdges"/>
<rect x="21.7274" y="6.48749" width="60.8029" height="60.8029" rx="18.8" transform="rotate(14.5154 21.7274 6.48749)" stroke="white" stroke-width="0.8" shape-rendering="crispEdges"/>
<g clip-path="url(#clip0_105_3492)">
<path fill-rule="evenodd" clip-rule="evenodd" d="M32.2458 45.2624C31.6443 45.1066 31.0305 45.4679 30.8747 46.0694L30.0285 49.3366L31.1176 49.6187C30.0285 49.3366 30.0278 49.3392 30.0278 49.3392L30.0272 49.3418L30.0257 49.3475L30.0227 49.36L30.0157 49.3905C30.0108 49.4129 30.0053 49.44 29.9997 49.4715C29.9885 49.5345 29.9769 49.6151 29.9683 49.7118C29.9512 49.9054 29.9464 50.1635 29.9829 50.4723C30.0565 51.0968 30.2959 51.901 30.9011 52.7693C32.1055 54.4971 34.6593 56.3465 39.8719 57.6965C45.0845 59.0465 48.215 58.6693 50.1067 57.7433C51.0573 57.278 51.657 56.6911 52.0245 56.1809C52.2063 55.9286 52.3274 55.7006 52.4064 55.523C52.4459 55.4344 52.4748 55.3582 52.4955 55.2977C52.506 55.2674 52.5144 55.2411 52.521 55.2191L52.5296 55.1891L52.5331 55.1767L52.5346 55.171L52.5352 55.1684C52.5352 55.1684 52.5359 55.1658 51.4468 54.8837L52.5359 55.1658L53.3821 51.8986C53.5379 51.2971 53.1765 50.6832 52.5751 50.5275C51.9054 50.3522 51.2155 50.6168 50.5837 50.8999C50.5341 50.9222 50.4833 50.9433 50.4309 50.9634C49.2429 51.4199 46.7379 51.7273 41.7523 50.4361C36.7667 49.1449 34.7258 47.6601 33.9088 46.6843C33.8901 46.6619 33.862 46.6153 33.8281 46.5531C33.5314 46.0075 32.8474 45.4165 32.2458 45.2624Z" fill="#71A5FF"/>
<path fill-rule="evenodd" clip-rule="evenodd" d="M34.5022 36.5499C33.9007 36.3941 33.2868 36.7554 33.131 37.3569L32.2849 40.624L33.3739 40.9061C32.2849 40.624 32.2842 40.6267 32.2842 40.6267L32.2835 40.6293L32.2821 40.6349L32.279 40.6475L32.2721 40.6779C32.2672 40.7003 32.2617 40.7274 32.2561 40.759C32.2449 40.8219 32.2332 40.9026 32.2247 40.9992C32.2075 41.1928 32.2028 41.451 32.2392 41.7598C32.3129 42.3842 32.5523 43.1884 33.1575 44.0567C34.3619 45.7846 36.9157 47.634 42.1283 48.984C47.3409 50.334 50.4714 49.9568 52.3631 49.0308C53.3137 48.5654 53.9133 47.9785 54.2808 47.4683C54.4627 47.2161 54.5837 46.988 54.6627 46.8105C54.7023 46.7218 54.7311 46.6456 54.7519 46.5852C54.7624 46.5549 54.7708 46.5285 54.7774 46.5066L54.7859 46.4765L54.7894 46.4641L54.7909 46.4585L54.7916 46.4558C54.7916 46.4558 54.7923 46.4532 53.7032 46.1712L54.7923 46.4532L55.6384 43.1861C55.7942 42.5846 55.4329 41.9707 54.8314 41.815C54.1617 41.6396 53.4719 41.9042 52.8401 42.1874C52.7905 42.2096 52.7396 42.2308 52.6873 42.2509C51.4993 42.7073 48.9943 43.0147 44.0087 41.7235C39.0231 40.4323 36.9822 38.9475 36.1652 37.9718C36.1464 37.9494 36.1184 37.9028 36.0845 37.8405C35.7878 37.2949 35.1038 36.704 34.5022 36.5499Z" fill="#71A5FF"/>
<path fill-rule="evenodd" clip-rule="evenodd" d="M36.9705 29.3338C38.8622 28.4078 41.9927 28.0304 47.2054 29.3805C52.4179 30.7305 54.9717 32.58 56.1762 34.3078C56.7814 35.1761 57.0207 35.9803 57.0944 36.6047C57.1309 36.9135 57.126 37.1717 57.1089 37.3652C57.1004 37.4619 57.0887 37.5426 57.0775 37.6055C57.0697 37.6499 57.0606 37.6942 57.0494 37.7379C57.0388 37.7789 57.0276 37.8167 57.0084 37.8723C56.9876 37.9327 56.9588 38.0089 56.9192 38.0976C56.8403 38.2751 56.7192 38.5032 56.5373 38.7555C56.1699 39.2656 55.5702 39.8525 54.6196 40.3178C52.7279 41.2438 49.5974 41.6211 44.3848 40.2711C39.1722 38.9211 36.6184 37.0716 35.414 35.3438C34.8088 34.4755 34.5694 33.6713 34.4957 33.0469C34.4593 32.7381 34.4641 32.4799 34.4812 32.2864C34.4978 32.099 34.52 31.9925 34.5427 31.906C34.5749 31.7853 34.6201 31.668 34.6709 31.5539C34.7498 31.3765 34.871 31.1484 35.0528 30.8961C35.4203 30.386 36.0199 29.7991 36.9705 29.3338Z" fill="#71A5FF"/>
</g>
</g>
<defs>
<filter id="filter0_d_105_3492" x="-3.96923" y="-3.96923" width="108.308" height="108.307" filterUnits="userSpaceOnUse" color-interpolation-filters="sRGB">
<feFlood flood-opacity="0" result="BackgroundImageFix"/>
<feColorMatrix in="SourceAlpha" type="matrix" values="0 0 0 0 0 0 0 0 0 0 0 0 0 0 0 0 0 0 127 0" result="hardAlpha"/>
<feOffset dx="6.64615" dy="6.64615"/>
<feGaussianBlur stdDeviation="8.30769"/>
<feComposite in2="hardAlpha" operator="out"/>
<feColorMatrix type="matrix" values="0 0 0 0 0.254808 0 0 0 0 0.254808 0 0 0 0 0.254808 0 0 0 0.25 0"/>
<feBlend mode="normal" in2="BackgroundImageFix" result="effect1_dropShadow_105_3492"/>
<feBlend mode="normal" in="SourceGraphic" in2="effect1_dropShadow_105_3492" result="shape"/>
</filter>
<clipPath id="clip0_105_3492">
<rect width="36" height="36" fill="white" transform="translate(30.6265 21.6003) rotate(14.52)"/>
</clipPath>
</defs>
</svg>
