<svg width="269" height="138" viewBox="0 0 269 138" fill="none" xmlns="http://www.w3.org/2000/svg">
<g opacity="0.55" filter="url(#filter0_d_105_3446)">
<rect x="10" y="27.1802" width="230.202" height="88.149" rx="12.8" transform="rotate(-4.28002 10 27.1802)" fill="white"/>
<path d="M35.5577 49.6492L35.2837 45.9859L36.7516 45.876L37.42 54.8111L35.9521 54.9209L35.6628 51.0533L31.8335 51.3397L32.1228 55.2073L30.6549 55.3171L29.9865 46.3821L31.4544 46.2723L31.7284 49.9357L35.5577 49.6492ZM43.7617 48.8302L43.6939 47.9239L45.0724 47.8208L45.5499 54.2029L44.1713 54.3061L44.1026 53.387C43.6376 54.1492 42.9201 54.5665 41.95 54.6391C41.0735 54.7046 40.3004 54.4373 39.6309 53.837C38.9613 53.2368 38.5912 52.4644 38.5205 51.5198C38.4499 50.5753 38.7009 49.7564 39.2738 49.0632C39.8466 48.37 40.5712 47.9906 41.4477 47.925C42.4178 47.8525 43.1891 48.1542 43.7617 48.8302ZM40.5833 52.8416C40.9948 53.1959 41.49 53.3514 42.0686 53.3081C42.6473 53.2648 43.1137 53.0374 43.468 52.6258C43.8217 52.2057 43.9765 51.7021 43.9326 51.115C43.8887 50.5278 43.6609 50.0571 43.2494 49.7028C42.8371 49.34 42.3417 49.1803 41.7631 49.2235C41.1844 49.2668 40.7183 49.4985 40.3646 49.9186C40.0103 50.3302 39.8551 50.8295 39.8991 51.4167C39.9424 51.9953 40.1704 52.4703 40.5833 52.8416ZM50.7783 50.3333L50.5596 47.4103L51.9382 47.3072L52.4156 53.6893L51.037 53.7925L50.8757 51.6353C50.3876 51.8601 49.8585 51.9938 49.2884 52.0364C48.4799 52.0969 47.8356 51.9483 47.3553 51.5906C46.8744 51.2244 46.6059 50.6668 46.5499 49.918L46.3857 47.7225L47.7642 47.6194L47.9189 49.6872C47.9762 50.4531 48.4601 50.802 49.3706 50.7338C49.8897 50.695 50.3589 50.5615 50.7783 50.3333ZM58.67 47.7149L58.6022 46.8087L59.9808 46.7055L60.4582 53.0877L59.0797 53.1908L59.0109 52.2718C58.5459 53.0339 57.8284 53.4513 56.8583 53.5239C55.9818 53.5894 55.2088 53.3221 54.5392 52.7218C53.8696 52.1216 53.4995 51.3492 53.4289 50.4046C53.3582 49.46 53.6093 48.6412 54.1821 47.948C54.7549 47.2548 55.4796 46.8754 56.3561 46.8098C57.3262 46.7373 58.0975 47.039 58.67 47.7149ZM55.4916 51.7264C55.9032 52.0807 56.3983 52.2362 56.977 52.1929C57.5556 52.1496 58.0221 51.9222 58.3764 51.5106C58.73 51.0905 58.8849 50.5869 58.8409 49.9998C58.797 49.4126 58.5693 48.9419 58.1577 48.5876C57.7455 48.2248 57.2501 48.065 56.6714 48.1083C56.0928 48.1516 55.6266 48.3833 55.273 48.8034C54.9187 49.215 54.7635 49.7143 54.8074 50.3015C54.8507 50.8801 55.0788 51.3551 55.4916 51.7264ZM62.0854 46.5481L66.9741 46.1824L67.4516 52.5646L66.073 52.6677L65.6949 47.613L63.5633 47.7725L63.7409 50.1466C63.8153 51.1423 63.6518 51.8733 63.2503 52.3397C62.8488 52.8062 62.2282 53.0323 61.3885 53.0181L61.2921 51.7289C61.6886 51.7677 61.9761 51.6649 62.1547 51.4205C62.3326 51.1676 62.4002 50.7561 62.3575 50.1859L62.0854 46.5481ZM70.1214 48.1291L71.5255 48.024C72.2148 47.9725 72.7868 48.1265 73.2416 48.4861C73.7042 48.8366 73.9591 49.3267 74.0062 49.9564C74.0526 50.5776 73.8735 51.1001 73.4688 51.524C73.0726 51.9473 72.5299 52.1847 71.8406 52.2363L69.058 52.4444L68.5806 46.0622L69.9591 45.9591L70.1214 48.1291ZM70.3439 51.1031L71.7607 50.9972C72.033 50.9768 72.2525 50.8791 72.4191 50.704C72.5942 50.5283 72.6722 50.3129 72.6531 50.0576C72.634 49.8023 72.5291 49.6005 72.3383 49.4522C72.1475 49.3039 71.9117 49.2402 71.6309 49.2612L70.214 49.3672L70.3439 51.1031ZM79.3047 47.8143L79.1147 45.2742L80.4933 45.1711L80.9707 51.5533L79.5921 51.6564L79.4021 49.1163L76.4791 49.335L76.6691 51.8751L75.2906 51.9782L74.8131 45.596L76.1917 45.4929L76.3817 48.033L79.3047 47.8143ZM87.2153 45.5796L87.1475 44.6733L88.526 44.5702L89.0034 50.9524L87.6249 51.0555L87.5562 50.1365C87.0912 50.8986 86.3736 51.316 85.4036 51.3885C84.5271 51.4541 83.754 51.1868 83.0845 50.5865C82.4149 49.9862 82.0448 49.2138 81.9741 48.2693C81.9035 47.3247 82.1545 46.5058 82.7274 45.8126C83.3002 45.1194 84.0248 44.7401 84.9013 44.6745C85.8714 44.6019 86.6427 44.9036 87.2153 45.5796ZM84.0369 49.5911C84.4484 49.9454 84.9435 50.1009 85.5222 50.0576C86.1008 50.0143 86.5673 49.7869 86.9216 49.3753C87.2752 48.9552 87.4301 48.4516 87.3862 47.8644C87.3423 47.2773 87.1145 46.8065 86.7029 46.4523C86.2907 46.0895 85.7953 45.9297 85.2167 45.973C84.638 46.0163 84.1719 46.248 83.8182 46.6681C83.4639 47.0796 83.3087 47.579 83.3527 48.1662C83.3959 48.7448 83.624 49.2198 84.0369 49.5911ZM92.2262 44.2934L95.0726 44.0805L95.5501 50.4627L94.197 50.5639L94.0366 48.4195L93.2708 48.4768L91.8101 50.7424L90.189 50.8637L91.7423 48.4627C91.2889 48.3512 90.9124 48.1226 90.6128 47.7771C90.3216 47.4309 90.1591 47.0323 90.1254 46.5813C90.0815 45.9942 90.2527 45.4808 90.6391 45.0411C91.0249 44.5929 91.5539 44.3437 92.2262 44.2934ZM92.531 47.3384L93.9478 47.2324L93.8132 45.4326L92.3964 45.5386C92.107 45.5602 91.8751 45.6632 91.7006 45.8474C91.534 46.0224 91.4609 46.2461 91.4813 46.5184C91.5017 46.7907 91.6072 47.001 91.798 47.1493C91.9973 47.297 92.2417 47.36 92.531 47.3384ZM104.974 43.3398L106.378 43.2348L106.855 49.617L105.515 49.7172L105.201 45.5178L103.582 48.5783L103.416 48.5907L101.373 45.817L101.686 50.0037L100.346 50.1039L99.8681 43.7218L101.272 43.6167L103.344 46.4269L104.974 43.3398ZM113.093 43.6438L113.025 42.7376L114.404 42.6344L114.881 49.0166L113.503 49.1197L113.434 48.2007C112.969 48.9628 112.251 49.3802 111.281 49.4528C110.405 49.5183 109.632 49.251 108.962 48.6507C108.293 48.0505 107.922 47.2781 107.852 46.3335C107.781 45.3889 108.032 44.5701 108.605 43.8769C109.178 43.1837 109.903 42.8043 110.779 42.7387C111.749 42.6662 112.52 42.9679 113.093 43.6438ZM109.915 47.6553C110.326 48.0096 110.821 48.1651 111.4 48.1218C111.979 48.0785 112.445 47.8511 112.799 47.4395C113.153 47.0194 113.308 46.5158 113.264 45.9286C113.22 45.3415 112.992 44.8708 112.581 44.5165C112.168 44.1537 111.673 43.9939 111.094 44.0372C110.516 44.0805 110.05 44.3122 109.696 44.7323C109.342 45.1439 109.186 45.6432 109.23 46.2304C109.274 46.809 109.502 47.284 109.915 47.6553ZM118.976 45.4372L122.13 48.4744L120.483 48.5976L117.646 45.8447L117.867 48.7933L116.488 48.8964L116.011 42.5142L117.389 42.4111L117.6 45.232L119.865 42.2259L121.55 42.0998L118.976 45.4372ZM125.571 48.3838C124.609 48.4558 123.781 48.1926 123.086 47.5942C122.399 46.9867 122.02 46.2149 121.95 45.2789C121.879 44.3258 122.138 43.5063 122.729 42.8203C123.327 42.1252 124.107 41.7417 125.069 41.6698C125.69 41.6233 126.267 41.7299 126.8 41.9896C127.333 42.2492 127.745 42.6205 128.038 43.1035L126.903 43.8815C126.735 43.586 126.496 43.3643 126.185 43.2164C125.883 43.0593 125.54 42.9951 125.157 43.0238C124.595 43.0658 124.137 43.2926 123.783 43.7042C123.438 44.1236 123.286 44.6141 123.328 45.1758C123.37 45.7374 123.593 46.1999 123.997 46.5634C124.409 46.9176 124.895 47.0738 125.457 47.0318C125.831 47.0038 126.161 46.8935 126.446 46.7011C126.739 46.4994 126.951 46.2397 127.081 45.9219L128.319 46.5096C128.085 47.0406 127.719 47.4744 127.222 47.811C126.734 48.1471 126.184 48.338 125.571 48.3838ZM130.642 45.4886L133.607 41.1979L134.667 41.1187L135.144 47.5008L133.791 47.602L133.488 43.543L130.524 47.8465L129.464 47.9257L128.987 41.5436L130.34 41.4423L130.642 45.4886ZM141.372 40.6171L142.776 40.512L143.254 46.8942L141.913 46.9945L141.599 42.795L139.98 45.8555L139.814 45.8679L137.771 43.0942L138.084 47.2809L136.744 47.3812L136.266 40.999L137.671 40.894L139.742 43.7041L141.372 40.6171ZM149.491 40.9211L149.423 40.0148L150.802 39.9117L151.279 46.2938L149.901 46.397L149.832 45.4779C149.367 46.2401 148.65 46.6574 147.68 46.73C146.803 46.7956 146.03 46.5282 145.36 45.928C144.691 45.3277 144.321 44.5553 144.25 43.6107C144.179 42.6662 144.431 41.8473 145.003 41.1541C145.576 40.4609 146.301 40.0815 147.177 40.016C148.147 39.9434 148.919 40.2451 149.491 40.9211ZM146.313 44.9325C146.724 45.2868 147.22 45.4423 147.798 45.399C148.377 45.3558 148.843 45.1283 149.198 44.7167C149.551 44.2967 149.706 43.793 149.662 43.2059C149.618 42.6187 149.391 42.148 148.979 41.7937C148.567 41.4309 148.071 41.2712 147.493 41.3144C146.914 41.3577 146.448 41.5894 146.094 42.0095C145.74 42.4211 145.585 42.9204 145.629 43.5076C145.672 44.0863 145.9 44.5612 146.313 44.9325ZM152.907 39.7542L157.795 39.3885L158.273 45.7707L156.894 45.8738L156.516 40.8191L154.384 40.9786L154.562 43.3528C154.637 44.3484 154.473 45.0794 154.072 45.5459C153.67 46.0123 153.049 46.2385 152.21 46.2243L152.113 44.9351C152.51 44.9738 152.797 44.871 152.976 44.6266C153.154 44.3737 153.221 43.9622 153.179 43.3921L152.907 39.7542ZM160.943 41.3352L162.347 41.2302C163.036 41.1786 163.608 41.3326 164.063 41.6922C164.525 42.0427 164.78 42.5328 164.827 43.1625C164.874 43.7837 164.695 44.3062 164.29 44.7301C163.894 45.1534 163.351 45.3908 162.662 45.4424L159.879 45.6505L159.402 39.2684L160.78 39.1652L160.943 41.3352ZM161.165 44.3093L162.582 44.2033C162.854 44.1829 163.074 44.0852 163.24 43.9102C163.415 43.7345 163.493 43.519 163.474 43.2637C163.455 43.0084 163.35 42.8066 163.16 42.6583C162.969 42.51 162.733 42.4463 162.452 42.4673L161.035 42.5733L161.165 44.3093ZM170.126 41.0205L169.936 38.4804L171.315 38.3772L171.792 44.7594L170.413 44.8625L170.223 42.3224L167.3 42.5411L167.49 45.0812L166.112 45.1843L165.634 38.8021L167.013 38.699L167.203 41.2391L170.126 41.0205ZM178.037 38.7857L177.969 37.8795L179.347 37.7763L179.825 44.1585L178.446 44.2616L178.377 43.3426C177.912 44.1047 177.195 44.5221 176.225 44.5947C175.348 44.6602 174.575 44.3929 173.906 43.7926C173.236 43.1924 172.866 42.42 172.795 41.4754C172.725 40.5308 172.976 39.712 173.549 39.0188C174.121 38.3256 174.846 37.9462 175.723 37.8806C176.693 37.8081 177.464 38.1098 178.037 38.7857ZM174.858 42.7972C175.27 43.1515 175.765 43.307 176.343 43.2637C176.922 43.2204 177.389 42.993 177.743 42.5814C178.096 42.1613 178.251 41.6577 178.207 41.0706C178.164 40.4834 177.936 40.0127 177.524 39.6584C177.112 39.2956 176.617 39.1358 176.038 39.1791C175.459 39.2224 174.993 39.4541 174.639 39.8742C174.285 40.2858 174.13 40.7851 174.174 41.3723C174.217 41.9509 174.445 42.4259 174.858 42.7972ZM183.047 37.4996L185.894 37.2866L186.371 43.6688L185.018 43.77L184.858 41.6256L184.092 41.6829L182.631 43.9486L181.01 44.0698L182.564 41.6689C182.11 41.5573 181.734 41.3288 181.434 40.9832C181.143 40.637 180.98 40.2385 180.947 39.7874C180.903 39.2003 181.074 38.6869 181.46 38.2472C181.846 37.7991 182.375 37.5498 183.047 37.4996ZM183.352 40.5445L184.769 40.4385L184.634 38.6387L183.218 38.7447C182.928 38.7664 182.696 38.8693 182.522 39.0535C182.355 39.2285 182.282 39.4522 182.303 39.7245C182.323 39.9968 182.428 40.2071 182.619 40.3555C182.819 40.5031 183.063 40.5661 183.352 40.5445ZM196.178 36.5173L196.558 41.5975L197.605 41.5192L197.83 44.5316L196.477 44.6328L196.349 42.9224L191.167 43.3101L190.689 36.9279L192.068 36.8248L192.448 41.905L195.18 41.7007L194.8 36.6204L196.178 36.5173ZM204.542 39.6911L199.461 40.0711C199.599 40.54 199.857 40.893 200.234 41.13C200.619 41.3665 201.08 41.4646 201.616 41.4245C202.34 41.3704 202.869 41.0656 203.204 40.51L204.389 41.0887C203.838 42.0627 202.94 42.5962 201.698 42.6892C200.668 42.7662 199.807 42.514 199.113 41.9327C198.427 41.3422 198.048 40.5619 197.975 39.5918C197.904 38.6473 198.16 37.8281 198.741 37.1343C199.314 36.4411 200.098 36.0572 201.094 35.9827C202.021 35.9134 202.812 36.1837 203.465 36.7937C204.118 37.4038 204.48 38.1768 204.55 39.1129C204.562 39.2831 204.56 39.4758 204.542 39.6911ZM199.365 38.9488L203.117 38.6681C202.986 38.173 202.744 37.8017 202.392 37.5543C202.048 37.3062 201.643 37.1996 201.174 37.2346C200.664 37.2728 200.249 37.445 199.93 37.7513C199.61 38.0576 199.422 38.4568 199.365 38.9488ZM210.015 38.0366L209.825 35.4965L211.203 35.3934L211.68 41.7755L210.302 41.8787L210.112 39.3386L207.189 39.5572L207.379 42.0973L206 42.2005L205.523 35.8183L206.901 35.7152L207.092 38.2553L210.015 38.0366ZM217.925 35.8019L217.857 34.8956L219.236 34.7925L219.713 41.1747L218.335 41.2778L218.266 40.3587C217.801 41.1209 217.083 41.5382 216.113 41.6108C215.237 41.6764 214.464 41.409 213.794 40.8088C213.125 40.2085 212.755 39.4361 212.684 38.4915C212.613 37.547 212.864 36.7281 213.437 36.0349C214.01 35.3417 214.735 34.9623 215.611 34.8968C216.581 34.8242 217.353 35.1259 217.925 35.8019ZM214.747 39.8134C215.158 40.1676 215.653 40.3231 216.232 40.2799C216.811 40.2366 217.277 40.0091 217.631 39.5976C217.985 39.1775 218.14 38.6739 218.096 38.0867C218.052 37.4995 217.824 37.0288 217.413 36.6745C217.001 36.3117 216.505 36.152 215.926 36.1953C215.348 36.2386 214.882 36.4702 214.528 36.8903C214.174 37.3019 214.019 37.8013 214.062 38.3884C214.106 38.9671 214.334 39.4421 214.747 39.8134ZM220.774 35.4732C220.754 35.2009 220.826 34.9687 220.992 34.7767C221.165 34.5755 221.388 34.4647 221.66 34.4443C221.922 34.4075 222.155 34.4843 222.357 34.6745C222.56 34.8647 222.67 35.0832 222.689 35.33C222.707 35.5768 222.631 35.8093 222.459 36.0275C222.268 36.23 222.05 36.3405 221.803 36.3589C221.556 36.3774 221.324 36.3007 221.106 36.1287C220.887 35.9568 220.777 35.7383 220.774 35.4732ZM222.018 39.2309C222.282 39.2112 222.514 39.2879 222.715 39.4611C222.917 39.6343 223.027 39.8528 223.047 40.1166C223.067 40.3804 222.99 40.6129 222.817 40.8141C222.643 41.0154 222.425 41.1258 222.161 41.1456C221.897 41.1653 221.665 41.0886 221.464 40.9154C221.262 40.7422 221.152 40.5237 221.132 40.2599C221.113 39.9961 221.185 39.7639 221.35 39.5633C221.523 39.3621 221.746 39.2513 222.018 39.2309Z" fill="#92A2BB"/>
<path d="M43.3812 71.3531L40.3616 75.9432C41.6308 76.2076 42.665 76.7635 43.4643 77.6108C44.2806 78.4568 44.7352 79.501 44.8282 80.7434C44.9656 82.5814 44.452 84.066 43.2873 85.1971C42.1566 86.3257 40.6892 86.9574 38.8852 87.0924C37.4726 87.198 36.1975 86.9683 35.0599 86.403C33.921 85.8207 33.0596 84.9439 32.4757 83.7725L35.3582 81.8112C35.8868 83.1579 36.9765 83.7695 38.6274 83.646C39.5294 83.5785 40.2113 83.3136 40.673 82.8512C41.1505 82.3705 41.3612 81.7557 41.3052 81.0069C41.2504 80.2751 40.9512 79.707 40.4076 79.3027C39.8809 78.8971 39.1666 78.7281 38.2646 78.7956L37.4987 78.8528L35.9929 76.9118L39.1721 72.0531L32.1773 72.5763L31.9309 69.2831L43.1635 68.4429L43.3812 71.3531ZM50.2664 74.4578L52.1045 74.3203C53.8404 74.1904 55.3259 74.6013 56.5608 75.5529C57.8116 76.4862 58.5057 77.8719 58.6432 79.7099C58.7806 81.548 58.267 83.0326 57.1023 84.1637C55.9716 85.2922 54.5042 85.924 52.7002 86.0589C51.2366 86.1684 49.9274 85.9412 48.7728 85.3772C47.6339 84.795 46.7713 83.9011 46.1848 82.6956L49.0654 80.7088C49.5978 82.1066 50.7235 82.7412 52.4424 82.6126C53.3444 82.5451 54.0263 82.2802 54.488 81.8178C54.9655 81.3371 55.1762 80.7223 55.1202 79.9735C55.0655 79.2416 54.7748 78.6729 54.2481 78.2674C53.7214 77.8618 53.0326 77.6908 52.1817 77.7545L46.7696 78.1593L46.7415 68.1752L56.8764 67.4171L57.1228 70.7103L50.2556 71.224L50.2664 74.4578ZM65.4215 70.1665L65.1695 66.7967L76.7084 65.9335L76.9318 68.9204L71.9949 84.2562L68.2677 84.535L73.0546 69.5955L65.4215 70.1665ZM78.1564 67.4939L82.7296 65.4831L85.793 65.254L87.1298 83.124L83.6068 83.3876L82.5489 69.2447L79.2498 70.4413L78.1564 67.4939ZM101.024 75.7439L102.938 75.6006L103.183 78.8683L101.268 79.0115L101.495 82.0494L97.9468 82.3149L97.7195 79.277L89.2695 79.9091L89.0251 76.6414L94.1082 64.632L97.8864 64.3493L92.8289 76.3569L97.4751 76.0093L97.1581 71.7715L100.707 71.5061L101.024 75.7439ZM122.788 80.4566L110.841 81.3503L110.644 78.7209L116.276 71.9844C117.529 70.436 118.121 69.1937 118.051 68.2576C117.998 67.5599 117.735 67.0148 117.261 66.6224C116.803 66.2288 116.234 66.0574 115.554 66.1083C114.192 66.2102 113.249 66.9824 112.723 68.4251L109.632 66.9107C110.086 65.6616 110.808 64.6748 111.798 63.9504C112.804 63.2078 113.953 62.788 115.247 62.6913C116.864 62.5703 118.289 62.9772 119.522 63.9117C120.755 64.8293 121.435 66.1475 121.564 67.8665C121.703 69.7215 120.867 71.7009 119.056 73.8045L115.82 77.5636L122.534 77.0613L122.788 80.4566ZM134.075 70.2679C135.8 71.1315 136.733 72.5078 136.874 74.397C136.998 76.0478 136.517 77.3931 135.431 78.4327C134.362 79.4711 132.84 80.0641 130.866 80.2118C128.875 80.3607 127.273 80.0013 126.062 79.1336C124.85 78.2658 124.182 77.0065 124.059 75.3556C123.919 73.4835 124.628 71.9843 126.187 70.8579C124.878 70.0659 124.165 68.8785 124.047 67.2957C123.923 65.6448 124.38 64.3185 125.418 63.3167C126.472 62.3137 127.825 61.7504 129.476 61.6269C131.143 61.5021 132.556 61.8585 133.714 62.6961C134.889 63.5324 135.539 64.7759 135.662 66.4268C135.78 68.0096 135.252 69.2899 134.075 70.2679ZM132.178 66.8671C132.13 66.2204 131.879 65.7257 131.425 65.3831C130.972 65.0405 130.405 64.8947 129.724 64.9456C129.043 64.9966 128.504 65.2251 128.106 65.6314C127.709 66.0376 127.534 66.5641 127.583 67.2109C127.632 67.8746 127.884 68.3778 128.338 68.7204C128.791 69.063 129.358 69.2088 130.039 69.1579C130.72 69.1069 131.259 68.8784 131.656 68.4721C132.054 68.0659 132.228 67.5309 132.178 66.8671ZM132.687 76.0708C133.181 75.5888 133.4 74.9649 133.343 74.1991C133.285 73.4332 132.977 72.8573 132.418 72.4713C131.857 72.0682 131.134 71.8998 130.249 71.966C129.364 72.0322 128.674 72.3063 128.18 72.7883C127.684 73.2532 127.465 73.8686 127.522 74.6345C127.579 75.4003 127.888 75.9848 128.449 76.3878C129.01 76.7908 129.733 76.9593 130.618 76.8931C131.503 76.8268 132.192 76.5528 132.687 76.0708ZM142.309 67.5725L144.147 67.435C145.883 67.3052 147.369 67.716 148.604 68.6676C149.854 69.6009 150.548 70.9866 150.686 72.8247C150.823 74.6627 150.31 76.1473 149.145 77.2784C148.014 78.407 146.547 79.0387 144.743 79.1737C143.279 79.2832 141.97 79.0559 140.816 78.492C139.677 77.9097 138.814 77.0158 138.228 75.8104L141.108 73.8235C141.641 75.2213 142.766 75.8559 144.485 75.7273C145.387 75.6598 146.069 75.3949 146.531 74.9325C147.008 74.4518 147.219 73.8371 147.163 73.0882C147.108 72.3564 146.818 71.7877 146.291 71.3821C145.764 70.9765 145.075 70.8056 144.225 70.8692L138.812 71.2741L138.784 61.29L148.919 60.5318L149.166 63.825L142.298 64.3387L142.309 67.5725ZM156.79 76.0648C156.834 76.6605 156.66 77.187 156.266 77.6443C155.872 78.1016 155.378 78.3525 154.782 78.3971C154.186 78.4416 153.66 78.2671 153.203 77.8734C152.745 77.4798 152.494 76.9851 152.45 76.3894C152.405 75.7938 152.58 75.2673 152.973 74.81C153.367 74.3527 153.862 74.1017 154.457 74.0572C155.053 74.0126 155.58 74.1872 156.037 74.5808C156.494 74.9745 156.745 75.4691 156.79 76.0648ZM157.415 63.285L157.162 59.9152L168.701 59.052L168.925 62.0389L163.988 77.3747L160.261 77.6535L165.048 62.714L157.415 63.285ZM170.149 60.6124L174.723 58.6016L177.786 58.3724L179.123 76.2425L175.6 76.5061L174.542 62.3632L171.243 63.5598L170.149 60.6124ZM196.654 74.9311L192.799 75.2195L192.05 65.2122L187.098 65.5827L186.857 62.3661L200.617 61.3368L200.858 64.5534L195.905 64.9239L196.654 74.9311ZM186.483 57.3625L200.243 56.3332L200.483 59.5498L186.724 60.5791L186.483 57.3625Z" fill="#09090C"/>
</g>
<defs>
<filter id="filter0_d_105_3446" x="0.0307689" y="0.0307384" width="269.369" height="138.314" filterUnits="userSpaceOnUse" color-interpolation-filters="sRGB">
<feFlood flood-opacity="0" result="BackgroundImageFix"/>
<feColorMatrix in="SourceAlpha" type="matrix" values="0 0 0 0 0 0 0 0 0 0 0 0 0 0 0 0 0 0 127 0" result="hardAlpha"/>
<feOffset dx="6.64615" dy="6.64615"/>
<feGaussianBlur stdDeviation="8.30769"/>
<feComposite in2="hardAlpha" operator="out"/>
<feColorMatrix type="matrix" values="0 0 0 0 0.254808 0 0 0 0 0.254808 0 0 0 0 0.254808 0 0 0 0.25 0"/>
<feBlend mode="normal" in2="BackgroundImageFix" result="effect1_dropShadow_105_3446"/>
<feBlend mode="normal" in="SourceGraphic" in2="effect1_dropShadow_105_3446" result="shape"/>
</filter>
</defs>
</svg>
