<svg width="286" height="212" viewBox="0 0 286 212" fill="none" xmlns="http://www.w3.org/2000/svg">
<g opacity="0.55" filter="url(#filter0_d_105_3255)">
<g clip-path="url(#clip0_105_3255)">
<rect x="32.52" y="9" width="234.849" height="144.8" rx="12.8" transform="rotate(9.34801 32.52 9)" fill="white"/>
<g clip-path="url(#clip1_105_3255)">
<path fill-rule="evenodd" clip-rule="evenodd" d="M53.2343 30.9224C50.11 30.4081 47.1602 32.524 46.6459 35.6483C46.1315 38.7727 48.2474 41.7225 51.3718 42.2368C54.4962 42.7511 57.4459 40.6353 57.9603 37.5109C58.4746 34.3865 56.3587 31.4367 53.2343 30.9224ZM49.9536 36.1765C49.8248 35.997 49.5749 35.9558 49.3954 36.0846C49.2159 36.2134 49.1748 36.4632 49.3035 36.6427L50.6224 38.4814C50.7512 38.6609 51.0011 38.702 51.1806 38.5733L55.4707 35.4959C55.6502 35.3672 55.6914 35.1173 55.5626 34.9377C55.4338 34.7582 55.184 34.7171 55.0045 34.8459L51.0393 37.69L49.9536 36.1765Z" fill="#285CB6"/>
</g>
<path d="M66.3625 35.4889L72.8669 36.5596L71.4116 45.4006L69.9591 45.1615L71.1858 37.7098L67.5862 37.1173L66.3596 44.569L64.9071 44.3299L66.3625 35.4889ZM77.7357 39.7869C78.5945 39.9283 79.2821 40.3744 79.7985 41.1254C80.3078 41.8665 80.4862 42.7001 80.3338 43.6263C80.1799 44.5609 79.743 45.2976 79.023 45.8364C78.303 46.3751 77.5093 46.5731 76.6421 46.4303C75.6906 46.2737 75.0121 45.7988 74.6065 45.0055L74.043 48.4283L72.679 48.2037L74.1344 39.3627L75.4984 39.5873L75.3487 40.4966C75.9801 39.8655 76.7758 39.6289 77.7357 39.7869ZM75.3079 44.2908C75.6244 44.7321 76.0689 44.9998 76.6415 45.0941C77.2141 45.1883 77.721 45.0772 78.1623 44.7607C78.6049 44.4357 78.8741 43.9828 78.9697 43.4018C79.0653 42.8208 78.9549 42.3097 78.6384 41.8684C78.3232 41.4187 77.8794 41.1467 77.3068 41.0525C76.7343 40.9582 76.2267 41.0736 75.784 41.3985C75.3427 41.715 75.0743 42.1638 74.9786 42.7448C74.8844 43.3173 74.9941 43.8327 75.3079 44.2908ZM82.7695 44.8964L86.6619 41.425L87.7101 41.5975L86.6706 47.9125L85.3318 47.6921L85.993 43.6758L82.0985 47.1599L81.0502 46.9873L82.0898 40.6723L83.4286 40.8927L82.7695 44.8964ZM94.7777 46.6008L89.751 45.7733C89.7744 46.2614 89.9414 46.6651 90.2521 46.9844C90.5712 47.305 90.996 47.509 91.5264 47.5963C92.2421 47.7141 92.8282 47.5425 93.2846 47.0814L94.3006 47.9232C93.5348 48.7398 92.5373 49.0469 91.308 48.8446C90.2892 48.6769 89.5111 48.2288 88.9737 47.5004C88.4462 46.7649 88.2614 45.9172 88.4194 44.9574C88.5733 44.0227 89.0144 43.2867 89.7428 42.7494C90.4628 42.2107 91.3154 42.0224 92.3006 42.1845C93.2183 42.3356 93.9228 42.7845 94.4139 43.5313C94.905 44.278 95.0743 45.1145 94.9218 46.0407C94.8941 46.2091 94.8461 46.3958 94.7777 46.6008ZM89.9213 44.6598L93.6345 45.271C93.6237 44.759 93.4763 44.3412 93.1922 44.0177C92.9166 43.6956 92.5473 43.4964 92.0842 43.4202C91.579 43.337 91.1351 43.4067 90.7526 43.6291C90.37 43.8515 90.0929 44.1951 89.9213 44.6598ZM101.696 43.8998L103.085 44.1285L102.046 50.4435L100.72 50.2252L101.404 46.0699L99.1087 48.6628L98.9445 48.6358L97.6125 45.4588L96.9305 49.6015L95.6044 49.3832L96.6439 43.0682L98.0332 43.2969L99.3843 46.5159L101.696 43.8998ZM110.86 48.5737C111.484 48.9877 111.738 49.5441 111.623 50.243C111.533 50.7903 111.235 51.2082 110.729 51.4968C110.225 51.777 109.589 51.854 108.823 51.7279C107.552 51.5186 106.776 50.872 106.496 49.7881L107.716 49.3143C107.839 49.9833 108.28 50.3801 109.038 50.5048C109.391 50.5631 109.681 50.5372 109.906 50.4274C110.134 50.3091 110.267 50.1278 110.307 49.8836C110.343 49.6647 110.292 49.4789 110.153 49.3263C110.015 49.1653 109.803 49.0612 109.516 49.014L108.62 48.8664L108.817 47.6666L109.487 47.7768C109.765 47.8225 109.99 47.7947 110.162 47.6933C110.344 47.585 110.454 47.4171 110.491 47.1898C110.527 46.9708 110.468 46.7795 110.313 46.6156C110.16 46.4434 109.936 46.333 109.641 46.2845C109.01 46.1805 108.526 46.3863 108.191 46.9018L107.183 46.0874C107.802 45.2206 108.679 44.8807 109.816 45.0679C110.523 45.1843 111.053 45.4575 111.406 45.8875C111.769 46.3104 111.908 46.7787 111.824 47.2923C111.72 47.9238 111.399 48.3509 110.86 48.5737ZM118.346 47.5617L118.494 46.665L119.858 46.8896L118.818 53.2046L117.454 52.98L117.604 52.0707C116.972 52.7018 116.177 52.9384 115.217 52.7804C114.35 52.6376 113.661 52.1957 113.152 51.4546C112.643 50.7135 112.465 49.8756 112.619 48.941C112.773 48.0063 113.21 47.2697 113.93 46.7309C114.65 46.1922 115.443 45.9942 116.31 46.137C117.27 46.295 117.949 46.7699 118.346 47.5617ZM114.312 50.7115C114.629 51.1528 115.073 51.4206 115.646 51.5148C116.218 51.6091 116.725 51.4979 117.166 51.1814C117.609 50.8565 117.878 50.4035 117.974 49.8225C118.07 49.2415 117.959 48.7304 117.643 48.2891C117.327 47.8394 116.884 47.5675 116.311 47.4732C115.738 47.379 115.231 47.4943 114.788 47.8193C114.347 48.1358 114.078 48.5845 113.983 49.1655C113.889 49.7381 113.998 50.2534 114.312 50.7115ZM123.519 47.4923L126.335 47.9559L125.296 54.2709L123.957 54.0505L124.306 51.9287L123.549 51.8039L121.595 53.6617L119.991 53.3977L122.066 51.4302C121.652 51.215 121.34 50.9042 121.13 50.4978C120.929 50.0927 120.865 49.6671 120.938 49.2208C121.034 48.6399 121.321 48.1812 121.8 47.845C122.281 47.5003 122.854 47.3828 123.519 47.4923ZM123.098 50.5233L124.5 50.7541L124.793 48.9732L123.391 48.7425C123.105 48.6953 122.855 48.7407 122.642 48.8786C122.439 49.0095 122.315 49.2097 122.271 49.4791C122.226 49.7485 122.28 49.9778 122.43 50.1669C122.589 50.3574 122.811 50.4762 123.098 50.5233ZM131.788 52.0057C132.362 52.403 132.594 52.9384 132.483 53.612C132.395 54.1509 132.138 54.554 131.713 54.8214C131.297 55.0902 130.765 55.1712 130.117 55.0645L126.883 54.5322L127.923 48.2172L130.904 48.7079C131.544 48.8132 132.018 49.0557 132.328 49.4353C132.637 49.8148 132.749 50.2656 132.663 50.7877C132.564 51.3855 132.273 51.7915 131.788 52.0057ZM130.611 49.8532L129.033 49.5933L128.802 50.9953L130.381 51.2552C130.936 51.3466 131.253 51.1566 131.331 50.6851C131.407 50.222 131.167 49.9447 130.611 49.8532ZM128.38 53.5592L130.186 53.8565C130.758 53.9507 131.086 53.7495 131.167 53.2527C131.203 53.0338 131.155 52.8529 131.023 52.7101C130.892 52.5588 130.692 52.461 130.423 52.4167L128.617 52.1193L128.38 53.5592ZM138.771 55.6718C138.025 56.2064 137.185 56.3968 136.251 56.2429C135.316 56.089 134.581 55.6395 134.047 54.8942C133.505 54.1392 133.311 53.2985 133.463 52.3723C133.616 51.4461 134.069 50.7122 134.825 50.1706C135.57 49.636 136.41 49.4457 137.344 49.5995C138.279 49.7534 139.014 50.2029 139.548 50.9482C140.09 51.7033 140.284 52.5439 140.132 53.4701C139.979 54.3963 139.526 55.1302 138.771 55.6718ZM134.827 52.5969C134.733 53.1694 134.844 53.6763 135.161 54.1176C135.477 54.5589 135.913 54.8253 136.469 54.9167C137.025 55.0082 137.523 54.8957 137.965 54.5792C138.406 54.2626 138.674 53.8181 138.768 53.2455C138.862 52.673 138.751 52.1661 138.434 51.7248C138.118 51.2835 137.682 51.0171 137.126 50.9257C136.57 50.8342 136.072 50.9467 135.631 51.2632C135.189 51.5798 134.921 52.0243 134.827 52.5969ZM144.078 54.0549L146.428 57.7496L144.799 57.4814L142.69 54.1376L142.21 57.0552L140.845 56.8306L141.885 50.5156L143.249 50.7402L142.79 53.5314L145.699 51.1435L147.366 51.418L144.078 54.0549Z" fill="#285CB6"/>
<line x1="42.4146" y1="57.2479" x2="239.412" y2="89.677" stroke="#E9EEFF" stroke-width="0.8"/>
<path d="M47.2428 74.8053L46.0161 82.257L46.9633 82.413L46.456 85.4947L45.0036 85.2556L45.2822 83.5632L39.9144 82.6796L39.6358 84.372L38.1834 84.1329L38.6907 81.0512L39.5116 81.1863C40.1347 80.6057 40.5586 79.6333 40.7831 78.2693L41.5087 73.8614L47.2428 74.8053ZM41.103 81.4483L44.5636 82.0179L45.5658 75.9303L42.7366 75.4646L42.2314 78.5337C42.0152 79.8472 41.639 80.8187 41.103 81.4483ZM53.1385 84.0392C52.3932 84.5738 51.5533 84.7642 50.6187 84.6103C49.684 84.4564 48.9494 84.0069 48.4149 83.2616C47.8732 82.5066 47.6787 81.6659 47.8311 80.7397C47.9836 79.8135 48.4374 79.0796 49.1924 78.538C49.9377 78.0034 50.7776 77.8131 51.7123 77.9669C52.6469 78.1208 53.3815 78.5703 53.9161 79.3156C54.4577 80.0707 54.6523 80.9113 54.4998 81.8375C54.3473 82.7637 53.8935 83.4976 53.1385 84.0392ZM49.1952 80.9643C49.1009 81.5368 49.2121 82.0437 49.5286 82.485C49.8451 82.9263 50.2812 83.1927 50.837 83.2841C51.3927 83.3756 51.8912 83.2631 52.3325 82.9466C52.7737 82.63 53.0415 82.1855 53.1357 81.6129C53.23 81.0404 53.1189 80.5335 52.8023 80.0922C52.4858 79.6509 52.0497 79.3845 51.494 79.2931C50.9382 79.2016 50.4397 79.3141 49.9985 79.6306C49.5572 79.9472 49.2894 80.3917 49.1952 80.9643ZM63.8444 85.8016C63.0991 86.3362 62.2592 86.5265 61.3246 86.3727C60.3899 86.2188 59.6553 85.7693 59.1208 85.024C58.5792 84.2689 58.3846 83.4283 58.537 82.5021C58.6895 81.5759 59.1433 80.842 59.8984 80.3004C60.6436 79.7658 61.4836 79.5754 62.4182 79.7293C63.3528 79.8831 64.0874 80.3327 64.622 81.078C65.1636 81.833 65.3582 82.6737 65.2057 83.5999C65.0532 84.5261 64.5995 85.26 63.8444 85.8016ZM59.9011 82.7266C59.8068 83.2992 59.918 83.8061 60.2345 84.2474C60.551 84.6887 60.9872 84.955 61.5429 85.0465C62.0986 85.138 62.5971 85.0255 63.0384 84.7089C63.4796 84.3924 63.7474 83.9479 63.8417 83.3753C63.9359 82.8028 63.8248 82.2958 63.5082 81.8546C63.1917 81.4133 62.7556 81.1469 62.1999 81.0554C61.6442 80.964 61.1457 81.0765 60.7044 81.393C60.2631 81.7095 59.9953 82.1541 59.9011 82.7266ZM69.1523 84.1847L71.5018 87.8794L69.8725 87.6112L67.7636 84.2674L67.2834 87.1849L65.9193 86.9604L66.9589 80.6454L68.3229 80.8699L67.8634 83.6612L70.7731 81.2733L72.4403 81.5477L69.1523 84.1847ZM77.3871 88.0309C76.6419 88.5655 75.8019 88.7559 74.8673 88.602C73.9327 88.4482 73.1981 87.9986 72.6635 87.2534C72.1219 86.4983 71.9273 85.6577 72.0798 84.7315C72.2323 83.8053 72.686 83.0713 73.4411 82.5297C74.1864 81.9952 75.0263 81.8048 75.9609 81.9586C76.8955 82.1125 77.6301 82.5621 78.1647 83.3073C78.7063 84.0624 78.9009 84.903 78.7484 85.8292C78.596 86.7554 78.1422 87.4893 77.3871 88.0309ZM73.4438 84.956C73.3496 85.5286 73.4607 86.0355 73.7772 86.4767C74.0938 86.918 74.5299 87.1844 75.0856 87.2759C75.6413 87.3674 76.1398 87.2548 76.5811 86.9383C77.0224 86.6218 77.2901 86.1772 77.3844 85.6047C77.4786 85.0321 77.3675 84.5252 77.051 84.0839C76.7345 83.6427 76.2983 83.3763 75.7426 83.2848C75.1869 83.1933 74.6884 83.3058 74.2471 83.6224C73.8058 83.9389 73.5381 84.3834 73.4438 84.956ZM84.3442 86.0888L84.7579 83.5754L86.122 83.8L85.0824 90.115L83.7184 89.8904L84.1321 87.3771L81.2398 86.9009L80.8261 89.4143L79.4621 89.1898L80.5016 82.8748L81.8656 83.0993L81.4519 85.6127L84.3442 86.0888ZM91.0681 87.5848L91.5442 84.6926L92.9082 84.9171L91.8687 91.2321L90.5046 91.0076L90.856 88.8731C90.3287 88.9766 89.783 88.9818 89.2189 88.889C88.419 88.7573 87.8278 88.4611 87.4453 88.0003C87.0642 87.5311 86.9346 86.926 87.0566 86.185L87.4142 84.0127L88.7782 84.2372L88.4414 86.2833C88.3167 87.0411 88.7048 87.4941 89.6057 87.6425C90.1193 87.727 90.6068 87.7078 91.0681 87.5848ZM99.3546 86.8993L99.5022 86.0026L100.866 86.2271L99.8267 92.5421L98.4626 92.3176L98.6123 91.4082C97.9809 92.0394 97.1852 92.2759 96.2253 92.1179C95.3581 91.9752 94.6698 91.5332 94.1605 90.7921C93.6512 90.051 93.4734 89.2132 93.6273 88.2785C93.7811 87.3439 94.2181 86.6072 94.9381 86.0685C95.6581 85.5298 96.4517 85.3318 97.319 85.4745C98.2788 85.6326 98.9574 86.1075 99.3546 86.8993ZM95.3206 90.0491C95.6371 90.4904 96.0816 90.7581 96.6542 90.8524C97.2268 90.9466 97.7337 90.8355 98.175 90.519C98.6176 90.194 98.8868 89.7411 98.9824 89.1601C99.078 88.5791 98.9676 88.068 98.6511 87.6267C98.3359 87.177 97.8921 86.905 97.3195 86.8108C96.747 86.7165 96.2393 86.8319 95.7967 87.1568C95.3554 87.4733 95.087 87.9221 94.9913 88.5031C94.8971 89.0756 95.0068 89.591 95.3206 90.0491ZM106.299 89.7029L106.712 87.1895L108.076 87.414L107.037 93.7291L105.673 93.5045L106.087 90.9911L103.194 90.515L102.781 93.0284L101.417 92.8038L102.456 86.4888L103.82 86.7134L103.406 89.2268L106.299 89.7029ZM110.339 91.8987L114.231 88.4272L115.28 88.5998L114.24 94.9148L112.901 94.6944L113.562 90.6781L109.668 94.1622L108.62 93.9896L109.659 87.6746L110.998 87.895L110.339 91.8987ZM118.934 89.2013L121.75 89.6649L120.71 95.98L119.372 95.7596L119.721 93.6377L118.963 93.513L117.01 95.3708L115.406 95.1067L117.481 93.1393C117.067 92.924 116.755 92.6132 116.545 92.2068C116.343 91.8018 116.279 91.3761 116.353 90.9299C116.449 90.3489 116.736 89.8903 117.215 89.554C117.696 89.2094 118.268 89.0918 118.934 89.2013ZM118.512 92.2324L119.914 92.4631L120.208 90.6823L118.806 90.4515C118.519 90.4044 118.27 90.4498 118.057 90.5877C117.854 90.7186 117.73 90.9187 117.685 91.1882C117.641 91.4576 117.694 91.6869 117.845 91.876C118.004 92.0664 118.226 92.1852 118.512 92.2324ZM125.826 90.3359L131.32 91.2403L131.104 92.5538L129.045 92.2149L128.222 97.2164L126.857 96.9919L127.681 91.9904L125.609 91.6494L125.826 90.3359ZM137.481 96.0943L132.454 95.2668C132.478 95.755 132.645 96.1587 132.955 96.4779C133.274 96.7985 133.699 97.0025 134.23 97.0898C134.945 97.2076 135.531 97.036 135.988 96.575L137.004 97.4168C136.238 98.2334 135.241 98.5405 134.011 98.3381C132.992 98.1704 132.214 97.7223 131.677 96.9939C131.149 96.2585 130.965 95.4108 131.123 94.4509C131.276 93.5163 131.718 92.7803 132.446 92.2429C133.166 91.7042 134.019 91.5159 135.004 91.6781C135.922 91.8292 136.626 92.2781 137.117 93.0248C137.608 93.7716 137.777 94.6081 137.625 95.5343C137.597 95.7027 137.549 95.8894 137.481 96.0943ZM132.625 94.1533L136.338 94.7646C136.327 94.2525 136.179 93.8348 135.895 93.5113C135.62 93.1892 135.25 92.99 134.787 92.9138C134.282 92.8306 133.838 92.9002 133.456 93.1226C133.073 93.3451 132.796 93.6886 132.625 94.1533ZM143.19 95.7758L143.603 93.2624L144.967 93.4869L143.928 99.8019L142.564 99.5774L142.978 97.064L140.085 96.5879L139.672 99.1013L138.308 98.8767L139.347 92.5617L140.711 92.7863L140.297 95.2996L143.19 95.7758ZM152.107 94.6623L151.28 99.689L152.126 99.8283L151.635 102.809L150.297 102.589L150.575 100.896L146.243 100.183L145.965 101.875L144.626 101.655L145.116 98.6744L145.887 98.8012C146.363 98.3261 146.682 97.596 146.844 96.6108L147.295 93.8701L152.107 94.6623ZM147.39 99.0487L149.941 99.4686L150.563 95.6923L148.428 95.3409L148.183 96.8312C148.033 97.7406 147.769 98.4797 147.39 99.0487ZM159.3 99.6861L154.273 98.8586C154.296 99.3467 154.464 99.7504 154.774 100.07C155.093 100.39 155.518 100.594 156.049 100.682C156.764 100.799 157.35 100.628 157.807 100.167L158.823 101.009C158.057 101.825 157.059 102.132 155.83 101.93C154.811 101.762 154.033 101.314 153.496 100.586C152.968 99.8502 152.783 99.0025 152.941 98.0427C153.095 97.108 153.536 96.372 154.265 95.8347C154.985 95.296 155.837 95.1077 156.823 95.2698C157.74 95.4209 158.445 95.8698 158.936 96.6166C159.427 97.3633 159.596 98.1998 159.444 99.126C159.416 99.2944 159.368 99.4811 159.3 99.6861ZM154.443 97.7451L158.157 98.3563C158.146 97.8443 157.998 97.4265 157.714 97.103C157.439 96.7809 157.069 96.5817 156.606 96.5055C156.101 96.4223 155.657 96.492 155.275 96.7144C154.892 96.9368 154.615 97.2804 154.443 97.7451ZM164.767 96.5777C165.626 96.719 166.314 97.1652 166.83 97.9161C167.339 98.6572 167.518 99.4909 167.365 100.417C167.212 101.352 166.775 102.088 166.055 102.627C165.335 103.166 164.541 103.364 163.674 103.221C162.722 103.064 162.044 102.59 161.638 101.796L161.075 105.219L159.711 104.994L161.166 96.1535L162.53 96.378L162.38 97.2874C163.012 96.6562 163.807 96.4197 164.767 96.5777ZM162.339 101.082C162.656 101.523 163.101 101.791 163.673 101.885C164.246 101.979 164.753 101.868 165.194 101.551C165.637 101.226 165.906 100.773 166.001 100.193C166.097 99.6115 165.987 99.1004 165.67 98.6591C165.355 98.2094 164.911 97.9375 164.338 97.8432C163.766 97.749 163.258 97.8643 162.816 98.1893C162.374 98.5058 162.106 98.9545 162.01 99.5355C161.916 100.108 162.026 100.623 162.339 101.082ZM173.975 99.1831L174.123 98.2864L175.487 98.5109L174.447 104.826L173.083 104.601L173.233 103.692C172.602 104.323 171.806 104.56 170.846 104.402C169.979 104.259 169.29 103.817 168.781 103.076C168.272 102.335 168.094 101.497 168.248 100.562C168.402 99.6277 168.839 98.8911 169.559 98.3523C170.279 97.8136 171.072 97.6156 171.94 97.7584C172.9 97.9164 173.578 98.3913 173.975 99.1831ZM169.941 102.333C170.258 102.774 170.702 103.042 171.275 103.136C171.847 103.23 172.354 103.119 172.796 102.803C173.238 102.478 173.507 102.025 173.603 101.444C173.699 100.863 173.588 100.352 173.272 99.9105C172.957 99.4608 172.513 99.1889 171.94 99.0946C171.368 99.0003 170.86 99.1157 170.417 99.4406C169.976 99.7572 169.708 100.206 169.612 100.787C169.518 101.359 169.628 101.875 169.941 102.333ZM184.668 105.691C183.923 106.226 183.083 106.416 182.148 106.262C181.214 106.108 180.479 105.659 179.945 104.914C179.403 104.159 179.208 103.318 179.361 102.392C179.513 101.466 179.967 100.732 180.722 100.19C181.467 99.6554 182.307 99.4651 183.242 99.6189C184.177 99.7728 184.911 100.222 185.446 100.968C185.987 101.723 186.182 102.563 186.03 103.49C185.877 104.416 185.423 105.15 184.668 105.691ZM180.725 102.616C180.631 103.189 180.742 103.696 181.058 104.137C181.375 104.578 181.811 104.845 182.367 104.936C182.922 105.028 183.421 104.915 183.862 104.599C184.303 104.282 184.571 103.838 184.666 103.265C184.76 102.692 184.649 102.185 184.332 101.744C184.016 101.303 183.579 101.037 183.024 100.945C182.468 100.854 181.97 100.966 181.528 101.283C181.087 101.599 180.819 102.044 180.725 102.616ZM189.697 107.505C188.745 107.348 188.002 106.897 187.468 106.152C186.943 105.4 186.757 104.561 186.909 103.634C187.065 102.691 187.51 101.956 188.245 101.428C188.991 100.894 189.839 100.705 190.79 100.862C191.405 100.963 191.941 101.202 192.397 101.58C192.854 101.958 193.168 102.416 193.339 102.954L192.052 103.443C191.959 103.116 191.779 102.845 191.512 102.628C191.254 102.404 190.936 102.261 190.557 102.198C190.002 102.107 189.503 102.219 189.062 102.536C188.628 102.862 188.365 103.303 188.273 103.859C188.182 104.415 188.29 104.917 188.596 105.365C188.913 105.806 189.349 106.073 189.905 106.164C190.275 106.225 190.622 106.196 190.944 106.076C191.276 105.949 191.543 105.746 191.744 105.468L192.809 106.331C192.456 106.792 191.999 107.127 191.437 107.337C190.883 107.549 190.303 107.605 189.697 107.505ZM193.86 101.535L199.354 102.44L199.138 103.753L197.079 103.415L196.256 108.416L194.892 108.191L195.715 103.19L193.644 102.849L193.86 101.535ZM204.884 104.271L205.032 103.375L206.396 103.599L205.356 109.914L203.992 109.69L204.142 108.78C203.511 109.411 202.715 109.648 201.755 109.49C200.888 109.347 200.199 108.905 199.69 108.164C199.181 107.423 199.003 106.585 199.157 105.65C199.311 104.716 199.748 103.979 200.468 103.44C201.188 102.902 201.981 102.704 202.849 102.847C203.809 103.005 204.487 103.479 204.884 104.271ZM200.85 107.421C201.167 107.862 201.611 108.13 202.184 108.224C202.756 108.319 203.263 108.207 203.705 107.891C204.147 107.566 204.416 107.113 204.512 106.532C204.608 105.951 204.497 105.44 204.181 104.999C203.866 104.549 203.422 104.277 202.849 104.183C202.277 104.088 201.769 104.204 201.326 104.529C200.885 104.845 200.617 105.294 200.521 105.875C200.427 106.448 200.537 106.963 200.85 107.421ZM208.478 103.942L213.316 104.738L212.276 111.053L210.912 110.829L211.735 105.827L209.626 105.48L209.239 107.829C209.077 108.814 208.746 109.486 208.246 109.845C207.746 110.204 207.09 110.277 206.277 110.066L206.487 108.79C206.863 108.921 207.167 108.889 207.398 108.693C207.63 108.49 207.793 108.106 207.886 107.541L208.478 103.942ZM219.339 111.399C218.594 111.933 217.754 112.124 216.819 111.97C215.885 111.816 215.15 111.366 214.616 110.621C214.074 109.866 213.879 109.025 214.032 108.099C214.184 107.173 214.638 106.439 215.393 105.897C216.138 105.363 216.978 105.172 217.913 105.326C218.848 105.48 219.582 105.93 220.117 106.675C220.658 107.43 220.853 108.271 220.7 109.197C220.548 110.123 220.094 110.857 219.339 111.399ZM215.396 108.324C215.302 108.896 215.413 109.403 215.729 109.844C216.046 110.286 216.482 110.552 217.038 110.644C217.593 110.735 218.092 110.623 218.533 110.306C218.974 109.989 219.242 109.545 219.336 108.972C219.431 108.4 219.32 107.893 219.003 107.452C218.686 107.01 218.25 106.744 217.695 106.652C217.139 106.561 216.64 106.674 216.199 106.99C215.758 107.307 215.49 107.751 215.396 108.324ZM224.368 113.212C223.416 113.056 222.673 112.605 222.139 111.859C221.614 111.107 221.428 110.268 221.58 109.342C221.735 108.399 222.181 107.663 222.916 107.136C223.662 106.601 224.51 106.412 225.461 106.569C226.076 106.67 226.612 106.91 227.068 107.288C227.525 107.665 227.839 108.123 228.01 108.662L226.723 109.151C226.63 108.824 226.449 108.552 226.182 108.335C225.925 108.111 225.607 107.968 225.228 107.906C224.673 107.814 224.174 107.927 223.733 108.243C223.299 108.57 223.036 109.011 222.944 109.566C222.853 110.122 222.96 110.624 223.267 111.072C223.584 111.514 224.02 111.78 224.575 111.871C224.946 111.932 225.292 111.903 225.615 111.783C225.947 111.656 226.214 111.454 226.415 111.175L227.48 112.038C227.127 112.499 226.67 112.835 226.108 113.045C225.554 113.256 224.974 113.312 224.368 113.212ZM230.31 109.741L231.699 109.97C232.381 110.082 232.901 110.366 233.258 110.823C233.625 111.273 233.757 111.809 233.654 112.432C233.553 113.047 233.256 113.512 232.763 113.829C232.278 114.147 231.695 114.25 231.013 114.138L228.259 113.684L229.299 107.369L230.663 107.594L230.31 109.741ZM229.825 112.684L231.227 112.915C231.497 112.959 231.733 112.916 231.936 112.785C232.148 112.655 232.274 112.464 232.316 112.212C232.357 111.959 232.303 111.738 232.152 111.549C232.002 111.36 231.788 111.243 231.51 111.197L230.108 110.966L229.825 112.684Z" fill="#92A2BB"/>
<path d="M35.7659 99.3713L40.6841 98.4945L43.7153 98.9935L40.8045 116.676L37.3186 116.102L39.6223 102.108L36.1341 102.493L35.7659 99.3713ZM50.5148 118.637C48.3088 118.274 46.7115 117.155 45.7229 115.28C44.7567 113.374 44.501 111.04 44.9556 108.278C45.4102 105.517 46.3992 103.396 47.9226 101.917C49.4628 100.441 51.336 99.8848 53.542 100.248C55.7817 100.617 57.3776 101.744 58.3297 103.631C59.2987 105.52 59.5558 107.845 59.1012 110.607C58.6466 113.369 57.6562 115.497 56.13 116.993C54.6263 118.458 52.7545 119.006 50.5148 118.637ZM55.6406 110.037C55.9511 108.151 55.8766 106.66 55.417 105.564C54.9743 104.471 54.1636 103.827 52.9848 103.633C51.806 103.439 50.8317 103.789 50.0619 104.682C49.2921 105.576 48.752 106.966 48.4415 108.852C48.131 110.738 48.1971 112.228 48.6398 113.321C49.0852 114.398 49.8974 115.033 51.0762 115.227C52.255 115.421 53.2293 115.071 53.9991 114.178C54.7857 113.287 55.3329 111.906 55.6406 110.037Z" fill="#285CB6"/>
<path d="M36.5793 129.56L35.7861 134.379L36.5597 134.506L36.1995 136.694L35.4701 136.574L35.7139 135.093L31.205 134.351L30.9612 135.832L30.2318 135.712L30.5921 133.524L31.2662 133.635C31.7244 133.196 32.0269 132.53 32.1736 131.639L32.623 128.909L36.5793 129.56ZM32.1503 133.78L35.0568 134.259L35.7335 130.148L33.2359 129.736L32.903 131.759C32.7623 132.613 32.5114 133.287 32.1503 133.78ZM41.9719 132.923L42.3685 130.513L43.0978 130.633L42.1882 136.159L41.4589 136.039L41.8554 133.63L38.6727 133.106L38.2761 135.515L37.5467 135.395L38.4563 129.869L39.1857 129.989L38.7891 132.399L41.9719 132.923ZM47.215 131.175C48.0401 131.311 48.6516 131.71 49.0494 132.374C49.4632 133.032 49.6052 133.755 49.4754 134.544C49.4693 134.581 49.4432 134.694 49.3969 134.883L44.5454 134.084C44.5281 134.649 44.6911 135.13 45.0344 135.527C45.3776 135.924 45.8476 136.171 46.4444 136.269C47.2843 136.408 47.9289 136.192 48.3783 135.623L48.9574 136.104C48.6488 136.462 48.262 136.72 47.7971 136.878C47.3408 137.03 46.8474 137.062 46.3169 136.975C45.4476 136.832 44.7852 136.443 44.3297 135.808C43.8743 135.173 43.7157 134.436 43.8539 133.596C43.991 132.763 44.3733 132.118 45.0009 131.662C45.6297 131.198 46.3677 131.036 47.215 131.175ZM47.0985 131.882C46.5239 131.788 46.0134 131.878 45.5671 132.152C45.1282 132.428 44.8265 132.836 44.6618 133.377L48.7839 134.055C48.7999 133.453 48.6498 132.962 48.3336 132.585C48.0038 132.198 47.5921 131.964 47.0985 131.882ZM54.997 131.684L52.1237 131.211L52.2292 130.57L55.1025 131.043L54.997 131.684ZM51.123 136.325L55.1167 132.612L55.7356 132.714L54.826 138.239L54.0966 138.119L54.797 133.865L50.8033 137.577L50.1844 137.475L51.094 131.95L51.8234 132.07L51.123 136.325Z" fill="#92A2BB"/>
<path d="M73.1241 110.84C73.0271 111.429 72.7334 111.9 72.2431 112.251C71.7528 112.603 71.213 112.73 70.6236 112.633C70.0342 112.536 69.5636 112.243 69.2119 111.752C68.8602 111.262 68.7329 110.722 68.8299 110.133C68.9269 109.543 69.2206 109.073 69.7109 108.721C70.2012 108.369 70.7411 108.242 71.3305 108.339C71.9199 108.436 72.3904 108.73 72.7421 109.22C73.0938 109.71 73.2211 110.25 73.1241 110.84ZM71.6355 119.883C71.5384 120.472 71.2448 120.943 70.7545 121.294C70.2642 121.646 69.7243 121.774 69.1349 121.676C68.5455 121.579 68.075 121.286 67.7233 120.795C67.3716 120.305 67.2442 119.765 67.3413 119.176C67.4383 118.587 67.732 118.116 68.2223 117.764C68.7126 117.413 69.2524 117.285 69.8418 117.382C70.4312 117.479 70.9018 117.773 71.2535 118.263C71.6052 118.754 71.7325 119.293 71.6355 119.883Z" fill="#285CB6"/>
<path d="M85.3982 107.542L90.3164 106.665L93.3476 107.164L90.4368 124.846L86.9509 124.272L89.2546 110.278L85.7664 110.664L85.3982 107.542ZM107.595 115.45C107.37 116.814 106.82 117.952 105.943 118.863L105.969 118.867L99.0939 126.271L95.1028 125.614L99.9915 120.503C98.1587 120.184 96.7556 119.357 95.7821 118.02C94.8255 116.687 94.4941 115.127 94.7879 113.342C95.0873 111.523 95.9193 110.147 97.2838 109.213C98.668 108.264 100.303 107.946 102.189 108.256C104.075 108.567 105.522 109.393 106.529 110.735C107.536 112.077 107.891 113.649 107.595 115.45ZM98.2486 113.912C98.1072 114.771 98.27 115.515 98.737 116.146C99.2068 116.759 99.8627 117.135 100.705 117.274C101.58 117.418 102.331 117.273 102.955 116.84C103.6 116.393 103.993 115.74 104.134 114.881C104.276 114.022 104.111 113.286 103.642 112.672C103.189 112.061 102.524 111.684 101.649 111.54C100.807 111.401 100.063 111.556 99.419 112.003C98.7773 112.434 98.3872 113.07 98.2486 113.912Z" fill="#285CB6"/>
<path d="M80.751 139.658L81.204 136.906L81.9333 137.026L81.0237 142.552L80.2943 142.432L80.64 140.332C80.1763 140.483 79.6313 140.507 79.0051 140.404C78.2757 140.284 77.7504 140.027 77.4293 139.633C77.1093 139.233 77.0033 138.704 77.1112 138.049L77.4023 136.28L78.1317 136.401L77.8406 138.169C77.7654 138.626 77.8287 138.976 78.0305 139.222C78.2397 139.468 78.5948 139.632 79.0958 139.715C79.6557 139.807 80.2074 139.788 80.751 139.658ZM88.0573 139.147L88.2356 138.064L88.965 138.184L88.0554 143.71L87.326 143.589L87.5043 142.506C86.8625 143.233 86.0517 143.516 85.0718 143.355C84.2835 143.225 83.6554 142.834 83.1877 142.182C82.7273 141.531 82.5638 140.8 82.6972 139.99C82.8306 139.179 83.2197 138.54 83.8644 138.071C84.5165 137.603 85.2367 137.434 86.0251 137.564C87.0049 137.725 87.6823 138.253 88.0573 139.147ZM83.8 141.772C84.1508 142.261 84.632 142.556 85.2435 142.656C85.855 142.757 86.4053 142.632 86.8943 142.281C87.3858 141.916 87.6813 141.431 87.7808 140.827C87.8814 140.215 87.7564 139.665 87.4055 139.176C87.0559 138.679 86.5754 138.381 85.9639 138.28C85.3524 138.179 84.8015 138.308 84.3112 138.666C83.8221 139.017 83.5272 139.498 83.4266 140.11C83.3271 140.714 83.4516 141.268 83.8 141.772ZM92.1528 144.52C91.3203 144.383 90.6732 143.993 90.2116 143.349C89.7524 142.691 89.5895 141.957 89.7229 141.146C89.8576 140.329 90.2466 139.689 90.8902 139.227C91.5349 138.758 92.2735 138.592 93.1061 138.729C93.6513 138.819 94.1194 139.032 94.5104 139.369C94.9026 139.699 95.1618 140.101 95.288 140.576L94.6348 140.82C94.542 140.464 94.3456 140.163 94.0456 139.917C93.7542 139.665 93.4022 139.505 92.9896 139.437C92.3781 139.336 91.8272 139.465 91.3369 139.823C90.8479 140.174 90.553 140.655 90.4523 141.266C90.3529 141.871 90.4774 142.425 90.8257 142.928C91.1766 143.417 91.6577 143.712 92.2692 143.813C92.6744 143.88 93.0549 143.844 93.4106 143.706C93.7737 143.569 94.0752 143.346 94.3152 143.037L94.8648 143.491C94.5636 143.896 94.1708 144.19 93.6863 144.375C93.2018 144.56 92.6906 144.609 92.1528 144.52ZM100.388 145.025C99.7302 145.484 98.9995 145.647 98.1965 145.515C97.3787 145.381 96.7353 144.991 96.2663 144.346C95.7986 143.694 95.632 142.959 95.7666 142.141C95.9012 141.323 96.294 140.684 96.9449 140.224C97.597 139.756 98.3319 139.59 99.1497 139.724C99.9602 139.858 100.599 140.25 101.067 140.903C101.543 141.548 101.714 142.28 101.58 143.098C101.446 143.909 101.049 144.551 100.388 145.025ZM96.8694 143.923C97.2202 144.412 97.7014 144.707 98.3129 144.808C98.9244 144.909 99.4747 144.783 99.9638 144.433C100.455 144.067 100.751 143.582 100.85 142.978C100.951 142.367 100.826 141.816 100.475 141.327C100.125 140.831 99.6448 140.532 99.0333 140.432C98.4218 140.331 97.8709 140.46 97.3806 140.818C96.8915 141.169 96.5967 141.65 96.496 142.261C96.3965 142.865 96.521 143.419 96.8694 143.923ZM106.327 143.8C106.895 144.121 107.126 144.601 107.021 145.242C106.945 145.699 106.729 146.046 106.373 146.282C106.023 146.52 105.576 146.594 105.031 146.504L102.345 146.062L103.255 140.536L105.719 140.942C106.25 141.029 106.64 141.233 106.89 141.555C107.147 141.877 107.239 142.259 107.166 142.701C107.075 143.254 106.796 143.62 106.327 143.8ZM105.603 141.649L103.868 141.364L103.591 143.043L105.326 143.329C105.967 143.435 106.335 143.2 106.43 142.625C106.472 142.367 106.42 142.155 106.274 141.987C106.136 141.813 105.912 141.7 105.603 141.649ZM103.191 145.475L105.147 145.797C105.471 145.85 105.731 145.813 105.926 145.686C106.128 145.561 106.252 145.358 106.298 145.078C106.342 144.813 106.288 144.592 106.135 144.416C105.99 144.24 105.755 144.126 105.431 144.073L103.475 143.751L103.191 145.475Z" fill="#92A2BB"/>
<path d="M124.236 119.254C124.139 119.843 123.845 120.314 123.355 120.665C122.865 121.017 122.325 121.144 121.735 121.047C121.146 120.95 120.675 120.657 120.324 120.166C119.972 119.676 119.845 119.136 119.942 118.547C120.039 117.957 120.332 117.487 120.823 117.135C121.313 116.783 121.853 116.656 122.442 116.753C123.032 116.85 123.502 117.144 123.854 117.634C124.206 118.124 124.333 118.664 124.236 119.254ZM122.747 128.297C122.65 128.886 122.357 129.357 121.866 129.708C121.376 130.06 120.836 130.187 120.247 130.09C119.657 129.993 119.187 129.7 118.835 129.209C118.483 128.719 118.356 128.179 118.453 127.59C118.55 127 118.844 126.53 119.334 126.178C119.824 125.827 120.364 125.699 120.954 125.796C121.543 125.893 122.014 126.187 122.365 126.677C122.717 127.167 122.844 127.707 122.747 128.297Z" fill="#285CB6"/>
<path d="M138.037 133.045C135.831 132.682 134.233 131.563 133.245 129.688C132.279 127.782 132.023 125.448 132.478 122.686C132.932 119.924 133.921 117.804 135.445 116.325C136.985 114.849 138.858 114.292 141.064 114.656C143.304 115.024 144.9 116.152 145.852 118.038C146.821 119.927 147.078 122.253 146.623 125.015C146.169 127.776 145.178 129.905 143.652 131.401C142.148 132.866 140.277 133.414 138.037 133.045ZM143.163 124.445C143.473 122.559 143.399 121.068 142.939 119.972C142.496 118.878 141.686 118.234 140.507 118.04C139.328 117.846 138.354 118.196 137.584 119.09C136.814 119.984 136.274 121.374 135.963 123.26C135.653 125.146 135.719 126.636 136.162 127.729C136.607 128.805 137.419 129.441 138.598 129.635C139.777 129.829 140.751 129.479 141.521 128.585C142.308 127.694 142.855 126.314 143.163 124.445ZM158.626 126.627C160.099 127.873 160.682 129.43 160.374 131.3C160.105 132.933 159.32 134.127 158.02 134.882C156.737 135.639 155.118 135.857 153.165 135.535C151.194 135.211 149.723 134.484 148.75 133.355C147.777 132.227 147.425 130.846 147.693 129.212C147.998 127.36 149.041 126.07 150.821 125.342C149.736 124.264 149.322 122.942 149.58 121.376C149.849 119.743 150.606 118.561 151.85 117.832C153.111 117.106 154.558 116.877 156.192 117.146C157.842 117.418 159.131 118.097 160.059 119.184C161.004 120.273 161.342 121.635 161.073 123.268C160.816 124.834 160 125.954 158.626 126.627ZM157.584 122.875C157.689 122.235 157.562 121.695 157.202 121.256C156.842 120.816 156.325 120.541 155.651 120.43C154.978 120.319 154.4 120.414 153.918 120.715C153.436 121.016 153.142 121.487 153.037 122.127C152.929 122.784 153.055 123.332 153.415 123.772C153.775 124.211 154.292 124.487 154.965 124.598C155.639 124.708 156.217 124.613 156.699 124.312C157.18 124.011 157.476 123.532 157.584 122.875ZM155.91 131.94C156.504 131.588 156.863 131.033 156.988 130.275C157.113 129.517 156.949 128.885 156.496 128.378C156.046 127.854 155.383 127.52 154.508 127.376C153.632 127.232 152.897 127.336 152.303 127.688C151.712 128.023 151.354 128.569 151.229 129.327C151.104 130.085 151.267 130.726 151.717 131.249C152.167 131.773 152.829 132.107 153.705 132.251C154.581 132.396 155.316 132.292 155.91 131.94Z" fill="#285CB6"/>
<path d="M133.31 145.484L134.15 145.622L133.241 151.148L132.511 151.028L133.237 146.618L130.787 149.439L130.698 149.424L129.281 145.967L128.555 150.376L127.826 150.256L128.735 144.731L129.575 144.869L130.944 148.205L133.31 145.484ZM135.725 150.251L139.719 146.539L140.338 146.641L139.428 152.166L138.699 152.046L139.399 147.792L135.405 151.504L134.787 151.402L135.696 145.877L136.426 145.997L135.725 150.251ZM145.396 149.948L145.792 147.539L146.522 147.659L145.612 153.184L144.883 153.064L145.279 150.655L142.096 150.131L141.7 152.54L140.971 152.42L141.88 146.895L142.61 147.015L142.213 149.424L145.396 149.948ZM149.49 152.903L152.043 148.568L152.816 148.695L149.458 154.34C149.145 154.863 148.764 155.243 148.317 155.48C147.875 155.725 147.418 155.79 146.945 155.674L147.058 154.989C147.708 155.179 148.276 154.879 148.761 154.089L148.961 153.77L147.401 147.803L148.175 147.931L149.49 152.903ZM153.035 148.731L157.676 149.495L157.56 150.202L155.604 149.88L154.81 154.699L154.081 154.579L154.874 149.76L152.918 149.438L153.035 148.731Z" fill="#92A2BB"/>
<path d="M174.361 127.505C174.264 128.095 173.971 128.565 173.48 128.917C172.99 129.268 172.45 129.396 171.861 129.299C171.271 129.202 170.801 128.908 170.449 128.418C170.098 127.927 169.97 127.388 170.067 126.798C170.164 126.209 170.458 125.738 170.948 125.387C171.439 125.035 171.978 124.908 172.568 125.005C173.157 125.102 173.628 125.395 173.979 125.886C174.331 126.376 174.458 126.916 174.361 127.505ZM172.873 136.548C172.776 137.138 172.482 137.608 171.992 137.96C171.501 138.312 170.962 138.439 170.372 138.342C169.783 138.245 169.312 137.951 168.961 137.461C168.609 136.971 168.482 136.431 168.579 135.841C168.676 135.252 168.969 134.781 169.46 134.43C169.95 134.078 170.49 133.951 171.079 134.048C171.669 134.145 172.139 134.438 172.491 134.929C172.842 135.419 172.97 135.959 172.873 136.548Z" fill="#285CB6"/>
<path d="M201.833 127.98L197.817 131.73C198.989 132.286 199.863 133.069 200.44 134.081C201.034 135.096 201.23 136.218 201.027 137.447C200.728 139.266 199.879 140.587 198.481 141.412C197.116 142.243 195.541 142.511 193.756 142.217C192.358 141.987 191.173 141.463 190.201 140.646C189.231 139.812 188.601 138.757 188.309 137.481L191.572 136.254C191.769 137.687 192.684 138.538 194.317 138.807C195.21 138.954 195.935 138.857 196.493 138.517C197.07 138.162 197.42 137.614 197.542 136.873C197.661 136.149 197.504 135.526 197.071 135.005C196.654 134.487 196 134.155 195.107 134.008L194.35 133.883L193.344 131.642L197.578 127.669L190.657 126.529L191.193 123.271L202.307 125.1L201.833 127.98ZM202.966 126.895L207.884 126.018L210.915 126.517L208.004 144.199L204.519 143.626L206.822 129.632L203.334 130.017L202.966 126.895Z" fill="#285CB6"/>
<path d="M180.504 159.064C179.672 158.927 179.025 158.537 178.563 157.894C178.104 157.235 177.941 156.501 178.074 155.691C178.209 154.873 178.598 154.233 179.242 153.771C179.886 153.302 180.625 153.136 181.457 153.274C182.003 153.363 182.471 153.577 182.862 153.913C183.254 154.243 183.513 154.645 183.639 155.12L182.986 155.364C182.893 155.008 182.697 154.707 182.397 154.461C182.106 154.209 181.754 154.049 181.341 153.981C180.729 153.88 180.179 154.009 179.688 154.367C179.199 154.718 178.904 155.199 178.804 155.811C178.704 156.415 178.829 156.969 179.177 157.472C179.528 157.962 180.009 158.256 180.621 158.357C181.026 158.424 181.406 158.388 181.762 158.25C182.125 158.113 182.427 157.89 182.667 157.582L183.216 158.035C182.915 158.44 182.522 158.734 182.038 158.92C181.553 159.105 181.042 159.153 180.504 159.064ZM187.479 154.265C188.304 154.401 188.916 154.8 189.313 155.463C189.727 156.122 189.869 156.845 189.739 157.633C189.733 157.67 189.707 157.783 189.661 157.972L184.809 157.174C184.792 157.738 184.955 158.219 185.298 158.616C185.642 159.013 186.112 159.261 186.708 159.359C187.548 159.498 188.193 159.282 188.642 158.713L189.221 159.194C188.913 159.552 188.526 159.81 188.061 159.968C187.605 160.12 187.111 160.152 186.581 160.065C185.712 159.922 185.049 159.533 184.594 158.898C184.138 158.263 183.98 157.525 184.118 156.685C184.255 155.853 184.637 155.208 185.265 154.752C185.894 154.288 186.632 154.125 187.479 154.265ZM187.363 154.972C186.788 154.877 186.277 154.967 185.831 155.242C185.392 155.518 185.09 155.926 184.926 156.467L189.048 157.145C189.064 156.542 188.914 156.052 188.598 155.675C188.268 155.288 187.856 155.053 187.363 154.972ZM192.424 157.939L194.913 161.3L193.941 161.14L191.616 158.022L191.178 160.685L190.448 160.565L191.358 155.04L192.087 155.16L191.685 157.602L194.718 155.593L195.712 155.756L192.424 157.939ZM198.029 160.894L200.582 156.558L201.355 156.685L197.997 162.33C197.684 162.853 197.303 163.234 196.856 163.47C196.414 163.715 195.957 163.78 195.484 163.664L195.597 162.979C196.247 163.169 196.815 162.869 197.3 162.079L197.5 161.76L195.94 155.794L196.714 155.921L198.029 160.894ZM205.752 159.884L206.149 157.474L206.878 157.594L205.969 163.12L205.239 163L205.636 160.591L202.453 160.067L202.056 162.476L201.327 162.356L202.237 156.83L202.966 156.95L202.569 159.36L205.752 159.884ZM213.062 158.612L212.269 163.431L213.043 163.558L212.682 165.746L211.953 165.626L212.197 164.145L207.688 163.403L207.444 164.884L206.715 164.764L207.075 162.576L207.749 162.687C208.207 162.248 208.51 161.582 208.656 160.691L209.106 157.961L213.062 158.612ZM208.633 162.832L211.54 163.311L212.216 159.2L209.719 158.788L209.386 160.811C209.245 161.665 208.994 162.339 208.633 162.832Z" fill="#92A2BB"/>
</g>
</g>
<defs>
<filter id="filter0_d_105_3255" x="-0.969231" y="-0.969231" width="288.481" height="214.254" filterUnits="userSpaceOnUse" color-interpolation-filters="sRGB">
<feFlood flood-opacity="0" result="BackgroundImageFix"/>
<feColorMatrix in="SourceAlpha" type="matrix" values="0 0 0 0 0 0 0 0 0 0 0 0 0 0 0 0 0 0 127 0" result="hardAlpha"/>
<feOffset dx="6.64615" dy="6.64615"/>
<feGaussianBlur stdDeviation="8.30769"/>
<feComposite in2="hardAlpha" operator="out"/>
<feColorMatrix type="matrix" values="0 0 0 0 0.254808 0 0 0 0 0.254808 0 0 0 0 0.254808 0 0 0 0.25 0"/>
<feBlend mode="normal" in2="BackgroundImageFix" result="effect1_dropShadow_105_3255"/>
<feBlend mode="normal" in="SourceGraphic" in2="effect1_dropShadow_105_3255" result="shape"/>
</filter>
<clipPath id="clip0_105_3255">
<rect x="32.52" y="9" width="234.849" height="144.8" rx="12.8" transform="rotate(9.34801 32.52 9)" fill="white"/>
</clipPath>
<clipPath id="clip1_105_3255">
<rect width="12.8" height="12.8" fill="white" transform="translate(47.0273 29.2251) rotate(9.34801)"/>
</clipPath>
</defs>
</svg>
