<svg width="108" height="108" viewBox="0 0 108 108" fill="none" xmlns="http://www.w3.org/2000/svg">
<g filter="url(#filter0_d_105_3486)">
<rect x="11.6211" y="9" width="74.3642" height="74.3642" rx="18.591" transform="rotate(2.01975 11.6211 9)" fill="white" fill-opacity="0.2" shape-rendering="crispEdges"/>
<rect x="11.9945" y="9.40072" width="73.5896" height="73.5896" rx="18.2037" transform="rotate(2.01975 11.9945 9.40072)" stroke="white" stroke-width="0.774625" shape-rendering="crispEdges"/>
<path fill-rule="evenodd" clip-rule="evenodd" d="M48.1663 58.7997C47.583 58.1737 46.6028 58.1391 45.9769 58.7225L38.4966 65.693C37.8707 66.2763 37.8361 67.2565 38.4194 67.8825C39.0027 68.5084 39.983 68.543 40.609 67.9597L46.9558 62.0455L52.8701 68.3921C53.4535 69.0181 54.4336 69.0527 55.0596 68.4693C55.6856 67.886 55.7202 66.9058 55.1369 66.2799L48.1663 58.7997Z" fill="#71A5FF"/>
<path fill-rule="evenodd" clip-rule="evenodd" d="M48.2524 25.2773C49.1075 25.3075 49.7762 26.0251 49.7461 26.8802L49.6005 31.009C49.5703 31.8641 48.8526 32.5328 47.9976 32.5027C47.1425 32.4725 46.4737 31.7549 46.5039 30.8998L46.6495 26.771C46.6797 25.9159 47.3973 25.2472 48.2524 25.2773Z" fill="#71A5FF"/>
<path fill-rule="evenodd" clip-rule="evenodd" d="M66.3838 62.0885C67.923 62.1428 69.2148 60.9391 69.269 59.3999L70.201 32.9758C70.2553 31.4366 69.0516 30.1448 67.5124 30.0905L28.702 28.7217C27.1628 28.6674 25.871 29.8712 25.8167 31.4103L24.8848 57.8345C24.8305 59.3737 26.0342 60.6654 27.5734 60.7197L66.3838 62.0885ZM42.8252 47.3057C42.8554 46.4506 42.1866 45.7329 41.3315 45.7028C40.4765 45.6726 39.7588 46.3414 39.7286 47.1965L39.583 51.3252C39.5529 52.1803 40.2216 52.898 41.0767 52.9281C41.9318 52.9583 42.6494 52.2895 42.6796 51.4344L42.8252 47.3057ZM47.6703 41.7924C48.5254 41.8226 49.1942 42.5402 49.164 43.3953L48.8728 51.6529C48.8426 52.5079 48.1249 53.1767 47.2699 53.1466C46.4148 53.1164 45.746 52.3987 45.7762 51.5437L46.0674 43.2861C46.0976 42.431 46.8152 41.7623 47.6703 41.7924ZM55.5028 39.485C55.5329 38.6299 54.8642 37.9123 54.0091 37.8821C53.154 37.8519 52.4363 38.5207 52.4062 39.3758L51.9693 51.7621C51.9392 52.6172 52.6079 53.3348 53.463 53.365C54.3181 53.3951 55.0357 52.7264 55.0659 51.8713L55.5028 39.485Z" fill="#71A5FF"/>
</g>
<defs>
<filter id="filter0_d_105_3486" x="-0.653027" y="-0.653027" width="109.116" height="109.116" filterUnits="userSpaceOnUse" color-interpolation-filters="sRGB">
<feFlood flood-opacity="0" result="BackgroundImageFix"/>
<feColorMatrix in="SourceAlpha" type="matrix" values="0 0 0 0 0 0 0 0 0 0 0 0 0 0 0 0 0 0 127 0" result="hardAlpha"/>
<feOffset dx="6.43535" dy="6.43535"/>
<feGaussianBlur stdDeviation="8.04419"/>
<feComposite in2="hardAlpha" operator="out"/>
<feColorMatrix type="matrix" values="0 0 0 0 0.254808 0 0 0 0 0.254808 0 0 0 0 0.254808 0 0 0 0.25 0"/>
<feBlend mode="normal" in2="BackgroundImageFix" result="effect1_dropShadow_105_3486"/>
<feBlend mode="normal" in="SourceGraphic" in2="effect1_dropShadow_105_3486" result="shape"/>
</filter>
</defs>
</svg>
