<svg width="105" height="105" viewBox="0 0 105 105" fill="none" xmlns="http://www.w3.org/2000/svg">
<g filter="url(#filter0_d_92_8030)">
<rect x="8" y="17.916" width="80.0002" height="80.0002" rx="24" transform="rotate(-7.12021 8 17.916)" fill="white" shape-rendering="crispEdges"/>
<rect x="8.55812" y="18.3502" width="79.0002" height="79.0002" rx="23.5" transform="rotate(-7.12021 8.55812 18.3502)" stroke="white" shape-rendering="crispEdges"/>
<g clip-path="url(#clip0_92_8030)">
<path fill-rule="evenodd" clip-rule="evenodd" d="M34.1066 49.4235C33.2846 49.5261 32.7014 50.2758 32.8041 51.0978L35.0351 68.959C35.4117 71.9732 38.1603 74.1114 41.1744 73.7349L60.1631 71.363L59.8081 71.0869C57.8464 69.5608 57.4933 66.7336 59.0193 64.7719C60.5453 62.8103 63.3726 62.4571 65.3342 63.9831L66.2473 64.6934L70.431 59.3154C71.0833 58.4769 71.9734 57.9322 72.9322 57.7027L71.5033 46.2638C71.4007 45.4418 70.651 44.8587 69.829 44.9613L34.1066 49.4235Z" fill="#285CB6"/>
<path fill-rule="evenodd" clip-rule="evenodd" d="M40.062 32.5549C40.884 32.4522 41.6337 33.0354 41.7364 33.8574L42.7279 41.7957C42.8306 42.6178 42.2475 43.3674 41.4254 43.4701C40.6034 43.5728 39.8537 42.9896 39.7511 42.1676L39.4412 39.6869L36.9605 39.9967C35.5904 40.1679 34.6185 41.4172 34.7896 42.7873L35.7812 50.7256C35.8839 51.5476 35.3007 52.2973 34.4787 52.4C33.6567 52.5027 32.907 51.9195 32.8043 51.0975L31.8128 43.1592C31.4363 40.145 33.5745 37.3964 36.5886 37.0199L39.0694 36.71L38.7595 34.2293C38.6568 33.4072 39.24 32.6576 40.062 32.5549ZM55.9386 30.5718C56.7606 30.4691 57.5103 31.0522 57.613 31.8743L58.6046 39.8126C58.7072 40.6346 58.1241 41.3842 57.302 41.4869C56.48 41.5896 55.7304 41.0064 55.6277 40.1844L55.3178 37.7037L47.8757 38.6333C47.0536 38.736 46.304 38.1528 46.2013 37.3308C46.0986 36.5088 46.6818 35.7591 47.5038 35.6564L54.946 34.7268L54.6361 32.2461C54.5334 31.4241 55.1166 30.6744 55.9386 30.5718ZM62.0779 35.3476C61.9752 34.5256 62.5584 33.7759 63.3804 33.6733L64.3727 33.5493C67.3869 33.1728 70.1355 35.3111 70.512 38.3252L71.5036 46.2635C71.6063 47.0855 71.0231 47.8352 70.2011 47.9379C69.3791 48.0405 68.6294 47.4574 68.5267 46.6354L67.5352 38.697C67.364 37.327 66.1147 36.355 64.7446 36.5262L63.7523 36.6501C62.9303 36.7528 62.1806 36.1697 62.0779 35.3476Z" fill="#285CB6"/>
<path fill-rule="evenodd" clip-rule="evenodd" d="M61.3876 66.6138C61.8963 65.96 62.8387 65.8422 63.4924 66.3509L66.7735 68.9031L72.7993 61.1573C73.3079 60.5034 74.2504 60.3857 74.9041 60.8944C75.558 61.4031 75.6757 62.3453 75.167 62.9992L68.2203 71.9291C67.7118 72.583 66.7693 72.7007 66.1154 72.1921L61.6505 68.7187C60.9966 68.21 60.8789 67.2677 61.3876 66.6138Z" fill="#285CB6"/>
</g>
</g>
<defs>
<filter id="filter0_d_92_8030" x="-2.1" y="-2.1" width="109.499" height="109.499" filterUnits="userSpaceOnUse" color-interpolation-filters="sRGB">
<feFlood flood-opacity="0" result="BackgroundImageFix"/>
<feColorMatrix in="SourceAlpha" type="matrix" values="0 0 0 0 0 0 0 0 0 0 0 0 0 0 0 0 0 0 127 0" result="hardAlpha"/>
<feOffset/>
<feGaussianBlur stdDeviation="5.05"/>
<feComposite in2="hardAlpha" operator="out"/>
<feColorMatrix type="matrix" values="0 0 0 0 0.501923 0 0 0 0 0.501923 0 0 0 0 0.501923 0 0 0 0.3 0"/>
<feBlend mode="normal" in2="BackgroundImageFix" result="effect1_dropShadow_92_8030"/>
<feBlend mode="normal" in="SourceGraphic" in2="effect1_dropShadow_92_8030" result="shape"/>
</filter>
<clipPath id="clip0_92_8030">
<rect width="48" height="48" fill="white" transform="translate(25.8599 31.8096) rotate(-7.12)"/>
</clipPath>
</defs>
</svg>
