<svg width="115" height="115" viewBox="0 0 115 115" fill="none" xmlns="http://www.w3.org/2000/svg">
<g filter="url(#filter0_d_105_3191)">
<rect x="13" y="13" width="72" height="72" rx="36" fill="white" shape-rendering="crispEdges"/>
<path fill-rule="evenodd" clip-rule="evenodd" d="M50.9902 33.3095C51.4893 33.4717 51.8271 33.9369 51.8271 34.4616V44.5578H60.3079C60.7636 44.5578 61.1807 44.8135 61.3874 45.2195C61.5942 45.6256 61.5558 46.1133 61.2878 46.4819L48.3647 64.2512C48.056 64.6755 47.5092 64.8529 47.0102 64.6907C46.511 64.5284 46.1733 64.0633 46.1733 63.5386V53.4425H37.6925C37.2368 53.4425 36.8197 53.1868 36.6129 52.7806C36.4061 52.3745 36.4447 51.8869 36.7127 51.5182L49.6358 33.749C49.9444 33.3246 50.4912 33.1472 50.9902 33.3095Z" fill="#285CB6"/>
</g>
<defs>
<filter id="filter0_d_105_3191" x="0.538461" y="0.538461" width="113.538" height="113.538" filterUnits="userSpaceOnUse" color-interpolation-filters="sRGB">
<feFlood flood-opacity="0" result="BackgroundImageFix"/>
<feColorMatrix in="SourceAlpha" type="matrix" values="0 0 0 0 0 0 0 0 0 0 0 0 0 0 0 0 0 0 127 0" result="hardAlpha"/>
<feOffset dx="8.30769" dy="8.30769"/>
<feGaussianBlur stdDeviation="10.3846"/>
<feComposite in2="hardAlpha" operator="out"/>
<feColorMatrix type="matrix" values="0 0 0 0 0.254808 0 0 0 0 0.254808 0 0 0 0 0.254808 0 0 0 0.25 0"/>
<feBlend mode="normal" in2="BackgroundImageFix" result="effect1_dropShadow_105_3191"/>
<feBlend mode="normal" in="SourceGraphic" in2="effect1_dropShadow_105_3191" result="shape"/>
</filter>
</defs>
</svg>
