<svg width="168" height="24" viewBox="0 0 168 24" fill="none" xmlns="http://www.w3.org/2000/svg">
<path d="M8.58737 8.23597L11.1849 3.00376C11.5183 2.33208 12.4817 2.33208 12.8151 3.00376L15.4126 8.23597L21.2215 9.08017C21.9668 9.18848 22.2638 10.0994 21.7243 10.6219L17.5217 14.6918L18.5135 20.4414C18.6409 21.1798 17.8614 21.7428 17.1945 21.3941L12 18.678L6.80547 21.3941C6.1386 21.7428 5.35909 21.1798 5.48645 20.4414L6.47825 14.6918L2.27575 10.6219C1.73617 10.0994 2.03322 9.18848 2.77852 9.08017L8.58737 8.23597Z" fill="#FFDC14" stroke="#F6D100" stroke-width="1.5" stroke-linecap="round" stroke-linejoin="round"/>
<path d="M44.5874 8.23597L47.1849 3.00376C47.5183 2.33208 48.4817 2.33208 48.8151 3.00376L51.4126 8.23597L57.2215 9.08017C57.9668 9.18848 58.2638 10.0994 57.7243 10.6219L53.5217 14.6918L54.5135 20.4414C54.6409 21.1798 53.8614 21.7428 53.1945 21.3941L48 18.678L42.8055 21.3941C42.1386 21.7428 41.3591 21.1798 41.4865 20.4414L42.4783 14.6918L38.2758 10.6219C37.7362 10.0994 38.0332 9.18848 38.7785 9.08017L44.5874 8.23597Z" fill="#FFDC14" stroke="#F6D100" stroke-width="1.5" stroke-linecap="round" stroke-linejoin="round"/>
<path d="M80.5874 8.23597L83.1849 3.00376C83.5183 2.33208 84.4817 2.33208 84.8151 3.00376L87.4126 8.23597L93.2215 9.08017C93.9668 9.18848 94.2638 10.0994 93.7243 10.6219L89.5217 14.6918L90.5135 20.4414C90.6409 21.1798 89.8614 21.7428 89.1945 21.3941L84 18.678L78.8055 21.3941C78.1386 21.7428 77.3591 21.1798 77.4865 20.4414L78.4783 14.6918L74.2758 10.6219C73.7362 10.0994 74.0332 9.18848 74.7785 9.08017L80.5874 8.23597Z" fill="#FFDC14" stroke="#F6D100" stroke-width="1.5" stroke-linecap="round" stroke-linejoin="round"/>
<path d="M116.587 8.23597L119.185 3.00376C119.518 2.33208 120.482 2.33208 120.815 3.00376L123.413 8.23597L129.222 9.08017C129.967 9.18848 130.264 10.0994 129.724 10.6219L125.522 14.6918L126.514 20.4414C126.641 21.1798 125.861 21.7428 125.195 21.3941L120 18.678L114.805 21.3941C114.139 21.7428 113.359 21.1798 113.486 20.4414L114.478 14.6918L110.276 10.6219C109.736 10.0994 110.033 9.18848 110.779 9.08017L116.587 8.23597Z" fill="#FFDC14" stroke="#F6D100" stroke-width="1.5" stroke-linecap="round" stroke-linejoin="round"/>
<path d="M152.587 8.73597L155.185 3.50376C155.518 2.83208 156.482 2.83208 156.815 3.50376L159.413 8.73597L165.222 9.58017C165.967 9.68848 166.264 10.5994 165.724 11.1219L161.522 15.1918L162.514 20.9414C162.641 21.6798 161.861 22.2428 161.195 21.8941L156 19.178L150.805 21.8941C150.139 22.2428 149.359 21.6798 149.486 20.9414L150.478 15.1918L146.276 11.1219C145.736 10.5994 146.033 9.68848 146.779 9.58017L152.587 8.73597Z" fill="#FFDC14" stroke="#F6D100" stroke-width="1.5" stroke-linecap="round" stroke-linejoin="round"/>
</svg>
