<svg width="97" height="24" viewBox="0 0 97 24" fill="none" xmlns="http://www.w3.org/2000/svg">
<path d="M8.92282 8.23597L11.5204 3.00376C11.8538 2.33208 12.8172 2.33208 13.1506 3.00376L15.7481 8.23597L21.557 9.08017C22.3023 9.18848 22.5993 10.0994 22.0598 10.6219L17.8572 14.6918L18.849 20.4414C18.9764 21.1798 18.1969 21.7428 17.53 21.3941L12.3355 18.678L7.14092 21.3941C6.47405 21.7428 5.69454 21.1798 5.8219 20.4414L6.8137 14.6918L2.6112 10.6219C2.07162 10.0994 2.36867 9.18848 3.11397 9.08017L8.92282 8.23597Z" fill="#FFDC14" stroke="#F6D100" stroke-width="1.5" stroke-linecap="round" stroke-linejoin="round"/>
<path d="M44.9228 8.23597L47.5204 3.00376C47.8538 2.33208 48.8172 2.33208 49.1506 3.00376L51.7481 8.23597L57.557 9.08017C58.3023 9.18848 58.5993 10.0994 58.0598 10.6219L53.8572 14.6918L54.849 20.4414C54.9764 21.1798 54.1969 21.7428 53.53 21.3941L48.3355 18.678L43.1409 21.3941C42.4741 21.7428 41.6945 21.1798 41.8219 20.4414L42.8137 14.6918L38.6112 10.6219C38.0716 10.0994 38.3687 9.18848 39.114 9.08017L44.9228 8.23597Z" fill="#FFDC14" stroke="#F6D100" stroke-width="1.5" stroke-linecap="round" stroke-linejoin="round"/>
<path d="M80.9228 8.23597L83.5204 3.00376C83.8538 2.33208 84.8172 2.33208 85.1506 3.00376L87.7481 8.23597L93.557 9.08017C94.3023 9.18848 94.5993 10.0994 94.0598 10.6219L89.8572 14.6918L90.849 20.4414C90.9764 21.1798 90.1969 21.7428 89.53 21.3941L84.3355 18.678L79.1409 21.3941C78.4741 21.7428 77.6945 21.1798 77.8219 20.4414L78.8137 14.6918L74.6112 10.6219C74.0716 10.0994 74.3687 9.18848 75.114 9.08017L80.9228 8.23597Z" fill="#FFDC14" stroke="#F6D100" stroke-width="1.5" stroke-linecap="round" stroke-linejoin="round"/>
</svg>
