<svg width="28" height="28" viewBox="0 0 28 28" fill="none" xmlns="http://www.w3.org/2000/svg">
<path d="M4.6665 7V14C4.6665 14 4.6665 17.5 12.8332 17.5C20.9998 17.5 20.9998 14 20.9998 14V7" stroke="#285CB6" stroke-width="2" stroke-linecap="round" stroke-linejoin="round"/>
<path d="M12.8332 3.5C20.9998 3.5 20.9998 7 20.9998 7C20.9998 7 20.9998 10.5 12.8332 10.5C4.6665 10.5 4.6665 7 4.6665 7C4.6665 7 4.6665 3.5 12.8332 3.5Z" stroke="#285CB6" stroke-width="2" stroke-linecap="round" stroke-linejoin="round"/>
<path d="M12.8332 24.5C4.6665 24.5 4.6665 21 4.6665 21V14" stroke="#285CB6" stroke-width="2" stroke-linecap="round" stroke-linejoin="round"/>
<path d="M22.1665 25.6667V18.6667M22.1665 18.6667L25.6665 22.1667M22.1665 18.6667L18.6665 22.1667" stroke="#285CB6" stroke-width="2" stroke-linecap="round" stroke-linejoin="round"/>
</svg>
