<svg width="29" height="28" viewBox="0 0 29 28" fill="none" xmlns="http://www.w3.org/2000/svg">
<path d="M23.9997 14V6.7066C23.9997 6.52095 23.9259 6.3429 23.7947 6.21162L20.1213 2.53834C19.9901 2.40706 19.812 2.33331 19.6264 2.33331H6.03301C5.64641 2.33331 5.33301 2.64671 5.33301 3.03331V24.9666C5.33301 25.3533 5.64641 25.6666 6.03301 25.6666H13.4997" stroke="#285CB6" stroke-width="2" stroke-linecap="round" stroke-linejoin="round"/>
<path d="M10 11.6667H19.3333M10 7H14.6667M10 16.3333H13.5" stroke="#285CB6" stroke-width="2" stroke-linecap="round" stroke-linejoin="round"/>
<path d="M24.583 23.9167L26.333 25.6667" stroke="#285CB6" stroke-width="2" stroke-linecap="round" stroke-linejoin="round"/>
<path d="M18.1665 21C18.1665 22.933 19.7335 24.5 21.6665 24.5C22.6347 24.5 23.511 24.1068 24.1446 23.4716C24.7761 22.8384 25.1665 21.9648 25.1665 21C25.1665 19.0669 23.5996 17.5 21.6665 17.5C19.7335 17.5 18.1665 19.0669 18.1665 21Z" stroke="#285CB6" stroke-width="2" stroke-linecap="round" stroke-linejoin="round"/>
<path d="M19.333 2.33331V6.29998C19.333 6.68658 19.6464 6.99998 20.033 6.99998H23.9997" stroke="#285CB6" stroke-width="2" stroke-linecap="round" stroke-linejoin="round"/>
</svg>
