<svg width="29" height="28" viewBox="0 0 29 28" fill="none" xmlns="http://www.w3.org/2000/svg">
<path d="M8.5 16.3333C6.56701 16.3333 5 17.9003 5 19.8333C5 21.7664 6.56701 23.3333 8.5 23.3333C8.90908 23.3333 9.30176 23.2631 9.66667 23.1342" stroke="#285CB6" stroke-width="2" stroke-linecap="round" stroke-linejoin="round"/>
<path d="M5.30819 18.2054C3.7453 17.4512 2.66699 15.8515 2.66699 14C2.66699 12.5863 3.29551 11.3196 4.28836 10.4638" stroke="#285CB6" stroke-width="2" stroke-linecap="round" stroke-linejoin="round"/>
<path d="M4.32411 10.3695C4.01421 9.90625 3.8335 9.34921 3.8335 8.74998C3.8335 7.13915 5.13933 5.83331 6.75016 5.83331C7.40689 5.83331 8.01293 6.05036 8.50044 6.41665" stroke="#285CB6" stroke-width="2" stroke-linecap="round" stroke-linejoin="round"/>
<path d="M8.7773 6.49286C8.59945 6.11582 8.5 5.69451 8.5 5.24998C8.5 3.63915 9.80584 2.33331 11.4167 2.33331C13.0275 2.33331 14.3333 3.63915 14.3333 5.24998V23.3333" stroke="#285CB6" stroke-width="2" stroke-linecap="round" stroke-linejoin="round"/>
<path d="M9.66699 23.3333C9.66699 24.622 10.7117 25.6666 12.0003 25.6666C13.289 25.6666 14.3337 24.622 14.3337 23.3333" stroke="#285CB6" stroke-width="2" stroke-linecap="round" stroke-linejoin="round"/>
<path d="M14.3335 8.16669C14.3335 10.0997 15.9004 11.6667 17.8335 11.6667" stroke="#285CB6" stroke-width="2" stroke-linecap="round" stroke-linejoin="round"/>
<path d="M24.3789 10.4638C25.3717 11.3196 26.0003 12.5863 26.0003 14C26.0003 14.8203 25.7887 15.5911 25.417 16.2609" stroke="#285CB6" stroke-width="2" stroke-linecap="round" stroke-linejoin="round"/>
<path d="M24.3428 10.3695C24.6527 9.90625 24.8334 9.34921 24.8334 8.74998C24.8334 7.13915 23.5276 5.83331 21.9167 5.83331C21.26 5.83331 20.6539 6.05036 20.1665 6.41665" stroke="#285CB6" stroke-width="2" stroke-linecap="round" stroke-linejoin="round"/>
<path d="M14.3335 5.24998C14.3335 3.63915 15.6393 2.33331 17.2502 2.33331C18.861 2.33331 20.1668 3.63915 20.1668 5.24998C20.1668 5.69451 20.0674 6.11582 19.8895 6.49286" stroke="#285CB6" stroke-width="2" stroke-linecap="round" stroke-linejoin="round"/>
<path d="M16.6668 25.6666C15.3781 25.6666 14.3335 24.622 14.3335 23.3333" stroke="#285CB6" stroke-width="2" stroke-linecap="round" stroke-linejoin="round"/>
<path d="M24.25 23.9167L26 25.6667" stroke="#285CB6" stroke-width="2" stroke-linecap="round" stroke-linejoin="round"/>
<path d="M19 21.5834C19 23.1942 20.3059 24.5 21.9167 24.5C22.7235 24.5 23.4537 24.1724 23.9818 23.643C24.5079 23.1154 24.8333 22.3874 24.8333 21.5834C24.8333 19.9725 23.5275 18.6667 21.9167 18.6667C20.3059 18.6667 19 19.9725 19 21.5834Z" stroke="#285CB6" stroke-width="2" stroke-linecap="round" stroke-linejoin="round"/>
</svg>
