<svg width="28" height="28" viewBox="0 0 28 28" fill="none" xmlns="http://www.w3.org/2000/svg">
<path d="M8.1665 7H19.8332" stroke="#285CB6" stroke-width="2" stroke-linecap="round" stroke-linejoin="round"/>
<path d="M8.1665 10.5H19.8332" stroke="#285CB6" stroke-width="2" stroke-linecap="round" stroke-linejoin="round"/>
<path d="M10.5 19.8333H17.5" stroke="#285CB6" stroke-width="2" stroke-linecap="round" stroke-linejoin="round"/>
<path d="M3.50016 14H3.0335C2.6469 14 2.3335 14.3133 2.3335 14.7V24.9666C2.3335 25.3533 2.6469 25.6666 3.0335 25.6666H24.9668C25.3535 25.6666 25.6668 25.3533 25.6668 24.9666V14.7C25.6668 14.3133 25.3535 14 24.9668 14H24.5002M3.50016 14V3.03331C3.50016 2.64671 3.81356 2.33331 4.20016 2.33331H23.8002C24.1868 2.33331 24.5002 2.64671 24.5002 3.03331V14M3.50016 14H24.5002" stroke="#285CB6" stroke-width="2"/>
</svg>
