<svg width="375" height="812" viewBox="0 0 375 812" fill="none" xmlns="http://www.w3.org/2000/svg">
  <rect width="375" height="812" fill="#F8F9FA"/>
  <g opacity="0.05">
    <path d="M-96 102L469 102" stroke="#285CB6" stroke-width="0.5"/>
    <path d="M-96 122L469 122" stroke="#285CB6" stroke-width="0.5"/>
    <path d="M-96 142L469 142" stroke="#285CB6" stroke-width="0.5"/>
    <path d="M-96 162L469 162" stroke="#285CB6" stroke-width="0.5"/>
    <path d="M-96 182L469 182" stroke="#285CB6" stroke-width="0.5"/>
    <path d="M-96 202L469 202" stroke="#285CB6" stroke-width="0.5"/>
    <path d="M-96 222L469 222" stroke="#285CB6" stroke-width="0.5"/>
    <path d="M-96 242L469 242" stroke="#285CB6" stroke-width="0.5"/>
    <path d="M-96 262L469 262" stroke="#285CB6" stroke-width="0.5"/>
    <path d="M-96 282L469 282" stroke="#285CB6" stroke-width="0.5"/>
    <path d="M-96 302L469 302" stroke="#285CB6" stroke-width="0.5"/>
    <path d="M-96 322L469 322" stroke="#285CB6" stroke-width="0.5"/>
    <path d="M-96 342L469 342" stroke="#285CB6" stroke-width="0.5"/>
    <path d="M-96 362L469 362" stroke="#285CB6" stroke-width="0.5"/>
    <path d="M-96 382L469 382" stroke="#285CB6" stroke-width="0.5"/>
    <path d="M-96 402L469 402" stroke="#285CB6" stroke-width="0.5"/>
    <path d="M-96 422L469 422" stroke="#285CB6" stroke-width="0.5"/>
    <path d="M-96 442L469 442" stroke="#285CB6" stroke-width="0.5"/>
    <path d="M-96 462L469 462" stroke="#285CB6" stroke-width="0.5"/>
    <path d="M-96 482L469 482" stroke="#285CB6" stroke-width="0.5"/>
    <path d="M-96 502L469 502" stroke="#285CB6" stroke-width="0.5"/>
    <path d="M-96 522L469 522" stroke="#285CB6" stroke-width="0.5"/>
    <path d="M-96 542L469 542" stroke="#285CB6" stroke-width="0.5"/>
    <path d="M-96 562L469 562" stroke="#285CB6" stroke-width="0.5"/>
    <path d="M-96 582L469 582" stroke="#285CB6" stroke-width="0.5"/>
    <path d="M-96 602L469 602" stroke="#285CB6" stroke-width="0.5"/>
    <path d="M-96 622L469 622" stroke="#285CB6" stroke-width="0.5"/>
    <path d="M-96 642L469 642" stroke="#285CB6" stroke-width="0.5"/>
    <path d="M-96 662L469 662" stroke="#285CB6" stroke-width="0.5"/>
    <path d="M-96 682L469 682" stroke="#285CB6" stroke-width="0.5"/>
    <path d="M-96 702L469 702" stroke="#285CB6" stroke-width="0.5"/>
    <path d="M-96 722L469 722" stroke="#285CB6" stroke-width="0.5"/>
    <path d="M-96 82L469 82" stroke="#285CB6" stroke-width="0.5"/>
    <path d="M-96 62L469 62" stroke="#285CB6" stroke-width="0.5"/>
    <path d="M-96 42L469 42" stroke="#285CB6" stroke-width="0.5"/>
    <path d="M-96 22L469 22" stroke="#285CB6" stroke-width="0.5"/>
    <path d="M-96 2L469 2" stroke="#285CB6" stroke-width="0.5"/>
    <path d="M-96 742L469 742" stroke="#285CB6" stroke-width="0.5"/>
    <path d="M-96 762L469 762" stroke="#285CB6" stroke-width="0.5"/>
    <path d="M-96 782L469 782" stroke="#285CB6" stroke-width="0.5"/>
    <path d="M-96 802L469 802" stroke="#285CB6" stroke-width="0.5"/>
    
    <path d="M102 -96L102 469" stroke="#285CB6" stroke-width="0.5"/>
    <path d="M122 -96L122 469" stroke="#285CB6" stroke-width="0.5"/>
    <path d="M142 -96L142 469" stroke="#285CB6" stroke-width="0.5"/>
    <path d="M162 -96L162 469" stroke="#285CB6" stroke-width="0.5"/>
    <path d="M182 -96L182 469" stroke="#285CB6" stroke-width="0.5"/>
    <path d="M202 -96L202 469" stroke="#285CB6" stroke-width="0.5"/>
    <path d="M222 -96L222 469" stroke="#285CB6" stroke-width="0.5"/>
    <path d="M242 -96L242 469" stroke="#285CB6" stroke-width="0.5"/>
    <path d="M262 -96L262 469" stroke="#285CB6" stroke-width="0.5"/>
    <path d="M282 -96L282 469" stroke="#285CB6" stroke-width="0.5"/>
    <path d="M302 -96L302 469" stroke="#285CB6" stroke-width="0.5"/>
    <path d="M322 -96L322 469" stroke="#285CB6" stroke-width="0.5"/>
    <path d="M342 -96L342 469" stroke="#285CB6" stroke-width="0.5"/>
    <path d="M362 -96L362 469" stroke="#285CB6" stroke-width="0.5"/>
    <path d="M382 -96L382 469" stroke="#285CB6" stroke-width="0.5"/>
    <path d="M22 -96L22 469" stroke="#285CB6" stroke-width="0.5"/>
    <path d="M42 -96L42 469" stroke="#285CB6" stroke-width="0.5"/>
    <path d="M62 -96L62 469" stroke="#285CB6" stroke-width="0.5"/>
    <path d="M82 -96L82 469" stroke="#285CB6" stroke-width="0.5"/>
    <path d="M2 -96L2 469" stroke="#285CB6" stroke-width="0.5"/>
  </g>
</svg> 