<svg width="61" height="43" viewBox="0 0 61 43" fill="none" xmlns="http://www.w3.org/2000/svg">
<g opacity="0.55" filter="url(#filter0_d_138_1966)">
<rect x="38.1797" y="7.98381" width="18.4809" height="18.4809" rx="5.76" transform="rotate(24.4192 38.1797 7.98381)" fill="white" fill-opacity="0.2" shape-rendering="crispEdges"/>
<rect x="38.2393" y="8.14268" width="18.2409" height="18.2409" rx="5.64" transform="rotate(24.4192 38.2393 8.14268)" stroke="white" stroke-width="0.24" shape-rendering="crispEdges"/>
<g clip-path="url(#clip0_138_1966)">
<path fill-rule="evenodd" clip-rule="evenodd" d="M39.3468 20.1445C39.1771 20.0674 38.9771 20.1425 38.9 20.3123L38.4813 21.2342L38.7886 21.3737C38.4813 21.2342 38.481 21.2349 38.481 21.2349L38.4807 21.2356L38.48 21.2372L38.4784 21.2408L38.4748 21.2494C38.4722 21.2558 38.4692 21.2635 38.4659 21.2725C38.4593 21.2906 38.4517 21.3138 38.4442 21.3419C38.4291 21.3983 38.4144 21.4743 38.4093 21.5674C38.3988 21.7558 38.4281 22.0058 38.5621 22.2936C38.8289 22.8664 39.4882 23.5447 40.959 24.2127C42.4298 24.8806 43.3744 24.9306 43.9813 24.7546C44.2862 24.6661 44.4937 24.5236 44.6287 24.3918C44.6954 24.3266 44.743 24.2655 44.7755 24.2171C44.7917 24.1929 44.8042 24.1719 44.8134 24.1551C44.8181 24.1467 44.8219 24.1393 44.825 24.1332L44.8291 24.1247L44.8308 24.1213L44.8315 24.1197L44.8318 24.1189C44.8318 24.1189 44.8322 24.1182 44.5249 23.9786L44.8322 24.1182L45.2508 23.1963C45.3279 23.0266 45.2528 22.8265 45.0831 22.7494C44.8942 22.6631 44.6767 22.7057 44.4754 22.7568C44.4595 22.7608 44.4434 22.7644 44.4269 22.7676C44.0523 22.8413 43.2961 22.8028 41.8893 22.164C40.4826 21.5252 39.956 20.9811 39.7649 20.6505C39.7606 20.643 39.7547 20.6277 39.7479 20.6076C39.6883 20.431 39.5167 20.2211 39.3468 20.1445Z" fill="#71A5FF"/>
<path fill-rule="evenodd" clip-rule="evenodd" d="M40.4631 17.6861C40.2933 17.609 40.0933 17.6841 40.0162 17.8539L39.5976 18.7757L39.9049 18.9153C39.5976 18.7757 39.5972 18.7765 39.5972 18.7765L39.5969 18.7772L39.5962 18.7788L39.5946 18.7824L39.591 18.791C39.5884 18.7974 39.5854 18.8051 39.5821 18.8141C39.5755 18.8322 39.5679 18.8554 39.5604 18.8835C39.5454 18.9398 39.5306 19.0159 39.5255 19.109C39.515 19.2974 39.5443 19.5474 39.6783 19.8352C39.9451 20.408 40.6044 21.0863 42.0752 21.7542C43.546 22.4222 44.4907 22.4722 45.0975 22.2962C45.4024 22.2077 45.6099 22.0652 45.7449 21.9334C45.8116 21.8682 45.8592 21.8071 45.8917 21.7587C45.9079 21.7345 45.9204 21.7135 45.9297 21.6967C45.9343 21.6883 45.9381 21.6809 45.9412 21.6748L45.9453 21.6663L45.947 21.6628L45.9477 21.6612L45.9481 21.6605C45.9481 21.6605 45.9484 21.6598 45.6411 21.5202L45.9484 21.6598L46.367 20.7379C46.4441 20.5682 46.369 20.3681 46.1993 20.291C46.0104 20.2047 45.7929 20.2473 45.5916 20.2983C45.5758 20.3024 45.5596 20.306 45.5431 20.3092C45.1685 20.3828 44.4123 20.3444 43.0056 19.7056C41.5988 19.0667 41.0723 18.5226 40.8812 18.1921C40.8768 18.1846 40.8709 18.1693 40.8641 18.1492C40.8046 17.9726 40.6329 17.7627 40.4631 17.6861Z" fill="#71A5FF"/>
<path fill-rule="evenodd" clip-rule="evenodd" d="M41.5647 15.6809C42.1716 15.5049 43.1162 15.5549 44.587 16.2228C46.0578 16.8907 46.7171 17.5691 46.9839 18.1419C47.118 18.4297 47.1472 18.6797 47.1368 18.868C47.1316 18.9612 47.1169 19.0373 47.1018 19.0935C47.0943 19.1217 47.0867 19.1449 47.0801 19.163C47.0756 19.1757 47.0706 19.1883 47.065 19.2006C47.0598 19.2122 47.0545 19.2228 47.046 19.2382C47.0367 19.255 47.0242 19.2761 47.008 19.3002C46.9755 19.3486 46.9279 19.4098 46.8612 19.4749C46.7263 19.6067 46.5187 19.7492 46.2138 19.8377C45.607 20.0137 44.6623 19.9637 43.1915 19.2958C41.7207 18.6279 41.0614 17.9495 40.7946 17.3767C40.6606 17.0889 40.6313 16.8389 40.6418 16.6506C40.6469 16.5574 40.6617 16.4814 40.6767 16.4251C40.6913 16.3705 40.7034 16.3402 40.7145 16.3158C40.7303 16.2818 40.7497 16.2495 40.7706 16.2184C40.8031 16.17 40.8506 16.1089 40.9174 16.0437C41.0523 15.9119 41.2598 15.7694 41.5647 15.6809Z" fill="#71A5FF"/>
</g>
</g>
<g opacity="0.55" filter="url(#filter1_d_138_1966)">
<rect x="4.7627" y="3.2565" width="18.48" height="18.48" rx="5.76" transform="rotate(2.78352 4.7627 3.2565)" fill="white" fill-opacity="0.2" shape-rendering="crispEdges"/>
<rect x="4.87673" y="3.38219" width="18.24" height="18.24" rx="5.64" transform="rotate(2.78352 4.87673 3.38219)" stroke="white" stroke-width="0.24" shape-rendering="crispEdges"/>
<g clip-path="url(#clip1_138_1966)">
<path fill-rule="evenodd" clip-rule="evenodd" d="M13.7334 9.00144C11.3131 8.88376 9.25567 10.7504 9.13799 13.1707C9.02031 15.591 10.8869 17.6484 13.3072 17.7661C15.7275 17.8838 17.785 16.0172 17.9026 13.5969C18.0203 11.1766 16.1537 9.11913 13.7334 9.00144ZM13.5039 13.7209C13.3178 13.7118 13.1742 13.5535 13.1832 13.3674L13.2925 11.12C13.3015 10.9339 13.4598 10.7903 13.646 10.7993C13.8321 10.8084 13.9757 10.9666 13.9667 11.1528L13.8738 13.0631L15.784 13.1559C15.9702 13.165 16.1138 13.3233 16.1048 13.5094C16.0957 13.6956 15.9374 13.8392 15.7513 13.8301L13.5039 13.7209Z" fill="#71A5FF"/>
<path fill-rule="evenodd" clip-rule="evenodd" d="M10.3029 9.14999C10.4073 9.30436 10.6172 9.34481 10.7715 9.24035L11.7032 8.60986C11.8576 8.5054 11.8981 8.29557 11.7936 8.1412C11.6892 7.98682 11.4793 7.94636 11.325 8.05083L10.3932 8.68132C10.2389 8.78578 10.1984 8.99561 10.3029 9.14999Z" fill="#71A5FF"/>
<path fill-rule="evenodd" clip-rule="evenodd" d="M17.1347 9.48214C17.0158 9.62565 16.803 9.64556 16.6595 9.52662L15.7934 8.8087C15.6498 8.68976 15.6299 8.47699 15.7489 8.33348C15.8678 8.18997 16.0806 8.17006 16.2241 8.28901L17.0903 9.00692C17.2337 9.12587 17.2537 9.33863 17.1347 9.48214Z" fill="#71A5FF"/>
</g>
</g>
<g filter="url(#filter2_d_138_1966)">
<rect x="18.9297" y="10.4091" width="22.3093" height="22.3093" rx="5.5773" transform="rotate(11.9235 18.9297 10.4091)" fill="white" fill-opacity="0.2" shape-rendering="crispEdges"/>
<rect x="19.0194" y="10.5468" width="22.0769" height="22.0769" rx="5.46111" transform="rotate(11.9235 19.0194 10.5468)" stroke="white" stroke-width="0.232388" shape-rendering="crispEdges"/>
<g clip-path="url(#clip2_138_1966)">
<path fill-rule="evenodd" clip-rule="evenodd" d="M27.1599 27.0121C27.0198 26.797 26.7319 26.7362 26.5168 26.8763L23.9465 28.5503C23.7314 28.6904 23.6706 28.9783 23.8107 29.1934C23.9508 29.4085 24.2387 29.4693 24.4538 29.3292L26.6346 27.9088L28.055 30.0896C28.1951 30.3047 28.483 30.3655 28.6981 30.2254C28.9132 30.0853 28.974 29.7974 28.8339 29.5824L27.1599 27.0121Z" fill="#71A5FF"/>
<path fill-rule="evenodd" clip-rule="evenodd" d="M28.9152 17.1097C29.1663 17.1627 29.327 17.4093 29.2739 17.6605L29.0178 18.8731C28.9648 19.1243 28.7182 19.2849 28.4671 19.2319C28.2159 19.1788 28.0553 18.9322 28.1084 18.6811L28.3644 17.4684C28.4175 17.2173 28.6641 17.0567 28.9152 17.1097Z" fill="#71A5FF"/>
<path fill-rule="evenodd" clip-rule="evenodd" d="M32.3741 28.924C32.8262 29.0194 33.27 28.7304 33.3655 28.2783L35.0043 20.5173C35.0998 20.0652 34.8107 19.6213 34.3587 19.5259L22.9597 17.1188C22.5076 17.0233 22.0637 17.3124 21.9683 17.7645L20.3294 25.5255C20.2339 25.9776 20.523 26.4214 20.9751 26.5169L32.3741 28.924ZM26.1746 23.3396C26.2276 23.0885 26.067 22.8419 25.8159 22.7889C25.5647 22.7358 25.3181 22.8964 25.2651 23.1476L25.009 24.3602C24.956 24.6114 25.1166 24.858 25.3678 24.911C25.6189 24.9641 25.8655 24.8034 25.9185 24.5523L26.1746 23.3396ZM27.8909 21.9603C28.1421 22.0133 28.3027 22.2599 28.2497 22.5111L27.7375 24.9364C27.6845 25.1875 27.4379 25.3482 27.1867 25.2951C26.9356 25.2421 26.775 24.9955 26.828 24.7444L27.3402 22.319C27.3932 22.0679 27.6398 21.9073 27.8909 21.9603ZM30.3247 21.6825C30.3778 21.4314 30.2171 21.1848 29.966 21.1318C29.7149 21.0787 29.4683 21.2393 29.4152 21.4905L28.647 25.1285C28.594 25.3796 28.7546 25.6262 29.0057 25.6792C29.2569 25.7323 29.5035 25.5717 29.5565 25.3205L30.3247 21.6825Z" fill="#71A5FF"/>
</g>
</g>
<defs>
<filter id="filter0_d_138_1966" x="27.5488" y="4.99304" width="34.437" height="34.4371" filterUnits="userSpaceOnUse" color-interpolation-filters="sRGB">
<feFlood flood-opacity="0" result="BackgroundImageFix"/>
<feColorMatrix in="SourceAlpha" type="matrix" values="0 0 0 0 0 0 0 0 0 0 0 0 0 0 0 0 0 0 127 0" result="hardAlpha"/>
<feOffset dx="1.99385" dy="1.99385"/>
<feGaussianBlur stdDeviation="2.49231"/>
<feComposite in2="hardAlpha" operator="out"/>
<feColorMatrix type="matrix" values="0 0 0 0 0.254808 0 0 0 0 0.254808 0 0 0 0 0.254808 0 0 0 0.25 0"/>
<feBlend mode="normal" in2="BackgroundImageFix" result="effect1_dropShadow_138_1966"/>
<feBlend mode="normal" in="SourceGraphic" in2="effect1_dropShadow_138_1966" result="shape"/>
</filter>
<filter id="filter1_d_138_1966" x="0.874465" y="0.265731" width="29.3247" height="29.3249" filterUnits="userSpaceOnUse" color-interpolation-filters="sRGB">
<feFlood flood-opacity="0" result="BackgroundImageFix"/>
<feColorMatrix in="SourceAlpha" type="matrix" values="0 0 0 0 0 0 0 0 0 0 0 0 0 0 0 0 0 0 127 0" result="hardAlpha"/>
<feOffset dx="1.99385" dy="1.99385"/>
<feGaussianBlur stdDeviation="2.49231"/>
<feComposite in2="hardAlpha" operator="out"/>
<feColorMatrix type="matrix" values="0 0 0 0 0.254808 0 0 0 0 0.254808 0 0 0 0 0.254808 0 0 0 0.25 0"/>
<feBlend mode="normal" in2="BackgroundImageFix" result="effect1_dropShadow_138_1966"/>
<feBlend mode="normal" in="SourceGraphic" in2="effect1_dropShadow_138_1966" result="shape"/>
</filter>
<filter id="filter2_d_138_1966" x="11.4244" y="7.51321" width="36.0905" height="36.0902" filterUnits="userSpaceOnUse" color-interpolation-filters="sRGB">
<feFlood flood-opacity="0" result="BackgroundImageFix"/>
<feColorMatrix in="SourceAlpha" type="matrix" values="0 0 0 0 0 0 0 0 0 0 0 0 0 0 0 0 0 0 127 0" result="hardAlpha"/>
<feOffset dx="1.93061" dy="1.93061"/>
<feGaussianBlur stdDeviation="2.41326"/>
<feComposite in2="hardAlpha" operator="out"/>
<feColorMatrix type="matrix" values="0 0 0 0 0.254808 0 0 0 0 0.254808 0 0 0 0 0.254808 0 0 0 0.25 0"/>
<feBlend mode="normal" in2="BackgroundImageFix" result="effect1_dropShadow_138_1966"/>
<feBlend mode="normal" in="SourceGraphic" in2="effect1_dropShadow_138_1966" result="shape"/>
</filter>
<clipPath id="clip0_138_1966">
<rect width="10.8" height="10.8" fill="white" transform="translate(40.0894 13.0681) rotate(24.4237)"/>
</clipPath>
<clipPath id="clip1_138_1966">
<rect width="10.8" height="10.8" fill="white" transform="translate(8.41162 7.27846) rotate(2.78373)"/>
</clipPath>
<clipPath id="clip2_138_1966">
<rect width="14.8728" height="14.8728" fill="white" transform="translate(21.7993 14.8153) rotate(11.9237)"/>
</clipPath>
</defs>
</svg>
