<svg width="119" height="67" viewBox="0 0 119 67" fill="none" xmlns="http://www.w3.org/2000/svg">
<g opacity="0.55" filter="url(#filter0_d_138_1952)">
<rect x="-6" y="13.2822" width="110.975" height="42.3611" rx="6.17256" transform="rotate(-4.28002 -6 13.2822)" fill="white"/>
<path d="M6.34042 24.3301L6.20827 22.5635L6.91614 22.5105L7.23845 26.8193L6.53059 26.8723L6.39107 25.0072L4.54446 25.1453L4.68398 27.0104L3.97611 27.0633L3.65379 22.7546L4.36166 22.7016L4.49381 24.4682L6.34042 24.3301ZM10.2966 23.9351L10.2639 23.4981L10.9287 23.4483L11.1589 26.526L10.4942 26.5758L10.461 26.1326C10.2368 26.5001 9.89076 26.7014 9.42295 26.7364C9.00029 26.768 8.62751 26.6391 8.30462 26.3496C7.98173 26.0601 7.80324 25.6876 7.76917 25.2321C7.7351 24.7767 7.85618 24.3818 8.13241 24.0475C8.40864 23.7132 8.75809 23.5303 9.18076 23.4986C9.64856 23.4636 10.0205 23.6091 10.2966 23.9351ZM8.76389 25.8696C8.96237 26.0404 9.20113 26.1154 9.48017 26.0945C9.75921 26.0737 9.98416 25.964 10.155 25.7655C10.3255 25.5629 10.4002 25.3201 10.379 25.0369C10.3579 24.7538 10.248 24.5268 10.0496 24.3559C9.85078 24.181 9.61187 24.1039 9.33282 24.1248C9.05378 24.1457 8.82899 24.2574 8.65845 24.46C8.4876 24.6585 8.41277 24.8993 8.43395 25.1824C8.45482 25.4615 8.5648 25.6905 8.76389 25.8696ZM13.6802 24.66L13.5748 23.2504L14.2396 23.2007L14.4698 26.2784L13.805 26.3281L13.7272 25.2878C13.4918 25.3962 13.2367 25.4607 12.9618 25.4813C12.5719 25.5104 12.2612 25.4388 12.0296 25.2663C11.7977 25.0897 11.6682 24.8208 11.6412 24.4597L11.562 23.401L12.2268 23.3512L12.3014 24.3484C12.329 24.7177 12.5623 24.886 13.0014 24.8531C13.2517 24.8344 13.478 24.77 13.6802 24.66ZM17.4859 23.3973L17.4532 22.9603L18.118 22.9106L18.3482 25.9882L17.6834 26.038L17.6503 25.5948C17.426 25.9623 17.08 26.1636 16.6122 26.1986C16.1896 26.2302 15.8168 26.1013 15.4939 25.8118C15.171 25.5223 14.9925 25.1499 14.9584 24.6944C14.9244 24.2389 15.0454 23.844 15.3217 23.5097C15.5979 23.1754 15.9474 22.9925 16.37 22.9608C16.8378 22.9259 17.2098 23.0713 17.4859 23.3973ZM15.9532 25.3318C16.1516 25.5026 16.3904 25.5776 16.6694 25.5567C16.9485 25.5359 17.1734 25.4262 17.3443 25.2277C17.5148 25.0251 17.5895 24.7823 17.5683 24.4991C17.5471 24.216 17.4373 23.989 17.2388 23.8181C17.04 23.6432 16.8011 23.5661 16.5221 23.587C16.2431 23.6079 16.0183 23.7196 15.8477 23.9222C15.6769 24.1207 15.602 24.3615 15.6232 24.6446C15.6441 24.9237 15.7541 25.1527 15.9532 25.3318ZM19.1329 22.8346L21.4904 22.6583L21.7206 25.736L21.0558 25.7857L20.8735 23.3482L19.8456 23.4251L19.9312 24.57C19.9671 25.0501 19.8883 25.4026 19.6946 25.6275C19.501 25.8525 19.2017 25.9615 18.7968 25.9547L18.7503 25.333C18.9415 25.3517 19.0802 25.3021 19.1663 25.1843C19.2521 25.0623 19.2847 24.8639 19.2641 24.5889L19.1329 22.8346ZM23.0081 23.597L23.6852 23.5464C24.0176 23.5215 24.2934 23.5958 24.5127 23.7692C24.7358 23.9382 24.8587 24.1745 24.8815 24.4782C24.9039 24.7778 24.8175 25.0298 24.6223 25.2342C24.4313 25.4383 24.1695 25.5528 23.8372 25.5776L22.4953 25.678L22.2651 22.6003L22.9298 22.5506L23.0081 23.597ZM23.1154 25.0312L23.7986 24.9801C23.93 24.9703 24.0358 24.9232 24.1161 24.8388C24.2006 24.754 24.2382 24.6501 24.229 24.527C24.2198 24.4039 24.1692 24.3066 24.0772 24.2351C23.9852 24.1635 23.8714 24.1328 23.736 24.143L23.0528 24.1941L23.1154 25.0312ZM27.4366 23.4453L27.345 22.2203L28.0097 22.1706L28.24 25.2483L27.5752 25.298L27.4836 24.0731L26.074 24.1785L26.1656 25.4035L25.5008 25.4532L25.2706 22.3755L25.9354 22.3258L26.027 23.5507L27.4366 23.4453ZM31.2513 22.3676L31.2186 21.9306L31.8834 21.8808L32.1136 24.9585L31.4488 25.0082L31.4157 24.5651C31.1915 24.9326 30.8454 25.1339 30.3776 25.1688C29.955 25.2005 29.5822 25.0715 29.2593 24.7821C28.9364 24.4926 28.7579 24.1201 28.7238 23.6646C28.6898 23.2091 28.8109 22.8143 29.0871 22.48C29.3633 22.1457 29.7128 21.9627 30.1354 21.9311C30.6032 21.8961 30.9752 22.0416 31.2513 22.3676ZM29.7186 24.3021C29.917 24.4729 30.1558 24.5479 30.4348 24.527C30.7139 24.5061 30.9388 24.3965 31.1097 24.198C31.2802 23.9954 31.3549 23.7526 31.3337 23.4694C31.3125 23.1863 31.2027 22.9593 31.0042 22.7884C30.8055 22.6135 30.5665 22.5364 30.2875 22.5573C30.0085 22.5782 29.7837 22.6899 29.6131 22.8925C29.4423 23.091 29.3674 23.3318 29.3886 23.6149C29.4095 23.894 29.5195 24.123 29.7186 24.3021ZM33.6677 21.7474L35.0404 21.6447L35.2706 24.7224L34.6181 24.7712L34.5408 23.7371L34.1714 23.7647L33.4671 24.8573L32.6853 24.9158L33.4344 23.7579C33.2157 23.7041 33.0342 23.5939 32.8897 23.4273C32.7493 23.2604 32.6709 23.0681 32.6547 22.8507C32.6335 22.5675 32.7161 22.3199 32.9024 22.1079C33.0884 21.8918 33.3435 21.7716 33.6677 21.7474ZM33.8147 23.2157L34.4979 23.1646L34.433 22.2967L33.7498 22.3478C33.6103 22.3583 33.4984 22.4079 33.4143 22.4967C33.3339 22.5811 33.2987 22.689 33.3085 22.8203C33.3183 22.9516 33.3692 23.053 33.4613 23.1246C33.5574 23.1958 33.6752 23.2262 33.8147 23.2157ZM39.8151 21.2875L40.4921 21.2369L40.7224 24.3145L40.0761 24.3629L39.9246 22.3378L39.1436 23.8137L39.0636 23.8196L38.0784 22.4821L38.2294 24.501L37.5831 24.5494L37.3529 21.4717L38.03 21.421L39.0289 22.7762L39.8151 21.2875ZM43.7303 21.4341L43.6976 20.9971L44.3624 20.9473L44.5926 24.025L43.9279 24.0748L43.8947 23.6316C43.6705 23.9991 43.3245 24.2004 42.8567 24.2354C42.434 24.267 42.0612 24.138 41.7383 23.8486C41.4154 23.5591 41.237 23.1866 41.2029 22.7311C41.1688 22.2756 41.2899 21.8808 41.5661 21.5465C41.8423 21.2122 42.1918 21.0293 42.6145 20.9976C43.0823 20.9626 43.4542 21.1081 43.7303 21.4341ZM42.1976 23.3686C42.3961 23.5394 42.6348 23.6144 42.9139 23.5935C43.1929 23.5726 43.4179 23.463 43.5887 23.2645C43.7593 23.0619 43.8339 22.8191 43.8128 22.5359C43.7916 22.2528 43.6817 22.0258 43.4833 21.8549C43.2845 21.68 43.0456 21.6029 42.7665 21.6238C42.4875 21.6447 42.2627 21.7564 42.0922 21.959C41.9213 22.1575 41.8465 22.3983 41.8677 22.6814C41.8885 22.9605 41.9985 23.1895 42.1976 23.3686ZM46.5673 22.2989L48.0882 23.7635L47.2941 23.8229L45.9259 22.4954L46.0323 23.9173L45.3675 23.9671L45.1373 20.8894L45.8021 20.8397L45.9038 22.2L46.9962 20.7503L47.8087 20.6895L46.5673 22.2989ZM49.7475 23.7199C49.2838 23.7546 48.8844 23.6276 48.5492 23.3391C48.2178 23.0461 48.0352 22.674 48.0014 22.2226C47.9671 21.763 48.0922 21.3678 48.377 21.037C48.6655 20.7018 49.0416 20.5168 49.5053 20.4822C49.8049 20.4598 50.0832 20.5112 50.3401 20.6364C50.5971 20.7616 50.7962 20.9406 50.9374 21.1735L50.3898 21.5487C50.309 21.4062 50.1937 21.2993 50.0439 21.228C49.898 21.1522 49.7327 21.1213 49.548 21.1351C49.2772 21.1554 49.0563 21.2647 48.8855 21.4632C48.719 21.6655 48.6459 21.902 48.6662 22.1729C48.6865 22.4437 48.7939 22.6667 48.9886 22.842C49.1871 23.0128 49.4217 23.0881 49.6926 23.0679C49.8731 23.0544 50.0322 23.0012 50.1696 22.9084C50.3109 22.8112 50.413 22.6859 50.4758 22.5327L51.0726 22.8161C50.9597 23.0721 50.7835 23.2813 50.5439 23.4437C50.3085 23.6057 50.043 23.6978 49.7475 23.7199ZM52.1933 22.3237L53.6231 20.2546L54.134 20.2164L54.3642 23.2941L53.7117 23.3429L53.5653 21.3855L52.1359 23.4608L51.6251 23.499L51.3948 20.4213L52.0473 20.3725L52.1933 22.3237ZM57.3674 19.9745L58.0445 19.9239L58.2748 23.0015L57.6284 23.0499L57.477 21.0248L56.696 22.5007L56.616 22.5066L55.6308 21.1691L55.7818 23.188L55.1355 23.2364L54.9053 20.1587L55.5824 20.108L56.5813 21.4632L57.3674 19.9745ZM61.2827 20.1211L61.25 19.6841L61.9148 19.6343L62.145 22.712L61.4803 22.7618L61.4471 22.3186C61.2229 22.6861 60.8769 22.8874 60.4091 22.9223C59.9864 22.954 59.6136 22.825 59.2907 22.5356C58.9678 22.2461 58.7894 21.8736 58.7553 21.4181C58.7212 20.9626 58.8423 20.5678 59.1185 20.2335C59.3947 19.8992 59.7442 19.7162 60.1669 19.6846C60.6347 19.6496 61.0066 19.7951 61.2827 20.1211ZM59.75 22.0556C59.9485 22.2264 60.1872 22.3014 60.4663 22.2805C60.7453 22.2596 60.9703 22.15 61.1411 21.9515C61.3117 21.7489 61.3863 21.5061 61.3652 21.2229C61.344 20.9398 61.2341 20.7128 61.0357 20.5419C60.8369 20.367 60.598 20.2899 60.3189 20.3108C60.0399 20.3317 59.8151 20.4434 59.6446 20.646C59.4737 20.8445 59.3989 21.0853 59.4201 21.3684C59.4409 21.6475 59.5509 21.8765 59.75 22.0556ZM62.9297 19.5584L65.2872 19.3821L65.5175 22.4597L64.8527 22.5095L64.6703 20.072L63.6424 20.1488L63.728 21.2937C63.764 21.7739 63.6851 22.1264 63.4915 22.3513C63.2978 22.5763 62.9986 22.6853 62.5937 22.6785L62.5472 22.0568C62.7384 22.0755 62.877 22.0259 62.9631 21.908C63.0489 21.7861 63.0815 21.5876 63.061 21.3127L62.9297 19.5584ZM66.805 20.3208L67.482 20.2702C67.8144 20.2453 68.0903 20.3196 68.3096 20.493C68.5327 20.662 68.6556 20.8983 68.6783 21.202C68.7007 21.5015 68.6143 21.7535 68.4192 21.958C68.2281 22.1621 67.9664 22.2766 67.634 22.3014L66.2921 22.4018L66.0619 19.3241L66.7267 19.2744L66.805 20.3208ZM66.9122 21.755L67.5955 21.7039C67.7268 21.6941 67.8326 21.6469 67.913 21.5625C67.9974 21.4778 68.035 21.3739 68.0258 21.2508C68.0166 21.1277 67.966 21.0304 67.874 20.9588C67.782 20.8873 67.6683 20.8566 67.5329 20.8668L66.8496 20.9179L66.9122 21.755ZM71.2334 20.169L71.1418 18.9441L71.8066 18.8944L72.0368 21.9721L71.372 22.0218L71.2804 20.7969L69.8708 20.9023L69.9624 22.1272L69.2977 22.177L69.0674 19.0993L69.7322 19.0496L69.8238 20.2745L71.2334 20.169ZM75.0481 19.0914L75.0154 18.6543L75.6802 18.6046L75.9105 21.6823L75.2457 21.732L75.2125 21.2888C74.9883 21.6564 74.6423 21.8576 74.1745 21.8926C73.7518 21.9242 73.379 21.7953 73.0561 21.5059C72.7332 21.2164 72.5548 20.8439 72.5207 20.3884C72.4866 19.9329 72.6077 19.538 72.8839 19.2038C73.1602 18.8695 73.5096 18.6865 73.9323 18.6549C74.4001 18.6199 74.772 18.7654 75.0481 19.0914ZM73.5154 21.0258C73.7139 21.1967 73.9526 21.2717 74.2317 21.2508C74.5107 21.2299 74.7357 21.1203 74.9065 20.9218C75.0771 20.7192 75.1517 20.4763 75.1306 20.1932C75.1094 19.91 74.9996 19.683 74.8011 19.5122C74.6023 19.3372 74.3634 19.2602 74.0843 19.2811C73.8053 19.302 73.5805 19.4137 73.41 19.6163C73.2391 19.8147 73.1643 20.0555 73.1855 20.3387C73.2063 20.6177 73.3163 20.8468 73.5154 21.0258ZM77.4646 18.4711L78.8372 18.3685L79.0674 21.4461L78.415 21.495L78.3376 20.4609L77.9683 20.4885L77.2639 21.5811L76.4822 21.6395L77.2312 20.4817C77.0126 20.4279 76.831 20.3177 76.6865 20.1511C76.5461 19.9841 76.4678 19.7919 76.4515 19.5744C76.4303 19.2913 76.5129 19.0437 76.6992 18.8317C76.8853 18.6156 77.1404 18.4954 77.4646 18.4711ZM77.6115 19.9395L78.2948 19.8884L78.2299 19.0205L77.5466 19.0716C77.4071 19.082 77.2953 19.1317 77.2111 19.2205C77.1308 19.3049 77.0955 19.4128 77.1053 19.5441C77.1152 19.6754 77.1661 19.7768 77.2581 19.8483C77.3542 19.9196 77.472 19.95 77.6115 19.9395ZM83.7965 17.9975L83.9798 20.4473L84.4845 20.4096L84.5932 21.8622L83.9407 21.911L83.879 21.0862L81.38 21.2732L81.1497 18.1955L81.8145 18.1457L81.9978 20.5956L83.315 20.497L83.1318 18.0472L83.7965 17.9975ZM87.8297 19.528L85.3798 19.7112C85.4463 19.9373 85.5704 20.1076 85.7523 20.2219C85.9382 20.3359 86.1605 20.3832 86.419 20.3639C86.7678 20.3378 87.023 20.1908 87.1845 19.9229L87.7563 20.202C87.4902 20.6717 87.0576 20.9289 86.4584 20.9737C85.9619 21.0109 85.5464 20.8893 85.2118 20.6089C84.881 20.3242 84.6981 19.9479 84.6631 19.4801C84.629 19.0246 84.7522 18.6296 85.0325 18.295C85.3087 17.9607 85.6869 17.7756 86.167 17.7397C86.6143 17.7062 86.9954 17.8366 87.3104 18.1308C87.6254 18.425 87.7998 18.7977 87.8336 19.2491C87.8397 19.3312 87.8384 19.4241 87.8297 19.528ZM85.3332 19.17L87.1428 19.0346C87.0796 18.7959 86.963 18.6169 86.7932 18.4975C86.6274 18.3779 86.4317 18.3265 86.206 18.3434C85.9598 18.3618 85.7597 18.4449 85.6056 18.5925C85.4516 18.7402 85.3608 18.9327 85.3332 19.17ZM90.4689 18.7301L90.3773 17.5052L91.0421 17.4555L91.2723 20.5332L90.6075 20.5829L90.5159 19.358L89.1063 19.4634L89.198 20.6883L88.5332 20.7381L88.3029 17.6604L88.9677 17.6107L89.0594 18.8356L90.4689 18.7301ZM94.2836 17.6525L94.251 17.2154L94.9157 17.1657L95.146 20.2434L94.4812 20.2931L94.448 19.8499C94.2238 20.2175 93.8778 20.4187 93.41 20.4537C92.9873 20.4853 92.6145 20.3564 92.2916 20.067C91.9687 19.7775 91.7903 19.405 91.7562 18.9495C91.7221 18.494 91.8432 18.0991 92.1194 17.7648C92.3957 17.4306 92.7451 17.2476 93.1678 17.216C93.6356 17.181 94.0075 17.3265 94.2836 17.6525ZM92.7509 19.5869C92.9494 19.7578 93.1881 19.8328 93.4672 19.8119C93.7462 19.791 93.9712 19.6813 94.142 19.4829C94.3126 19.2803 94.3872 19.0374 94.3661 18.7543C94.3449 18.4711 94.2351 18.2441 94.0366 18.0733C93.8378 17.8983 93.5989 17.8213 93.3198 17.8422C93.0408 17.863 92.816 17.9748 92.6455 18.1774C92.4746 18.3758 92.3998 18.6166 92.421 18.8998C92.4418 19.1788 92.5518 19.4079 92.7509 19.5869ZM95.6576 17.494C95.6478 17.3627 95.6827 17.2507 95.7624 17.1581C95.846 17.0611 95.9534 17.0076 96.0847 16.9978C96.2113 16.9801 96.3234 17.0171 96.4211 17.1088C96.5187 17.2005 96.572 17.3059 96.5809 17.4249C96.5898 17.5439 96.5528 17.656 96.4699 17.7613C96.3781 17.8589 96.2728 17.9122 96.1538 17.9211C96.0348 17.93 95.9226 17.893 95.8174 17.8101C95.7122 17.7272 95.6589 17.6218 95.6576 17.494ZM96.2574 19.3061C96.3846 19.2965 96.4967 19.3335 96.5937 19.4171C96.6908 19.5006 96.744 19.606 96.7535 19.7332C96.7631 19.8604 96.7261 19.9725 96.6425 20.0695C96.559 20.1666 96.4536 20.2198 96.3264 20.2294C96.1992 20.2389 96.0871 20.2019 95.9901 20.1184C95.893 20.0348 95.8398 19.9295 95.8302 19.8022C95.8207 19.675 95.8557 19.5631 95.9351 19.4663C96.0186 19.3693 96.126 19.3159 96.2574 19.3061Z" fill="#92A2BB"/>
<path d="M10.1114 34.7762L8.65522 36.9897C9.26724 37.1172 9.76597 37.3853 10.1514 37.7938C10.5451 38.2018 10.7643 38.7054 10.8091 39.3045C10.8754 40.1908 10.6277 40.9068 10.0661 41.4522C9.52081 41.9964 8.8132 42.3011 7.94324 42.3662C7.26205 42.4171 6.64716 42.3063 6.09857 42.0337C5.54937 41.7529 5.13397 41.3301 4.85238 40.7652L6.24242 39.8194C6.49733 40.4688 7.02283 40.7638 7.81892 40.7042C8.2539 40.6717 8.58272 40.5439 8.80538 40.3209C9.03563 40.0891 9.13725 39.7927 9.11024 39.4316C9.08384 39.0786 8.93955 38.8047 8.67737 38.6097C8.4234 38.4142 8.07893 38.3326 7.64395 38.3652L7.27463 38.3928L6.54849 37.4568L8.08161 35.1137L4.70847 35.3661L4.58967 33.778L10.0064 33.3728L10.1114 34.7762ZM13.4316 36.2734L14.318 36.2071C15.1551 36.1444 15.8715 36.3426 16.467 36.8015C17.0701 37.2515 17.4048 37.9197 17.4711 38.8061C17.5374 39.6925 17.2898 40.4084 16.7281 40.9539C16.1828 41.4981 15.4752 41.8027 14.6053 41.8678C13.8995 41.9206 13.2681 41.811 12.7114 41.5391C12.1622 41.2583 11.7461 40.8272 11.4633 40.2459L12.8524 39.2878C13.1092 39.9618 13.652 40.2679 14.4809 40.2059C14.9159 40.1733 15.2447 40.0456 15.4674 39.8226C15.6977 39.5908 15.7993 39.2943 15.7723 38.9332C15.7459 38.5803 15.6057 38.3061 15.3517 38.1105C15.0977 37.9149 14.7656 37.8324 14.3552 37.8631L11.7453 38.0584L11.7318 33.2437L16.6192 32.8781L16.738 34.4662L13.4264 34.7139L13.4316 36.2734ZM20.7399 34.204L20.6183 32.579L26.1828 32.1627L26.2905 33.6031L23.9098 40.9985L22.1124 41.1329L24.4208 33.9286L20.7399 34.204ZM26.8811 32.9152L29.0864 31.9455L30.5637 31.835L31.2083 40.4525L29.5094 40.5796L28.9992 33.7595L27.4083 34.3365L26.8811 32.9152ZM37.9083 36.8936L38.8316 36.8245L38.9495 38.4003L38.0262 38.4693L38.1358 39.9343L36.4246 40.0623L36.315 38.5973L32.2401 38.9021L32.1223 37.3264L34.5735 31.535L36.3955 31.3988L33.9566 37.1892L36.1971 37.0216L36.0442 34.978L37.7554 34.85L37.9083 36.8936ZM48.4039 39.1662L42.6425 39.5972L42.5476 38.3292L45.2633 35.0806C45.8677 34.3339 46.153 33.7349 46.1193 33.2835C46.0941 32.947 45.9671 32.6841 45.7384 32.4949C45.5179 32.3051 45.2435 32.2224 44.9152 32.247C44.2586 32.2961 43.8037 32.6685 43.5503 33.3642L42.0597 32.6339C42.2787 32.0316 42.6269 31.5557 43.1042 31.2064C43.5891 30.8483 44.1434 30.6459 44.7672 30.5992C45.5468 30.5409 46.2341 30.7371 46.8291 31.1877C47.4234 31.6302 47.7515 32.2659 47.8135 33.0948C47.8804 33.9894 47.4773 34.9439 46.6041 35.9583L45.0437 37.7711L48.2814 37.5289L48.4039 39.1662ZM53.8469 34.2529C54.6786 34.6693 55.1285 35.333 55.1967 36.244C55.2562 37.0401 55.0242 37.6889 54.5005 38.1902C53.985 38.6909 53.2512 38.9769 52.2992 39.0481C51.3389 39.12 50.5667 38.9466 49.9824 38.5282C49.3982 38.1097 49.0763 37.5024 49.0167 36.7063C48.9492 35.8035 49.2912 35.0806 50.0429 34.5374C49.4119 34.1555 49.0678 33.5828 49.0107 32.8196C48.9511 32.0235 49.1715 31.3839 49.6718 30.9008C50.1803 30.4171 50.8327 30.1455 51.6287 30.0859C52.433 30.0258 53.1144 30.1976 53.6728 30.6015C54.2394 31.0048 54.5525 31.6045 54.6121 32.4006C54.6692 33.1638 54.4141 33.7813 53.8469 34.2529ZM52.9319 32.6129C52.9086 32.301 52.7876 32.0625 52.5689 31.8973C52.3502 31.7321 52.0767 31.6618 51.7485 31.6863C51.4202 31.7109 51.1602 31.8211 50.9685 32.017C50.7769 32.2129 50.6927 32.4668 50.716 32.7787C50.74 33.0988 50.8613 33.3414 51.08 33.5066C51.2986 33.6718 51.5721 33.7421 51.9004 33.7176C52.2287 33.693 52.4887 33.5828 52.6803 33.3869C52.872 33.191 52.9559 32.933 52.9319 32.6129ZM53.1773 37.0512C53.4157 36.8188 53.5212 36.5179 53.4935 36.1486C53.4659 35.7793 53.3172 35.5016 53.0474 35.3154C52.7771 35.1211 52.4285 35.0398 52.0017 35.0718C51.5749 35.1037 51.2423 35.2359 51.0039 35.4683C50.7648 35.6925 50.6591 35.9893 50.6867 36.3586C50.7143 36.7279 50.8633 37.0097 51.1337 37.2041C51.4041 37.3984 51.7527 37.4797 52.1794 37.4477C52.6062 37.4158 52.9388 37.2836 53.1773 37.0512ZM57.8175 32.9531L58.7039 32.8868C59.541 32.8242 60.2574 33.0223 60.8529 33.4812C61.456 33.9312 61.7908 34.5995 61.8571 35.4858C61.9234 36.3722 61.6757 37.0881 61.114 37.6336C60.5688 38.1778 59.8612 38.4825 58.9912 38.5475C58.2854 38.6003 57.6541 38.4907 57.0973 38.2188C56.5481 37.938 56.1321 37.5069 55.8492 36.9256L57.2384 35.9675C57.4951 36.6416 58.038 36.9476 58.8669 36.8856C59.3019 36.853 59.6307 36.7253 59.8533 36.5023C60.0836 36.2705 60.1852 35.974 60.1582 35.6129C60.1318 35.26 59.9916 34.9858 59.7376 34.7902C59.4837 34.5946 59.1515 34.5122 58.7411 34.5429L56.1313 34.7381L56.1177 29.9234L61.0051 29.5578L61.1239 31.1459L57.8123 31.3936L57.8175 32.9531ZM64.8005 37.0483C64.822 37.3356 64.7378 37.5895 64.5479 37.81C64.3581 38.0305 64.1196 38.1515 63.8323 38.173C63.5451 38.1945 63.2912 38.1103 63.0707 37.9205C62.8501 37.7307 62.7291 37.4921 62.7076 37.2049C62.6862 36.9176 62.7703 36.6637 62.9602 36.4432C63.15 36.2227 63.3885 36.1017 63.6758 36.0802C63.963 36.0587 64.2169 36.1429 64.4374 36.3327C64.658 36.5225 64.779 36.7611 64.8005 37.0483ZM65.1018 30.8855L64.9802 29.2605L70.5447 28.8442L70.6524 30.2846L68.2716 37.68L66.4743 37.8144L68.7827 30.6101L65.1018 30.8855ZM71.2429 29.5967L73.4483 28.627L74.9255 28.5165L75.5702 37.134L73.8713 37.2611L73.3611 30.441L71.7702 31.018L71.2429 29.5967ZM84.0242 36.5016L82.1653 36.6407L81.8043 31.8149L79.416 31.9935L79.2999 30.4424L85.9354 29.946L86.0515 31.4972L83.6632 31.6758L84.0242 36.5016ZM79.1194 28.0295L85.7549 27.5331L85.871 29.0843L79.2355 29.5806L79.1194 28.0295Z" fill="#09090C"/>
</g>
<defs>
<filter id="filter0_d_138_1952" x="-10.8075" y="0.19251" width="129.852" height="66.5501" filterUnits="userSpaceOnUse" color-interpolation-filters="sRGB">
<feFlood flood-opacity="0" result="BackgroundImageFix"/>
<feColorMatrix in="SourceAlpha" type="matrix" values="0 0 0 0 0 0 0 0 0 0 0 0 0 0 0 0 0 0 127 0" result="hardAlpha"/>
<feOffset dx="3.20498" dy="3.20498"/>
<feGaussianBlur stdDeviation="4.00623"/>
<feComposite in2="hardAlpha" operator="out"/>
<feColorMatrix type="matrix" values="0 0 0 0 0.254808 0 0 0 0 0.254808 0 0 0 0 0.254808 0 0 0 0.25 0"/>
<feBlend mode="normal" in2="BackgroundImageFix" result="effect1_dropShadow_138_1952"/>
<feBlend mode="normal" in="SourceGraphic" in2="effect1_dropShadow_138_1952" result="shape"/>
</filter>
</defs>
</svg>
