<svg width="65" height="65" viewBox="0 0 65 65" fill="none" xmlns="http://www.w3.org/2000/svg">
<g opacity="0.55" filter="url(#filter0_d_138_1947)">
<rect x="9.92578" y="2" width="45.9417" height="45.9417" rx="22.9709" transform="rotate(9.93383 9.92578 2)" fill="white" shape-rendering="crispEdges"/>
<path d="M49.3702 32.354C47.3699 43.7753 36.4896 51.4126 25.0683 49.4123C13.647 47.412 6.0097 36.5316 8.00999 25.1103C10.0103 13.689 20.8906 6.05176 32.312 8.05205C43.7333 10.0523 51.3705 20.9327 49.3702 32.354ZM10.078 25.4725C8.27775 35.7517 15.1513 45.544 25.4304 47.3443C35.7096 49.1445 45.5019 42.271 47.3022 31.9918C49.1025 21.7126 42.2289 11.9203 31.9498 10.1201C21.6706 8.3198 11.8783 15.1933 10.078 25.4725Z" fill="white"/>
<path d="M17.1692 12.3193C16.1878 10.9212 14.2415 10.5694 12.9878 11.7296C10.433 14.0938 8.4385 17.0176 7.17091 20.2884C5.52917 24.5246 5.18048 29.1525 6.16893 33.5869C7.15738 38.0213 9.43858 42.063 12.7241 45.2009C15.2608 47.6236 18.3082 49.4236 21.6253 50.4789C23.253 50.9968 24.8657 49.8517 25.1604 48.1692C25.4551 46.4866 24.3137 44.9102 22.7136 44.3122C20.5948 43.5203 18.6476 42.3045 16.9965 40.7275C14.5957 38.4346 12.9288 35.4813 12.2066 32.2411C11.4843 29.0008 11.7391 25.6192 12.9387 22.5237C13.7638 20.3948 15.0103 18.4671 16.5922 16.8503C17.7868 15.6294 18.1506 13.7174 17.1692 12.3193Z" fill="#71A5FF"/>
<path d="M25.7397 26.2746L24.5662 27.3479C24.9035 27.5123 25.1542 27.7418 25.3183 28.0363C25.4872 28.3317 25.5406 28.657 25.4784 29.0122C25.3863 29.5377 25.1367 29.9178 24.7295 30.1524C24.3321 30.3887 23.8754 30.4617 23.3597 30.3714C22.9558 30.3007 22.6143 30.1456 22.3353 29.9061C22.0571 29.6618 21.8777 29.3546 21.7971 28.9844L22.7453 28.6389C22.7979 29.0543 23.0602 29.3034 23.5322 29.386C23.7901 29.4312 24.0003 29.4053 24.1627 29.3084C24.3308 29.2074 24.4336 29.0499 24.4711 28.8358C24.5078 28.6266 24.4642 28.4459 24.3404 28.2939C24.2214 28.1426 24.033 28.0444 23.7751 27.9993L23.5561 27.9609L23.2716 27.3093L24.5089 26.1719L22.509 25.8216L22.6739 24.8801L25.8854 25.4425L25.7397 26.2746ZM29.0975 28.5327C29.52 28.8976 29.684 29.3501 29.5894 29.8902C29.5068 30.3622 29.2761 30.7055 28.8975 30.92C28.5238 31.1354 28.0547 31.1937 27.4902 31.0948C26.9209 30.9951 26.4971 30.7805 26.2188 30.4509C25.9405 30.1213 25.8427 29.7205 25.9254 29.2485C26.0191 28.7132 26.3247 28.343 26.8421 28.1377C26.5312 27.8225 26.4154 27.4386 26.4947 26.9861C26.5773 26.5141 26.7998 26.1744 27.1621 25.967C27.5293 25.7605 27.9489 25.6986 28.4208 25.7812C28.8977 25.8648 29.2688 26.0652 29.5342 26.3825C29.8045 26.7006 29.8983 27.0957 29.8156 27.5677C29.7364 28.0202 29.497 28.3419 29.0975 28.5327ZM28.8067 27.4436C28.8391 27.2587 28.8039 27.1021 28.701 26.9738C28.5981 26.8454 28.4493 26.7642 28.2547 26.7301C28.06 26.696 27.8925 26.7218 27.7521 26.8076C27.6117 26.8933 27.5253 27.0286 27.4929 27.2135C27.4597 27.4033 27.4945 27.5624 27.5974 27.6907C27.7003 27.8191 27.8491 27.9003 28.0437 27.9344C28.2384 27.9685 28.4059 27.9427 28.5463 27.8569C28.6867 27.7712 28.7735 27.6334 28.8067 27.4436ZM28.2955 30.0623C28.4685 29.9622 28.5741 29.8027 28.6125 29.5837C28.6508 29.3647 28.6052 29.1812 28.4757 29.0331C28.347 28.8802 28.1562 28.7816 27.9031 28.7373C27.6501 28.693 27.4371 28.7209 27.2641 28.8209C27.0919 28.9162 26.9867 29.0733 26.9483 29.2922C26.91 29.5112 26.9552 29.6972 27.0839 29.8501C27.2125 30.003 27.4034 30.1016 27.6564 30.146C27.9094 30.1903 28.1225 30.1624 28.2955 30.0623ZM32.4299 28.6123C32.1514 28.7992 31.8394 28.8625 31.4939 28.8019C31.1436 28.7406 30.8696 28.5722 30.6721 28.2969C30.4794 28.0225 30.4125 27.7173 30.4713 27.3816C30.5301 27.0459 30.6968 26.7817 30.9712 26.589C31.2554 26.398 31.5703 26.3328 31.9157 26.3933C32.2661 26.4547 32.5376 26.6226 32.7303 26.8971C32.9246 27.1618 32.9915 27.4669 32.931 27.8124C32.8714 28.153 32.7043 28.4196 32.4299 28.6123ZM30.8164 31.0379L30.4233 30.7058L34.3996 27.5881L34.8014 27.9143L30.8164 31.0379ZM31.3103 27.8746C31.3825 27.9775 31.4843 28.0405 31.6157 28.0635C31.7471 28.0865 31.8642 28.0619 31.9672 27.9896C32.071 27.9125 32.1343 27.8083 32.1574 27.6769C32.1804 27.5455 32.1557 27.4284 32.0835 27.3254C32.0113 27.2225 31.9094 27.1595 31.7781 27.1365C31.6467 27.1135 31.5295 27.1381 31.4266 27.2104C31.3285 27.2835 31.268 27.3857 31.245 27.5171C31.222 27.6485 31.2437 27.7676 31.3103 27.8746ZM34.8918 31.1348C34.833 31.4706 34.6664 31.7348 34.3919 31.9274C34.1175 32.1201 33.8051 32.1857 33.4547 32.1244C33.1044 32.063 32.8329 31.8951 32.6402 31.6206C32.4476 31.3462 32.3806 31.041 32.4394 30.7053C32.4982 30.3695 32.6649 30.1053 32.9393 29.9127C33.2138 29.72 33.5262 29.6544 33.8766 29.7157C34.2269 29.7771 34.4984 29.945 34.6911 30.2195C34.8837 30.4939 34.9506 30.7991 34.8918 31.1348ZM33.928 31.312C34.0318 31.2349 34.0952 31.1307 34.1182 30.9993C34.1412 30.8679 34.1166 30.7508 34.0443 30.6478C33.9778 30.5409 33.8788 30.4759 33.7474 30.4529C33.6161 30.4299 33.4985 30.457 33.3947 30.5341C33.2967 30.6072 33.2361 30.7094 33.2131 30.8408C33.1901 30.9722 33.2119 31.0913 33.2784 31.1983C33.3506 31.3012 33.4524 31.3642 33.5838 31.3872C33.7152 31.4102 33.8299 31.3851 33.928 31.312Z" fill="#71A5FF"/>
</g>
<defs>
<filter id="filter0_d_138_1947" x="-3.38662" y="-3.3871" width="71.1352" height="71.1354" filterUnits="userSpaceOnUse" color-interpolation-filters="sRGB">
<feFlood flood-opacity="0" result="BackgroundImageFix"/>
<feColorMatrix in="SourceAlpha" type="matrix" values="0 0 0 0 0 0 0 0 0 0 0 0 0 0 0 0 0 0 127 0" result="hardAlpha"/>
<feOffset dx="3.5914" dy="3.5914"/>
<feGaussianBlur stdDeviation="4.48925"/>
<feComposite in2="hardAlpha" operator="out"/>
<feColorMatrix type="matrix" values="0 0 0 0 0.254808 0 0 0 0 0.254808 0 0 0 0 0.254808 0 0 0 0.25 0"/>
<feBlend mode="normal" in2="BackgroundImageFix" result="effect1_dropShadow_138_1947"/>
<feBlend mode="normal" in="SourceGraphic" in2="effect1_dropShadow_138_1947" result="shape"/>
</filter>
</defs>
</svg>
