<svg width="106" height="100" viewBox="0 0 106 100" fill="none" xmlns="http://www.w3.org/2000/svg">
<g opacity="0.55" filter="url(#filter0_d_138_1905)">
<g clip-path="url(#clip0_138_1905)">
<rect x="15.0234" y="4" width="110.98" height="67.8657" rx="6.04876" transform="rotate(9.34801 15.0234 4)" fill="white"/>
<g clip-path="url(#clip1_138_1905)">
<path fill-rule="evenodd" clip-rule="evenodd" d="M24.8125 14.3596C23.3361 14.1166 21.9421 15.1165 21.6991 16.5929C21.456 18.0694 22.4559 19.4633 23.9324 19.7064C25.4088 19.9494 26.8028 18.9495 27.0458 17.4731C27.2889 15.9966 26.289 14.6027 24.8125 14.3596ZM23.2622 16.8425C23.2013 16.7577 23.0832 16.7382 22.9984 16.7991C22.9136 16.8599 22.8941 16.978 22.955 17.0628L23.5782 17.9317C23.6391 18.0165 23.7572 18.036 23.842 17.9751L25.8693 16.5209C25.9542 16.46 25.9736 16.3419 25.9128 16.2571C25.8519 16.1723 25.7338 16.1529 25.649 16.2137L23.7752 17.5577L23.2622 16.8425Z" fill="#285CB6"/>
</g>
<path d="M31.1254 15.8558L34.1992 16.3617L33.5114 20.5396L32.825 20.4267L33.4047 16.9053L31.7037 16.6253L31.124 20.1466L30.4377 20.0337L31.1254 15.8558ZM36.4999 17.8868C36.9058 17.9536 37.2307 18.1645 37.4747 18.5193C37.7154 18.8695 37.7997 19.2635 37.7277 19.7012C37.655 20.1428 37.4485 20.491 37.1083 20.7455C36.768 21.0001 36.393 21.0937 35.9831 21.0262C35.5335 20.9522 35.2129 20.7278 35.0212 20.3529L34.7549 21.9704L34.1103 21.8643L34.7981 17.6864L35.4427 17.7925L35.3719 18.2222C35.6703 17.924 36.0463 17.8122 36.4999 17.8868ZM35.3527 20.0152C35.5022 20.2237 35.7123 20.3502 35.9829 20.3948C36.2534 20.4393 36.493 20.3868 36.7015 20.2372C36.9107 20.0837 37.0379 19.8696 37.0831 19.5951C37.1283 19.3205 37.0761 19.079 36.9265 18.8704C36.7776 18.6579 36.5678 18.5294 36.2973 18.4849C36.0267 18.4403 35.7868 18.4948 35.5776 18.6484C35.3691 18.798 35.2423 19.01 35.1971 19.2846C35.1525 19.5552 35.2044 19.7987 35.3527 20.0152ZM38.8787 20.3014L40.7181 18.6609L41.2135 18.7424L40.7222 21.7267L40.0896 21.6225L40.402 19.7246L38.5616 21.371L38.0663 21.2895L38.5575 18.3052L39.1902 18.4094L38.8787 20.3014ZM44.5533 21.1068L42.1779 20.7157C42.1889 20.9464 42.2679 21.1372 42.4147 21.288C42.5655 21.4396 42.7662 21.5359 43.0169 21.5772C43.3551 21.6329 43.6321 21.5518 43.8477 21.3339L44.3278 21.7317C43.966 22.1176 43.4946 22.2627 42.9137 22.1671C42.4322 22.0879 42.0645 21.8761 41.8106 21.5319C41.5613 21.1843 41.474 20.7838 41.5486 20.3302C41.6213 19.8885 41.8298 19.5407 42.174 19.2868C42.5143 19.0322 42.9172 18.9432 43.3827 19.0198C43.8164 19.0912 44.1493 19.3034 44.3814 19.6563C44.6134 20.0092 44.6935 20.4044 44.6214 20.8421C44.6083 20.9217 44.5856 21.0099 44.5533 21.1068ZM42.2584 20.1895L44.0131 20.4784C44.008 20.2364 43.9383 20.039 43.8041 19.8861C43.6738 19.7339 43.4993 19.6398 43.2805 19.6038C43.0417 19.5645 42.832 19.5974 42.6512 19.7025C42.4704 19.8076 42.3395 19.9699 42.2584 20.1895ZM47.8226 19.8304L48.4791 19.9385L47.9879 22.9227L47.3612 22.8195L47.6844 20.8559L46.6 22.0812L46.5224 22.0685L45.8929 20.5672L45.5706 22.5248L44.9439 22.4216L45.4352 19.4374L46.0917 19.5455L46.7302 21.0667L47.8226 19.8304ZM52.1533 22.0391C52.448 22.2347 52.5682 22.4977 52.5138 22.8279C52.4712 23.0866 52.3304 23.2841 52.0914 23.4204C51.853 23.5528 51.5527 23.5892 51.1907 23.5296C50.5898 23.4307 50.2233 23.1252 50.091 22.613L50.6673 22.3891C50.7256 22.7052 50.9338 22.8927 51.2919 22.9517C51.4591 22.9792 51.5959 22.967 51.7026 22.9151C51.8098 22.8592 51.873 22.7735 51.892 22.6581C51.909 22.5547 51.8846 22.4669 51.8189 22.3948C51.7537 22.3186 51.6535 22.2695 51.5183 22.2472L51.0945 22.1774L51.1878 21.6104L51.5042 21.6625C51.6355 21.6841 51.7418 21.671 51.8233 21.6231C51.9094 21.5719 51.9612 21.4925 51.9789 21.3851C51.996 21.2817 51.9679 21.1912 51.8949 21.1138C51.8224 21.0324 51.7166 20.9802 51.5773 20.9573C51.2789 20.9082 51.0504 21.0054 50.8918 21.2491L50.4157 20.8642C50.7079 20.4546 51.1226 20.294 51.6597 20.3824C51.9939 20.4374 52.2445 20.5665 52.4113 20.7697C52.5827 20.9696 52.6484 21.1909 52.6085 21.4336C52.5594 21.732 52.4076 21.9338 52.1533 22.0391ZM55.6907 21.5609L55.7605 21.1371L56.4051 21.2432L55.9138 24.2275L55.2692 24.1214L55.34 23.6916C55.0416 23.9899 54.6656 24.1017 54.212 24.027C53.8022 23.9595 53.4769 23.7507 53.2362 23.4005C52.9955 23.0503 52.9116 22.6543 52.9843 22.2127C53.057 21.771 53.2634 21.4229 53.6037 21.1683C53.9439 20.9137 54.319 20.8201 54.7288 20.8876C55.1824 20.9623 55.503 21.1867 55.6907 21.5609ZM53.7844 23.0494C53.934 23.2579 54.1441 23.3844 54.4147 23.429C54.6852 23.4735 54.9248 23.421 55.1333 23.2714C55.3425 23.1178 55.4697 22.9038 55.5149 22.6292C55.5601 22.3547 55.5079 22.1132 55.3583 21.9046C55.2094 21.6921 54.9996 21.5636 54.7291 21.5191C54.4585 21.4745 54.2186 21.529 54.0094 21.6826C53.8009 21.8322 53.674 22.0442 53.6288 22.3188C53.5843 22.5893 53.6362 22.8329 53.7844 23.0494ZM58.1352 21.5281L59.4662 21.7472L58.9749 24.7314L58.3423 24.6272L58.5074 23.6245L58.1492 23.5656L57.2262 24.4435L56.4682 24.3187L57.4488 23.389C57.2531 23.2873 57.1056 23.1404 57.0064 22.9483C56.9112 22.7569 56.881 22.5558 56.9157 22.3449C56.9609 22.0704 57.0967 21.8536 57.3231 21.6947C57.5502 21.5319 57.8209 21.4763 58.1352 21.5281ZM57.9362 22.9604L58.5987 23.0695L58.7373 22.2279L58.0748 22.1189C57.9395 22.0966 57.8215 22.118 57.7209 22.1832C57.6249 22.2451 57.5664 22.3396 57.5454 22.467C57.5245 22.5943 57.5496 22.7026 57.6207 22.792C57.6958 22.882 57.8009 22.9381 57.9362 22.9604ZM62.0427 23.6609C62.3142 23.8487 62.4238 24.1017 62.3714 24.42C62.3295 24.6747 62.2082 24.8652 62.0076 24.9915C61.811 25.1185 61.5594 25.1568 61.2531 25.1064L59.7251 24.8549L60.2164 21.8707L61.625 22.1025C61.9274 22.1523 62.1517 22.2669 62.2979 22.4462C62.4441 22.6256 62.4969 22.8386 62.4563 23.0853C62.4097 23.3678 62.2719 23.5597 62.0427 23.6609ZM61.4868 22.6438L60.7408 22.5209L60.6317 23.1834L61.3778 23.3063C61.6404 23.3495 61.79 23.2597 61.8267 23.0369C61.8627 22.818 61.7494 22.687 61.4868 22.6438ZM60.4323 24.395L61.2857 24.5355C61.5563 24.5801 61.7109 24.485 61.7496 24.2502C61.7666 24.1468 61.7439 24.0613 61.6814 23.9938C61.6196 23.9223 61.5251 23.8761 61.3977 23.8551L60.5443 23.7146L60.4323 24.395ZM65.3425 25.3934C64.9904 25.646 64.5934 25.736 64.1518 25.6633C63.7101 25.5906 63.363 25.3781 63.1103 25.0259C62.8544 24.6691 62.7625 24.2719 62.8345 23.8342C62.9066 23.3965 63.121 23.0497 63.4778 22.7937C63.83 22.5411 64.2269 22.4512 64.6686 22.5239C65.1102 22.5966 65.4574 22.809 65.71 23.1612C65.9659 23.518 66.0579 23.9153 65.9858 24.3529C65.9138 24.7906 65.6994 25.1374 65.3425 25.3934ZM63.4791 23.9403C63.4346 24.2109 63.4871 24.4504 63.6367 24.6589C63.7862 24.8675 63.9923 24.9933 64.2549 25.0366C64.5175 25.0798 64.7531 25.0266 64.9616 24.8771C65.1702 24.7275 65.2967 24.5174 65.3412 24.2468C65.3858 23.9763 65.3333 23.7367 65.1837 23.5282C65.0341 23.3197 64.828 23.1938 64.5654 23.1505C64.3028 23.1073 64.0672 23.1605 63.8587 23.3101C63.6502 23.4596 63.5236 23.6697 63.4791 23.9403ZM67.8509 24.6293L68.9611 26.3753L68.1912 26.2485L67.1946 24.6684L66.9677 26.0471L66.3231 25.941L66.8143 22.9568L67.4589 23.0629L67.2418 24.3819L68.6168 23.2535L69.4046 23.3832L67.8509 24.6293Z" fill="#285CB6"/>
<line x1="19.7905" y1="26.2465" x2="112.883" y2="41.5712" stroke="#E9EEFF" stroke-width="0.378048"/>
<path d="M22.1133 34.2892L21.5337 37.8106L21.9813 37.8843L21.7416 39.3406L21.0552 39.2276L21.1869 38.4278L18.6503 38.0103L18.5186 38.81L17.8322 38.697L18.072 37.2407L18.4599 37.3046C18.7544 37.0302 18.9547 36.5707 19.0608 35.9261L19.4037 33.8432L22.1133 34.2892ZM19.2119 37.4284L20.8473 37.6976L21.3209 34.8208L19.9839 34.6007L19.7452 36.0511C19.643 36.6718 19.4653 37.1309 19.2119 37.4284ZM24.8994 38.6528C24.5472 38.9054 24.1503 38.9953 23.7087 38.9226C23.267 38.8499 22.9199 38.6375 22.6672 38.2853C22.4113 37.9285 22.3193 37.5312 22.3914 37.0936C22.4634 36.6559 22.6779 36.3091 23.0347 36.0531C23.3869 35.8005 23.7838 35.7105 24.2255 35.7832C24.6671 35.856 25.0143 36.0684 25.2669 36.4206C25.5228 36.7774 25.6148 37.1746 25.5427 37.6123C25.4707 38.05 25.2562 38.3968 24.8994 38.6528ZM23.036 37.1997C22.9914 37.4702 23.044 37.7098 23.1935 37.9183C23.3431 38.1268 23.5492 38.2527 23.8118 38.296C24.0744 38.3392 24.31 38.286 24.5185 38.1364C24.7271 37.9869 24.8536 37.7768 24.8981 37.5062C24.9427 37.2356 24.8902 36.9961 24.7406 36.7876C24.591 36.579 24.3849 36.4532 24.1223 36.4099C23.8597 36.3667 23.6241 36.4199 23.4156 36.5695C23.2071 36.719 23.0805 36.9291 23.036 37.1997ZM29.9586 39.4856C29.6064 39.7382 29.2095 39.8282 28.7678 39.7555C28.3262 39.6828 27.979 39.4703 27.7264 39.1181C27.4705 38.7613 27.3785 38.3641 27.4506 37.9264C27.5226 37.4887 27.7371 37.1419 28.0939 36.8859C28.446 36.6333 28.843 36.5434 29.2846 36.6161C29.7263 36.6888 30.0734 36.9012 30.3261 37.2534C30.582 37.6102 30.674 38.0075 30.6019 38.4452C30.5299 38.8828 30.3154 39.2297 29.9586 39.4856ZM28.0952 38.0325C28.0506 38.3031 28.1031 38.5426 28.2527 38.7511C28.4023 38.9597 28.6084 39.0856 28.871 39.1288C29.1336 39.172 29.3692 39.1188 29.5777 38.9693C29.7862 38.8197 29.9128 38.6096 29.9573 38.339C30.0019 38.0685 29.9493 37.8289 29.7998 37.6204C29.6502 37.4119 29.4441 37.286 29.1815 37.2428C28.9189 37.1995 28.6833 37.2527 28.4748 37.4023C28.2662 37.5519 28.1397 37.7619 28.0952 38.0325ZM32.4669 38.7215L33.5772 40.4675L32.8073 40.3407L31.8107 38.7606L31.5837 40.1393L30.9391 40.0332L31.4304 37.049L32.075 37.1551L31.8578 38.4741L33.2329 37.3457L34.0207 37.4754L32.4669 38.7215ZM36.3584 40.5391C36.0062 40.7917 35.6092 40.8817 35.1676 40.809C34.7259 40.7363 34.3788 40.5238 34.1262 40.1716C33.8702 39.8148 33.7783 39.4176 33.8503 38.9799C33.9224 38.5422 34.1368 38.1954 34.4936 37.9395C34.8458 37.6868 35.2427 37.5969 35.6844 37.6696C36.126 37.7423 36.4732 37.9547 36.7258 38.3069C36.9818 38.6637 37.0737 39.061 37.0017 39.4987C36.9296 39.9363 36.7152 40.2832 36.3584 40.5391ZM34.4949 39.086C34.4504 39.3566 34.5029 39.5961 34.6525 39.8047C34.802 40.0132 35.0081 40.1391 35.2707 40.1823C35.5334 40.2255 35.7689 40.1723 35.9775 40.0228C36.186 39.8732 36.3125 39.6631 36.3571 39.3925C36.4016 39.122 36.3491 38.8824 36.1995 38.6739C36.0499 38.4654 35.8438 38.3395 35.5812 38.2963C35.3186 38.253 35.083 38.3062 34.8745 38.4558C34.666 38.6054 34.5394 38.8154 34.4949 39.086ZM39.646 39.6213L39.8415 38.4336L40.4861 38.5397L39.9948 41.5239L39.3502 41.4178L39.5458 40.2301L38.179 40.0051L37.9835 41.1928L37.3389 41.0867L37.8301 38.1025L38.4747 38.2086L38.2792 39.3963L39.646 39.6213ZM42.8234 40.3283L43.0484 38.9615L43.693 39.0676L43.2017 42.0518L42.5572 41.9457L42.7232 40.9371C42.474 40.986 42.2162 40.9885 41.9496 40.9446C41.5716 40.8824 41.2922 40.7424 41.1114 40.5246C40.9313 40.3029 40.8701 40.017 40.9277 39.6668L41.0967 38.6402L41.7413 38.7463L41.5822 39.7132C41.5232 40.0713 41.7066 40.2854 42.1324 40.3555C42.3751 40.3955 42.6054 40.3864 42.8234 40.3283ZM46.7393 40.0043L46.809 39.5806L47.4536 39.6867L46.9624 42.6709L46.3178 42.5648L46.3885 42.1351C46.0901 42.4333 45.7141 42.5451 45.2605 42.4704C44.8507 42.403 44.5254 42.1941 44.2848 41.8439C44.0441 41.4937 43.9601 41.0978 44.0328 40.6561C44.1055 40.2144 44.312 39.8663 44.6522 39.6117C44.9925 39.3571 45.3675 39.2636 45.7773 39.331C46.2309 39.4057 46.5516 39.6301 46.7393 40.0043ZM44.833 41.4928C44.9826 41.7013 45.1926 41.8279 45.4632 41.8724C45.7338 41.9169 45.9733 41.8644 46.1818 41.7148C46.391 41.5613 46.5182 41.3472 46.5634 41.0727C46.6086 40.7981 46.5564 40.5566 46.4068 40.3481C46.2579 40.1356 46.0482 40.007 45.7776 39.9625C45.507 39.918 45.2672 39.9725 45.058 40.126C44.8494 40.2756 44.7226 40.4877 44.6774 40.7622C44.6328 41.0328 44.6847 41.2763 44.833 41.4928ZM50.0208 41.3292L50.2163 40.1415L50.8609 40.2476L50.3697 43.2318L49.7251 43.1257L49.9206 41.938L48.5538 41.713L48.3583 42.9007L47.7137 42.7946L48.205 39.8104L48.8495 39.9165L48.654 41.1042L50.0208 41.3292ZM51.93 42.3668L53.7694 40.7264L54.2648 40.8079L53.7735 43.7921L53.1409 43.688L53.4533 41.79L51.6129 43.4365L51.1176 43.3549L51.6088 40.3707L52.2415 40.4748L51.93 42.3668ZM55.9915 41.0922L57.3225 41.3113L56.8312 44.2955L56.1986 44.1913L56.3636 43.1886L56.0055 43.1297L55.0825 44.0076L54.3245 43.8828L55.3051 42.9531C55.1093 42.8514 54.9619 42.7045 54.8627 42.5125C54.7675 42.3211 54.7373 42.1199 54.772 41.909C54.8172 41.6345 54.953 41.4178 55.1794 41.2589C55.4065 41.096 55.6772 41.0404 55.9915 41.0922ZM55.7925 42.5245L56.455 42.6336L56.5935 41.792L55.931 41.683C55.7958 41.6607 55.6778 41.6821 55.5772 41.7473C55.4812 41.8092 55.4227 41.9037 55.4017 42.0311C55.3808 42.1584 55.4058 42.2667 55.4769 42.3561C55.552 42.4461 55.6572 42.5022 55.7925 42.5245ZM59.2485 41.6283L61.8447 42.0557L61.7426 42.6764L60.7697 42.5163L60.3806 44.8798L59.736 44.7737L60.1251 42.4102L59.1463 42.249L59.2485 41.6283ZM64.7563 44.3495L62.3808 43.9585C62.3919 44.1892 62.4708 44.3799 62.6176 44.5308C62.7684 44.6823 62.9692 44.7787 63.2198 44.82C63.558 44.8756 63.835 44.7945 64.0507 44.5767L64.5308 44.9745C64.1689 45.3604 63.6975 45.5055 63.1166 45.4099C62.6351 45.3306 62.2675 45.1189 62.0135 44.7746C61.7642 44.4271 61.6769 44.0265 61.7516 43.5729C61.8243 43.1313 62.0328 42.7835 62.377 42.5295C62.7172 42.2749 63.1201 42.186 63.5857 42.2626C64.0194 42.334 64.3522 42.5461 64.5843 42.899C64.8164 43.2519 64.8964 43.6472 64.8243 44.0849C64.8112 44.1645 64.7886 44.2527 64.7563 44.3495ZM62.4613 43.4323L64.216 43.7211C64.2109 43.4792 64.1412 43.2818 64.007 43.1289C63.8768 42.9767 63.7022 42.8825 63.4834 42.8465C63.2447 42.8072 63.0349 42.8401 62.8541 42.9452C62.6734 43.0503 62.5424 43.2127 62.4613 43.4323ZM67.454 44.199L67.6495 43.0113L68.2941 43.1174L67.8028 46.1016L67.1583 45.9955L67.3538 44.8078L65.987 44.5828L65.7915 45.7705L65.1469 45.6644L65.6381 42.6802L66.2827 42.7863L66.0872 43.974L67.454 44.199ZM71.6681 43.6728L71.2771 46.0482L71.677 46.1141L71.4451 47.5226L70.8125 47.4185L70.9441 46.6187L68.8969 46.2817L68.7653 47.0815L68.1326 46.9773L68.3645 45.5688L68.7286 45.6287C68.9535 45.4042 69.1043 45.0592 69.181 44.5936L69.3942 43.2985L71.6681 43.6728ZM69.4388 45.7456L70.6444 45.9441L70.9382 44.1595L69.9295 43.9935L69.8136 44.6978C69.7429 45.1275 69.6179 45.4768 69.4388 45.7456ZM75.067 46.0468L72.6915 45.6558C72.7026 45.8865 72.7815 46.0773 72.9283 46.2281C73.0791 46.3796 73.2799 46.476 73.5305 46.5173C73.8688 46.573 74.1457 46.4919 74.3614 46.274L74.8415 46.6718C74.4796 47.0577 74.0082 47.2028 73.4273 47.1072C72.9458 47.0279 72.5782 46.8162 72.3242 46.472C72.0749 46.1244 71.9876 45.7238 72.0623 45.2702C72.135 44.8286 72.3435 44.4808 72.6877 44.2268C73.0279 43.9723 73.4308 43.8833 73.8964 43.9599C74.3301 44.0313 74.6629 44.2434 74.895 44.5963C75.1271 44.9492 75.2071 45.3445 75.135 45.7822C75.1219 45.8618 75.0993 45.95 75.067 46.0468ZM72.772 45.1296L74.5267 45.4185C74.5216 45.1765 74.4519 44.9791 74.3177 44.8262C74.1875 44.674 74.0129 44.5799 73.7941 44.5438C73.5554 44.5045 73.3456 44.5374 73.1648 44.6425C72.9841 44.7477 72.8531 44.91 72.772 45.1296ZM77.6507 44.5779C78.0565 44.6447 78.3815 44.8556 78.6255 45.2104C78.8662 45.5606 78.9505 45.9546 78.8784 46.3923C78.8057 46.8339 78.5992 47.1821 78.259 47.4367C77.9188 47.6912 77.5437 47.7848 77.1339 47.7173C76.6843 47.6433 76.3636 47.4189 76.1719 47.044L75.9057 48.6615L75.2611 48.5554L75.9488 44.3775L76.5934 44.4836L76.5227 44.9133C76.8211 44.6151 77.1971 44.5033 77.6507 44.5779ZM76.5034 46.7063C76.653 46.9148 76.8631 47.0413 77.1336 47.0859C77.4042 47.1304 77.6437 47.0779 77.8523 46.9283C78.0615 46.7748 78.1886 46.5607 78.2338 46.2862C78.279 46.0116 78.2268 45.7701 78.0773 45.5616C77.9283 45.349 77.7186 45.2205 77.448 45.176C77.1775 45.1314 76.9376 45.186 76.7284 45.3395C76.5199 45.4891 76.393 45.7012 76.3478 45.9757C76.3033 46.2463 76.3551 46.4898 76.5034 46.7063ZM82.002 45.8092L82.0718 45.3854L82.7164 45.4915L82.2251 48.4757L81.5805 48.3696L81.6512 47.9399C81.3529 48.2382 80.9769 48.35 80.5233 48.2753C80.1134 48.2078 79.7882 47.999 79.5475 47.6488C79.3068 47.2985 79.2228 46.9026 79.2955 46.4609C79.3682 46.0193 79.5747 45.6712 79.9149 45.4166C80.2552 45.162 80.6302 45.0684 81.0401 45.1359C81.4937 45.2106 81.8143 45.435 82.002 45.8092ZM80.0957 47.2976C80.2453 47.5062 80.4554 47.6327 80.7259 47.6772C80.9965 47.7218 81.236 47.6693 81.4446 47.5197C81.6538 47.3661 81.7809 47.1521 81.8261 46.8775C81.8713 46.603 81.8191 46.3614 81.6696 46.1529C81.5206 45.9404 81.3109 45.8119 81.0403 45.7673C80.7698 45.7228 80.5299 45.7773 80.3207 45.9309C80.1122 46.0804 79.9853 46.2925 79.9401 46.5671C79.8956 46.8376 79.9474 47.0811 80.0957 47.2976ZM87.0551 48.8846C86.7029 49.1373 86.306 49.2272 85.8643 49.1545C85.4226 49.0818 85.0755 48.8694 84.8229 48.5172C84.5669 48.1604 84.475 47.7631 84.547 47.3254C84.6191 46.8877 84.8335 46.5409 85.1903 46.285C85.5425 46.0324 85.9394 45.9424 86.3811 46.0151C86.8228 46.0878 87.1699 46.3003 87.4225 46.6524C87.6785 47.0093 87.7704 47.4065 87.6984 47.8442C87.6263 48.2819 87.4119 48.6287 87.0551 48.8846ZM85.1916 47.4315C85.1471 47.7021 85.1996 47.9417 85.3492 48.1502C85.4988 48.3587 85.7049 48.4846 85.9675 48.5278C86.2301 48.5711 86.4657 48.5179 86.6742 48.3683C86.8827 48.2187 87.0092 48.0087 87.0538 47.7381C87.0983 47.4675 87.0458 47.228 86.8962 47.0194C86.7467 46.8109 86.5406 46.685 86.2779 46.6418C86.0153 46.5986 85.7798 46.6517 85.5712 46.8013C85.3627 46.9509 85.2362 47.161 85.1916 47.4315ZM89.4314 49.7417C88.9818 49.6677 88.6306 49.4546 88.378 49.1024C88.13 48.7469 88.0421 48.3503 88.1141 47.9126C88.1875 47.467 88.3979 47.1195 88.7455 46.8702C89.0977 46.6176 89.4986 46.5283 89.9482 46.6023C90.2386 46.6501 90.4918 46.7633 90.7076 46.9419C90.9234 47.1204 91.0717 47.3369 91.1524 47.5913L90.5443 47.8223C90.5002 47.6679 90.4151 47.5394 90.2889 47.4369C90.1674 47.3311 90.0171 47.2635 89.8381 47.234C89.5755 47.1908 89.3399 47.2439 89.1314 47.3935C88.9261 47.5477 88.8019 47.7561 88.7587 48.0187C88.7155 48.2814 88.7663 48.5186 88.9113 48.7304C89.0608 48.939 89.2669 49.0648 89.5296 49.1081C89.7046 49.1369 89.8683 49.123 90.0207 49.0663C90.1777 49.0063 90.3038 48.9106 90.399 48.7792L90.902 49.1869C90.7354 49.4047 90.5192 49.5632 90.2536 49.6625C89.9919 49.7625 89.7179 49.7889 89.4314 49.7417ZM91.3987 46.9208L93.995 47.3482L93.8928 47.9689L92.92 47.8088L92.5309 50.1723L91.8863 50.0661L92.2754 47.7026L91.2966 47.5415L91.3987 46.9208ZM96.6083 48.2136L96.6781 47.7899L97.3227 47.896L96.8314 50.8802L96.1869 50.7741L96.2576 50.3444C95.9592 50.6426 95.5832 50.7544 95.1296 50.6797C94.7198 50.6123 94.3945 50.4034 94.1538 50.0532C93.9131 49.703 93.8292 49.3071 93.9019 48.8654C93.9746 48.4237 94.181 48.0756 94.5213 47.821C94.8615 47.5664 95.2366 47.4729 95.6464 47.5403C96.1 47.615 96.4206 47.8394 96.6083 48.2136ZM94.702 49.7021C94.8516 49.9106 95.0617 50.0371 95.3323 50.0817C95.6028 50.1262 95.8424 50.0737 96.0509 49.9241C96.2601 49.7706 96.3873 49.5565 96.4325 49.282C96.4777 49.0074 96.4255 48.7659 96.2759 48.5574C96.127 48.3449 95.9172 48.2163 95.6467 48.1718C95.3761 48.1272 95.1362 48.1818 94.927 48.3353C94.7185 48.4849 94.5916 48.697 94.5465 48.9715C94.5019 49.2421 94.5538 49.4856 94.702 49.7021ZM98.3068 48.058L100.593 48.4343L100.101 51.4185L99.4569 51.3124L99.8459 48.9489L98.8492 48.7848L98.6665 49.8949C98.5898 50.3605 98.4333 50.678 98.197 50.8475C97.9607 51.017 97.6505 51.0518 97.2664 50.9518L97.3657 50.349C97.5435 50.411 97.687 50.3957 97.7962 50.3034C97.906 50.207 97.9829 50.0256 98.0268 49.759L98.3068 48.058ZM103.439 51.5817C103.087 51.8343 102.69 51.9243 102.248 51.8516C101.807 51.7789 101.46 51.5665 101.207 51.2143C100.951 50.8575 100.859 50.4602 100.931 50.0225C101.003 49.5848 101.218 49.238 101.574 48.9821C101.927 48.7295 102.323 48.6395 102.765 48.7122C103.207 48.7849 103.554 48.9974 103.807 49.3495C104.063 49.7063 104.154 50.1036 104.082 50.5413C104.01 50.979 103.796 51.3258 103.439 51.5817ZM101.576 50.1286C101.531 50.3992 101.584 50.6388 101.733 50.8473C101.883 51.0558 102.089 51.1817 102.352 51.2249C102.614 51.2681 102.85 51.215 103.058 51.0654C103.267 50.9158 103.393 50.7057 103.438 50.4352C103.482 50.1646 103.43 49.9251 103.28 49.7165C103.131 49.508 102.925 49.3821 102.662 49.3389C102.399 49.2957 102.164 49.3488 101.955 49.4984C101.747 49.648 101.62 49.8581 101.576 50.1286ZM105.815 52.4388C105.366 52.3648 105.015 52.1517 104.762 51.7995C104.514 51.444 104.426 51.0474 104.498 50.6097C104.572 50.1641 104.782 49.8166 105.13 49.5673C105.482 49.3147 105.883 49.2254 106.332 49.2994C106.623 49.3472 106.876 49.4604 107.092 49.639C107.307 49.8175 107.456 50.034 107.536 50.2884L106.928 50.5194C106.884 50.365 106.799 50.2365 106.673 50.134C106.551 50.0282 106.401 49.9606 106.222 49.9311C105.96 49.8878 105.724 49.941 105.515 50.0906C105.31 50.2448 105.186 50.4532 105.143 50.7158C105.1 50.9784 105.15 51.2157 105.295 51.4275C105.445 51.6361 105.651 51.7619 105.914 51.8052C106.089 51.834 106.252 51.8201 106.405 51.7634C106.562 51.7034 106.688 51.6077 106.783 51.4763L107.286 51.884C107.119 52.1017 106.903 52.2603 106.638 52.3596C106.376 52.4596 106.102 52.486 105.815 52.4388ZM108.623 50.7984L109.28 50.9065C109.602 50.9595 109.848 51.0939 110.017 51.3097C110.19 51.5222 110.252 51.7756 110.204 52.0701C110.156 52.3605 110.016 52.5806 109.783 52.7302C109.554 52.8805 109.278 52.9291 108.956 52.876L107.655 52.6619L108.146 49.6776L108.79 49.7837L108.623 50.7984ZM108.394 52.189L109.057 52.2981C109.184 52.319 109.296 52.2986 109.392 52.2368C109.492 52.1756 109.552 52.0853 109.571 51.9659C109.591 51.8465 109.565 51.7422 109.494 51.6528C109.423 51.5635 109.322 51.508 109.191 51.4864L108.528 51.3773L108.394 52.189Z" fill="#92A2BB"/>
<path d="M16.6505 46.1358L18.9746 45.7215L20.407 45.9573L19.0315 54.3131L17.3842 54.0419L18.4728 47.4289L16.8244 47.6112L16.6505 46.1358ZM23.6202 55.2401C22.5777 55.0685 21.8229 54.5396 21.3557 53.6536C20.8991 52.7529 20.7783 51.65 20.9931 50.3449C21.208 49.0398 21.6753 48.0378 22.3952 47.339C23.1231 46.6414 24.0082 46.3784 25.0507 46.5501C26.1091 46.7243 26.8633 47.2571 27.3132 48.1485C27.7711 49.0413 27.8926 50.1402 27.6778 51.4453C27.4629 52.7504 26.9949 53.7563 26.2737 54.4631C25.5631 55.1553 24.6786 55.4143 23.6202 55.2401ZM26.0424 51.1761C26.1891 50.2848 26.1539 49.5802 25.9368 49.0622C25.7276 48.5455 25.3445 48.2413 24.7874 48.1496C24.2303 48.0579 23.7699 48.2232 23.4062 48.6456C23.0424 49.0679 22.7871 49.7248 22.6404 50.616C22.4937 51.5073 22.5249 52.2113 22.7341 52.728C22.9446 53.2367 23.3284 53.5369 23.8855 53.6286C24.4425 53.7203 24.9029 53.555 25.2667 53.1326C25.6384 52.7116 25.897 52.0594 26.0424 51.1761Z" fill="#285CB6"/>
<path d="M16.9607 59.3979L16.5858 61.6749L16.9514 61.7351L16.7812 62.7691L16.4365 62.7123L16.5517 62.0125L14.421 61.6618L14.3058 62.3616L13.9611 62.3048L14.1313 61.2708L14.4499 61.3233C14.6664 61.1157 14.8094 60.8013 14.8787 60.3801L15.0911 59.0901L16.9607 59.3979ZM14.8677 61.392L16.2412 61.6181L16.561 59.6754L15.3807 59.4811L15.2234 60.4368C15.1569 60.8407 15.0383 61.1591 14.8677 61.392ZM19.509 60.9867L19.6964 59.8483L20.0411 59.905L19.6112 62.5162L19.2665 62.4594L19.4539 61.321L17.9499 61.0734L17.7625 62.2119L17.4178 62.1551L17.8477 59.5439L18.1923 59.6007L18.0049 60.7391L19.509 60.9867ZM21.9866 60.1609C22.3766 60.2251 22.6655 60.4139 22.8535 60.7274C23.0491 61.0385 23.1162 61.3803 23.0548 61.7528C23.052 61.7702 23.0396 61.8236 23.0177 61.913L20.7251 61.5356C20.7169 61.8024 20.794 62.0297 20.9562 62.2173C21.1184 62.4049 21.3405 62.5219 21.6225 62.5684C22.0194 62.6337 22.324 62.5319 22.5364 62.2629L22.8101 62.4903C22.6642 62.6594 22.4814 62.7813 22.2617 62.856C22.0461 62.9277 21.8129 62.943 21.5623 62.9017C21.1514 62.8341 20.8384 62.6503 20.6232 62.3502C20.408 62.0502 20.333 61.7017 20.3984 61.3048C20.4631 60.9114 20.6438 60.6068 20.9404 60.391C21.2375 60.1717 21.5863 60.095 21.9866 60.1609ZM21.9316 60.4951C21.6601 60.4504 21.4188 60.493 21.2079 60.6227C21.0005 60.7531 20.8579 60.946 20.7801 61.2014L22.7281 61.522C22.7356 61.2372 22.6647 61.0056 22.5153 60.8272C22.3594 60.6442 22.1649 60.5335 21.9316 60.4951ZM25.6641 60.4015L24.3063 60.178L24.3562 59.8751L25.714 60.0986L25.6641 60.4015ZM23.8334 62.5944L25.7207 60.84L26.0131 60.8881L25.5833 63.4993L25.2386 63.4426L25.5696 61.4319L23.6823 63.1864L23.3899 63.1382L23.8197 60.527L24.1644 60.5838L23.8334 62.5944Z" fill="#92A2BB"/>
<path d="M34.542 51.5944C34.4962 51.873 34.3574 52.0953 34.1257 52.2615C33.894 52.4277 33.6389 52.4879 33.3604 52.442C33.0818 52.3962 32.8595 52.2574 32.6933 52.0257C32.5271 51.794 32.4669 51.5389 32.5128 51.2604C32.5586 50.9819 32.6974 50.7595 32.9291 50.5933C33.1608 50.4271 33.4159 50.3669 33.6944 50.4128C33.9729 50.4586 34.1953 50.5974 34.3615 50.8291C34.5277 51.0608 34.5879 51.3159 34.542 51.5944ZM33.8385 55.8678C33.7927 56.1464 33.6539 56.3687 33.4222 56.5349C33.1905 56.7011 32.9354 56.7613 32.6569 56.7154C32.3784 56.6696 32.156 56.5308 31.9898 56.2991C31.8236 56.0674 31.7634 55.8123 31.8093 55.5338C31.8551 55.2553 31.9939 55.0329 32.2256 54.8667C32.4573 54.7005 32.7124 54.6403 32.9909 54.6862C33.2695 54.732 33.4918 54.8708 33.658 55.1025C33.8242 55.3342 33.8844 55.5893 33.8385 55.8678Z" fill="#285CB6"/>
<path d="M40.8731 50.1233L43.1972 49.7089L44.6296 49.9447L43.2541 58.3005L41.6068 58.0294L42.6955 51.4164L41.0471 51.5986L40.8731 50.1233ZM51.3623 53.8607C51.2562 54.5053 50.9961 55.0428 50.5819 55.4732L50.5939 55.4751L47.3451 58.974L45.4591 58.6635L47.7693 56.2485C46.9032 56.0977 46.2401 55.7066 45.7801 55.075C45.328 54.4448 45.1714 53.7079 45.3103 52.8644C45.4518 52.005 45.8449 51.3545 46.4898 50.913C47.1439 50.4649 47.9165 50.3142 48.8078 50.4609C49.6991 50.6076 50.3827 50.9981 50.8587 51.6322C51.3346 52.2663 51.5025 53.0092 51.3623 53.8607ZM46.9457 53.1336C46.8788 53.5395 46.9558 53.8913 47.1765 54.1892C47.3985 54.4791 47.7084 54.6569 48.1063 54.7224C48.5201 54.7905 48.8747 54.7222 49.1699 54.5174C49.4745 54.306 49.6601 53.9973 49.7269 53.5915C49.7938 53.1856 49.7162 52.8377 49.4942 52.5478C49.2801 52.2592 48.9662 52.0808 48.5524 52.0127C48.1545 51.9472 47.8033 52.0201 47.4987 52.2316C47.1955 52.435 47.0112 52.7357 46.9457 53.1336Z" fill="#285CB6"/>
<path d="M38.9879 64.3596L39.202 63.0592L39.5467 63.1159L39.1168 65.7271L38.7722 65.6704L38.9355 64.6781C38.7164 64.7493 38.4588 64.7606 38.1629 64.7119C37.8182 64.6551 37.57 64.5338 37.4182 64.3479C37.267 64.1585 37.2169 63.9089 37.2679 63.5991L37.4055 62.7635L37.7502 62.8202L37.6126 63.6558C37.5771 63.8716 37.607 64.0375 37.7024 64.1533C37.8012 64.2697 37.969 64.3474 38.2058 64.3864C38.4704 64.4299 38.7311 64.421 38.9879 64.3596ZM42.4406 64.118L42.5249 63.6062L42.8695 63.6629L42.4397 66.2741L42.095 66.2174L42.1793 65.7056C41.876 66.049 41.4928 66.1826 41.0298 66.1064C40.6572 66.0451 40.3605 65.8603 40.1394 65.5522C39.9219 65.2446 39.8446 64.8993 39.9076 64.5163C39.9707 64.1334 40.1545 63.8311 40.4592 63.6095C40.7674 63.3884 41.1077 63.3086 41.4803 63.3699C41.9433 63.4461 42.2634 63.6955 42.4406 64.118ZM40.4288 65.3584C40.5946 65.5896 40.8219 65.7289 41.1109 65.7765C41.3999 65.824 41.6599 65.7649 41.891 65.5992C42.1233 65.4264 42.2629 65.1973 42.3099 64.9118C42.3575 64.6228 42.2984 64.3628 42.1326 64.1317C41.9674 63.8971 41.7403 63.756 41.4513 63.7084C41.1624 63.6608 40.902 63.7217 40.6704 63.8909C40.4392 64.0567 40.2999 64.2841 40.2523 64.5731C40.2053 64.8586 40.2641 65.1204 40.4288 65.3584ZM44.376 66.6572C43.9826 66.5925 43.6768 66.408 43.4586 66.1039C43.2417 65.7929 43.1647 65.4459 43.2277 65.0629C43.2913 64.6764 43.4752 64.3741 43.7793 64.156C44.084 63.9344 44.433 63.856 44.8265 63.9207C45.0841 63.9631 45.3053 64.0639 45.4901 64.2231C45.6754 64.3787 45.7979 64.5688 45.8575 64.7931L45.5489 64.9086C45.505 64.7405 45.4122 64.5982 45.2705 64.4819C45.1327 64.3627 44.9664 64.287 44.7714 64.255C44.4825 64.2074 44.2221 64.2682 43.9904 64.4375C43.7593 64.6033 43.62 64.8307 43.5724 65.1196C43.5254 65.4051 43.5842 65.6669 43.7489 65.905C43.9146 66.1361 44.142 66.2754 44.431 66.323C44.6225 66.3545 44.8023 66.3376 44.9704 66.2723C45.1419 66.2076 45.2844 66.1023 45.3978 65.9565L45.6575 66.1709C45.5152 66.362 45.3296 66.5013 45.1006 66.5888C44.8717 66.6763 44.6301 66.6991 44.376 66.6572ZM48.2678 66.8956C47.9567 67.1126 47.6115 67.1899 47.232 67.1274C46.8455 67.0638 46.5415 66.8796 46.3199 66.5749C46.0988 66.2668 46.0201 65.9195 46.0837 65.533C46.1473 65.1466 46.3329 64.8446 46.6405 64.627C46.9487 64.406 47.296 64.3272 47.6824 64.3909C48.0654 64.4539 48.3674 64.6395 48.5885 64.9477C48.8136 65.2529 48.8943 65.5988 48.8307 65.9852C48.7676 66.3682 48.58 66.6717 48.2678 66.8956ZM46.6049 66.3751C46.7706 66.6062 46.998 66.7456 47.287 66.7932C47.576 66.8407 47.836 66.7816 48.0671 66.6158C48.2994 66.4431 48.439 66.214 48.486 65.9285C48.5336 65.6395 48.4745 65.3795 48.3087 65.1483C48.1435 64.9137 47.9164 64.7727 47.6274 64.7251C47.3385 64.6775 47.0781 64.7384 46.8464 64.9076C46.6153 65.0734 46.476 65.3008 46.4284 65.5898C46.3814 65.8753 46.4402 66.137 46.6049 66.3751ZM51.0742 66.317C51.3425 66.4684 51.4517 66.6956 51.4019 66.9985C51.3663 67.2144 51.2643 67.3782 51.0957 67.4899C50.9306 67.6021 50.7192 67.6371 50.4616 67.5947L49.1926 67.3858L49.6224 64.7746L50.787 64.9663C51.0377 65.0076 51.222 65.1041 51.3401 65.2558C51.4616 65.4081 51.5052 65.5887 51.4708 65.7976C51.4278 66.0587 51.2956 66.2319 51.0742 66.317ZM50.732 65.3005L49.9121 65.1656L49.7814 65.9594L50.6013 66.0943C50.9042 66.1442 51.078 66.0333 51.1227 65.7618C51.1428 65.6399 51.1182 65.5393 51.049 65.46C50.9839 65.3777 50.8782 65.3246 50.732 65.3005ZM49.5923 67.1083L50.5166 67.2604C50.6698 67.2857 50.7925 67.2683 50.8846 67.2084C50.9802 67.149 51.0388 67.0532 51.0606 66.9209C51.0813 66.7955 51.0555 66.6912 50.9834 66.6078C50.9148 66.525 50.8039 66.471 50.6507 66.4457L49.7264 66.2936L49.5923 67.1083Z" fill="#92A2BB"/>
<path d="M59.2583 55.6631C59.2125 55.9416 59.0737 56.164 58.842 56.3302C58.6103 56.4964 58.3552 56.5566 58.0767 56.5107C57.7981 56.4649 57.5758 56.3261 57.4096 56.0944C57.2434 55.8627 57.1832 55.6076 57.2291 55.3291C57.2749 55.0505 57.4137 54.8282 57.6454 54.662C57.8771 54.4958 58.1322 54.4356 58.4107 54.4815C58.6892 54.5273 58.9116 54.6661 59.0778 54.8978C59.244 55.1295 59.3042 55.3846 59.2583 55.6631ZM58.5549 59.9365C58.509 60.215 58.3702 60.4374 58.1385 60.6036C57.9068 60.7698 57.6517 60.83 57.3732 60.7841C57.0947 60.7383 56.8723 60.5995 56.7061 60.3678C56.5399 60.1361 56.4797 59.881 56.5256 59.6025C56.5714 59.3239 56.7102 59.1016 56.9419 58.9354C57.1736 58.7692 57.4287 58.709 57.7072 58.7549C57.9858 58.8007 58.2081 58.9395 58.3743 59.1712C58.5405 59.4029 58.6007 59.658 58.5549 59.9365Z" fill="#285CB6"/>
<path d="M66.463 62.2927C65.4205 62.1211 64.6656 61.5923 64.1985 60.7062C63.7419 59.8055 63.6211 58.7026 63.8359 57.3975C64.0507 56.0924 64.5181 55.0904 65.238 54.3916C65.9658 53.694 66.851 53.4311 67.8935 53.6027C68.9519 53.7769 69.706 54.3097 70.156 55.2011C70.6139 56.0939 70.7354 57.1928 70.5205 58.4979C70.3057 59.803 69.8377 60.8089 69.1165 61.5158C68.4059 62.208 67.5214 62.4669 66.463 62.2927ZM68.8852 58.2287C69.0319 57.3374 68.9967 56.6328 68.7795 56.1148C68.5703 55.5981 68.1872 55.2939 67.6302 55.2022C67.0731 55.1105 66.6127 55.2758 66.2489 55.6982C65.8852 56.1205 65.6299 56.7774 65.4832 57.6687C65.3365 58.5599 65.3677 59.2639 65.5769 59.7806C65.7874 60.2893 66.1712 60.5895 66.7282 60.6812C67.2853 60.7729 67.7457 60.6076 68.1095 60.1852C68.4812 59.7642 68.7398 59.112 68.8852 58.2287ZM76.1928 59.26C76.8887 59.8486 77.164 60.5846 77.0186 61.4679C76.8915 62.2398 76.5207 62.8041 75.9062 63.1607C75.2997 63.5185 74.5349 63.6215 73.6117 63.4695C72.6807 63.3162 71.9852 62.9729 71.5254 62.4395C71.0656 61.9061 70.8992 61.2534 71.0263 60.4815C71.1704 59.6061 71.6631 58.9966 72.5043 58.6528C71.9915 58.1434 71.796 57.5186 71.9178 56.7785C72.0449 56.0066 72.4024 55.4483 72.9904 55.1038C73.5864 54.7605 74.2704 54.6524 75.0423 54.7795C75.8221 54.9079 76.4314 55.2288 76.8699 55.7424C77.3165 56.2573 77.4762 56.9007 77.3491 57.6726C77.2273 58.4127 76.8418 58.9418 76.1928 59.26ZM75.7 57.4869C75.7498 57.1845 75.6896 56.9294 75.5195 56.7216C75.3494 56.5138 75.1051 56.3837 74.7868 56.3313C74.4685 56.2789 74.1955 56.3238 73.9677 56.4662C73.7399 56.6085 73.6011 56.8308 73.5514 57.1332C73.5003 57.4436 73.5598 57.7027 73.7299 57.9105C73.9001 58.1183 74.1443 58.2485 74.4626 58.3009C74.7809 58.3533 75.0539 58.3083 75.2817 58.166C75.5095 58.0236 75.6489 57.7973 75.7 57.4869ZM74.909 61.7705C75.1898 61.6042 75.3597 61.342 75.4186 60.9839C75.4776 60.6258 75.4001 60.3269 75.1861 60.0874C74.9735 59.8398 74.6603 59.682 74.2464 59.6139C73.8326 59.5458 73.4853 59.5949 73.2046 59.7612C72.9251 59.9195 72.7559 60.1777 72.697 60.5358C72.638 60.8939 72.7149 61.1968 72.9275 61.4443C73.1402 61.6918 73.4534 61.8496 73.8672 61.9177C74.281 61.9858 74.6283 61.9368 74.909 61.7705Z" fill="#285CB6"/>
<path d="M64.3883 67.2053L64.7852 67.2706L64.3554 69.8818L64.0107 69.8251L64.3537 67.7413L63.1956 69.074L63.1539 69.0672L62.4841 67.4336L62.1411 69.5173L61.7964 69.4605L62.2263 66.8494L62.6232 66.9147L63.2702 68.4909L64.3883 67.2053ZM65.5294 69.4582L67.4167 67.7038L67.7091 67.7519L67.2793 70.3631L66.9346 70.3064L67.2656 68.2958L65.3784 70.0502L65.0859 70.0021L65.5157 67.3909L65.8604 67.4476L65.5294 69.4582ZM70.0993 69.3147L70.2868 68.1763L70.6314 68.233L70.2016 70.8442L69.8569 70.7874L70.0443 69.649L68.5403 69.4014L68.3529 70.5399L68.0082 70.4831L68.438 67.8719L68.7827 67.9287L68.5953 69.0671L70.0993 69.3147ZM72.0341 70.7114L73.2404 68.6625L73.6059 68.7226L72.019 71.3901C71.871 71.6375 71.6912 71.8171 71.4797 71.9289C71.2711 72.0447 71.0551 72.0753 70.8317 72.0207L70.885 71.6969C71.192 71.7868 71.4603 71.645 71.6898 71.2715L71.7844 71.1208L71.047 68.3014L71.4125 68.3616L72.0341 70.7114ZM73.7092 68.7396L75.9026 69.1007L75.8475 69.4349L74.9232 69.2828L74.5484 71.5597L74.2037 71.503L74.5785 69.226L73.6541 69.0739L73.7092 68.7396Z" fill="#92A2BB"/>
<path d="M83.9741 59.7318C83.9283 60.0103 83.7895 60.2327 83.5578 60.3989C83.3261 60.5651 83.071 60.6253 82.7925 60.5794C82.514 60.5336 82.2916 60.3948 82.1254 60.1631C81.9592 59.9314 81.899 59.6763 81.9449 59.3978C81.9907 59.1192 82.1295 58.8969 82.3612 58.7307C82.5929 58.5645 82.848 58.5043 83.1265 58.5502C83.4051 58.596 83.6274 58.7348 83.7936 58.9665C83.9598 59.1982 84.02 59.4533 83.9741 59.7318ZM83.2707 64.0052C83.2248 64.2837 83.0861 64.5061 82.8544 64.6723C82.6227 64.8385 82.3675 64.8987 82.089 64.8528C81.8105 64.807 81.5881 64.6682 81.4219 64.4365C81.2557 64.2048 81.1956 63.9497 81.2414 63.6712C81.2873 63.3926 81.426 63.1703 81.6577 63.0041C81.8894 62.8379 82.1445 62.7777 82.4231 62.8236C82.7016 62.8694 82.924 63.0082 83.0902 63.2399C83.2564 63.4716 83.3165 63.7267 83.2707 64.0052Z" fill="#285CB6"/>
<path d="M97.8287 60.0999L95.9309 61.8717C96.4844 62.1345 96.8975 62.5049 97.1702 62.983C97.4509 63.4624 97.5435 63.9926 97.4478 64.5735C97.3064 65.433 96.9052 66.0576 96.2444 66.4474C95.5994 66.8398 94.8552 66.9666 94.0117 66.8277C93.3512 66.719 92.7911 66.4715 92.3316 66.0853C91.8734 65.6911 91.5754 65.1925 91.4376 64.5895L92.9798 64.0096C93.0727 64.687 93.505 65.0892 94.2769 65.2163C94.6987 65.2857 95.0414 65.2399 95.3049 65.079C95.5777 64.9114 95.7429 64.6525 95.8006 64.3023C95.8569 63.9601 95.7827 63.6659 95.578 63.4197C95.3813 63.1748 95.0721 63.0177 94.6503 62.9483L94.2922 62.8893L93.8167 61.8302L95.8177 59.9527L92.547 59.4143L92.8005 57.8745L98.0527 58.7391L97.8287 60.0999ZM98.3639 59.5872L100.688 59.1729L102.12 59.4087L100.745 67.7645L99.0976 67.4933L100.186 60.8803L98.5379 61.0626L98.3639 59.5872Z" fill="#285CB6"/>
<path d="M87.7187 73.7922C87.3253 73.7275 87.0195 73.543 86.8014 73.2389C86.5844 72.9279 86.5074 72.5808 86.5705 72.1979C86.6341 71.8114 86.818 71.5091 87.1221 71.291C87.4267 71.0694 87.7758 70.9909 88.1692 71.0557C88.4268 71.0981 88.6481 71.1989 88.8328 71.358C89.0182 71.5137 89.1407 71.7037 89.2003 71.9281L88.8916 72.0436C88.8478 71.8754 88.755 71.7332 88.6132 71.6169C88.4755 71.4977 88.3092 71.422 88.1142 71.3899C87.8252 71.3424 87.5649 71.4032 87.3332 71.5725C87.1021 71.7382 86.9627 71.9656 86.9152 72.2546C86.8682 72.5401 86.927 72.8019 87.0916 73.04C87.2574 73.2711 87.4848 73.4104 87.7737 73.458C87.9652 73.4895 88.145 73.4726 88.3131 73.4073C88.4847 73.3426 88.6272 73.2373 88.7406 73.0915L89.0003 73.3059C88.858 73.497 88.6723 73.6363 88.4434 73.7238C88.2144 73.8112 87.9729 73.8341 87.7187 73.7922ZM91.0148 71.5241C91.4047 71.5883 91.6937 71.7771 91.8816 72.0906C92.0772 72.4017 92.1443 72.7435 92.0829 73.116C92.0801 73.1334 92.0677 73.1868 92.0458 73.2762L89.7532 72.8988C89.7451 73.1657 89.8221 73.3929 89.9843 73.5805C90.1465 73.7681 90.3686 73.8851 90.6506 73.9316C91.0475 73.9969 91.3522 73.8951 91.5645 73.6261L91.8382 73.8535C91.6923 74.0226 91.5096 74.1445 91.2899 74.2192C91.0742 74.291 90.8411 74.3062 90.5904 74.2649C90.1796 74.1973 89.8665 74.0135 89.6513 73.7134C89.4361 73.4134 89.3611 73.0649 89.4265 72.668C89.4912 72.2746 89.6719 71.97 89.9685 71.7542C90.2656 71.5349 90.6144 71.4582 91.0148 71.5241ZM90.9597 71.8584C90.6882 71.8136 90.4469 71.8562 90.2361 71.986C90.0286 72.1163 89.886 72.3092 89.8082 72.5646L91.7562 72.8852C91.7637 72.6004 91.6928 72.3688 91.5434 72.1904C91.3875 72.0074 91.193 71.8968 90.9597 71.8584ZM93.3518 73.2605L94.5278 74.8488L94.0683 74.7731L92.9699 73.2996L92.7627 74.5582L92.418 74.5014L92.8479 71.8902L93.1925 71.947L93.0025 73.1011L94.4355 72.1516L94.9055 72.229L93.3518 73.2605ZM96.0003 74.6567L97.2065 72.6078L97.5721 72.6679L95.9851 75.3354C95.8371 75.5828 95.6573 75.7624 95.4458 75.8742C95.2372 75.99 95.0212 76.0206 94.7978 75.966L94.8511 75.6422C95.1581 75.7321 95.4264 75.5903 95.6559 75.2168L95.7505 75.0661L95.0131 72.2467L95.3787 72.3069L96.0003 74.6567ZM99.6499 74.1793L99.8374 73.0408L100.182 73.0976L99.7522 75.7088L99.4075 75.652L99.5949 74.5135L98.0909 74.266L97.9035 75.4044L97.5588 75.3477L97.9886 72.7365L98.3333 72.7932L98.1459 73.9317L99.6499 74.1793ZM103.104 73.5786L102.729 75.8556L103.095 75.9158L102.925 76.9498L102.58 76.8931L102.695 76.1933L100.565 75.8425L100.449 76.5423L100.105 76.4856L100.275 75.4515L100.594 75.504C100.81 75.2965 100.953 74.9821 101.022 74.5608L101.235 73.2709L103.104 73.5786ZM101.011 75.5728L102.385 75.7989L102.705 73.8561L101.524 73.6618L101.367 74.6175C101.301 75.0214 101.182 75.3398 101.011 75.5728Z" fill="#92A2BB"/>
</g>
</g>
<defs>
<filter id="filter0_d_138_1905" x="-0.711056" y="-0.711056" width="136.233" height="100.694" filterUnits="userSpaceOnUse" color-interpolation-filters="sRGB">
<feFlood flood-opacity="0" result="BackgroundImageFix"/>
<feColorMatrix in="SourceAlpha" type="matrix" values="0 0 0 0 0 0 0 0 0 0 0 0 0 0 0 0 0 0 127 0" result="hardAlpha"/>
<feOffset dx="3.1407" dy="3.1407"/>
<feGaussianBlur stdDeviation="3.92588"/>
<feComposite in2="hardAlpha" operator="out"/>
<feColorMatrix type="matrix" values="0 0 0 0 0.254808 0 0 0 0 0.254808 0 0 0 0 0.254808 0 0 0 0.25 0"/>
<feBlend mode="normal" in2="BackgroundImageFix" result="effect1_dropShadow_138_1905"/>
<feBlend mode="normal" in="SourceGraphic" in2="effect1_dropShadow_138_1905" result="shape"/>
</filter>
<clipPath id="clip0_138_1905">
<rect x="15.0234" y="4" width="110.98" height="67.8657" rx="6.04876" transform="rotate(9.34801 15.0234 4)" fill="white"/>
</clipPath>
<clipPath id="clip1_138_1905">
<rect width="6.04876" height="6.04876" fill="white" transform="translate(21.8794 13.5575) rotate(9.34801)"/>
</clipPath>
</defs>
</svg>
