<svg width="24" height="24" viewBox="0 0 24 24" fill="none" xmlns="http://www.w3.org/2000/svg">
  <path d="M13.75 7.50001L13.17 8.08001L17.08 12.01H4.00001V12.99H17.09L13.17 16.92L13.75 17.5L18.75 12.5L13.75 7.50001Z" fill="#285CB6"/>
  <path d="M20 11V13C20 16.87 16.87 20 13 20H6C2.13 20 -1.90735e-06 16.87 -1.90735e-06 13L-1.90735e-06 6C-1.90735e-06 2.13 2.13 -1.90735e-06 6 -1.90735e-06L13 -1.90735e-06C16.87 -1.90735e-06 20 3.13 20 7V9H18V7C18 4.24 15.76 2 13 2H6C3.24 2 2 4.24 2 7V13C2 15.76 4.24 18 7 18H13C15.76 18 18 15.76 18 13V11H20Z" fill="#285CB6"/>
</svg> 