<svg width="24" height="24" viewBox="0 0 24 24" fill="none" xmlns="http://www.w3.org/2000/svg">
  <path d="M12 2C6.48 2 2 6.48 2 12C2 17.52 6.48 22 12 22C17.52 22 22 17.52 22 12C22 6.48 17.52 2 12 2ZM12 17.5C9.51 17.5 7.5 15.49 7.5 13C7.5 10.51 9.51 8.5 12 8.5C14.49 8.5 16.5 10.51 16.5 13C16.5 15.49 14.49 17.5 12 17.5ZM12 10.5C10.62 10.5 9.5 11.62 9.5 13C9.5 14.38 10.62 15.5 12 15.5C13.38 15.5 14.5 14.38 14.5 13C14.5 11.62 13.38 10.5 12 10.5ZM12 7.5C11.17 7.5 10.5 6.83 10.5 6C10.5 5.17 11.17 4.5 12 4.5C12.83 4.5 13.5 5.17 13.5 6C13.5 6.83 12.83 7.5 12 7.5ZM17 7C16.17 7 15.5 6.33 15.5 5.5C15.5 4.67 16.17 4 17 4C17.83 4 18.5 4.67 18.5 5.5C18.5 6.33 17.83 7 17 7ZM7 7C6.17 7 5.5 6.33 5.5 5.5C5.5 4.67 6.17 4 7 4C7.83 4 8.5 4.67 8.5 5.5C8.5 6.33 7.83 7 7 7Z" fill="#285CB6"/>
</svg> 