<svg width="24" height="24" viewBox="0 0 24 24" fill="none" xmlns="http://www.w3.org/2000/svg">
  <path d="M11.9998 2C7.02977 2 2.99977 6.03 2.99977 11C2.99977 13.57 4.02977 15.88 5.70977 17.54C5.62977 18.86 5.18977 20.01 4.39977 20.8C4.28977 20.91 4.22977 21.06 4.21977 21.21C4.20977 21.37 4.25977 21.52 4.34977 21.65C4.52977 21.89 4.81977 22 5.11977 22C5.15977 22 5.19977 22 5.23977 21.99C7.11977 21.69 8.65977 20.78 9.78977 19.5C10.4998 19.82 11.2398 20 11.9998 20C16.9698 20 20.9998 15.97 20.9998 11C20.9998 6.03 16.9698 2 11.9998 2ZM13.9998 15H9.99977V13H13.9998V15ZM13.9998 11H9.99977V9H13.9998V11ZM13.9998 7H9.99977V5H13.9998V7Z" fill="#285CB6"/>
</svg> 